<svg viewBox="0 0 1513 400" xmlns="http://www.w3.org/2000/svg"><g><g><g><g><g><line x1="40" y1="377.30110691550595" x2="35" y2="377.30110691550595" style="visibility: inherit;" fill="rgb(0, 0, 0)" stroke="rgb(204, 204, 204)" stroke-width="1px"></line><line x1="40" y1="341.8023207608246" x2="35" y2="341.8023207608246" style="visibility: inherit;" fill="rgb(0, 0, 0)" stroke="rgb(204, 204, 204)" stroke-width="1px"></line><line x1="40" y1="306.3035346061433" x2="35" y2="306.3035346061433" style="visibility: inherit;" fill="rgb(0, 0, 0)" stroke="rgb(204, 204, 204)" stroke-width="1px"></line><line x1="40" y1="270.804748451462" x2="35" y2="270.804748451462" style="visibility: inherit;" fill="rgb(0, 0, 0)" stroke="rgb(204, 204, 204)" stroke-width="1px"></line><line x1="40" y1="235.30596229678065" x2="35" y2="235.30596229678065" style="visibility: inherit;" fill="rgb(0, 0, 0)" stroke="rgb(204, 204, 204)" stroke-width="1px"></line><line x1="40" y1="199.80717614209934" x2="35" y2="199.80717614209934" style="visibility: inherit;" fill="rgb(0, 0, 0)" stroke="rgb(204, 204, 204)" stroke-width="1px"></line><line x1="40" y1="164.30838998741802" x2="35" y2="164.30838998741802" style="visibility: inherit;" fill="rgb(0, 0, 0)" stroke="rgb(204, 204, 204)" stroke-width="1px"></line><line x1="40" y1="128.80960383273674" x2="35" y2="128.80960383273674" style="visibility: inherit;" fill="rgb(0, 0, 0)" stroke="rgb(204, 204, 204)" stroke-width="1px"></line><line x1="40" y1="93.3108176780554" x2="35" y2="93.3108176780554" style="visibility: inherit;" fill="rgb(0, 0, 0)" stroke="rgb(204, 204, 204)" stroke-width="1px"></line><line x1="40" y1="57.81203152337406" x2="35" y2="57.81203152337406" style="visibility: inherit;" fill="rgb(0, 0, 0)" stroke="rgb(204, 204, 204)" stroke-width="1px"></line><line x1="40" y1="22.313245368692776" x2="35" y2="22.313245368692776" style="visibility: inherit;" fill="rgb(0, 0, 0)" stroke="rgb(204, 204, 204)" stroke-width="1px"></line></g><g transform="translate(30, 0)"><text x="0" y="377.30110691550595" dx="0em" dy="0.3em" style="text-anchor: end; visibility: hidden; font-family: &quot;Helvetica Neue&quot;, sans-serif; font-size: 12px; font-weight: 200;" fill="rgb(50, 49, 63)" stroke="none" stroke-width="1px">0</text><text x="0" y="341.8023207608246" dx="0em" dy="0.3em" style="text-anchor: end; visibility: inherit; font-family: &quot;Helvetica Neue&quot;, sans-serif; font-size: 12px; font-weight: 200;" fill="rgb(50, 49, 63)" stroke="none" stroke-width="1px">0.2</text><text x="0" y="306.3035346061433" dx="0em" dy="0.3em" style="text-anchor: end; visibility: inherit; font-family: &quot;Helvetica Neue&quot;, sans-serif; font-size: 12px; font-weight: 200;" fill="rgb(50, 49, 63)" stroke="none" stroke-width="1px">0.4</text><text x="0" y="270.804748451462" dx="0em" dy="0.3em" style="text-anchor: end; visibility: inherit; font-family: &quot;Helvetica Neue&quot;, sans-serif; font-size: 12px; font-weight: 200;" fill="rgb(50, 49, 63)" stroke="none" stroke-width="1px">0.6</text><text x="0" y="235.30596229678065" dx="0em" dy="0.3em" style="text-anchor: end; visibility: inherit; font-family: &quot;Helvetica Neue&quot;, sans-serif; font-size: 12px; font-weight: 200;" fill="rgb(50, 49, 63)" stroke="none" stroke-width="1px">0.8</text><text x="0" y="199.80717614209934" dx="0em" dy="0.3em" style="text-anchor: end; visibility: inherit; font-family: &quot;Helvetica Neue&quot;, sans-serif; font-size: 12px; font-weight: 200;" fill="rgb(50, 49, 63)" stroke="none" stroke-width="1px">1</text><text x="0" y="164.30838998741802" dx="0em" dy="0.3em" style="text-anchor: end; visibility: inherit; font-family: &quot;Helvetica Neue&quot;, sans-serif; font-size: 12px; font-weight: 200;" fill="rgb(50, 49, 63)" stroke="none" stroke-width="1px">1.2</text><text x="0" y="128.80960383273674" dx="0em" dy="0.3em" style="text-anchor: end; visibility: inherit; font-family: &quot;Helvetica Neue&quot;, sans-serif; font-size: 12px; font-weight: 200;" fill="rgb(50, 49, 63)" stroke="none" stroke-width="1px">1.4</text><text x="0" y="93.3108176780554" dx="0em" dy="0.3em" style="text-anchor: end; visibility: inherit; font-family: &quot;Helvetica Neue&quot;, sans-serif; font-size: 12px; font-weight: 200;" fill="rgb(50, 49, 63)" stroke="none" stroke-width="1px">1.6</text><text x="0" y="57.81203152337406" dx="0em" dy="0.3em" style="text-anchor: end; visibility: inherit; font-family: &quot;Helvetica Neue&quot;, sans-serif; font-size: 12px; font-weight: 200;" fill="rgb(50, 49, 63)" stroke="none" stroke-width="1px">1.8</text><text x="0" y="22.313245368692776" dx="0em" dy="0.3em" style="text-anchor: end; visibility: inherit; font-family: &quot;Helvetica Neue&quot;, sans-serif; font-size: 12px; font-weight: 200;" fill="rgb(50, 49, 63)" stroke="none" stroke-width="1px">2</text></g><line x1="40" y1="0" x2="40" y2="378" fill="rgb(0, 0, 0)" stroke="rgb(204, 204, 204)" stroke-width="1px"></line></g></g><g transform="translate(40, 0)" clip-path="url(#clip_0)"><clipPath id="clip_0"><rect width="1473" height="378"></rect></clipPath><g><g><g><line x1="7.87637368400374" y1="0" x2="7.87637368400374" y2="378" fill="rgb(0, 0, 0)" stroke="rgb(60, 60, 60)" stroke-width="1px" opacity="0.25"></line><line x1="218.85653487975082" y1="0" x2="218.85653487975082" y2="378" fill="rgb(0, 0, 0)" stroke="rgb(60, 60, 60)" stroke-width="1px" opacity="0.25"></line><line x1="429.8366960754979" y1="0" x2="429.8366960754979" y2="378" fill="rgb(0, 0, 0)" stroke="rgb(60, 60, 60)" stroke-width="1px" opacity="0.25"></line><line x1="640.816857271245" y1="0" x2="640.816857271245" y2="378" fill="rgb(0, 0, 0)" stroke="rgb(60, 60, 60)" stroke-width="1px" opacity="0.25"></line><line x1="851.7970184669921" y1="0" x2="851.7970184669921" y2="378" fill="rgb(0, 0, 0)" stroke="rgb(60, 60, 60)" stroke-width="1px" opacity="0.25"></line><line x1="1062.7771796627392" y1="0" x2="1062.7771796627392" y2="378" fill="rgb(0, 0, 0)" stroke="rgb(60, 60, 60)" stroke-width="1px" opacity="0.25"></line><line x1="1273.7573408584863" y1="0" x2="1273.7573408584863" y2="378" fill="rgb(0, 0, 0)" stroke="rgb(60, 60, 60)" stroke-width="1px" opacity="0.25"></line></g><g><line x1="0" y1="377.30110691550595" x2="1473" y2="377.30110691550595" fill="rgb(0, 0, 0)" stroke="rgb(60, 60, 60)" stroke-width="1px" opacity="0.25"></line><line x1="0" y1="341.8023207608246" x2="1473" y2="341.8023207608246" fill="rgb(0, 0, 0)" stroke="rgb(60, 60, 60)" stroke-width="1px" opacity="0.25"></line><line x1="0" y1="306.3035346061433" x2="1473" y2="306.3035346061433" fill="rgb(0, 0, 0)" stroke="rgb(60, 60, 60)" stroke-width="1px" opacity="0.25"></line><line x1="0" y1="270.804748451462" x2="1473" y2="270.804748451462" fill="rgb(0, 0, 0)" stroke="rgb(60, 60, 60)" stroke-width="1px" opacity="0.25"></line><line x1="0" y1="235.30596229678065" x2="1473" y2="235.30596229678065" fill="rgb(0, 0, 0)" stroke="rgb(60, 60, 60)" stroke-width="1px" opacity="0.25"></line><line x1="0" y1="199.80717614209934" x2="1473" y2="199.80717614209934" fill="rgb(0, 0, 0)" stroke="rgb(60, 60, 60)" stroke-width="1px" opacity="0.25"></line><line x1="0" y1="164.30838998741802" x2="1473" y2="164.30838998741802" fill="rgb(0, 0, 0)" stroke="rgb(60, 60, 60)" stroke-width="1px" opacity="0.25"></line><line x1="0" y1="128.80960383273674" x2="1473" y2="128.80960383273674" fill="rgb(0, 0, 0)" stroke="rgb(60, 60, 60)" stroke-width="1px" opacity="0.25"></line><line x1="0" y1="93.3108176780554" x2="1473" y2="93.3108176780554" fill="rgb(0, 0, 0)" stroke="rgb(60, 60, 60)" stroke-width="1px" opacity="0.25"></line><line x1="0" y1="57.81203152337406" x2="1473" y2="57.81203152337406" fill="rgb(0, 0, 0)" stroke="rgb(60, 60, 60)" stroke-width="1px" opacity="0.25"></line><line x1="0" y1="22.313245368692776" x2="1473" y2="22.313245368692776" fill="rgb(0, 0, 0)" stroke="rgb(60, 60, 60)" stroke-width="1px" opacity="0.25"></line></g></g></g><g><g><line x1="0" y1="377.30110691550595" x2="1473" y2="377.30110691550595" fill="rgb(0, 0, 0)" stroke="rgb(153, 153, 153)" stroke-width="1.5px"></line></g></g><g><g><line x1="7.87637368400374" y1="0" x2="7.87637368400374" y2="378" fill="rgb(0, 0, 0)" stroke="rgb(153, 153, 153)" stroke-width="1.5px"></line></g></g><g><g><g><g><g><path stroke="rgb(255, 112, 67)" stroke-width="2px" d="M7.87637368400374,241.28320849025863L8.440159559199042,286.2545798952092L10.6051676466694,228.97394334185947L11.179033685121832,207.26767667882066L12.906843994114336,231.138854160771L13.45023512039405,236.9980770286093L15.157064624467644,243.24334087526543L15.746402541407765,251.45548553541119L16.31546292063296,251.00587428489638L18.651247727471212,249.60884241256713L25.630471459826524,250.3637796241544L27.874831530146615,255.55761891045256L29.010256430981723,250.71474679109184L30.152831215057358,250.53606071619555L30.71216306462742,252.73582136682035L31.799296950788836,249.81691380161146L32.90119944823396,249.14972361249735L35.070661561329565,247.380260292372L35.61288057560263,247.82032961797776L36.16025688270493,242.44692227951865L36.70798482340922,240.4428071523012L37.25665045371883,238.61340000941183L40.57114878610402,235.5046971426818L41.68324865800693,232.211843180961L42.21456703061822,231.85760542093237L42.74365839041689,224.5740669656632L43.2755628190315,219.6278143719309L44.884755392951725,221.74835798665575L45.424981816813506,224.20845763614005L45.97083437830717,225.33521371142308L46.509654267760965,221.9975616477925L49.22450009754758,224.20673616547617L52.26390374197365,219.20560451667347L53.99792624460136,215.92036750013736L54.552804068546166,209.10236641067016L57.85194773364434,207.9291341014067L62.97560094828305,206.02562681412553L64.90231866480288,205.57294286169136L65.63746731536939,207.73497577895554L70.1333373392501,210.55696888579973L72.12428679373397,209.63167755157303L73.41173462183067,208.6518806313854L78.0973695795869,208.02002061904855L78.78164856906511,212.63100968127517L80.5475525182735,217.03368854076095L81.09059201095123,221.34815255416225L84.88671116686604,225.47367724622694L85.95954528654642,229.35802789080006L87.04433494869454,232.93677440062407L87.5901875101882,236.58823641914827L88.13615728288254,240.07995924236067L91.96028991575612,243.14282878609038L94.70455575690946,246.26558349638358L95.84642727378112,249.17452009329276L96.38782580964954,252.06004181064964L98.83812595953682,250.43835829013358L100.4618527223394,244.55825762711L101.53984413484902,239.65837232286367L102.05967580979521,238.1609355574311L103.64507450998059,239.3761397281268L106.79500831663307,242.38452714723715L107.32105218521447,245.0457613646737L108.37407761198257,247.8664580340076L109.94400443368026,250.59633556630007L110.98741854199392,252.818277180305L111.5147517337826,255.38562920812114L112.58500720704835,257.85925512829357L113.66100602914668,260.27132676312897L114.19279324656064,262.4155149079469L117.86373084016596,264.68962516337217L122.07876282725499,266.7582342429393L122.60457227343504,268.78031409603597L123.12698259479586,270.86714141677095L125.46429114724273,272.8953009374916L131.56712673223106,274.86639828063414L132.18541581573527,276.60178141340725L133.39573867379485,277.5841043606816L135.83701356123098,277.89600779461307L137.67687777805858,278.3894802309363L138.283914586299,279.44400923150243L138.89681195457266,281.08128240714075L140.70924875044477,282.79385202894315L147.0419354999358,279.3500751300525L148.11980970124472,277.9185790753973L151.3923464237921,279.4941013934198L153.01267406177544,277.7320012952834L154.09453344390695,274.4522591891481L154.6365180357787,273.5627693208535L155.72447240034475,272.68341504192426L157.85818509723774,273.8132332453833L159.98556838929488,275.37812244669465L161.07141295224898,276.7858357154689L163.749102831425,278.38692201755805L166.957525027209,279.9070548198515L170.68624774274184,281.33729281465145L171.23057655862686,282.7759216273289L174.10775990133354,283.7966650442297L174.63896106274416,285.24989283263324L176.19869050998406,286.5929162408706L176.73329079621394,288.0208611114376L177.27879172410562,289.15617382530854L179.42867956669028,290.4020982890629L179.97218790417065,291.5449324999734L181.0302534125673,292.62605732444996L182.6021728246763,293.92951506338034L185.3031877327845,295.1954844471135L185.83333399338918,296.2744300504868L186.668581009323,297.48817840520064L187.73367918975953,294.5048571559944L189.3341981348306,290.8941283901924L189.87454176989306,287.90937571261526L190.4092592673236,285.52760950446816L192.04623089580124,283.8910432339427L193.68671886029887,282.0628931389747L196.94542466116786,280.1243126136809L198.00794419518976,278.1833137820437L199.648197737286,274.62660616086055L200.19217491956903,275.0408004501084L201.27286218969394,276.16603575810745L201.97038604484723,276.5464871770918L205.14376209163257,274.6691790573197L205.79041628569752,273.5371411889387L209.60833672493592,271.9640276309749L211.48781832758806,272.6275039975189L214.0324734940101,272.669113953791L216.58029336285003,270.61861643496985L217.86070851890693,269.33854635787026L220.44310569194283,270.81501854636684L221.09140084281708,272.2123420907174L221.72445853760502,273.6499067727921L222.87781675214177,274.7893155954209L225.63544467017084,276.18057858803036L226.18457914528307,277.17633507625135L228.37537369689963,278.5618565073544L228.92849335283447,279.6589061770168L229.50118727928023,280.84249675423115L235.6294576948127,279.1314687816448L238.49140358143302,275.9713031913587L242.4708410551868,272.95953737788784L243.0448243048399,272.446148796208L245.82308139418592,271.53137549839823L246.3418581683261,271.4269487166593L247.41914631363173,272.3109694036584L248.46127109873805,273.49943704449424L250.5356749280949,274.7031255835421L255.2121674121993,276.03436993228274L256.2409301204299,277.34036574077226L256.7414219472665,278.58829509617505L258.2985727480917,279.811396955879L261.44698280913565,281.04936652172063L265.6110279239357,282.2697931087653L266.13859553812574,283.2491479802063L266.669562277135,284.4259228971915L267.70441996780016,285.48902293718254L268.23233921559216,285.85872021527103L269.77003295710716,286.72385374061327L270.2816598480069,287.80426877181526L272.91211361331517,288.7601806297225L273.43159365465937,289.7965778593551L279.5904561935652,288.20362873004325L281.2260212876349,287.4305560434402L281.7756246075498,287.665236626735L282.88467698823547,286.53495191232287L283.9697010727849,284.76217920971885L285.6382025142413,282.89874409204424L291.6623893835839,283.2501452907688L293.79750861488486,281.46199649854L294.31288626420576,279.3710517281098L295.375640220629,280.40411219322726L296.96443804563364,280.87142708681586L298.03867869972197,281.31323571769826L300.7089842732562,281.4678123830797L301.2352625642389,280.7627935702917L304.3926978877339,281.254546006587L305.45029455132794,282.4166257881095L305.98618416076516,283.36110412304765L307.05585357802755,284.4726294631208L307.58224908021094,285.58534404567007L308.108410159993,286.5552959108748L309.2014046061876,287.6363509255757L310.30928487486665,288.2743013696629L312.93833210576696,289.3339442193359L313.4685955775723,290.225033331974L314.0014376957923,291.16856970465693L315.06161300580084,292.1864865171714L317.44064874568426,293.16415385241066L318.708170669668,294.15269994042706L319.96279936157873,295.13277831099015L322.9241403463624,292.39902489446126L323.56118322197284,289.82791611978564L324.18181652949033,287.58843307418914L326.7077179038061,284.3180148444182L329.4083811783123,285.2177321614609L330.25511489191126,285.8095815279745L332.3632755470594,286.83792508189373L334.13210977628444,287.64018941980396L335.0665174679803,288.467441491812L335.92508951284634,289.3157272300365L336.60081208467597,290.2222812383675L337.2698536180678,291.17759312715054L337.9685495852278,292.055880087164L339.4588900016744,293.05112856994623L340.3875543445377,293.93988254937807L343.2932200090057,294.8972390423464L343.88595705076517,295.7936647236908L345.6008741276846,296.08830699452426L346.12902779787794,297.0023335722168L347.8549627276598,297.76737908027184L349.02238628627623,298.6527051151934L352.2659718422596,299.3195306452617L353.3730316325339,300.13402801101995L356.27260231456745,300.8110057327061L358.5582207275214,301.6461708212686L359.1115748058575,302.28895774366987L360.2268393801784,303.10559620288427L361.89756783444744,303.94122911052347L366.86134497138005,304.6167625427737L370.90442812709455,305.2618365926865L371.48286540237285,304.2850606900411L372.6289565224684,300.876297559944L373.2034086169242,298.2400793778571L373.82603451485295,296.24416581845986L374.4248665390469,294.0833991766383L375.5063742875764,292.16424515069673L377.0861468501299,290.1080783801199L379.25010003679427,288.5729253242106L379.7670014317239,287.42396564858836L381.86777778123013,287.4492892057685L383.4452061197704,286.6188082707962L385.58888176871983,287.20800946311783L387.165958473658,286.9500135108325L387.6923539758415,286.2067020730952L388.2246100380581,286.079999346695L388.737877885767,285.4087481898005L389.26720366796707,285.24050885212796L390.3567989893424,284.28950544487856L390.86866030264343,282.4966878380883L391.4104104721139,281.2112305647744L392.4567548604441,279.9332726491518L392.9788135482029,279.0301281827561L393.5245488984959,278.69398038718856L394.098883781751,277.9615030193705L395.1716006902307,277.77396340964117L396.2620164900107,277.53194680172476L396.809392797113,277.7306025480224L400.6039882074192,278.81057571607573L402.22501911260645,279.8818637552945L403.2928131506583,280.91895583824885L404.3674054383486,281.7928271595476L405.9791766586835,282.5797905781923L407.35007886165323,283.6066525279986L408.61642867363037,284.5478450552964L411.1459635951666,285.4807249522931L413.6628397070313,286.4523047180377L415.90485555333805,287.4212588890885L416.5189250336183,286.3417022366705L417.1417853539485,285.0361542238514L417.76734153189386,282.48442769853784L421.4939544458148,280.0801233807883L425.23416385901277,277.9192818650002L426.4671084788004,276.19238635596525L427.16017830832845,274.0035587305307L427.70509318021686,272.77024474818415L429.28627227717834,273.5424302325926L430.85784005568536,274.65759855234717L431.3941985099252,275.69301680071476L432.9198194977717,276.78347735365367L433.43590041429667,277.86276653767425L433.95174690842026,278.82259538739083L434.990589779908,279.87311696539336L436.0137263505067,280.91706228781726L439.1678797603832,281.94897570451815L440.71999047957985,282.75400499482384L441.2309141032756,283.6250048796769L442.7339133293939,284.6220592328339L443.27097505083776,285.60981598144224L443.79385421700124,286.5872050149312L444.8420739845421,287.265512862534L445.35581067705374,288.12796591844676L448.45569530102256,289.0706421070913L450.48473839572233,290.0054158042879L451.0039840146652,290.93313645358876L452.01246918518086,291.6306481824767L453.03525412217755,292.41707923484836L454.0621414511976,293.24676855943136L454.572127385288,294.1200921972801L455.08621571140156,295.0004639468525L455.6026482615285,295.8710297212043L456.10185076515785,296.46817843753365L457.6622834796016,297.32616859842443L458.69362483424686,298.13114250924235L460.03674798265916,297.89939473768743L461.59436762828705,296.5621606527644L462.62945974135357,294.41910436077785L463.14776767069105,291.4817829176813L463.66607560002865,289.6640390383978L465.76825848394293,288.2984643605863L466.81120374745393,285.920284007429L467.37194213143187,283.32263281693815L468.4075030893011,281.3892088976012L470.0039196423489,278.7136449280935L472.15861314416077,278.8839409370437L473.7647582268637,276.9577437331893L475.33116871254146,274.62606595594445L475.84865616347446,274.425138622453L476.8926563277913,272.22275686351344L477.92493537204194,269.7738210920294L478.9975350693209,267.5646204337265L481.6759282157009,266.5725802992765L483.30399179292806,267.0427857325174L484.39909604073466,265.817074017943L485.98953482254865,264.6738585159621L490.31591745026884,265.8181856993625L490.86141837816047,266.97210035819535L492.41587332137044,268.096703651184L494.6033859593683,269.11484326293737L495.66156867896564,270.2248998817476L496.2003885684195,271.3389277077071L498.36481059988654,272.4411405690046L499.6904692793998,273.5341520738995L500.32165159497714,274.54036531262886L502.0627067696446,275.4623655884561L503.603448002377,275.37931118448125L504.8067381883966,272.8976877968949L506.55529487990674,271.5032791283686L507.6754823246555,269.6265671287623L508.24630087189075,268.3294443968623L509.37762338070246,266.8124932028194L511.61541962378544,266.54131183134473L513.2969315085155,265.76868586795746L513.853333078069,264.2538232024648L517.7323205528535,263.5599084028209L518.2815722391664,261.0928955897447L518.8443032135557,258.85649635371954L519.4036350631256,256.4960632417842L520.5140939782194,255.58322933117734L521.0799896550266,254.6029686200458L522.2874994442703,253.8140652797645L522.8879724252735,252.95921032776636L523.4722702605851,252.12014603065015L525.1576501149372,251.766125318836L525.7122935164806,251.8368632160606L526.3094845838652,251.26550454084003L526.9371505634225,252.1642179484166L528.1522790807095,253.26212591094506L531.7579300355447,254.37055849785236L532.3497293876987,255.32361585225442L534.0771880630892,255.96274589268825L538.048655175198,255.83018997466942L539.8204196844396,256.50069030379234L543.766451966004,257.5683653179249L544.4222486337208,258.7638546699794L545.051321147686,259.82361439537385L546.2843829786746,260.8385408986198L546.8546154699063,261.8409278061548L547.4196906683089,262.9038334379088L549.1497279901141,264.02264590521037L550.0846045266126,264.8709572222833L551.4058091805007,262.47558606069975L552.5740532175219,259.4659129415527L553.2194180883794,256.8091737463636L555.7359425666419,255.10606831343517L556.346964555705,252.91326984528538L558.8858763732945,251.908270425539L559.4625554805629,250.3920890739072L560.0296232693768,249.38370935040749L560.6252905911529,248.2175831765363L562.3826381227127,245.67110479667042L562.998817404605,242.91605638831106L563.6459404434726,242.06068669992092L565.4205180215301,241.17310931762447L566.0580297419433,241.59918705461203L570.935187801585,239.59135910373328L573.3741184650079,240.9954876715771L574.4982910905791,242.30484355154536L575.924985825065,243.6280050519817L576.5793759583738,244.9921859847043L578.4177164295928,246.345811703681L578.9688434951164,247.50907829758506L580.0797712550126,248.5973453868374L580.6011266755675,249.89984547279943L581.1820253860598,251.1928053481404L581.7731214710097,252.47776547264647L583.5138250120754,253.70581701255085L588.3994222781649,254.9685921698971L589.522657214131,256.2183051353744L590.8164344470636,257.4035137888143L592.0569977948945,258.48090996361736L592.7086920705881,259.4582837342651L594.3909072225222,260.57705038000995L595.5482506178815,261.3294695814934L596.0905868433553,261.3537129438935L596.7325525893935,262.54473599552705L598.7678078777286,263.41665290368485L599.8814314952402,262.3530923899773L604.1536625482534,260.879901399706L604.7531978396513,259.78901309715195L606.459675710123,258.4099048028705L607.5743542284404,256.21733156382146L611.4498253672049,254.10973986785942L612.0484229689976,252.37000032709483L613.1865437274479,249.79408714994565L614.3319315803395,248.9218396051444L616.5690245562184,250.03060810186165L618.7697820598913,251.2553929585594L619.9105986759571,252.51024750367736L621.0229329702613,253.77818695018686L622.6873320196944,254.92942282153007L623.2432647444452,255.97401983963266L623.7899377843436,257.12646901926803L627.6305971965107,258.3245377844207L628.181841473235,259.53105437669853L631.5154452313285,260.7135157977531L632.5956636566507,261.89925429777054L633.657011078666,263.06420727405765L634.1891499296819,264.2202615663749L634.7307828879517,265.30716606679596L639.6058311459814,266.3460143939208L640.7192203410916,267.357343091784L642.3701401024483,268.4708601280256L644.8682624222066,267.928426265308L645.9702821308524,266.88849091191236L646.5398113548803,264.8041992263572L648.8519194991843,264.31297494069554L649.383823927799,264.1801373668086L650.5038941613471,263.59894536969375L651.0357985899616,262.55305746546975L651.5905592027058,261.58128011028737L653.2279996759861,261.27966287013794L653.7642409190254,261.91517683366516L659.6450784899554,260.99177846167424L660.6645815133336,260.13723175675824L661.1987129547608,259.5771201279688L662.7782510949129,258.1440354520719L663.3146095491528,256.9525269412482L663.8339723792964,254.74519194155857L665.4330847899595,254.4857745452054L665.9620589385574,255.71415395737694L666.5115450472716,256.86934130844946L675.3284059836419,258.01010321507516L677.0973574240677,259.21362594774394L678.2667735730954,260.32458858537194L678.8502509300023,261.08805594803863L680.0293956086851,262.15645290174257L680.6209605384379,263.32418927545643L682.4704360737201,264.47665384452614L684.3158092169788,265.6176369224429L684.9058504011228,266.57268408533275L685.5017521453003,267.6962782130928L686.1495784513719,268.45299878243185L687.4197962329708,269.28679182492914L688.6881386353593,270.32699036856064L689.9618727529784,271.03882212114223L691.5655564004674,271.060121714642L692.1954493928373,269.96192784538533L693.5112623314948,268.7905712248472L694.6262924834143,266.52874153057337L695.7809400211584,265.31528128105646L696.3487110771762,263.60782232250585L696.8956185394759,261.73542941058565L697.4358449633377,260.4371322022564L697.999982472135,259.8824642768838L703.6847257043537,257.725849565321L706.0254333816199,255.58490252009167L708.5788793880917,255.45822833005224L709.1874399419407,254.38185821389112L709.7813490957068,254.0286575245818L711.0133560258893,253.22802165513392L712.812313533685,252.26878027797756L714.6015425118256,252.26481814042987L715.7953385905917,251.78937053532815L717.5945305207886,251.3200989074696L718.7911396683705,251.51336391951983L721.1624394690101,251.76526280925128L721.7525978643548,251.87412458095272L722.3476791301275,252.5226001384689L723.5381932952748,251.69653593281149L724.1381974314754,251.48155106211047L725.9550882529728,251.66366878195433L726.5995154342252,251.47113617706282L727.1784215543062,251.19628164971928L727.7793633801119,251.14969966844686L728.9626104508181,252.19285403761614L731.8080295581448,253.43510506042298L733.4610591211134,254.64884186606872L736.2652198858062,255.88519857795072L737.4513972365289,257.09459011569555L740.0899385746831,256.48915526831235L741.2098915970305,255.21084724062803L743.356028681194,253.23052254623548L743.9179391771787,251.71189219003574L744.4683629754983,250.56276429703354L745.0521919660071,248.31279977260587L746.1419044985831,246.8395028035359L747.766568950991,245.53272305045243L748.3181648613174,244.19452084020065L749.6031512542002,243.41881805162305L750.2335130913727,243.7490805284292L754.1232839966183,242.9273876708794L755.1975246507067,243.0731896817796L756.7704989636215,242.7745790551704L757.3048648274502,241.30354779508414L758.9295292798581,240.65747026320784L759.4589722732587,240.18092741501854L762.1079454082719,239.91193466765338L762.6488750993377,238.28076906765492L763.1718714767019,237.60903893841802L764.7861041322507,238.28719912220018L765.8636266999576,237.94268581061712L766.3991646757929,237.02383714485595L766.9309518932067,237.75788500897676L767.4603948866073,238.76406050265498L767.9911272032153,239.67893390718257L768.5111933005629,240.64954375785408L771.680466955325,241.46216027349152L774.3733942905875,242.76240509029674L774.9004930599748,243.3743980955449L775.4748279432298,244.3922761741626L778.1557997360245,244.20792791829606L780.3320600987586,244.65213850270644L781.3871953271388,245.1371095506951L781.9216784021678,245.1357721006684L784.3792456464964,245.15348254179534L786.7197189013613,243.37883496121918L791.2467671046186,243.88265992729063L792.6574039046135,244.10670443057103L794.8705857955568,245.35520702359878L796.4938437135569,246.49424176637126L797.2755252107871,246.31263912042246L799.4623345815811,244.8861244165274L800.1766196384293,242.82040940247828L801.4435555064098,242.12175514034124L802.0946637261001,241.32814625044338L804.0124733913693,241.37762181628256L814.0891203124795,242.52069848645513L814.6602904933168,243.5749322289401L815.2107142916362,244.91734930986902L815.7896204117172,246.1787798637709L817.9779535281197,247.42646731818425L819.5924206060699,248.378358612662L821.8342020299755,249.27813943938295L822.3732563418305,250.54914058414647L822.9206326489328,251.7016414238734L825.0987683908775,252.84067868059745L825.6346580003147,253.9314598018929L826.1733606785679,255.15416160006325L827.2621355215387,256.10612396882277L828.3293435035871,257.153390364871L829.4785993261006,258.3554868719325L830.5928089996155,259.54163388377776L834.6473788529951,257.57781292555643L835.7980412099166,255.6292673185783L838.6917513319169,254.76592771162507L839.2587019095303,255.93544739449436L844.0820600280668,256.79699117517816L844.5991958453978,255.94460510796455L850.432562880059,254.2914655934909L852.6162075484349,255.51080558560187L853.1519799466714,256.7354121578735L854.7308148196195,257.9415704610554L855.2642429938429,259.13939098371014L856.8259650314941,260.2494400453188L857.8806314150712,261.42522440122406L858.40972277487,262.58835671313375L858.9396346130734,263.74152896626754L862.7001215639864,264.88209285022253L863.223938419755,266.0105216224501L863.7527953571524,267.12595477823714L864.2694623296806,268.23149220477535L865.8780688475974,269.32709232557403L866.950199700074,270.4114364807016L867.4639363925857,271.4852946354746L867.9768526066927,272.5468276685858L868.4950433248292,273.5993966060635L871.1258487237398,274.64224624875095L872.1548458543718,275.65045100636223L875.2835644337038,276.67139419570856L875.9025567844124,276.10681350529416L877.6024708276466,274.3071278051074L881.6211740536227,274.20422592045804L882.7264756758874,274.39431422239795L888.0606402069191,275.41493120958535L889.143085645054,276.4190586001898L889.6714737376486,277.3905634245363L890.7366891292857,278.38265657561215L891.2708205707131,279.36243019755136L892.3631117497034,280.23996025002L892.9179895736482,281.1882332211975L895.8976155057358,282.1015080868249L896.4044367374083,283.05811469705435L899.4361044425905,283.88771881677053L899.959218031155,284.8078229027464L904.5405350203202,285.68763122965527L906.592199876748,286.47683676862675L907.6292845802259,287.1038555829024L909.7890181636665,287.80994927120514L913.010216380323,288.5481150114331L914.6117902262,289.4120508643409L915.6492265632796,290.24568902487715L917.2333359402578,290.9055134162985L918.6908572205182,290.24479858464383L919.2648404701715,288.5023282239596L921.548466292714,286.90099365672626L922.1151824479257,284.561602425385L923.2924517473981,282.3585654840887L923.850845907363,279.2690513034662L924.9650555808778,278.2692198687412L926.6271104062974,276.3369275873794L927.1898413806871,273.9743242022711L927.7522207214744,272.11474784433153L930.0053716318442,270.1874585242003L931.0736345146987,268.79832349217344L931.6054217321124,267.61685584832395L932.1301762774867,266.65586563341253L933.227507538106,266.978019694408L934.346522870848,266.7925162162493L935.4295543649863,266.4853974511947L937.1091908705058,266.0455537894842L938.6923625578783,267.0428070416002L939.2426691449975,268.0327310324574L939.8092680890086,269.12453027646575L941.4267826581761,269.9859311067313L942.462343616045,270.9676391681932L943.0121813583614,271.92425275666005L944.6261795915088,272.71648333544715L945.152340671291,273.746930408945L946.7696208180569,274.3627673612519L948.9091940749832,274.3813728327042L949.4484828092396,274.2957171977289L949.9930460475261,274.77090514934133L953.7824841650031,275.08652514304356L954.8466446558342,275.7062203020721L955.3901529933145,276.63196646131235L955.922409055531,277.5827811854153L957.5346491206684,278.5812142597681L958.0790951477545,279.38894416186906L959.1531013794413,280.35345459691024L961.2806018826992,281.08615257007955L961.8144989017251,281.809993244539L962.6942861739115,281.72374967019744L964.3012517350187,279.12379930078174L966.4829038129835,277.401329959376L967.0314522320923,275.05261063444186L968.1634780081084,273.5331462073957L968.7011257855556,271.0310126513533L969.2476816142531,268.15852552005174L969.7917760077369,267.089703127667L970.8789098938981,265.21208651913906L972.5308845560609,263.7774912181374L973.074510104742,262.52022528467614L973.6237617910547,261.88534825079114L974.1611751461007,261.20447496664724L976.3383731984403,262.293015250299L976.9066130992608,263.44517259819963L979.6384545531438,264.5815468847834L980.6876120102899,265.4420873210214L981.2264318997435,266.56159582919133L981.7673615908096,267.6275024168334L983.9314319886746,268.72241078816944L985.5598471995037,269.6237968348059L986.6223667335257,270.6576986260255L988.2398813026929,270.92680972591575L988.7812798385613,271.92626433994025L989.3239676976369,272.9807227088782L989.8596228846728,273.9858191670131L990.4678318049199,274.9533696706833L991.5056197756019,275.8059491061216L992.5989658553984,276.8125472415678L994.2039388260946,277.7030619728513L994.7447513059599,278.64434153108607L995.8444267905923,279.6315577839503L996.3771516976116,280.54210579861916L996.9162060094669,281.4873992534307L998.5286804970057,282.1756247292956L999.6203856199928,282.57618885714834L1000.1599087766507,283.3762910238903L1000.6823190980114,284.25669879271766L1004.9681466503018,285.1795951536317L1005.485868523636,285.8103644188061L1007.8807277756091,283.9859907930536L1011.1375581972673,282.73724636825426L1013.6368526290324,281.25039191698477L1017.3941748775271,280.5706209555871L1018.0278186283184,280.33839010076076L1019.2927619058877,278.294473337064L1021.7958070960738,277.37707429767926L1022.4147994467821,276.01874927360507L1023.0254698022429,274.6570845329809L1024.2714248653044,273.4938223823134L1024.8981531552568,272.5600391689116L1025.504252273892,270.9895561914719L1027.9717824702768,269.9090209947237L1030.0887339654748,268.5345134418252L1031.156762425928,267.9767060333944L1031.6939413585721,268.1645732507142L1035.994303099745,267.7774029460202L1036.5153068866978,267.44427215240887L1038.1271953182336,266.57844006725486L1039.7395525945717,264.9897281651513L1041.8971763764,263.9595179713913L1042.9965002274305,263.6195496990689L1045.1109902874143,263.14868408666337L1047.799463597052,262.6221078828804L1048.3190608495968,263.4054571597991L1050.6216748866468,264.1093445430007L1051.2639922662872,265.24798272805265L1053.4666251491708,266.0864948756135L1054.0851486550762,265.9826525437892L1054.723832487496,264.2772937718821L1056.6132770422048,262.61711680152877L1058.5153804065849,260.3720341202001L1059.1444529205503,258.41934612552507L1060.411623210932,256.0627033404251L1061.6596880756058,253.6332946348893L1062.2640290262307,251.69569464489987L1062.8664945976452,250.3123119271736L1067.1631055803966,248.75540105603955L1068.424884155548,247.76610122826023L1069.0408290150388,245.559241923615L1072.6792991060602,245.46552139243946L1073.2436710372588,244.30155502556983L1073.7819048707092,245.59692599758392L1074.859544649617,246.81694376296124L1075.9165552572076,248.1231240748297L1077.550479394468,249.3764169331304L1081.3606638944623,250.5858761989677L1081.9055787663508,251.8527527348112L1082.4582295774833,253.10759760023748L1087.3462882787867,254.35111464167196L1089.504615327819,255.5736505417973L1092.2252045064383,256.7925544618391L1092.7658997751025,257.94501241367675L1093.346446851993,259.13926363975315L1094.9973666133496,260.02646001890037L1095.524817016339,261.20090168134664L1096.0735998578493,262.3615507013414L1096.6167565617275,263.34369533235554L1098.7624248010882,264.48387123039765L1099.6229894363657,265.6083564393832L1100.1615749034183,265.78508844605244L1101.7845983990167,264.5769607737036L1102.8716150739779,262.9727622760847L1103.9533572449084,261.2010083426805L1105.0268946317926,259.8035975277308L1105.564190775638,258.19814777409573L1106.0991426954697,256.53264219721206L1107.1690465351337,256.0880497745652L1107.6902847444876,256.88218733938044L1110.333983375471,257.9231991136443L1111.9728303831596,258.8197222460435L1113.0345294387766,259.8884230144104L1114.8521235274782,258.9854351313855L1116.7000753171515,257.1871337821371L1117.311683362218,254.86264843576845L1118.5571695804765,254.02896599995495L1119.8169555652169,253.89214099846816L1123.7087190608734,253.70035798258266L1124.3423628116648,253.4164254976338L1125.5765967546597,254.54582128185623L1126.8511513506835,255.7168260156497L1132.5078811059434,256.7439074483256L1133.1301553702704,257.9356408075265L1133.760868841045,259.0688075141525L1134.3935749022307,260.0187906922004L1141.036285277479,261.00622836474156L1142.1191995604163,262.1636246367358L1143.216061976233,263.3067989129042L1144.3024925951904,264.1745144733125L1146.7643966539435,264.08460212202306L1147.2974731945646,263.495260218271L1147.8469593032787,262.2879538552863L1148.9063141348831,260.1908880662217L1149.4485331491558,258.1113110752543L1151.0554987102635,257.36868664711784L1151.6045159741752,255.7034746399483L1152.1608003325282,254.21343766338242L1153.26035860596,253.72120678918907L1155.9856362326057,253.8340929346704L1157.601744267365,254.19600588902196L1158.7003648511914,254.99127173700634L1159.2250021853652,255.6766676559114L1160.31987201077,256.49349529807967L1161.9321120759075,255.166027303929L1163.5456414642524,254.36848877526498L1164.6246877775682,253.74962687880452L1166.2310672826725,253.97757694502113L1167.9621595052836,254.29518909399928L1168.5069571659712,255.0177962479682L1170.1415845704355,254.67954672856888L1171.2148875349187,255.21896287968036L1171.7614433636163,254.40320412994308L1176.1711631550088,254.93578768969104L1176.7518274430997,254.13612106536996L1177.8381408508565,255.18323134107263L1180.612764392982,256.0392420673659L1183.3518729413058,256.92179417866384L1183.8949124339838,257.502857538135L1184.4354904914474,258.6993355998017L1185.5167638175758,259.864056837907L1186.056404185434,260.80922356793747L1187.153852657254,261.9742242885422L1188.2595059131204,263.1166272962754L1189.8949537959895,264.11533339833113L1190.762433892106,264.601042149704L1192.9371705092315,262.1730508537951L1195.6191972028319,259.527684548091L1196.7237955578926,258.4693762961027L1199.9345619776898,259.6045285481187L1200.490611913641,260.76828904958944L1201.0418561903653,261.9278185064887L1201.559812486101,262.9343477170332L1202.108595327611,264.0745357098399L1203.7108724406921,265.0531118018049L1204.7923801892218,266.176264957714L1206.3658233469394,267.2349333489942L1206.8940942283334,268.2030172964802L1208.4517138739611,269.2111283177453L1209.5050909343315,270.0259250711875L1210.5939829885028,271.0968548562198L1211.1352643131704,272.11833859869193L1211.6804136074602,273.16788611619774L1213.8066247875106,274.0354785288508L1215.9487766908514,275.05246650259346L1216.4938087739406,275.93037572129185L1217.0308704953843,276.94050594014794L1219.1589570546457,277.93893202671046L1219.6988318449053,278.9249947686782L1220.760296478121,279.85908245713716L1221.2938418635451,280.6224771610975L1222.3442886438986,281.378367658842L1222.8723251028914,282.3214193779211L1223.398134549071,283.27076564586207L1224.4519804542442,284.17402410198275L1224.9871667964771,285.1053208801138L1225.5149688330687,285.8110109785915L1226.0480453736898,286.47732847917285L1227.7590944809874,287.3825491431792L1228.8263024630357,288.2798316066672L1229.3553938228345,288.8829785827962L1232.584679612337,289.76438643340504L1233.1070899336978,290.53094600061945L1233.938703402411,291.09123835146585L1236.1044147570854,288.1389781383055L1237.2241333570312,286.8592911714657L1238.2771587837995,284.8247773146035L1240.4048937094585,283.1873681434018L1244.2017161325775,281.501050429345L1245.8095021720894,280.4212401636778L1246.8545572372127,278.5213832226382L1247.9295011585048,277.5267900839099L1248.4458164974312,276.73337145958743L1249.5057573850386,275.90727452260944L1250.5719104662808,275.9757434487362L1251.6363053795133,276.66230089618153L1252.2145082323905,277.1502620746529L1252.7528592770418,277.7449991519828L1254.3196213963213,278.5848100548049L1254.8524635145413,279.42821419992896L1256.3943768592803,280.3016882543022L1256.901784146956,281.1959190515812L1258.4481515173202,282.1177957916495L1259.9886583276511,283.0614583227408L1262.0608351441952,283.9929339647274L1265.1302448559914,284.5990667957429L1265.6613288062013,285.4660243045149L1267.1519036450495,286.247508172185L1267.6623584239424,287.1581607874157L1268.6948718905942,287.228810978103L1269.7133200131666,288.12404004395256L1270.2264706496749,289.0012040253852L1271.2506621210794,289.8673153546098L1271.777643679266,290.7379995361111L1272.7924582546177,291.3577154971755L1273.2916607582467,292.2228452250398L1273.8239168204636,293.04365537605264L1274.3412870601956,293.8864797258626L1275.3893896165362,294.1863621544852L1276.7556033714793,293.1567693848455L1277.2952437393376,291.5750827146035L1279.423681932201,289.3538037701977L1279.9446857191535,287.18212754909837L1280.982122056233,286.50617716974784L1282.5756083292645,285.57358651375625L1283.6198429159826,284.17533125066404L1285.2313797139163,283.5194469923582L1288.430073380045,282.5281529372662L1291.6316973261905,280.01083336806505L1293.7640034886756,278.56374600247796L1295.359130718516,277.53553219772095L1298.0718667466908,276.41797380141816L1299.1694324297112,275.5848279217678L1300.8039426229752,276.5941135449949L1304.083629228763,276.95040726141514L1304.628661311852,277.7638785310419L1305.7367760029322,278.63762476630995L1307.362846989748,279.62559285684677L1308.9586774867928,280.6023214428673L1309.4809705969528,281.567077972562L1310.0312771840718,282.4780968902851L1314.8913224084163,283.3467330258858L1315.4471379219665,283.7332021902811L1315.974471113755,284.4642171671769L1316.5108295679952,285.3949389514662L1317.5891726141067,286.00642622349415L1318.652629837734,286.85487848650484L1320.577823808645,285.6523529481133L1321.1033988324239,283.705467542902L1323.1966736650875,281.526486970575L1324.2689217287648,279.4675240441573L1324.774102003628,276.7777667731129L1325.3181963971117,274.54323645915525L1325.82607252959,271.91087784444136L1330.0223507245728,271.4711672369455L1334.9415876052526,271.2167437959299L1336.0146561473346,272.2419036181057L1337.6169332604159,273.29109672710223L1340.2902863251672,274.32970037129144L1341.9073320495318,275.35950658305035L1342.4363061981298,276.056139067246L1343.9799777108785,276.35621122178475L1344.5265335395763,277.2975355401746L1346.1309204542695,278.2938108863706L1347.717139632859,279.255234409929L1348.8033358294156,280.23680733097007L1349.8651520962335,280.4608892042681L1351.488175591832,281.2426868936359L1353.071581701606,282.1995004192993L1353.6038377638224,283.03049279083564L1354.1278890419928,283.91536975935935L1355.2036534416898,284.6655097200959L1359.426304156822,285.12987347440173L1360.4980833756963,285.99123125607736L1361.5575554185011,286.7870970229369L1362.9533063960116,286.55273719722544L1365.5512926587357,284.5816513159293L1368.1700253039778,282.056602746149L1370.2845153639616,280.9481233862689L1372.4102576992098,279.9678354385611L1372.944623563038,278.05102187030843L1373.479927116472,278.20975149744845L1375.6225478646154,277.3994014687156L1376.1550383492333,275.4253691439556L1376.6728774337682,273.9988239708666L1377.2039613839784,274.7345356587938L1378.725011134999,275.596029574378L1381.3047124504196,276.553444313279L1382.8789760865418,277.47400119456506L1383.9820506959936,278.46879000325L1386.4259042298445,279.45335857579533L1387.0057480395308,280.36016101915976L1387.567424113114,281.181319826748L1388.1245289498715,282.07455979684374L1389.26581441074,283.00214055249796L1390.4065138156047,283.78782594949723L1392.1109990956652,284.69502091668676L1393.7246456952107,285.4932733932377L1394.248931395782,286.39287861305513L1395.347434768408,287.133308624388L1396.474420462795,287.911296262082L1400.2545988954198,288.7233542144717L1401.8880541878773,289.57569102854654L1402.4306248357523,290.39689119566947L1403.526080717161,291.1435818082359L1404.6305618610209,291.9316798254198L1405.6756169261437,292.7816279007192L1406.5544665087248,292.62671572307573L1407.6683245486374,291.0944843017803L1409.3589789070195,287.8581841545581L1410.4779942397615,284.959164279406L1412.152356241251,282.5815607512046L1413.3017292749653,280.71763851741173L1415.0282502607506,280.02702986350744L1415.6154783760787,278.6206074436883L1416.144686947078,277.855792456821L1421.523743367964,276.75917932566404L1422.0650246926318,275.17962005101083L1423.1706779484985,274.1925797890794L1423.7344638236934,274.29455050556453L1424.348181670372,273.7525227079675L1424.9218132864232,274.1584320265134L1426.6538431986396,274.79469309966635L1427.1919598208892,275.705971358561L1428.2568235789245,276.1802532825019L1429.8448009255246,277.16890385586265L1430.8939583826705,278.16235725138046L1431.963979433535,279.153932824569L1433.0031739386247,280.082644864L1437.711196235708,281.0526453267798L1438.2487268019543,281.8124774050186L1439.8363525149525,282.7672931795837L1440.8675766583967,283.70795174857466L1441.9217741971715,284.3633767920417L1442.4439500961312,285.2919851956291L1442.9889821792203,285.98863143727726L1444.0330995547379,286.89714285816893L1444.5556270872992,287.7702464067811L1446.3224687261131,288.6123105180074L1449.9691436011808,289.36675352612207L1450.974581280479,289.6819437119584L1453.364986506827,287.5755764441475" style="fill: none;" fill="none"></path></g></g></g></g><g opacity="0.2"><g><g><g><path stroke="rgb(255, 112, 67)" stroke-width="2px" d="M7.87637368400374,241.28320849025863L8.440159559199042,330.77623758611014L10.6051676466694,116.12536126810602L11.179033685121832,143.44259188908705L12.906843994114336,324.2601984006832L13.45023512039405,265.42693884598486L15.157064624467644,279.4250596937737L15.746402541407765,306.6865153874344L16.31546292063296,247.5671236847267L18.651247727471212,237.64774540702786L25.630471459826524,257.5101470615456L27.874831530146615,309.3736513040106L29.010256430981723,196.24261661784067L30.152831215057358,248.36941723809105L30.71216306462742,281.3198732005742L31.799296950788836,209.3777177964042L32.90119944823396,239.33823775082809L35.070661561329565,219.86754070253855L35.61288057560263,255.03004594015056L36.16025688270493,149.9743098382258L36.70798482340922,204.31419652094908L37.25665045371883,204.15296550949955L40.57114878610402,174.45421320050187L41.68324865800693,164.9316388300495L42.21456703061822,224.3414367836948L42.74365839041689,64.367646362845L43.2755628190315,107.02277040766165L44.884755392951725,271.64065930548134L45.424981816813506,283.9465421981255L45.97083437830717,253.5378762040034L46.509654267760965,135.98739264142947L49.22450009754758,282.7542050141758L52.26390374197365,83.04005947413106L53.99792624460136,124.11547930847419L54.552804068546166,13.730973642441938L57.85194773364434,173.48458428571385L62.97560094828305,148.81554128940274L64.90231866480288,191.65538275284854L65.63746731536939,275.6813898661134L70.1333373392501,301.15091732766825L72.12428679373397,179.3082187967742L73.41173462183067,175.89327403392753L78.0973695795869,186.48007887457348L78.78164856906511,372.8114199944549L80.5475525182735,372.80685660934375L81.09059201095123,376.7449507192846L84.88671116686604,376.66368048532763L85.95954528654642,374.1316060177575L87.04433494869454,368.5293100660482L87.5901875101882,377.16730874010295L88.13615728288254,376.62168295258215L91.96028991575612,364.7490267016548L94.70455575690946,372.10111222434523L95.84642727378112,368.10161809503506L96.38782580964954,371.7068292046937L98.83812595953682,182.26297809137745L100.4618527223394,-5.989779586072018L101.53984413484902,28.11373201537964L102.05967580979521,172.67555161461374L103.64507450998059,293.1906492412899L106.79500831663307,377.25502487330874L107.32105218521447,365.79441382635844L108.37407761198257,377.36307862362366L109.94400443368026,377.37280702846624L110.98741854199392,357.1738708938137L111.5147517337826,377.2996476597839L112.58500720704835,376.5968251412248L113.66100602914668,377.2843254946388L114.19279324656064,367.51567785983565L117.86373084016596,377.2947733926995L122.07876282725499,370.2113864472757L122.60457227343504,370.8970916768916L123.12698259479586,377.2658152304623L125.46429114724273,377.27655031147304L131.56712673223106,377.2478273569594L132.18541581573527,367.5565476466536L133.39573867379485,329.52718390266045L135.83701356123098,294.53263292503965L137.67687777805858,304.9361432847888L138.283914586299,336.6497595535019L138.89681195457266,370.63226921161265L140.70924875044477,377.221943668329L147.0419354999358,87.95574333790671L148.11980970124472,197.73891234443832L151.3923464237921,368.418137104766L153.01267406177544,177.5273990004966L154.09453344390695,86.56268200827253L154.6365180357787,222.23472721860546L155.72447240034475,221.5771183970379L157.85818509723774,339.9378803624441L159.98556838929488,367.5994447230102L161.07141295224898,360.3085881712669L163.749102831425,374.0180411060819L166.957525027209,371.29988356002264L170.68624774274184,367.8815546915468L171.23057655862686,370.3816377731043L174.10775990133354,346.3440809213211L174.63896106274416,374.8465768513535L176.19869050998406,369.8966778480982L176.73329079621394,377.12000287929897L177.27879172410562,360.41157659572275L179.42867956669028,369.05129215953383L179.97218790417065,364.0965264381354L181.0302534125673,361.64407077519144L182.6021728246763,377.5993648221292L185.3031877327845,376.8996060987578L185.83333399338918,366.28008257536493L186.668581009323,376.6543806830337L187.73367918975953,98.91141172482554L189.3341981348306,52.959050019090455L189.87454176989306,90.23599840902085L190.4092592673236,127.00809483921557L192.04623089580124,174.43766692084918L193.68671886029887,159.2092074591155L196.94542466116786,149.23313384084202L198.00794419518976,146.5178089459189L199.648197737286,32.252798681748175L200.19217491956903,303.3940966717729L201.27286218969394,353.53671641898484L201.97038604484723,302.8212081874552L205.14376209163257,144.45656991148638L205.79041628569752,194.68195544021552L209.60833672493592,161.92292427570925L211.48781832758806,319.23117146334033L214.0324734940101,275.6038318251071L216.58029336285003,125.41482775756896L217.86070851890693,178.33095150992148L220.44310569194283,376.1979747691635L221.09140084281708,372.33208999664294L221.72445853760502,377.04613419861386L222.87781675214177,357.04930962249284L225.63544467017084,376.99619058021295L226.18457914528307,349.59645108095623L228.37537369689963,379.69308012083917L228.92849335283447,360.0194831942406L229.50118727928023,367.847084818442L235.6294576948127,152.91931486822563L238.49140358143302,42.06755665287062L242.4708410551868,49.287341696671604L243.0448243048399,234.1917840673183L245.82308139418592,203.1444464898501L246.3418581683261,263.594861552957L247.41914631363173,338.8253440655918L248.46127109873805,363.2029982433677L250.5356749280949,365.83866242907413L255.2121674121993,377.13760992572224L256.2409301204299,376.82714835059437L256.7414219472665,373.93656767205437L258.2985727480917,373.5390777527739L261.44698280913565,376.19329624974347L265.6110279239357,376.33572598559755L266.13859553812574,358.9488825650726L266.669562277135,375.64075364257445L267.70441996780016,368.1210565353016L268.23233921559216,314.67298351317334L269.77003295710716,354.33469090670457L270.2816598480069,372.4647762953124L272.91211361331517,363.86202074563766L273.43159365465937,371.4335848258943L279.5904561935652,162.40477648354906L281.2260212876349,226.22440129227854L281.7756246075498,306.29203367224915L282.88467698823547,196.60142967455465L283.9697010727849,143.36322475996013L285.6382025142413,133.90992471122507L291.6623893835839,311.41295382254805L293.79750861488486,137.8148678681856L294.31288626420576,111.00913310951165L295.375640220629,363.7765836497903L296.96443804563364,318.67126926947896L298.03867869972197,317.129968508583L300.7089842732562,294.02681823419897L301.2352625642389,223.35644648907578L304.3926978877339,321.38204499544383L305.45029455132794,377.44570803442036L305.98618416076516,360.75851288313044L307.05585357802755,375.7486276298414L307.58224908021094,377.14685104505907L308.108410159993,366.5314552374783L309.2014046061876,376.9522546708741L310.30928487486665,341.08575999928985L312.93833210576696,377.22621206309987L313.4685955775723,364.27964371303216L314.0014376957923,369.73181609729556L315.06161300580084,377.10316837127687L317.44064874568426,374.8754435765292L318.708170669668,376.92566744797455L319.96279936157873,377.34636477726644L322.9241403463624,62.66570704041038L323.56118322197284,73.37783619612401L324.18181652949033,98.72466304935921L326.7077179038061,8.03207099653838L329.4083811783123,361.3567656292559L330.25511489191126,335.980209163419L332.3632755470594,374.1561791341207L334.13210977628444,355.8747313891071L335.0665174679803,358.9426327474864L335.92508951284634,361.699948852273L336.60081208467597,367.7024602573393L337.2698536180678,372.9542324919632L337.9685495852278,367.3567015963727L339.4588900016744,378.51177425835294L340.3875543445377,370.37269415982973L343.2932200090057,377.35432112727364L343.88595705076517,373.1181483726794L345.6008741276846,321.5412976473697L346.12902779787794,376.07680082690183L347.8549627276598,364.0487006545965L349.02238628627623,375.46423431570815L352.2659718422596,357.2554121025242L353.3730316325339,370.99879072933174L356.27260231456745,359.7921781485386L358.5582207275214,374.5084802009386L359.1115748058575,358.44319086048574L360.2268393801784,374.5426510389182L361.89756783444744,377.1361509310322L366.86134497138005,363.86528318744575L370.90442812709455,361.9117311813379L371.48286540237285,218.39615961058414L372.6289565224684,0.7629644976601071L373.2034086169242,65.8540397123615L373.82603451485295,120.08527531322216L374.4248665390469,103.14254087555321L375.5063742875764,122.36995259974219L377.0861468501299,107.97534522858768L379.25010003679427,152.43096687029194L379.7670014317239,185.41225138706406L381.86777778123013,289.70025704024425L383.4452061197704,212.71479771382647L385.58888176871983,339.6996599561081L387.165958473658,263.9397097189156L387.6923539758415,219.83884919971368L388.2246100380581,274.75481936448807L388.737877885767,225.3451738862068L389.26720366796707,270.1704313749605L390.3567989893424,199.01352600975562L390.86866030264343,121.56838902930366L391.4104104721139,165.7062670884703L392.4567548604441,164.98529786483115L392.9788135482029,197.71358511075L393.5245488984959,248.39806642306516L394.098883781751,211.88069171614268L395.1716006902307,260.83850950170836L396.2620164900107,255.65599042987634L396.809392797113,295.7042608107667L400.6039882074192,376.61472071563117L402.22501911260645,376.9898683181029L403.2928131506583,375.0138712173592L404.3674054383486,361.1510664912398L405.9791766586835,354.11016032509394L407.35007886165323,377.0256308693056L408.61642867363037,370.24855871188225L411.1459635951666,370.4986413407634L413.6628397070313,375.07354550320264L415.90485555333805,375.87845697767136L416.5189250336183,187.70422850284262L417.1417853539485,165.6505556379261L417.76734153189386,48.949475976090866L421.4939544458148,59.8574733041126L425.23416385901277,79.83664048837892L426.4671084788004,117.76263891455773L427.16017830832845,73.03614071004813L427.70509318021686,159.4447909343752L429.28627227717834,344.55112119160265L430.85784005568536,377.2848602405027L431.3941985099252,371.0531837143377L432.9198194977717,377.28820327451905L433.43590041429667,377.41160373134284L433.95174690842026,367.4178694048011L434.990589779908,376.90997132733173L436.0137263505067,377.415678642825L439.1678797603832,377.40313520206485L440.71999047957985,357.27321601580456L441.2309141032756,364.30695195110985L442.7339133293939,377.0441076942697L443.27097505083776,377.23229922144714L443.79385421700124,377.30900544846537L444.8420739845421,350.2683448220257L445.35581067705374,368.2874007333142L448.45569530102256,376.7433912403619L450.48473839572233,376.99924895410396L451.0039840146652,377.32565331201033L452.01246918518086,356.62631361048284L453.03525412217755,365.74419443938507L454.0621414511976,370.6550877902098L454.572127385288,375.64920101292705L455.08621571140156,377.2372462567221L455.6026482615285,377.2404740776518L456.10185076515785,352.3151032168965L457.6622834796016,377.6146692546962L458.69362483424686,373.5021699747346L460.03674798265916,276.18802975504417L461.59436762828705,171.21188295096294L462.62945974135357,93.41952800490913L463.14776767069105,15.83421314376784L463.66607560002865,118.98744446951383L465.76825848394293,160.00846470668682L466.81120374745393,62.38004038875954L467.37194213143187,39.0229565610739L468.4075030893011,99.46192464554639L470.0039196423489,26.822804818588907L472.15861314416077,294.9247183919248L473.7647582268637,95.4299009827111L475.33116871254146,54.77414727449519L475.84865616347446,255.47040549530635L476.8926563277913,64.35558577537438L477.92493537204194,38.52309810772965L478.9975350693209,58.85087974667334L481.6759282157009,172.80491728443027L483.30399179292806,311.507682331506L484.39909604073466,149.85349237426564L485.98953482254865,156.46497947211367L490.31591745026884,374.1820317042534L490.86141837816047,376.2935053336369L492.41587332137044,374.689074439287L494.6033859593683,365.65929557370225L495.66156867896564,375.5316767373384L496.2003885684195,377.06849007035925L498.36481059988654,377.0944829216877L499.6904692793998,377.35812490902975L500.32165159497714,370.15982545218947L502.0627067696446,363.11576263886246L503.603448002377,267.4801692271584L504.8067381883966,36.7787562988193L506.55529487990674,138.77580046463953L507.6754823246555,90.91922010976941L508.24630087189075,144.76371287240514L509.37762338070246,122.24888122867733L511.61541962378544,240.68801849858295L513.2969315085155,192.08146003336805L513.853333078069,119.72271712671466L517.7323205528535,197.32946597927307L518.2815722391664,25.54205506490939L518.8443032135557,45.24596578881523L519.4036350631256,30.95613741617757L520.5140939782194,168.3302489024974L521.0799896550266,160.87153727322556L522.2874994442703,178.353337652981L522.8879724252735,171.16141891391473L523.4722702605851,171.80549660269725L525.1576501149372,217.8678952999078L525.7122935164806,258.612463597436L526.3094845838652,196.51977738148594L526.9371505634225,338.3046176220846L528.1522790807095,358.52963961745314L531.7579300355447,360.68175623642315L532.3497293876987,346.7620120155666L534.0771880630892,317.3018160108454L538.048655175198,243.1044206751002L539.8204196844396,320.8908458323143L543.766451966004,360.1320738035237L544.4222486337208,373.64086474699764L545.051321147686,361.6889052156538L546.2843829786746,358.4236307563982L546.8546154699063,358.2489056402831L547.4196906683089,365.16239672504656L549.1497279901141,371.6910697725788L550.0846045266126,346.5312818688176L551.4058091805007,31.826277063795544L552.5740532175219,-30.41585464216331L553.2194180883794,0.8495468203440169L555.7359425666419,90.97763990276314L556.346964555705,41.53540967938574L558.8858763732945,155.00378640273314L559.4625554805629,104.15912144577516L560.0296232693768,152.10156471986602L560.6252905911529,135.68759182762L562.3826381227127,-0.12516023653688535L562.998817404605,-23.08043607112205L563.6459404434726,159.45484142393406L565.4205180215301,155.4353226860025L566.0580297419433,282.7674822398562L570.935187801585,45.54413736536986L573.3741184650079,376.7310376513659L574.4982910905791,368.9093455249254L575.924985825065,371.5979387624876L576.5793759583738,376.96049326214256L578.4177164295928,377.32364468633824L578.9688434951164,360.09366903151334L580.0797712550126,353.9473741326285L580.6011266755675,376.01735094138036L581.1820253860598,376.41465117420086L581.7731214710097,376.95248332777675L583.5138250120754,372.6939238205641L588.3994222781649,377.3477542874093L589.522657214131,377.3576559361193L590.8164344470636,372.3147099230867L592.0569977948945,362.96125090865615L592.7086920705881,354.25875945808735L594.3909072225222,369.1143735282769L595.5482506178815,334.340471791891L596.0905868433553,263.706644155777L596.7325525893935,378.1622387292048L598.7678078777286,348.0740029225801L599.8814314952402,159.06814090355994L604.1536625482534,117.78692936090209L604.7531978396513,153.80921695215514L606.459675710123,124.4040235739777L607.5743542284404,43.12812662897227L611.4498253672049,49.24140566965633L612.0484229689976,83.22748523520977L613.1865437274479,-0.6894264587593852L614.3319315803395,164.08856144800157L616.5690245562184,357.886814272567L618.7697820598913,370.41828833795677L619.9105986759571,374.62013204821176L621.0229329702613,377.1827914221522L622.6873320196944,366.9948925680672L623.2432647444452,357.67617981520436L623.7899377843436,369.34803352497556L627.6305971965107,375.0078313359858L628.181841473235,377.05649653436603L631.5154452313285,375.91458468564105L632.5956636566507,377.43826969065367L633.657011078666,376.5960365579939L634.1891499296819,376.9027071624338L634.7307828879517,371.266084160366L639.6058311459814,367.6358056750715L640.7192203410916,365.9790651233457L642.3701401024483,377.07419413644413L644.8682624222066,215.01590490590957L645.9702821308524,165.43132801199064L646.5398113548803,61.42856583195356L648.8519194991843,216.3745618228643L649.383823927799,251.21468967327888L650.5038941613471,206.86430194698724L651.0357985899616,160.44139747903174L651.5905592027058,166.69184983300013L653.2279996759861,231.8240897370421L653.7642409190254,323.9872218145332L659.6450784899554,170.78916993957998L660.6645815133336,176.64919780230608L661.1987129547608,204.84769766565873L662.7782510949129,118.09652675716575L663.3146095491528,140.49773497156497L663.8339723792964,38.97841702313406L665.4330847899595,229.12450708260698L665.9620589385574,375.81867673189686L666.5115450472716,369.8316802741748L675.3284059836419,369.57565793820766L677.0973574240677,376.9315890542611L678.2667735730954,369.00234825903146L678.8502509300023,335.7817516676166L680.0293956086851,366.69533045338477L680.6209605384379,377.59654917665273L682.4704360737201,377.26770631458453L684.3158092169788,377.29790197046884L684.9058504011228,360.0640941435536L685.5017521453003,377.69952617446245L686.1495784513719,342.54652195556565L687.4197962329708,350.93584279634604L688.6881386353593,372.1994509749473L689.9618727529784,340.76006330567236L691.5655564004674,273.1465611842047L692.1954493928373,162.37494239875326L693.5112623314948,154.02393772698318L694.6262924834143,44.897118585958594L695.7809400211584,146.39874767276584L696.3487110771762,96.26335105370794L696.8956185394759,78.20755134605196L697.4358449633377,133.16811394607964L697.999982472135,205.504280279345L703.6847257043537,46.276257342687984L706.0254333816199,45.65107457427615L708.5788793880917,243.03580228006993L709.1874399419407,148.81653575889592L709.7813490957068,219.38512778317596L711.0133560258893,174.69068535062783L712.812313533685,158.16454899490492L714.6015425118256,251.8760859424907L715.7953385905917,205.1381568139098L717.5945305207886,205.27074921984786L718.7911396683705,270.48002877122417L721.1624394690101,276.4883172241375L721.7525978643548,262.5594812775287L722.3476791301275,316.1793720471806L723.5381932952748,170.60009378232107L724.1381974314754,230.37425901059447L725.9550882529728,269.5455448315041L726.5995154342252,232.5650753040974L727.1784215543062,224.2042740498731L727.7793633801119,246.57475950461028L728.9626104508181,354.65202982479417L731.8080295581448,375.45934280194933L733.4610591211134,373.881541902936L736.2652198858062,377.349433921753L737.4513972365289,375.91881432176507L740.0899385746831,196.999894557444L741.2098915970305,129.59644502289092L743.356028681194,58.61711593899702L743.9179391771787,102.45976351223777L744.4683629754983,137.61734929969725L745.0521919660071,27.152397399343386L746.1419044985831,102.01130008865874L747.766568950991,117.06439437678432L748.3181648613174,112.62783321947353L749.6031512542002,167.14951738912254L750.2335130913727,276.22366138539604L754.1232839966183,162.12514012563346L755.1975246507067,257.4117897968838L756.7704989636215,213.40636661064028L757.3048648274502,96.61875752343457L758.9295292798581,177.10769055651855L759.4589722732587,193.30395926545697L762.1079454082719,213.4497318282211L762.6488750993377,77.80441034065205L763.1718714767019,171.5191317065086L764.7861041322507,305.0138970458549L765.8636266999576,204.04265345199406L766.3991646757929,146.60381997761735L766.9309518932067,309.99679752585394L767.4603948866073,337.78944010676014L767.9911272032153,329.7239090114467L768.5111933005629,336.1858871425097L771.680466955325,321.4519858233108L774.3733942905875,370.75922144150223L774.9004930599748,303.6227505989683L775.4748279432298,344.60408727157784L778.1557997360245,226.0575208477507L780.3320600987586,288.3902656516798L781.3871953271388,292.8912239984061L781.9216784021678,245.00406899635163L784.3792456464964,246.89758122924084L786.7197189013613,68.60484812515875L791.2467671046186,293.50384365486934L792.6574039046135,266.1737536969843L794.8705857955568,368.33159379385074L796.4938437135569,358.69384874765086L797.2755252107871,228.42313102387627L799.4623345815811,104.35448180387402L800.1766196384293,39.30855973594862L801.4435555064098,173.28778512068865L802.0946637261001,163.13511911113466L804.0124733913693,246.25260428612938L814.0891203124795,355.15695980806714L814.6602904933168,347.4616794910723L815.2107142916362,377.20852356824474L815.7896204117172,370.494689250231L817.9779535281197,370.3935687621569L819.5924206060699,342.1971960320221L821.8342020299755,337.96490049553245L822.3732563418305,375.83070690341225L822.9206326489328,365.3076924208139L825.0987683908775,365.12443496803644L825.6346580003147,361.4628392895198L826.1733606785679,375.69565559891845L827.2621355215387,349.9603925322109L828.3293435035871,360.40800338219805L829.4785993261006,376.8803589979923L830.5928089996155,376.49867301895677L834.6473788529951,63.93238610870753L835.7980412099166,63.482420401426054L838.6917513319169,169.62830665714358L839.2587019095303,371.27130975372023L844.0820600280668,341.7641310163935L844.5991958453978,171.87739463116253L850.432562880059,91.24316325744553L852.6162075484349,375.7782013606725L853.1519799466714,377.5267594987264L854.7308148196195,376.9176185018401L855.2642429938429,377.29730251870234L856.8259650314941,369.75316677544396L857.8806314150712,377.4177260891329L858.40972277487,377.33677682667235L858.9396346130734,377.5113252817743L862.7001215639864,377.41187073879775L863.223938419755,377.34685021343256L863.7527953571524,377.1838096334474L864.2694623296806,377.3166200664594L865.8780688475974,377.4352886377576L866.950199700074,377.41247743585615L867.4639363925857,377.4550533573321L867.9768526066927,377.3037096136197L868.4950433248292,377.474981645318L871.1258487237398,377.56191368949817L872.1548458543718,375.1541043096195L875.2835644337038,377.4353780982727L875.9025567844124,220.38270763840032L877.6024708276466,96.6727762599478L881.6211740536227,264.0471970598819L882.7264756758874,293.1577206636563L888.0606402069191,376.1618783863217L889.143085645054,375.5411817233521L889.6714737376486,373.29513187347135L890.7366891292857,376.32245628125395L891.2708205707131,376.08878124188175L892.3631117497034,366.8749320405852L892.9179895736482,374.80996447174914L895.8976155057358,372.2704008190687L896.4044367374083,377.5077801906104L899.4361044425905,365.8001174791831L899.959218031155,375.6583147241252L904.5405350203202,372.56163854965234L906.592199876748,364.4065827185934L907.6292845802259,349.0201480750542L909.7890181636665,357.5364423046496L913.010216380323,361.4435595411937L914.6117902262,374.72970420454516L915.6492265632796,372.5733510066787L917.2333359402578,356.0694397878175L918.6908572205182,224.99134375642146L919.2648404701715,116.40848884871042L921.548466292714,128.74255542997017L922.1151824479257,53.50232658732898L923.2924517473981,64.76177366603002L923.850845907363,-25.893303612079592L924.9650555808778,179.51003262711612L926.6271104062974,85.46880788361165L927.1898413806871,40.59565716724427L927.7522207214744,88.42115506072076L930.0053716318442,79.80081842769857L931.0736345146987,131.57008610622094L931.6054217321124,150.90090149877653L932.1301762774867,171.71861805505793L933.227507538106,298.8046358298838L934.346522870848,248.46565861021415L935.4295543649863,236.14290147457382L937.1091908705058,222.58930849024202L938.6923625578783,365.5727304426452L939.2426691449975,365.8404807742246L939.8092680890086,377.00003811589926L941.4267826581761,355.0985413375063L942.462343616045,367.96936357068677L943.0121813583614,366.4482398287966L944.6261795915088,350.99911062811907L945.152340671291,375.5703559141624L946.7696208180569,335.2177155487077L948.9091940749832,276.2199374145279L949.4484828092396,265.8312012744303L949.9930460475261,321.72997707477754L953.7824841650031,306.27731763964243L954.8466446558342,336.947991961967L955.3901529933145,368.12103868245833L955.922409055531,371.55095536866565L957.5346491206684,377.2571738886574L958.0790951477545,359.2189193830266L959.1531013794413,375.6800591566507L961.2806018826992,353.50297586758944L961.8144989017251,353.35258616053517L962.6942861739115,273.19951139498585L964.3012517350187,22.142831383625264L966.4829038129835,107.1484755833863L967.0314522320923,42.89605553532692L968.1634780081084,123.34099916253115L968.7011257855556,23.70262504530956L969.2476816142531,-15.782595751568067L969.7917760077369,161.43656521676198L970.8789098938981,79.60679108189913L972.5308845560609,121.96340500735494L973.074510104742,138.23383574977504L973.6237617910547,199.12397560027614L974.1611751461007,193.89511848184642L976.3383731984403,369.90482006707373L976.9066130992608,377.3477117835914L979.6384545531438,376.92535733747434L980.6876120102899,350.51770540257803L981.2264318997435,377.24111070508457L981.7673615908096,373.00914221760013L983.9314319886746,376.97280335549607L985.5598471995037,358.7424005468172L986.6223667335257,372.8792836109437L988.2398813026929,297.53410054743483L988.7812798385613,370.74465748867175L989.3239676976369,377.23881090139804L989.8596228846728,373.3645883603119L990.4678318049199,370.62099877776194L991.5056197756019,360.1067426025369L992.5989658553984,376.3435359433229L994.2039388260946,365.7569704630203L994.7447513059599,371.7189969092241L995.8444267905923,377.24965392082333L996.3771516976116,370.5801521335186L996.9162060094669,374.96229402247076L998.5286804970057,350.2312690950162L999.6203856199928,322.1867030587202L1000.1599087766507,362.4967582766636L1000.6823190980114,371.31940928085635L1004.9681466503018,376.4449869569541L1005.485868523636,348.1879463806552L1007.8807277756091,103.56935871846122L1011.1375581972673,159.2446063412881L1013.6368526290324,134.20864641983977L1017.3941748775271,213.3442863235546L1018.0278186283184,257.37154552079755L1019.2927619058877,76.1559184637452L1021.7958070960738,186.6475306100868L1022.4147994467821,141.68083628458314L1023.0254698022429,139.98750864478106L1024.2714248653044,158.44524329908984L1024.8981531552568,180.20639402053007L1025.504252273892,115.66308106624922L1027.9717824702768,163.0391210666535L1030.0887339654748,132.58808432444377L1031.156762425928,212.8059292054686L1031.6939413585721,286.7460372982384L1035.994303099745,229.48302391436553L1036.5153068866978,234.49454713068195L1038.1271953182336,180.93883138172902L1039.7395525945717,107.84851862981759L1041.8971763764,162.05939934445584L1042.9965002274305,229.9923192484324L1045.1109902874143,216.5736144134432L1047.799463597052,210.53604200779415L1048.3190608495968,340.89079372617635L1050.6216748866468,333.7352683387759L1051.2639922662872,377.8787932274812L1053.4666251491708,349.03039692953854L1054.0851486550762,255.71069683146465L1054.723832487496,95.58391680060362L1056.6132770422048,98.3917696762444L1058.5153804065849,38.28580075951362L1059.1444529205503,65.25560182563896L1060.411623210932,22.93711628373063L1061.6596880756058,13.307625863297403L1062.2640290262307,60.019995010010746L1062.8664945976452,113.46111401906728L1067.1631055803966,94.73675574595597L1068.424884155548,149.89809538898157L1069.0408290150388,27.24067243605822L1072.6792991060602,236.19393680260742L1073.2436710372588,129.1518536826577L1073.7819048707092,373.74723992194833L1074.859544649617,367.51346873578194L1075.9165552572076,377.3446341311092L1077.550479394468,373.36659382970873L1081.3606638944623,370.2403569834291L1081.9055787663508,377.1885098490312L1082.4582295774833,377.25386891203686L1087.3462882787867,377.3775101627006L1089.504615327819,376.52509721068316L1092.2252045064383,377.38546531425305L1092.7658997751025,371.96479882301287L1093.346446851993,377.2946790983308L1094.9973666133496,347.8034067155362L1095.524817016339,377.39789862631926L1096.0735998578493,377.1946488922043L1096.6167565617275,360.51640452425454L1098.7624248010882,377.29277647714434L1099.6229894363657,376.86550191965836L1100.1615749034183,283.27114929977006L1101.7845983990167,145.04275678040983L1102.8716150739779,104.24970280535723L1103.9533572449084,85.89860913499928L1105.0268946317926,121.53897812301568L1105.564190775638,99.34853396439706L1106.0991426954697,91.73993250768319L1107.1690465351337,212.0978034495394L1107.6902847444876,335.45865223209034L1110.333983375471,360.92736110771926L1111.9728303831596,347.5277641047875L1113.0345294387766,365.63344994634195L1114.8521235274782,169.6367702272984L1116.7000753171515,79.2482319322898L1117.311683362218,24.857521510786796L1118.5571695804765,171.53663013780374L1119.8169555652169,240.35332661681022L1123.7087190608734,234.72335974981777L1124.3423628116648,225.3210632907282L1125.5765967546597,366.30105503772205L1126.8511513506835,371.58989109745994L1132.5078811059434,358.37599275832207L1133.1301553702704,375.8609836726001L1133.760868841045,371.19935155456085L1134.3935749022307,354.02317069309635L1141.036285277479,358.7173272202335L1142.1191995604163,376.6933698463798L1143.216061976233,376.42972988401306L1144.3024925951904,350.03978875486024L1146.7643966539435,255.1872355968511L1147.2974731945646,205.1760841876661L1147.8469593032787,142.816689717212L1148.9063141348831,52.67090777316929L1149.4485331491558,52.32108725974484L1151.0554987102635,183.8799431694576L1151.6045159741752,90.9164694494691L1152.1608003325282,106.76088638814588L1153.26035860596,205.01033574564647L1155.9856362326057,265.0052837808713L1157.601744267365,290.0109864390161L1158.7003648511914,333.69126041883646L1159.2250021853652,323.50413180955826L1160.31987201077,337.3278925326949L1161.9321120759075,123.79743950098108L1163.5456414642524,175.44235617500357L1164.6246877775682,192.505484898125L1166.2310672826725,276.5361787133631L1167.9621595052836,285.72712924622385L1168.5069571659712,326.52963597119316L1170.1415845704355,221.20501753518084L1171.2148875349187,308.6019429772933L1171.7614433636163,173.67186193431482L1176.1711631550088,307.6429622917063L1176.7518274430997,174.99677036527723L1177.8381408508565,358.81131119950436L1180.612764392982,340.7552999025946L1183.3518729413058,344.26484886571257L1183.8949124339838,315.008833846111L1184.4354904914474,377.11132771989026L1185.5167638175758,375.13355039725525L1186.056404185434,354.35027445525213L1187.153852657254,377.27213208919443L1188.2595059131204,376.1784468167244L1189.8949537959895,362.95601275219L1190.762433892106,312.67117461042176L1192.9371705092315,21.87631355944967L1195.6191972028319,-2.2833283081675972L1196.7237955578926,153.72864376428117L1199.9345619776898,371.95085013205966L1200.490611913641,375.94632274311346L1201.0418561903653,376.687444644729L1201.559812486101,362.5517013937297L1202.108595327611,376.92058174321886L1203.7108724406921,361.90447499236296L1204.7923801892218,377.33698704183587L1206.3658233469394,372.0137652048735L1206.8940942283334,364.01676786888885L1208.4517138739611,368.9867376006107L1209.5050909343315,350.6688938590657L1210.5939829885028,377.0903943519539L1211.1352643131704,373.2183081132976L1211.6804136074602,377.04570635026516L1213.8066247875106,359.9047171829411L1215.9487766908514,375.70826945922715L1216.4938087739406,362.8211629533997L1217.0308704953843,376.9180805681384L1219.1589570546457,376.7583411369506L1219.6988318449053,376.5209841966049L1220.760296478121,372.3110477759537L1221.2938418635451,356.1801737013979L1222.3442886438986,356.1935104365559L1222.8723251028914,375.66128689192567L1223.398134549071,377.2338689802188L1224.4519804542442,373.5757217054622L1224.9871667964771,377.28237930355215L1225.5149688330687,355.658335091875L1226.0480453736898,352.4278088778364L1227.7590944809874,376.97928486744786L1228.8263024630357,377.0910611680488L1229.3553938228345,348.58139659822785L1232.584679612337,377.0047642222384L1233.1070899336978,366.4039846139167L1233.938703402411,346.54834389727654L1236.1044147570854,-4.073034853107856L1237.2241333570312,160.19677914263178L1238.2771587837995,83.44961163392327L1240.4048937094585,121.11709030972281L1244.2017161325775,114.58947719210909L1245.8095021720894,173.54150179500505L1246.8545572372127,90.47295721443066L1247.9295011585048,179.08145859340092L1248.4458164974312,198.20024039465267L1249.5057573850386,194.13946175221633L1250.5719104662808,282.7528720018764L1251.6363053795133,344.61863138791574L1252.2145082323905,325.44937232528747L1252.7528592770418,336.61305410768665L1254.3196213963213,361.71082982965333L1254.8524635145413,362.9100529213836L1256.3943768592803,366.7600642019573L1256.901784146956,369.70900214721337L1258.4481515173202,373.36750234106756L1259.9886583276511,376.46774263733937L1262.0608351441952,376.1930878012676L1265.1302448559914,344.5959516647665L1265.6613288062013,371.2802817993007L1267.1519036450495,363.601439322466L1267.6623584239424,377.29780504899173L1268.6948718905942,294.2220304798201L1269.7133200131666,376.7372991228915L1270.2264706496749,375.8264519757602L1271.2506621210794,375.59866506859333L1271.777643679266,376.92212688201045L1272.7924582546177,352.7000078734784L1273.2916607582467,377.8574375075576L1273.8239168204636,374.29141409147473L1274.3412870601956,377.3134381135444L1275.3893896165362,323.8702658544562L1276.7556033714793,191.24223357574056L1277.2952437393376,135.0111409829953L1279.423681932201,69.47921955785421L1279.9446857191535,72.21718450294145L1280.982122056233,219.59664298080784L1282.5756083292645,193.26016028990574L1283.6198429159826,145.76742881599174L1285.2313797139163,218.5958998662381L1288.430073380045,184.40349961923533L1291.6316973261905,30.83003022087064L1293.7640034886756,135.32135198809516L1295.359130718516,175.75591029031463L1298.0718667466908,165.79426705915512L1299.1694324297112,193.11414254580956L1300.8039426229752,376.50048971106617L1304.083629228763,312.2189766365119L1304.628661311852,358.28734347311445L1305.7367760029322,365.1276656714565L1307.362846989748,377.4223033597889L1308.9586774867928,377.2865789240668L1309.4809705969528,377.0663646728345L1310.0312771840718,372.658116306645L1314.8913224084163,369.3314654251811L1315.4471379219665,321.98913688264975L1315.974471113755,356.8262495861967L1316.5108295679952,377.52574434555714L1317.5891726141067,346.53673822670174L1318.652629837734,370.8421359967136L1320.577823808645,166.61567770160667L1321.1033988324239,90.98521479805169L1323.1966736650875,65.83112459616734L1324.2689217287648,75.65237835738361L1324.774102003628,10.52048757561056L1325.3181963971117,53.34833192836186L1325.82607252959,11.33489461375899L1330.0223507245728,227.94436801914296L1334.9415876052526,246.0314300390583L1336.0146561473346,373.7223269403461L1337.6169332604159,377.1506780830364L1340.2902863251672,377.1411353560293L1341.9073320495318,377.30018560445984L1342.4363061981298,345.0159669131626L1343.9799777108785,306.06045981335035L1344.5265335395763,370.47965318887776L1346.1309204542695,376.915650639127L1347.717139632859,374.42716413641864L1348.8033358294156,377.40343068315184L1349.8651520962335,302.6429389513378L1351.488175591832,358.63355771219324L1353.071581701606,376.9154364050075L1353.6038377638224,365.2913405387882L1354.1278890419928,371.5103917250494L1355.2036534416898,358.9228213811599L1359.426304156822,331.097874410919L1360.4980833756963,371.25828643514444L1361.5575554185011,365.57107078943517L1362.9533063960116,263.35307851255897L1365.5512926587357,89.46050263465918L1368.1700253039778,32.09753448725786L1370.2845153639616,171.21768049651897L1372.4102576992098,182.9272202360538L1372.944623563038,88.30175524476152L1373.479927116472,293.9227321904886L1375.6225478646154,197.18107843553352L1376.1550383492333,80.01143437100154L1376.6728774337682,132.78177312743708L1377.2039613839784,347.5644166532892L1378.725011134999,360.8774630719252L1381.3047124504196,371.3303914243487L1382.8789760865418,368.6023625783799L1383.9820506959936,376.9456394485647L1386.4259042298445,376.9185507343379L1387.0057480395308,370.12713226760076L1387.567424113114,362.47024085342224L1388.1245289498715,370.4990698090025L1389.26581441074,374.8262130387095L1390.4065138156047,361.5652947735425L1392.1109990956652,374.5011664861353L1393.7246456952107,364.5149058371125L1394.248931395782,375.447812179438L1395.347434768408,360.43100445652664L1396.474420462795,364.9270010352497L1400.2545988954198,369.1118509876409L1401.8880541878773,373.951590178471L1402.4306248357523,371.690513689571L1403.526080717161,365.0612768981889L1404.6305618610209,369.9484980400204L1405.6756169261437,376.92127114398704L1406.5544665087248,277.2913513398904L1407.6683245486374,139.41278991341738L1409.3589789070195,-32.516258847487336L1410.4779942397615,-2.026712861073179L1412.152356241251,47.212687903543724L1413.3017292749653,96.20010702572597L1415.0282502607506,211.66072352781865L1415.6154783760787,139.39275241107583L1416.144686947078,202.14339657086228L1421.523743367964,168.2005658488L1422.0650246926318,118.8119311834281L1423.1706779484985,176.48096318655345L1423.7344638236934,284.3891022815215L1424.348181670372,220.0946606076434L1424.9218132864232,314.3413120679996L1426.6538431986396,337.7812145745159L1427.1919598208892,365.9178047446188L1428.2568235789245,323.13173472274576L1429.8448009255246,375.04029788864716L1430.8939583826705,376.50925669690497L1431.963979433535,377.31498705820474L1433.0031739386247,372.02056779938545L1437.711196235708,377.07796676870805L1438.2487268019543,357.03218940698906L1439.8363525149525,377.28949698835044L1440.8675766583967,376.82870468873904L1441.9217741971715,349.24738964398L1442.4439500961312,377.2199160378507L1442.9889821792203,354.953414913142L1444.0330995547379,376.8356492381508L1444.5556270872992,374.2035738045549L1446.3224687261131,371.9729109566414L1449.9691436011808,364.0532881741069L1450.974581280479,320.88439764980257L1453.364986506827,79.05431038111726" style="fill: none;" fill="none"></path></g></g></g></g></g></g><g transform="translate(40, 378)" clip-path="url(#clip_1)"><clipPath id="clip_1"><rect width="1473" height="22"></rect></clipPath><g><g><line x1="7.87637368400374" y1="0" x2="7.87637368400374" y2="5" style="visibility: inherit;" fill="rgb(0, 0, 0)" stroke="rgb(204, 204, 204)" stroke-width="1px"></line><line x1="218.85653487975082" y1="0" x2="218.85653487975082" y2="5" style="visibility: inherit;" fill="rgb(0, 0, 0)" stroke="rgb(204, 204, 204)" stroke-width="1px"></line><line x1="429.8366960754979" y1="0" x2="429.8366960754979" y2="5" style="visibility: inherit;" fill="rgb(0, 0, 0)" stroke="rgb(204, 204, 204)" stroke-width="1px"></line><line x1="640.816857271245" y1="0" x2="640.816857271245" y2="5" style="visibility: inherit;" fill="rgb(0, 0, 0)" stroke="rgb(204, 204, 204)" stroke-width="1px"></line><line x1="851.7970184669921" y1="0" x2="851.7970184669921" y2="5" style="visibility: inherit;" fill="rgb(0, 0, 0)" stroke="rgb(204, 204, 204)" stroke-width="1px"></line><line x1="1062.7771796627392" y1="0" x2="1062.7771796627392" y2="5" style="visibility: inherit;" fill="rgb(0, 0, 0)" stroke="rgb(204, 204, 204)" stroke-width="1px"></line><line x1="1273.7573408584863" y1="0" x2="1273.7573408584863" y2="5" style="visibility: inherit;" fill="rgb(0, 0, 0)" stroke="rgb(204, 204, 204)" stroke-width="1px"></line></g><g transform="translate(0, 8)"><text x="7.87637368400374" y="0" dx="0em" dy="0.95em" style="text-anchor: middle; visibility: inherit; font-family: &quot;Helvetica Neue&quot;, sans-serif; font-size: 12px; font-weight: 200;" fill="rgb(50, 49, 63)" stroke="none" stroke-width="1px">0</text><text x="218.85653487975082" y="0" dx="0em" dy="0.95em" style="text-anchor: middle; visibility: inherit; font-family: &quot;Helvetica Neue&quot;, sans-serif; font-size: 12px; font-weight: 200;" fill="rgb(50, 49, 63)" stroke="none" stroke-width="1px">0.5</text><text x="429.8366960754979" y="0" dx="0em" dy="0.95em" style="text-anchor: middle; visibility: inherit; font-family: &quot;Helvetica Neue&quot;, sans-serif; font-size: 12px; font-weight: 200;" fill="rgb(50, 49, 63)" stroke="none" stroke-width="1px">1</text><text x="640.816857271245" y="0" dx="0em" dy="0.95em" style="text-anchor: middle; visibility: inherit; font-family: &quot;Helvetica Neue&quot;, sans-serif; font-size: 12px; font-weight: 200;" fill="rgb(50, 49, 63)" stroke="none" stroke-width="1px">1.5</text><text x="851.7970184669921" y="0" dx="0em" dy="0.95em" style="text-anchor: middle; visibility: inherit; font-family: &quot;Helvetica Neue&quot;, sans-serif; font-size: 12px; font-weight: 200;" fill="rgb(50, 49, 63)" stroke="none" stroke-width="1px">2</text><text x="1062.7771796627392" y="0" dx="0em" dy="0.95em" style="text-anchor: middle; visibility: inherit; font-family: &quot;Helvetica Neue&quot;, sans-serif; font-size: 12px; font-weight: 200;" fill="rgb(50, 49, 63)" stroke="none" stroke-width="1px">2.5</text><text x="1273.7573408584863" y="0" dx="0em" dy="0.95em" style="text-anchor: middle; visibility: inherit; font-family: &quot;Helvetica Neue&quot;, sans-serif; font-size: 12px; font-weight: 200;" fill="rgb(50, 49, 63)" stroke="none" stroke-width="1px">3</text></g><line x1="0" y1="0" x2="1473" y2="0" fill="rgb(0, 0, 0)" stroke="rgb(204, 204, 204)" stroke-width="1px"></line></g></g></g></g></svg>