<svg viewBox="0 0 1513 400" xmlns="http://www.w3.org/2000/svg"><g><g><g><g><g><line x1="40" y1="354.98480101678877" x2="35" y2="354.98480101678877" style="visibility: inherit;" fill="rgb(0, 0, 0)" stroke="rgb(204, 204, 204)" stroke-width="1px"></line><line x1="40" y1="326.65899447789536" x2="35" y2="326.65899447789536" style="visibility: inherit;" fill="rgb(0, 0, 0)" stroke="rgb(204, 204, 204)" stroke-width="1px"></line><line x1="40" y1="298.33318793900196" x2="35" y2="298.33318793900196" style="visibility: inherit;" fill="rgb(0, 0, 0)" stroke="rgb(204, 204, 204)" stroke-width="1px"></line><line x1="40" y1="270.00738140010856" x2="35" y2="270.00738140010856" style="visibility: inherit;" fill="rgb(0, 0, 0)" stroke="rgb(204, 204, 204)" stroke-width="1px"></line><line x1="40" y1="241.68157486121515" x2="35" y2="241.68157486121515" style="visibility: inherit;" fill="rgb(0, 0, 0)" stroke="rgb(204, 204, 204)" stroke-width="1px"></line><line x1="40" y1="213.35576832232175" x2="35" y2="213.35576832232175" style="visibility: inherit;" fill="rgb(0, 0, 0)" stroke="rgb(204, 204, 204)" stroke-width="1px"></line><line x1="40" y1="185.02996178342832" x2="35" y2="185.02996178342832" style="visibility: inherit;" fill="rgb(0, 0, 0)" stroke="rgb(204, 204, 204)" stroke-width="1px"></line><line x1="40" y1="156.70415524453492" x2="35" y2="156.70415524453492" style="visibility: inherit;" fill="rgb(0, 0, 0)" stroke="rgb(204, 204, 204)" stroke-width="1px"></line><line x1="40" y1="128.3783487056415" x2="35" y2="128.3783487056415" style="visibility: inherit;" fill="rgb(0, 0, 0)" stroke="rgb(204, 204, 204)" stroke-width="1px"></line><line x1="40" y1="100.05254216674808" x2="35" y2="100.05254216674808" style="visibility: inherit;" fill="rgb(0, 0, 0)" stroke="rgb(204, 204, 204)" stroke-width="1px"></line><line x1="40" y1="71.72673562785468" x2="35" y2="71.72673562785468" style="visibility: inherit;" fill="rgb(0, 0, 0)" stroke="rgb(204, 204, 204)" stroke-width="1px"></line><line x1="40" y1="43.40092908896128" x2="35" y2="43.40092908896128" style="visibility: inherit;" fill="rgb(0, 0, 0)" stroke="rgb(204, 204, 204)" stroke-width="1px"></line><line x1="40" y1="15.075122550067874" x2="35" y2="15.075122550067874" style="visibility: inherit;" fill="rgb(0, 0, 0)" stroke="rgb(204, 204, 204)" stroke-width="1px"></line></g><g transform="translate(30, 0)"><text x="0" y="354.98480101678877" dx="0em" dy="0.3em" style="text-anchor: end; visibility: inherit; font-family: &quot;Helvetica Neue&quot;, sans-serif; font-size: 12px; font-weight: 200;" fill="rgb(50, 49, 63)" stroke="none" stroke-width="1px">0.2</text><text x="0" y="326.65899447789536" dx="0em" dy="0.3em" style="text-anchor: end; visibility: inherit; font-family: &quot;Helvetica Neue&quot;, sans-serif; font-size: 12px; font-weight: 200;" fill="rgb(50, 49, 63)" stroke="none" stroke-width="1px">0.4</text><text x="0" y="298.33318793900196" dx="0em" dy="0.3em" style="text-anchor: end; visibility: inherit; font-family: &quot;Helvetica Neue&quot;, sans-serif; font-size: 12px; font-weight: 200;" fill="rgb(50, 49, 63)" stroke="none" stroke-width="1px">0.6</text><text x="0" y="270.00738140010856" dx="0em" dy="0.3em" style="text-anchor: end; visibility: inherit; font-family: &quot;Helvetica Neue&quot;, sans-serif; font-size: 12px; font-weight: 200;" fill="rgb(50, 49, 63)" stroke="none" stroke-width="1px">0.8</text><text x="0" y="241.68157486121515" dx="0em" dy="0.3em" style="text-anchor: end; visibility: inherit; font-family: &quot;Helvetica Neue&quot;, sans-serif; font-size: 12px; font-weight: 200;" fill="rgb(50, 49, 63)" stroke="none" stroke-width="1px">1</text><text x="0" y="213.35576832232175" dx="0em" dy="0.3em" style="text-anchor: end; visibility: inherit; font-family: &quot;Helvetica Neue&quot;, sans-serif; font-size: 12px; font-weight: 200;" fill="rgb(50, 49, 63)" stroke="none" stroke-width="1px">1.2</text><text x="0" y="185.02996178342832" dx="0em" dy="0.3em" style="text-anchor: end; visibility: inherit; font-family: &quot;Helvetica Neue&quot;, sans-serif; font-size: 12px; font-weight: 200;" fill="rgb(50, 49, 63)" stroke="none" stroke-width="1px">1.4</text><text x="0" y="156.70415524453492" dx="0em" dy="0.3em" style="text-anchor: end; visibility: inherit; font-family: &quot;Helvetica Neue&quot;, sans-serif; font-size: 12px; font-weight: 200;" fill="rgb(50, 49, 63)" stroke="none" stroke-width="1px">1.6</text><text x="0" y="128.3783487056415" dx="0em" dy="0.3em" style="text-anchor: end; visibility: inherit; font-family: &quot;Helvetica Neue&quot;, sans-serif; font-size: 12px; font-weight: 200;" fill="rgb(50, 49, 63)" stroke="none" stroke-width="1px">1.8</text><text x="0" y="100.05254216674808" dx="0em" dy="0.3em" style="text-anchor: end; visibility: inherit; font-family: &quot;Helvetica Neue&quot;, sans-serif; font-size: 12px; font-weight: 200;" fill="rgb(50, 49, 63)" stroke="none" stroke-width="1px">2</text><text x="0" y="71.72673562785468" dx="0em" dy="0.3em" style="text-anchor: end; visibility: inherit; font-family: &quot;Helvetica Neue&quot;, sans-serif; font-size: 12px; font-weight: 200;" fill="rgb(50, 49, 63)" stroke="none" stroke-width="1px">2.2</text><text x="0" y="43.40092908896128" dx="0em" dy="0.3em" style="text-anchor: end; visibility: inherit; font-family: &quot;Helvetica Neue&quot;, sans-serif; font-size: 12px; font-weight: 200;" fill="rgb(50, 49, 63)" stroke="none" stroke-width="1px">2.4</text><text x="0" y="15.075122550067874" dx="0em" dy="0.3em" style="text-anchor: end; visibility: inherit; font-family: &quot;Helvetica Neue&quot;, sans-serif; font-size: 12px; font-weight: 200;" fill="rgb(50, 49, 63)" stroke="none" stroke-width="1px">2.6</text></g><line x1="40" y1="0" x2="40" y2="378" fill="rgb(0, 0, 0)" stroke="rgb(204, 204, 204)" stroke-width="1px"></line></g></g><g transform="translate(40, 0)" clip-path="url(#clip_0)"><clipPath id="clip_0"><rect width="1473" height="378"></rect></clipPath><g><g><g><line x1="11.996460127131847" y1="0" x2="11.996460127131847" y2="378" fill="rgb(0, 0, 0)" stroke="rgb(60, 60, 60)" stroke-width="1px" opacity="0.25"></line><line x1="197.58093846834035" y1="0" x2="197.58093846834035" y2="378" fill="rgb(0, 0, 0)" stroke="rgb(60, 60, 60)" stroke-width="1px" opacity="0.25"></line><line x1="383.1654168095489" y1="0" x2="383.1654168095489" y2="378" fill="rgb(0, 0, 0)" stroke="rgb(60, 60, 60)" stroke-width="1px" opacity="0.25"></line><line x1="568.7498951507574" y1="0" x2="568.7498951507574" y2="378" fill="rgb(0, 0, 0)" stroke="rgb(60, 60, 60)" stroke-width="1px" opacity="0.25"></line><line x1="754.334373491966" y1="0" x2="754.334373491966" y2="378" fill="rgb(0, 0, 0)" stroke="rgb(60, 60, 60)" stroke-width="1px" opacity="0.25"></line><line x1="939.9188518331744" y1="0" x2="939.9188518331744" y2="378" fill="rgb(0, 0, 0)" stroke="rgb(60, 60, 60)" stroke-width="1px" opacity="0.25"></line><line x1="1125.5033301743829" y1="0" x2="1125.5033301743829" y2="378" fill="rgb(0, 0, 0)" stroke="rgb(60, 60, 60)" stroke-width="1px" opacity="0.25"></line><line x1="1311.0878085155914" y1="0" x2="1311.0878085155914" y2="378" fill="rgb(0, 0, 0)" stroke="rgb(60, 60, 60)" stroke-width="1px" opacity="0.25"></line></g><g><line x1="0" y1="354.98480101678877" x2="1473" y2="354.98480101678877" fill="rgb(0, 0, 0)" stroke="rgb(60, 60, 60)" stroke-width="1px" opacity="0.25"></line><line x1="0" y1="326.65899447789536" x2="1473" y2="326.65899447789536" fill="rgb(0, 0, 0)" stroke="rgb(60, 60, 60)" stroke-width="1px" opacity="0.25"></line><line x1="0" y1="298.33318793900196" x2="1473" y2="298.33318793900196" fill="rgb(0, 0, 0)" stroke="rgb(60, 60, 60)" stroke-width="1px" opacity="0.25"></line><line x1="0" y1="270.00738140010856" x2="1473" y2="270.00738140010856" fill="rgb(0, 0, 0)" stroke="rgb(60, 60, 60)" stroke-width="1px" opacity="0.25"></line><line x1="0" y1="241.68157486121515" x2="1473" y2="241.68157486121515" fill="rgb(0, 0, 0)" stroke="rgb(60, 60, 60)" stroke-width="1px" opacity="0.25"></line><line x1="0" y1="213.35576832232175" x2="1473" y2="213.35576832232175" fill="rgb(0, 0, 0)" stroke="rgb(60, 60, 60)" stroke-width="1px" opacity="0.25"></line><line x1="0" y1="185.02996178342832" x2="1473" y2="185.02996178342832" fill="rgb(0, 0, 0)" stroke="rgb(60, 60, 60)" stroke-width="1px" opacity="0.25"></line><line x1="0" y1="156.70415524453492" x2="1473" y2="156.70415524453492" fill="rgb(0, 0, 0)" stroke="rgb(60, 60, 60)" stroke-width="1px" opacity="0.25"></line><line x1="0" y1="128.3783487056415" x2="1473" y2="128.3783487056415" fill="rgb(0, 0, 0)" stroke="rgb(60, 60, 60)" stroke-width="1px" opacity="0.25"></line><line x1="0" y1="100.05254216674808" x2="1473" y2="100.05254216674808" fill="rgb(0, 0, 0)" stroke="rgb(60, 60, 60)" stroke-width="1px" opacity="0.25"></line><line x1="0" y1="71.72673562785468" x2="1473" y2="71.72673562785468" fill="rgb(0, 0, 0)" stroke="rgb(60, 60, 60)" stroke-width="1px" opacity="0.25"></line><line x1="0" y1="43.40092908896128" x2="1473" y2="43.40092908896128" fill="rgb(0, 0, 0)" stroke="rgb(60, 60, 60)" stroke-width="1px" opacity="0.25"></line><line x1="0" y1="15.075122550067874" x2="1473" y2="15.075122550067874" fill="rgb(0, 0, 0)" stroke="rgb(60, 60, 60)" stroke-width="1px" opacity="0.25"></line></g></g></g><g><g><line x1="0" y1="383.3106075556822" x2="1473" y2="383.3106075556822" fill="rgb(0, 0, 0)" stroke="rgb(153, 153, 153)" stroke-width="1.5px"></line></g></g><g><g><line x1="11.996460127131847" y1="0" x2="11.996460127131847" y2="378" fill="rgb(0, 0, 0)" stroke="rgb(153, 153, 153)" stroke-width="1.5px"></line></g></g><g><g><g><g><g><path style="fill: none;" stroke="rgb(255, 112, 67)" stroke-width="2px" d="M11.996460127131847,279.68706805778413L12.587649793136562,315.6610003035056L14.707333843257066,276.0316404235743L15.256767001635012,253.37510435930875L16.822996896346844,274.1950639698417L17.306959974865528,277.8580673836095L19.053000608592395,282.18578478307984L19.538407121942626,291.406482099595L20.011956849176613,296.597593116354L22.26691136351026,293.36877741636965L26.92044215791606,289.2490480461779L28.833199514686118,290.7950672721024L31.170532916905675,293.73573538412984L32.22372483149203,287.7115037324179L33.21825143042498,286.3750093562677L33.75737434000619,287.79695494774387L34.78819301470364,286.0293640896021L35.770553520056424,284.8191883482231L36.245855989585856,287.4640465153725L37.96003795453082,285.68355178703297L38.515863467162745,286.9917338939623L38.97126715651447,281.3373321701231L39.45007511063479,277.44645781091117L39.94465774541411,274.21451893200765L43.06701349101698,269.6483774284L44.04885848392993,266.2445060168476L44.54591557842047,268.08885119673573L45.00946436432163,268.6348276580307L45.74860610055947,267.93016608576283L47.59197548292751,267.0276236105383L48.052224989213705,265.1894192156647L48.52505299903192,258.14158608604095L48.98519940283015,254.52643214082394L51.38449740031807,253.9848068511512L53.97659705030492,251.62523282035158L55.88306515530897,248.03840218341918L56.3488821959454,239.02724196457817L59.23771080630225,237.05777323835878L63.61296798568419,233.40187741204764L65.0672285784635,231.04823751034556L65.56438877544201,233.79013085409548L69.2598912516553,237.07328221330263L71.09789930464903,237.92361676398284L72.404929544611,235.5621520639319L76.59429293818783,233.23329589327622L77.12289939399638,226.61529464902088L78.77274540644972,222.35327094029574L79.27526693280252,218.17439710031397L83.05644757651669,210.89530262045514L84.33254707008842,211.48268059571512L85.30769040128351,207.72774077239055L85.78330217827684,201.3468903035048L86.27592586578479,197.1630780910725L90.18619082443405,195.42221705647745L92.87273235339899,187.78495489375666L93.89355008676358,188.84527835396065L94.38679238919933,191.2924106332085L94.86982754532632,189.4249655317739L96.8867184149434,190.20657324763872L98.52945035572698,186.41191633701078L99.72162442409329,181.88820988006347L100.43622776819493,182.70226523104012L102.11164319766416,182.6069217504352L105.28647810964242,176.1557301204322L105.78436002403669,170.11896050849373L106.75496684576122,165.98272906487358L108.45564238478244,163.22571807196255L109.44707590907637,162.21159433710196L110.17405155173408,161.2757695348374L111.11424313950823,160.5604500985745L112.09495400505354,157.66233863467852L112.57541159898133,155.0103831672942L116.4607257555425,155.8325572519138L122.08001755473838,152.36599988954515L122.63986406440101,148.17485264916314L123.22002176419323,142.80202677074178L126.11050001435756,141.03922817195524L132.64616672660713,137.30793682094293L133.22158171195284,135.49818755035056L134.36385417614295,132.64224914108448L135.50849799755633,131.1231355730843L136.88543172436016,128.2048007396637L138.40155380991987,124.4880648422888L138.8730414873945,120.63071935764174L139.35432390122605,116.57272453649483L141.0628352293328,114.59355631448852L147.39961724229337,110.73053217743694L148.40744406217408,108.13222574016055L152.03788886848,108.28704335688326L154.02539552902638,105.5642925856697L154.5180192165343,102.8734243316639L155.0173445657601,99.65695488947358L155.52677395880673,96.77991532483111L156.5376938533265,95.11122528893117L159.02730963027378,92.48510481944732L160.09308004839218,91.79890065377913L161.06482099748433,90.98572265136528L162.12986969818692,90.08125960978322L164.65722098573028,87.20441916104215L168.39375825215458,87.10166141415465L172.16761861922305,87.2738665820932L172.6691091206962,85.61332061487911L175.45906244509237,84.484774364874L175.95178923508828,84.25769733275717L176.70763357437684,86.3573193840013L177.76670233077732,86.70640441789652L178.26375942526786,87.35759723470431L179.26777145309381,85.74505023047112L181.33466702937503,83.9920324478037L181.83120861142575,82.19346536950422L182.84707742536793,80.09863260790473L184.33525873668847,79.59590390654307L186.9397306852314,77.85065193191065L187.57473890862227,75.75305801863743L188.19850896082463,73.60251049687781L188.76412920981346,71.62441161748285L189.9171243327522,69.8114927184792L191.88720667283204,69.96952270734647L192.47179777960693,69.8066404604134L193.04999653212775,70.06609802294116L194.99657150495105,74.56520794654904L197.27843576864421,75.60858540178344L200.67710618199956,73.80871208764529L202.07507281634867,73.20739678348053L203.74801378610667,74.31726914191233L204.47292737900506,74.64501504548952L205.68407230515737,73.54710295882774L206.15566308511998,73.92011923905659L208.57444745283368,73.79094555751254L209.30843406467324,73.30699442251057L211.25903003452726,71.89542158435177L212.21664594276788,71.06422583701266L213.68657811371827,73.86567273268048L215.84636903165807,78.53325656247233L217.79778982141585,78.60889151316832L218.97099303199616,80.16170362829394L220.91705249237967,78.88658073863627L221.6480491320681,83.8243079446101L222.11283514782485,87.9547497999954L223.30521542116713,89.75734592693715L223.772785204099,88.31902637457472L225.69729624449732,86.9039410304793L226.19662159372317,88.34991766922951L228.58169144787158,89.63163768762433L229.05905596716036,92.06501865826283L229.530543644635,91.94411269247394L234.64226189556766,93.06130034256836L237.0265069298123,97.22037305177037L241.59693711891646,97.83761037519201L242.0708992561023,97.48947352064039L244.97622426453398,99.889010906583L245.4710131042892,99.62060727745398L246.4380113389349,98.20686339408314L247.41202054276232,102.3276253041999L249.6504786590212,105.06216863184488L254.4896970342562,102.55128734575533L255.4639124430596,100.67618868088914L256.20800309871987,100.15480392037801L257.65092241782276,98.85706735167213L260.8359644761097,96.72503461951123L264.4599138256737,96.56340210739614L264.9381031648662,95.66303789230187L265.418457656306,93.31501136871947L265.90221452984883,91.78865480927988L267.10500815447574,92.41924171257813L267.5809292389329,91.9009805315344L269.00570252015365,91.88772134709063L269.4839949618341,91.48357982404389L272.1081594855788,93.08958348851729L272.59377220390496,94.07207471166925L274.5106536601937,107.50382169166352L279.304919350675,107.72108269368005L281.5510070510434,111.60532654943034L282.14044397475266,114.04903419226429L283.2640548886207,111.18946910658298L284.3880782124407,110.83696649595589L286.31939401704483,109.38663194552709L292.9299131355587,110.31484842840013L294.6315165969716,107.54219226009826L295.3545743450865,104.35579626463647L295.8294644046641,101.03760684050815L297.0297835695799,101.61145192516182L298.2354640638699,101.3186194849012L298.7174681951172,102.40521360658443L299.68889983674546,99.38672475307578L302.6407240672504,99.6855519468391L303.3595546133586,97.42903700154272L306.5841880270251,98.87084819053155L307.52736958695033,96.81500463423293L308.014528842596,95.70392054037688L308.50756494005583,95.35093800350131L308.9860635867122,99.61111798312487L309.4581698791146,104.35325095275584L310.1659684590104,112.0055590808438L311.58733935812813,111.94730090346252L312.3193670226962,108.8278142303621L312.8120938126922,105.62494994888505L315.37315961380085,103.83787170951098L315.8607312793984,102.50065417240228L316.3298475996497,101.27809941286591L317.2998358064464,101.0669717170586L319.70047413627805,104.75212948908955L320.8980095340186,103.5990245545866L322.1589529618592,102.3025617538886L324.3233834917575,102.4753362786816L324.81312030960237,102.80435003249056L325.2979082080248,102.17621326093303L327.22613093798986,106.38837242047111L330.0936173333375,106.21040833582623L330.57067254516244,106.24104212048968L332.2877413797704,103.73762490678467L333.3189724644198,102.49093572186939L333.7942749339492,100.89491859113042L334.274835630365,99.37097275656043L334.75013809989434,98.65492510587404L335.2334825634853,98.38883003279062L335.71064087779814,99.85105526903584L336.67217468058146,104.63175602564314L337.14953919987033,110.29617567055925L340.9249461042582,112.24920095863735L341.48046230942623,115.81417437150645L343.44745157486716,114.01422358598404L344.00946323677715,112.44917676783979L345.9439752185083,110.12242974037059L347.05191455420527,109.50268512028583L349.51410506935326,109.7057960775565L350.8860898767347,111.64351611130581L352.33004022071725,112.20592226322759L353.66965084687683,113.36809059278033L355.60375041865615,116.61919013284L357.6880703154038,116.58799331547527L358.16976513918723,116.62067700211588L359.6105193060429,117.48019070050776L361.0482835007474,115.81473611886645L363.24281995713216,115.27606627022988L366.4386877766557,117.85364155452396L370.3515302975042,118.6665053404202L371.17109197435656,119.97220975564142L372.2676900363772,118.39447226396601L372.8219690116896,117.39293417157438L373.63369489945643,117.7570836178055L374.1819939304667,117.19801124230918L374.765347807386,114.55544054758093L375.4096352546938,113.44452655220101L377.57726196171916,116.26472185721917L379.7944809654567,118.57297440871747L380.34329550890686,119.87193563055621L383.2999655563463,124.02306584975341L385.2947924935383,125.60209644244827L386.66512766111225,123.73176476673618L387.77884073613535,123.4687340216293L389.2554745688036,123.66605696246592L389.74222141449746,126.24069277360223L390.46321711285304,130.7591422444122L391.19390444507746,132.27080975309676L391.6709596569024,134.93971897643343L393.12480783972984,131.6781795227724L393.7105330738723,128.6439832573238L394.1736694498216,127.77482244812339L395.39646495711423,128.24375526374408L395.89702753619554,129.10965660847452L396.3776913350993,129.35830316915087L396.92650587854945,125.66958002002181L398.3620018185188,120.64976879750697L399.4020997171333,120.15567390142246L400.0616463326603,121.11844793895892L404.31235570657776,126.78737938732752L406.2250099608599,127.40624597887538L407.0380761809703,129.24609513868256L407.90300295252825,132.9276507097732L409.0657928118239,131.89988625127415L411.0663934883421,128.08428659925377L412.2009332659347,128.71086080682545L413.56900017877336,129.85375578200524L416.44267272339897,128.68984744927346L419.18375546849853,127.67155221120547L420.6976092993231,123.68745884273335L421.19476949630155,121.5735880267743L421.92030170412767,121.70995846763299L422.4108633418763,120.67263643604002L422.9034870293842,119.60298056674878L425.88160239432085,119.41412514863208L429.24387762942365,116.68042048918818L430.1792234002633,114.72071841673937L431.0146628602626,112.26791577629962L431.575540394805,110.65011546642558L432.3823173631494,110.7642624472104L433.48427675454434,111.21230779985092L435.45868939911884,107.17538173286619L436.06080792884813,103.50219844165758L437.98655619910204,101.2798454294994L438.54062896943856,102.33453933040198L439.09738240446217,106.69893184476865L440.732897171088,108.68595240550485L442.0982834192395,105.88505730572587L445.9182305984293,107.8353620386959L447.6130292956365,104.56674448774652L448.16339037640614,101.98287158333198L450.29988013206525,101.87348020369006L450.774357781691,99.80122146015447L451.2428554870146,97.53047789939916L452.6968067723299,100.12981834596383L453.4182148806375,103.77726806422896L453.8998066019329,103.25961900564971L456.6466630863587,102.02733740238642L458.8019174948279,100.97319098615185L459.2920667226246,100.01380627036133L460.2592711622463,104.16907983784137L461.6685790702718,109.57309564086825L463.2717196556759,108.39990614390189L464.0771562916767,110.71339470792907L464.6190629684331,109.19732496258666L465.45811101551135,108.33002376389436L466.02352505952416,106.48495158760534L467.95927427111087,105.83565687489016L469.1929986421281,103.34190216372969L470.3156816336044,100.61255777867217L471.99810803225546,99.30187385609509L473.1185227689965,96.98507706717163L473.9095250566819,94.60584673556167L474.72764329870284,93.56794076330686L477.20715503182936,92.94141585811997L478.64182615189486,92.98319739458344L479.33106628395643,92.09777332576431L480.5730388540111,91.72580531994532L482.26422896413925,89.60043082878826L484.4405162801539,89.0644541229953L486.2211993498378,89.17278319595772L488.2283985855859,86.52530850307608L488.71153684420085,85.74643058957093L489.6784319763585,84.20970455910992L490.6402750866058,85.6965923310155L492.0898960674266,88.58667915988849L494.9665585842032,85.93555996705015L495.91437975608704,85.23792577780767L496.6234155658384,82.8354513167908L497.0977901129762,80.64442526226372L497.5775259894882,81.24343703165721L499.0567373843556,80.18861798941856L502.39220597258685,81.70789145751598L503.5828335036337,81.23398865118531L504.06927104186366,82.11811355018631L504.932960583566,80.9784685292766L506.0452302237577,79.24106789779779L508.52092716482946,81.6272565295223L509.61865935421764,79.17160375069557L510.41976568572386,77.0794701827765L512.8758731540818,77.28569252165579L513.4291211045146,79.08439325226419L514.3072449945324,79.03438487597828L514.9155496735397,82.78589269291325L516.883982373812,85.20206814924535L517.4968235622899,88.61293840758219L518.1107988781355,88.74470052040834L519.7116712088043,89.91291870389426L521.401314781613,87.55986570282556L522.771443744211,90.79472142459423L523.3371670956877,90.47645377722267L524.6479090252164,90.01964197824714L525.1216649574264,89.48934412916572L526.8636845941227,89.31220970634757L528.6028173611556,88.26760867568248L529.1526629294855,87.29579201887526L533.0148821287419,90.37851127804021L533.4967831575012,94.566708728202L533.9776531613809,94.94977756616777L534.69390614529,93.34382464490551L535.9829965523456,96.16254979657856L536.7958565674802,96.71658519622662L538.1548504613776,95.96600930058526L538.7212955302701,95.22980857525681L539.277636555342,94.31677495352716L541.2020444932523,96.52346807219823L541.7672523322892,95.84103138156348L542.3219437175535,97.8907932477943L542.866634161485,100.70151567529518L544.4935914216095,101.6799445766386L548.5917091133352,102.77827380748948L549.1498028807025,103.72819158787837L551.0799845579392,102.19919122165953L555.6745407292275,100.66495065380684L557.434397096342,99.58394511914838L561.1302088800193,97.11295394432625L561.6152029834176,94.57929993472527L562.1123631803962,92.26149690685025L563.391143338655,92.02704852792709L563.8641775534492,92.55704070074808L564.5884725314197,93.84116174811976L566.0058224335068,97.67478719988651L566.8102280446278,97.28260568564997L568.173655345508,97.84028920448321L569.2936576722972,95.78747870805626L569.8580406914303,94.73751804508186L572.3578636146864,96.25862542108126L572.9242055810911,95.99812094364302L575.6667317610222,96.38689747567685L576.210494282562,96.66917761004805L576.7705469972005,96.6381531769245L577.3255476899286,95.86346297211009L579.0179750299125,96.669341353925L579.8356808619816,97.09163393284234L580.4546050972494,98.57009116308137L582.3535467206319,101.47116170416075L582.9080319009203,104.6569927208634L587.5791932207684,102.50035756508225L589.5150455348431,104.06595201611918L590.9630168758565,109.7569858128249L592.1789045164553,107.61183038001076L592.7305028270805,103.76396243677732L594.4078772038212,101.1926224240683L594.8924588972676,99.43976889241378L596.3524932293732,96.98261456781137L596.8321260033972,95.79186941943192L597.4025920693205,94.44473077478449L598.0695620639812,91.88714766868924L600.2080107669118,90.9899715125722L605.3275648069299,91.0010166508763L606.7492450135115,91.18113349894952L607.8332645720002,91.0716386374009L609.4582628848533,91.03591112520792L610.0172845746123,91.88733948989295L610.5884723579513,90.41204110398064L611.7091964021563,87.75851035807727L613.0943783279974,84.96217848655186L613.648038688382,81.8912067148363L614.4637855731797,81.25296278582181L616.32478548099,78.26358573244892L617.7242986526588,77.36772655495326L621.5630104846587,76.69005986757088L622.0343950596454,75.15141936756538L623.9802483150529,72.89832082588168L624.9459062173551,72.17884481165947L628.3306577948347,74.17969638361524L629.0026798114059,77.31663129514453L630.3534255062659,77.27704641597762L631.7085015056207,78.34543509251205L634.6266112225602,77.74475354862602L637.2749017284893,75.84089957481791L638.3585088770261,75.4040566500621L639.472737464489,77.16292924580353L641.1589786551948,77.50934996488456L641.9720448753053,80.27655472551925L642.7760380764746,85.60443627465423L643.3249557224127,85.54424188880245L647.2088264441422,82.99155382911914L647.7624868045268,80.0124833619762L651.2623007585782,80.34132290890898L652.5337606401914,79.13919121432696L653.734492215059,78.30330269896933L654.2227855980724,78.23256699843603L654.713037928357,76.77618090618688L660.060757774247,79.02488512511633L661.418205130825,82.35066433217588L663.7639929370578,79.67289462607425L666.3812495941087,77.7634194460868L667.8727301850441,75.71834554455626L668.41010035233,73.52038703005735L668.962214175395,71.80470117468957L670.6241231789406,71.02478696065953L671.4348180418277,70.45626709015625L672.5722446890834,69.24890550810136L673.1380711430481,68.53196995518698L674.2172448846023,69.19866068141022L676.0714400282069,67.36233210940168L676.6070574531972,65.28700462488888L682.6027764359618,63.57018423223616L683.5754453074456,63.04946850521077L684.0603363083561,63.221129183105916L685.7644142294803,62.255431930981445L686.2400260064736,65.55538168553107L686.9608154998532,65.294671931962L688.865015350122,64.25757714589656L689.3250586514322,63.51163144256998L690.0494567318908,61.90407170911732L699.7989310965703,60.38623077596651L701.7500425788642,60.42742436422736L703.1323376350423,60.799221870180645L703.68836935265,59.87211296727696L704.8133205988618,59.49596034502093L705.6429863195349,58.53164603979178L707.293450946916,57.03664403628727L709.4720065176659,58.16339783093389L710.0575255468324,57.29274194458554L710.525920149668,56.32447598927433L711.0865914792345,56.16794484445688L712.0541052263198,56.31404120993989L713.2807155256673,56.66336565503315L714.522584993234,55.297145772802025L715.4969035045252,54.85033149799813L716.2083106714999,53.78877901330105L717.4229610822432,52.09689933629119L718.3921244691361,51.88960641408994L719.348812454985,51.41404760523676L719.8362810180945,51.678869095527546L720.321172019005,51.45231327084991L721.0411366924809,50.927046354402876L721.732335771814,50.02627295277523L728.1067501928826,49.40447236249372L730.6651353293041,48.29250571720604L732.9272039153075,50.055243353849846L733.5563352968842,51.67556116839546L734.1711354326334,52.33394557353745L735.5480691594372,52.653079533639755L737.4714460724679,52.28156081216821L739.6534040253207,50.7601293617883L740.7514455221728,51.57529416840703L741.9731069020978,50.47810579582762L742.452533471146,51.12783889185681L743.8185383342252,49.8896722390312L746.4922951546821,50.33293872695651L747.0797731311201,51.704599457805045L747.8665482167987,51.82599740363872L748.945928163329,51.2232090701911L749.6986794279784,50.77136071200391L751.713714452812,52.31413218534499L752.3032544790093,52.73301558531409L752.8701119578539,51.92313126872904L753.4121217370981,50.12451551378234L754.8796825508251,49.60407560628249L758.4748663062461,49.35664958113148L759.1049256102145,48.28689838469535L760.5058822167147,48.917972738456854L763.2003626372532,48.41310812092382L764.0104388852126,47.793163017901634L765.1126044815833,47.02466369405778L767.8689463949021,46.95690806832607L768.974101963424,47.15511926258063L771.203177753278,47.609757726603846L771.7626118529887,48.601068360102204L772.5684608989415,49.355624124709266L773.1261422563567,50.12032089763818L774.4836927154228,51.42581754443961L776.4243908464318,51.69919229473527L776.9759891570571,50.67105427517549L778.308795019011,50.35138871939745L778.8720439107765,49.18494880933082L779.6732533447707,48.558544472012045L783.3161735521205,49.34446174702032L784.6526911036412,49.31491512133351L785.4506012580206,50.56527588850247L786.8773334865125,51.36478756705537L787.4489336798034,50.62196462377716L789.1986860030971,48.95523678397137L789.8786469112417,50.01598531351033L793.9115007280843,49.852594564285994L794.5546540480243,48.79512488593713L795.4582442525701,47.44272695545624L797.6842269677851,48.19781376689883L798.8251590996315,47.31862680504372L799.3879955814454,46.0869043303926L799.957224417513,44.75666819527112L800.5344952476422,43.99454222582193L801.0926921174972,43.25511075414573L801.6530541395996,42.72141017979777L803.9225461047367,45.966307939607134L805.941705229089,45.2918431798027L809.4934828370759,45.5328061897747L810.0642582104631,45.10730818875294L810.8861912445388,44.01055925187717L811.4873818518762,44.1278204736783L814.404976056376,42.161649996226174L817.1691537587805,41.558077278782775L818.2711131501752,40.92370886756282L818.8242579981201,40.43566949881216L821.4367719407243,40.82490829443094L823.9672163029066,41.73933445856227L828.9709862489376,42.500828419448794L830.6412465540085,42.709264184040705L832.4913175980944,42.36064703232762L834.1000257178488,42.42685558825559L834.6509023110582,42.12551557297121L835.7552330596765,42.07199414759026L836.3115740847481,41.49874187676153L836.871008184459,40.941447567257796L837.988329846561,40.90866441802228L838.7950037124174,44.51456225592864L840.7483834494467,46.029376788820116L852.8173544859274,46.17629687774098L853.6594956076445,47.051761146609124L854.2387253850451,47.582586393265615L854.8141403703908,47.8155003277833L857.3083957592967,49.68190316045258L859.4547833538005,54.56793090816814L860.006072356962,57.84063081531838L861.909550489815,57.992370755477054L863.0591432306508,58.55669455191082L863.6046584944861,60.020111457880944L866.0875726097153,59.866387799324514L866.6280358516401,60.119930530164936L867.2340722759122,60.3790995092574L868.5746108244635,60.43056671628398L869.2145679672767,62.064779243454154L869.8213261089646,63.26176872933928L871.5202489056903,64.44107154209871L872.8746031876294,63.83443154660961L876.8506475336019,66.73232246737524L878.4839971479803,65.16054827978832L881.7772968186331,64.1199441806815L882.3671461522943,63.10446524654009L887.8831292585467,64.93158349014675L888.4648334956585,65.32471120266143L896.6148789645007,64.46357697137773L899.0869673184935,64.0840375572788L899.650216210259,64.58870206675397L901.5751396606092,65.73529583585184L902.1556066678655,65.52073717894694L904.5143853875821,68.33642848792402L905.8814212755411,67.74393533750663L906.5020982531045,66.88900307289401L907.1280334575542,65.83244928861774L911.6213429856589,65.24177889307475L912.1009757596829,65.46442610428994L912.605559335795,64.85143522867463L913.1196283408001,63.85358768965284L914.6763728066189,63.76756571219107L915.2221973779181,64.13939077138042L916.3485920589611,62.848809501429116L917.0203047680683,62.625713994894056L917.6543850690676,62.09037874073721L918.2445437101926,62.82813530289411L921.8147766635255,64.39356795486356L923.4238971932317,65.51911351653024L926.6968856737549,64.9825452447592L927.2521956739471,64.96187140474092L928.8679147628831,64.60605068168627L932.7883868678413,67.35098572218084L933.7743559602728,69.19595275877026L940.690264648146,73.03975543326237L942.3353679461528,75.49766125980068L943.2150383734901,77.95113497188288L944.7247681047959,76.82093252524407L945.317813615584,75.24025775590803L946.7314518281041,75.86325416776685L947.8405252911688,75.53005425860175L951.343947832299,78.06837528377349L952.2094932187848,81.79683154271942L956.8076579771521,80.24430312530279L957.5743280776771,78.17409996396009L962.6185141989913,81.66377346298475L965.4810516749166,81.98687244817461L966.4406265304284,80.22358493490191L968.7943532282349,79.12911160046502L973.0462998320078,80.66253662941023L974.1523833229215,82.93035569112425L974.7343968674971,84.88436689950782L976.1936063796987,82.20472107991304L978.2445210703452,81.88563184796516L979.9629302372966,83.01293117417015L980.6907306998581,81.41646126287657L983.7077157027584,82.61297898682403L984.3268461430023,83.97704217140125L986.0089632341894,83.20074908152185L986.6082979967437,83.44095827289385L987.2058800170023,82.09895671567364L987.8194429228959,80.61851953607948L989.9665522348156,80.17752216545114L990.4961897155039,80.65287735862768L990.9958243721936,81.77544569986406L993.3248064728879,83.32713990130344L994.6163713396546,87.20155378457491L995.3799483655407,88.36534901090823L995.9076268989576,89.53881201565662L997.2173378036066,87.60009974707697L998.5209656614658,88.01095674576288L999.9126430440489,86.44222570953838L1001.525165955858,85.59379328351952L1003.3978164448088,86.77214780366069L1003.9151847294288,86.59106555817635L1004.5249328432677,85.51420004545668L1006.3439700384755,90.72944440047638L1007.974226578215,90.39827458849157L1008.5602611198215,89.19437448015617L1010.5231262857435,87.79301344022355L1011.3105199863501,90.87978048040566L1013.1300726939977,90.74437400254203L1014.9744731012455,89.07423957926426L1015.581952960349,88.0473763800693L1016.1369536530771,86.27835388363354L1016.9041392660421,88.9856063527917L1018.7012156313128,89.1785376282229L1021.4687957158201,91.89876098866108L1022.842120855545,89.73703873430492L1023.4644474729158,87.9467484381284L1024.0553278314567,86.37510949108372L1025.9720030827693,86.19305464559301L1026.5709254353717,86.49894036337628L1027.580504997548,86.64867034438532L1030.483974161196,86.04120670206748L1030.9992803960567,84.20713288457767L1031.5275775444015,82.58998573995967L1033.3748648213123,80.79142909235452L1035.5398108636505,78.66286386760544L1036.3030785820727,77.93442610107786L1037.9104463694835,77.58545938480057L1038.486376867269,76.51306537489279L1039.0724114088755,75.04457527838662L1039.6783447306595,72.61080319208202L1040.986715302965,71.46068854622024L1042.6648113971214,72.63287713978832L1043.1821796817414,77.51405506704197L1043.9682330500045,85.12985072586065L1044.7385117376084,91.57521588684597L1047.4142275053366,89.58995767973107L1047.9654134060102,88.2976318403501L1050.9029063906876,90.08467601220497L1052.0891005147519,93.09093694624238L1052.5789404350844,92.38770785589867L1053.332104109686,91.3719031726481L1055.6468580670405,90.05992616134034L1057.413519198361,90.21986228046757L1058.691990049156,92.21216683683167L1060.2618285309468,91.90820430636109L1061.0699458316349,93.1420568245631L1061.6011298496426,92.31237311057231L1062.3148052713525,90.50760388633313L1062.8015521170462,88.64504626750141L1063.8981501790668,87.92060013793349L1065.1779613622052,87.64880028116988L1066.9048249331702,87.38087425965574L1067.5456068958872,85.48907390979554L1068.68622972027,84.76907568624677L1069.383924256345,86.26568798643808L1070.053059403253,88.20910915679872L1071.4694813829483,87.38321916723538L1072.7460963889598,89.98957638656049L1073.5245201731132,92.26472250088005L1074.0947800340605,92.38026050244031L1074.5947239982142,92.14645881719252L1078.610565904542,91.5425203285032L1079.0820535820167,91.91647239484166L1080.6914834191869,91.83894100122814L1083.5583511996067,89.73125667496384L1085.7512380161838,89.08358844835129L1086.704832927394,88.83984109394783L1089.1560945788174,86.72759425751661L1089.645831396662,83.71162033154002L1090.9746162615852,83.14382185120155L1093.6721897567627,80.26540895440115L1094.1704840811087,77.61816671532745L1094.67207768507,76.32785322051353L1095.707123561774,74.87201241808287L1096.1961386622033,74.336335184662L1096.6740186939317,74.36318449850171L1098.9090744280877,75.4771158958427L1101.6409810517584,74.22602530563444L1102.5832346892917,73.20072517873365L1103.0553409816941,71.72010041284841L1104.0737873578355,70.82880040310715L1107.3473944532864,68.61250498531518L1107.8929097171217,66.59477266509674L1109.287164661904,67.03525969518773L1111.353957135697,69.9036293438366L1113.936777561767,84.93535726650106L1115.0894633772418,83.6829808007464L1117.2182204463036,81.12436887909104L1119.7463965537506,80.77591134594076L1120.205821240133,78.89405192788223L1120.6809175046865,76.33825078259036L1123.4302484488237,76.26282510179016L1123.8924569023811,76.14897125981577L1125.2551624858454,74.58143212948085L1125.7339704399658,75.53181077533867L1126.1984471482588,74.99406573897085L1127.6128070781947,76.57129951837624L1129.066655261022,77.3641133122012L1129.5418546280634,79.6282730651107L1130.9848770496544,83.81055084206128L1132.7770044955025,83.95501412127481L1133.3260252439286,84.84915019994185L1133.8729839425953,85.44240110535713L1138.2756663837768,83.54194950156847L1139.8960250846712,81.71146083309748L1140.4342200718609,81.67647959578022L1144.038579948711,81.84249699106454L1144.8542237310205,82.19729803277204L1145.4790248081026,80.93422775898858L1146.3580766205123,78.53236859593699L1146.8956529927739,78.21716380572212L1148.32826206308,77.2230816078332L1149.9833663024199,75.83417208659631L1154.162522549688,76.68370302391361L1154.6970058473105,82.0426754925461L1155.1677718073693,83.75054420237245L1160.3141324942592,84.94049784903655L1162.103785480396,82.78332239992801L1162.7400309336426,84.51509230058974L1164.9536413503013,87.02872963897835L1165.421932850649,89.34542421685558L1165.9045555968241,89.18444373121736L1166.3897559051984,87.82951871258905L1167.1454971419992,86.027635863331L1168.5609911993026,85.78128945239581L1169.0289733921863,84.2813327491611L1169.4974710975098,83.65255318080165L1169.9775162814858,84.4029991736748L1172.5887929942346,87.53143906142839L1173.0753336349526,86.51072859945634L1173.547130619891,84.10127737537607L1174.9759248981422,81.82144155729594L1175.9625126055018,80.8097634145808L1176.95373992482,80.85862569674731L1177.9163047524828,78.83303009952812L1178.3915041195244,76.24811184761893L1179.3497386426927,82.67908495365992L1180.8300841649277,81.08769587186993L1181.3178620355013,78.6678432631507L1184.2214343016374,76.7091364957841L1185.7079659731505,75.94431460093574L1187.1844967033308,73.70437434453652L1188.7608306418633,72.62624760738765L1190.3267512291116,71.39364642089333L1190.829891370392,70.54017818391065L1191.8438012370627,70.74876871298295L1192.856267668902,69.19133822347459L1196.4826914781772,70.06967653327729L1197.4717536452479,69.89237499694138L1198.418749997228,68.58304066905555L1199.608449605883,66.87003875356032L1202.5890394305309,66.89879955789928L1204.7435721215843,63.90217131394161L1205.21701874633,61.792320448992484L1205.9330655252634,62.44642282254864L1206.3930057240857,63.308981003766064L1213.0921929822516,64.27768327893938L1214.300038628789,64.33916821832304L1215.5432484286991,62.63268054350351L1216.7761479798123,60.96069116979794L1218.7014838401144,59.07996708775113L1219.4283563802842,58.35235658703613L1219.9108760239715,59.454603601262136L1220.3774147820236,59.877979103374L1220.853438968969,58.95019901183133L1221.3182249847255,58.762806509833865L1222.068295584688,58.2038155544937L1223.0422016860273,56.74452706829675L1223.5144110809179,55.782299064792994L1223.990332165375,54.55444951251906L1224.9558869651892,54.631702352134255L1227.7854316449648,56.90457921065405L1229.4835296217868,57.67044050644199L1230.4498061390166,57.324540126289435L1230.9430484414524,56.91342559982894L1231.9187072850875,56.581651688419186L1234.0598366527051,57.571362144877924L1235.7224673736664,57.544563213102265L1236.9382519117771,57.324203994339484L1238.343848130236,56.74246386652169L1238.835956305304,55.837903199254754L1240.268874683074,57.3435388360852L1240.991416918749,58.20594227271067L1242.6564189969338,57.68780855183559L1243.628159946026,56.448891284574074L1244.088306349824,55.30519555736208L1248.2239533471702,53.772764287338646L1248.7627669492874,52.440564853241995L1249.928856088198,50.24481840547128L1252.7769592158077,51.299207385628506L1255.6043387433358,51.66153005714864L1256.1085099094964,51.344246005175535L1256.5937102178707,51.22996150323496L1257.8066078863185,52.888695503871816L1258.2671667000684,54.616687122010546L1259.2177716391275,56.87798963193512L1260.2848823895895,55.701977213739895L1262.1480474496468,55.874896846461695L1262.606131803686,56.471594860009986L1264.739425382218,58.90445182601479L1268.0676767962918,58.51707453620827L1268.99549608551,58.47991294226841L1272.3057045641892,58.876879965071396L1272.78956454022,60.5321553234935L1273.2618770375982,62.10005463029751L1273.7337771250247,65.76328613025862L1274.4268320491412,68.15520321909975L1276.0643057630384,68.82436562866707L1277.249881272175,67.02946390601255L1279.199858627101,69.81419711662772L1279.7080507902922,69.45147138625896L1281.1654044577106,67.9241809326034L1282.3587126534444,66.46080746572659L1283.3741690574348,66.92471402398104L1283.8481311946207,65.57152572054133L1284.3157009775525,65.23670538856726L1286.9734769123745,65.69810432588685L1289.3129754668414,68.0986547635843L1289.7798235323576,68.71878306488838L1290.4050370193916,69.5265792169152L1292.6597853287494,72.77870494200766L1293.4450138771083,77.43574292964956L1294.5490353182627,77.17840594452741L1295.2919918465554,76.01561674583053L1296.5105601518412,81.04937882392704L1297.2423816114333,80.8585861555735L1297.7132506739802,78.68153530980607L1298.8870724994883,77.84387697190027L1299.3538174625166,79.28084539594403L1299.8271609847745,81.7780465257382L1300.311536473245,80.81856737412448L1301.991385309697,83.65363394191593L1303.2071698478078,85.05189453028487L1303.692885668622,83.92129498590708L1307.364262162651,85.16586601439553L1307.8448228590667,86.94288319170852L1308.3084747474556,87.52296475410435L1310.7749955670986,87.22155425493582L1311.7501388982935,84.80551299030469L1313.1770773317614,84.34321678215042L1315.3076902456066,83.05392173634851L1319.1715590846704,81.26458221577576L1320.6739685393306,81.9935601461288L1321.6817953592113,83.1610322984501L1322.8794338594398,86.55014589067412L1323.806531431242,91.91489875521569L1324.7804375325816,91.52698189179029L1326.007460241881,88.20134038818856L1327.1553002404212,85.88376649533541L1327.6500890801765,82.80662218908395L1328.1514764791618,79.97707751183458L1329.8965891904968,81.95133337160894L1330.533762566135,84.79864046459056L1332.8816124221273,86.15711240009216L1333.4837309518566,86.78355434425362L1334.9258254510555,83.5861798492939L1336.592167861584,84.79938634542651L1339.0275517298603,83.41188630429286L1342.3733305668884,81.6967001808556L1342.8644077170768,80.37599097313267L1344.5887968283305,77.22909976104995L1345.0720381894334,74.13221549468443L1346.256170263738,72.7609556237374L1347.2139923769548,72.80070807284744L1347.6945530733708,73.03909439671696L1349.1406685696006,74.32105950940257L1349.625662672999,76.19136023090527L1350.8108257721833,73.77175680886313L1351.2904585462074,71.32623745261014L1352.0108356296353,70.30238078743747L1352.4879939439481,70.95212326082992L1353.9399862819923,71.77614467673618L1354.9427610799626,71.60404750686564L1355.6899448102617,78.5728073930216L1358.139247514414,77.12231471974673L1358.6548630567386,74.83122280520507L1359.8263135250234,73.17408595670952L1361.2945960561665,72.78863426280395L1362.6482286206895,76.46985391882464L1364.802452004279,75.36458391822129L1368.2582411959684,76.76336303112816L1371.8736330390311,77.62654637875636L1374.064045395897,75.94769193838931L1375.5951173422122,75.05594364444528L1378.2522746621062,74.98371820034208L1379.2431926739603,74.52917320292494L1381.1085228862653,75.11095821206618L1384.1218993020868,75.74898016961953L1384.578952631246,75.95041594095386L1385.784220715584,75.56555289423079L1387.6832654414545,74.04568687460801L1389.1503107427418,72.98436759534877L1389.6529353715825,72.65918151949813L1390.3947577725075,71.10598123795774L1395.286661519094,69.96105019974215L1395.7762952344508,70.63724847246095L1396.281291220515,70.22178220124374L1397.274374384616,69.621613077333L1398.225597938603,70.88839036034597L1399.405605913389,69.96788342524138L1401.3197036025028,67.9380823284086L1401.9498660089591,66.03736016923068L1405.2214110546506,65.01384867377033L1407.5225554835936,63.979216737115166L1408.3636655804314,63.26658037232636L1408.8776314829483,64.72218939394827L1409.6377030242436,66.52958013806716L1414.3162877232255,65.2061706473637L1419.116430255521,63.269222719337165L1420.6174993778372,61.685233948941004L1422.374056465337,59.526395817627474L1425.215457931229,57.55711392859638L1426.6045577516127,56.161581288291586L1427.0884177276434,54.74461569228055L1428.7752775332772,55.57174736237016L1429.2470745182154,55.780638813814335L1430.6954582691808,54.09993357879341L1432.1038382548147,53.2500929242737L1433.307972211785,54.09702311809053L1434.6071666626615,55.45090816891059L1436.1289593850595,53.909439174628574L1437.9617092111669,54.875584771549654L1438.4612407653685,55.73632331091329L1439.0172724829763,55.231189764166515L1440.050771822361,58.11875209762337L1444.8815357935828,57.019866673229956L1446.0120545741445,58.68712605253637L1447.2645435979719,62.0795245792757L1448.5186822616065,63.99495671720814L1451.6304184509486,64.06001864531481L1454.644928994138,63.809414679130384L1457.167331362259,61.369633353221275L1459.1688599611687,61.623837595123575" fill="none"></path></g></g></g></g><g opacity="0.2"><g><g><g><path style="fill: none;" stroke="rgb(255, 112, 67)" stroke-width="2px" d="M11.996460127131847,279.68706805778413L12.587649793136562,349.87220986918663L14.707333843257066,202.50328647299003L15.256767001635012,191.85158991585647L16.822996896346844,347.7608822188443L17.306959974865528,293.65033580113527L19.053000608592395,304.0452428202708L19.538407121942626,344.4673130606283L20.011956849176613,329.9430236164891L22.26691136351026,270.57395608285185L26.92044215791606,257.6718245279319L28.833199514686118,303.53472809886546L31.170532916905675,319.57692828390424L32.22372483149203,231.63834262966168L33.21825143042498,273.2735596179931L33.75737434000619,302.40532349287315L34.78819301470364,267.07883596587743L35.770553520056424,271.3296360550064L36.245855989585856,318.01633606418824L37.96003795453082,264.43058358493715L38.515863467162745,303.08585502269693L38.97126715651447,209.8044531760385L39.45007511063479,226.93536029907628L39.94465774541411,231.23999341637227L43.06701349101698,207.5658366257092L44.04885848392993,218.99515325852659L44.54591557842047,294.1898226023069L45.00946436432163,276.50204711858737L45.74860610055947,257.60378403757176L47.59197548292751,253.5911847569405L48.052224989213705,237.41628029045492L48.52505299903192,150.17224790976917L48.98519940283015,198.41977650761618L51.38449740031807,245.4756679318612L53.97659705030492,214.12789450828762L55.88306515530897,190.41997072489002L56.3488821959454,92.796353098022L59.23771080630225,204.79079762879894L63.61296798568419,172.9633471899348L65.0672285784635,191.80661228153403L65.56438877544201,279.8725163818822L69.2598912516553,292.67096638561077L71.09789930464903,252.42646831829603L72.404929544611,195.01403762041014L76.59429293818783,192.98977393995972L77.12289939399638,111.56370998995396L78.77274540644972,147.83692269224812L79.27526693280252,144.7177811558765L83.05644757651669,82.28998967761794L84.33254707008842,221.9104265762634L85.30769040128351,140.76160652010466L85.78330217827684,87.05775398376454L86.27592586578479,121.9188141664037L90.18619082443405,163.99206502623582L92.87273235339899,49.39236193801793L93.89355008676358,208.1259803846862L94.38679238919933,235.93737042616374L94.86982754532632,155.2491490344005L96.8867184149434,204.5530611164514L98.52945035572698,116.56480421589629L99.72162442409329,98.39971540637765L100.43622776819493,197.76427476115688L102.11164319766416,180.83860341995964L105.28647810964242,56.23436507386208L105.78436002403669,57.65899449733246L106.75496684576122,88.77031455428238L108.45564238478244,111.65959136582376L109.44707590907637,143.20878490105883L110.17405155173408,143.7094143353412L111.11424313950823,147.11086481446998L112.09495400505354,103.0853921531866L112.57541159898133,104.99413895149212L116.4607257555425,171.36095143321342L122.08001755473838,86.80463660622644L122.63986406440101,68.80787625548948L123.22002176419323,40.93373025801475L126.11050001435756,107.57800611903576L132.64616672660713,66.40309233391343L133.22158171195284,101.07200144439668L134.36385417614295,78.26084457054674L135.50849799755633,102.16961442672937L136.88543172436016,72.53298335997886L138.40155380991987,53.5251041787987L138.8730414873945,46.92352203122448L139.35432390122605,38.97183421314503L141.0628352293328,76.71833457544005L147.39961724229337,36.75273498461627L148.40744406217408,58.34122281854121L152.03788886848,111.25565371523675L154.02539552902638,53.32473084391194L154.5180192165343,51.21631981756701L155.0173445657601,37.87653426981461L155.52677395880673,41.49081810414924L156.5376938533265,63.027811274153976L159.02730963027378,41.97010679902337L160.09308004839218,78.59355074996017L161.06482099748433,75.3303423390866L162.12986969818692,72.66153430131925L164.65722098573028,31.776290663370162L168.39375825215458,85.12111564946025L172.16761861922305,90.59406983187512L172.6691091206962,53.58676270753199L175.45906244509237,62.71205612509323L175.95178923508828,79.8754808621344L176.70763357437684,126.88789728323366L177.76670233077732,93.44684044606026L178.26375942526786,99.93456029413363L179.26777145309381,54.593289226963236L181.33466702937503,50.118892553694366L181.83120861142575,47.432660747675925L182.84707742536793,39.60358088021559L184.33525873668847,69.87579116771212L186.9397306852314,44.10043260365296L187.57473890862227,35.181962016590774L188.19850896082463,32.000199592192985L188.76412920981346,33.35199361233498L189.9171243327522,34.72965314891155L191.88720667283204,73.02800747346726L192.47179777960693,66.65381225496742L193.04999653212775,75.08894210802737L194.99657150495105,161.67439994591493L197.27843576864421,95.81225205410777L200.67710618199956,38.9525532602936L202.07507281634867,61.56114194472906L203.74801378610667,95.81542615142479L204.47292737900506,80.99404626345887L205.68407230515737,52.27660338943167L206.15566308511998,81.14741594445917L208.57444745283368,71.28796057086345L209.30843406467324,63.928782174297055L211.25903003452726,44.53930220822383L212.21664594276788,54.95459604922286L213.68657811371827,128.1649649484541L215.84636903165807,169.0089622047779L217.79778982141585,80.07507755618826L218.97099303199616,110.26477819693793L220.91705249237967,54.165461429016545L221.6480491320681,179.5582941234367L222.11283514782485,168.04089629007126L223.30521542116713,124.70999378584108L223.772785204099,60.42849570743425L225.69729624449732,59.4627597152263L226.19662159372317,116.39129252372987L228.58169144787158,114.48860690062014L229.05905596716036,139.25841818803735L229.530543644635,89.59915915794448L234.64226189556766,114.72972011224113L237.0265069298123,177.89027221633572L241.59693711891646,109.80998745529274L242.0708992561023,90.73656654121487L244.97622426453398,146.43478208593893L245.4710131042892,94.41402841895581L246.4380113389349,70.78192841774359L247.41202054276232,182.26735241654364L249.6504786590212,158.11147570752956L254.4896970342562,53.839913852062864L255.4639124430596,64.29832814278387L256.20800309871987,90.03948074320294L257.65092241782276,73.67937276331656L260.8359644761097,55.360238932942934L264.4599138256737,93.42742442523792L264.9381031648662,78.19398592493229L265.418457656306,47.75743168379677L265.90221452984883,62.17310115405718L267.10500815447574,104.65454430556082L267.5809292389329,81.8450082473621L269.00570252015365,91.63044637288368L269.4839949618341,83.64171616377445L272.1081594855788,124.25243415079163L272.59377220390496,113.13650897754354L274.5106536601937,368.1384498158787L279.304919350675,111.93693656064892L281.5510070510434,186.9780505049689L282.14044397475266,161.4689446786216L283.2640548886207,55.69942837496143L284.3880782124407,103.99657756863189L286.31939401704483,81.24236872802874L292.9299131355587,128.32735041651452L294.6315165969716,53.73705959219342L295.3545743450865,42.521386722407556L295.8294644046641,36.64525464674222L297.0297835695799,112.74747945424889L298.2354640638699,95.63588705105525L298.7174681951172,123.49186640643876L299.68889983674546,40.80906252083878L302.6407240672504,105.4847058219396L303.3595546133586,53.63805476949574L306.5841880270251,126.85142893108036L307.52736958695033,56.91801160876565L308.014528842596,74.14144029189606L308.50756494005583,88.50068511729705L308.9860635867122,182.28776456365168L309.4581698791146,196.38339047677408L310.1659684590104,260.51367151996743L311.58733935812813,110.81668280968768L312.3193670226962,48.287674770707326L312.8120938126922,43.4665248490474L315.37315961380085,69.15571004764797L315.8607312793984,76.54895933988354L316.3298475996497,77.55163642214308L317.2998358064464,96.9695481960988L319.70047413627805,176.2713306331744L320.8980095340186,81.22025134778755L322.1589529618592,77.14153629538208L324.3233834917575,105.82845380797727L324.81312030960237,109.18968779875917L325.2979082080248,89.98562238979133L327.22613093798986,188.13615705478554L330.0936173333375,102.75655229444124L330.57067254516244,106.83557124978137L332.2877413797704,55.152166723712696L333.3189724644198,78.29559080607055L333.7942749339492,69.9198908602234L334.274835630365,69.794649084171L334.75013809989434,84.75805294357843L335.2334825634853,93.22451856589606L335.71064087779814,128.22961185604436L336.67217468058146,197.41466820187978L337.14953919987033,220.23023166828162L340.9249461042582,150.15320332586688L341.48046230942623,185.00266454650173L343.44745157486716,79.08101105707607L344.00946323677715,82.07492770089164L345.9439752185083,64.96515871530568L347.05191455420527,97.47473617440033L349.51410506935326,113.64775813104092L350.8860898767347,149.25066226056163L352.33004022071725,123.12107105922075L353.66965084687683,135.92340426711377L355.60375041865615,179.71642495041255L357.6880703154038,115.98252619318185L358.16976513918723,117.2550015473904L359.6105193060429,134.16162830468534L361.0482835007474,83.49158811407665L363.24281995713216,104.82155585162587L366.4386877766557,167.87927057934735L370.3515302975042,134.4425865677331L371.17109197435656,145.31336337372838L372.2676900363772,87.77368176372232L372.8219690116896,97.95503787905648L373.63369489945643,124.8245145417003L374.1819939304667,106.34750313679626L374.765347807386,63.26826602941662L375.4096352546938,91.88383388636373L377.57726196171916,170.99927317403373L379.7944809654567,163.37171471921314L380.34329550890686,145.0822789589495L383.2999655563463,204.5885502258154L385.2947924935383,156.24806109697016L386.66512766111225,87.43219616619785L387.77884073613535,118.3638082878146L389.2554745688036,127.49572003595182L389.74222141449746,176.20948638598105L390.46321711285304,218.4536826465318L391.19390444507746,161.60941536839732L391.6709596569024,186.7382035555754L393.12480783972984,68.37785360301507L393.7105330738723,69.75595211049722L394.1736694498216,110.9060471559597L395.39646495711423,137.34485959326713L395.89702753619554,145.91517560173978L396.3776913350993,134.18406647135745L396.92650587854945,54.0783763547542L398.3620018185188,23.224630918383355L399.4020997171333,110.56621614107922L400.0616463326603,139.80409279062755L404.31235570657776,236.8107536932427L406.2250099608599,139.41729188885336L407.0380761809703,164.95413729973205L407.90300295252825,204.37978579323408L409.0657928118239,111.952891464716L411.0663934883421,54.03059606003478L412.2009332659347,140.8715011979592L413.56900017877336,152.03522354942305L416.44267272339897,106.1005482354322L419.18375546849853,107.90833172546144L420.6976092993231,46.36359775770029L421.19476949630155,80.54727518258818L421.92030170412767,124.35665597386682L422.4108633418763,100.5401375418349L422.9034870293842,98.84294095301124L425.88160239432085,115.74879106947333L429.24387762942365,63.62427143381694L430.1792234002633,76.68652606828408L431.0146628602626,64.66355193620075L431.575540394805,79.25160190437094L432.3823173631494,112.97964441279527L433.48427675454434,119.90804039955071L435.45868939911884,28.826102275145843L436.06080792884813,32.21249267551502L437.98655619910204,58.148075620099576L438.54062896943856,122.80420159939982L439.09738240446217,191.4037382912182L440.732897171088,147.25035626145637L442.0982834192395,51.52484883018252L445.9182305984293,145.68718086679613L447.6130292956365,41.12890347602041L448.16339037640614,51.83466098852193L450.29988013206525,99.75039511575943L450.774357781691,59.582497471463L451.2428554870146,53.459528678908214L452.6968067723299,150.57822846341656L453.4182148806375,174.5675494807675L453.8998066019329,93.21300402137354L456.6466630863587,78.11102042378354L458.8019174948279,80.51414976271553L459.2920667226246,81.39391499142135L460.2592711622463,184.81529150381772L461.6685790702718,214.45509666788536L463.2717196556759,85.63045696786816L464.0771562916767,155.61395074040817L464.6190629684331,79.77320064114144L465.45811101551135,91.4973031205314L466.02352505952416,70.67549485664432L467.95927427111087,93.23404085784716L469.1929986421281,54.9427100677803L470.3156816336044,47.64100309284805L471.99810803225546,73.86390937861086L473.1185227689965,52.020311914576496L473.9095250566819,48.42936107222147L474.72764329870284,73.4240942982434L477.20715503182936,80.78171941314406L478.64182615189486,93.79410019934232L479.33106628395643,74.91331997881503L480.5730388540111,84.50659014868427L482.26422896413925,48.35081904712092L484.4405162801539,78.66213151220404L486.2211993498378,91.27525137630903L488.2283985855859,35.1426910040405L488.71153684420085,70.62984188246725L489.6784319763585,54.38467674584922L490.6402750866058,114.55435123547431L492.0898960674266,144.67795298794613L494.9665585842032,34.48220862615284L495.91437975608704,71.69812823160999L496.6234155658384,36.20783702285894L497.0977901129762,38.12063586029262L497.5775259894882,92.86915473435766L499.0567373843556,59.71651866562644L502.39220597258685,111.19419778845986L503.5828335036337,72.03640596482461L504.06927104186366,99.27735331454119L504.932960583566,58.860052661907446L506.0452302237577,45.52131389092983L508.52092716482946,127.9387936311181L509.61865935421764,31.511895110258706L510.41976568572386,36.47500146937466L512.8758731540818,81.2880892361913L513.4291211045146,113.99386980656999L514.3072449945324,78.06381416794062L514.9155496735397,155.59576721482063L516.883982373812,132.09559485422227L517.4968235622899,154.81166387653175L518.1107988781355,91.30196106756205L519.7116712088043,112.58588751051775L521.401314781613,41.89142970595185L522.771443744211,153.5773283406169L523.3371670956877,84.29946341525061L524.6479090252164,81.15376413909331L525.1216649574264,79.19723704606838L526.8636845941227,85.87435595638976L528.6028173611556,67.99382159464506L529.1526629294855,68.4346159178018L533.0148821287419,150.20842924248421L533.4967831575012,175.851927699915L533.9776531613809,102.38444003450655L534.69390614529,62.175228474599464L535.9829965523456,150.86882720289006L536.7958565674802,107.46939458690514L538.1548504613776,81.39870990438965L538.7212955302701,80.94150482276393L539.277636555342,76.59646949866107L541.2020444932523,139.35132806854642L541.7672523322892,82.59618876773476L542.3219437175535,137.6729059276832L542.866634161485,155.2524750831849L544.4935914216095,120.66945231872194L548.5917091133352,124.09482671220317L549.1498028807025,122.16435085407295L551.0799845579392,72.52410264088962L555.6745407292275,70.88815937688645L557.434397096342,78.60361331379505L561.1302088800193,49.15555401797059L561.6152029834176,45.4057294747995L562.1123631803962,47.27719751312611L563.391143338655,87.47683613059297L563.8641775534492,102.84321528129442L564.5884725314197,118.76359259829519L566.0058224335068,172.07841561134066L566.8102280446278,89.67108285246906L568.173655345508,108.66390195488958L569.2936576722972,55.946197557865446L569.8580406914303,74.35971013293221L572.3578636146864,125.78052564000066L572.9242055810911,90.94220752696822L575.6667317610222,103.93233586495438L576.210494282562,102.14771653194106L576.7705469972005,96.03602591495957L577.3255476899286,80.82814902815403L579.0179750299125,112.30996052938741L579.8356808619816,105.28755723485892L580.4546050972494,127.26423041726014L582.3535467206319,157.77561231429544L582.9080319009203,166.48812112917327L587.5791932207684,60.64403042205885L589.5150455348431,134.45126468486586L590.9630168758565,220.2094987347426L592.1789045164553,65.9783035653129L592.7305028270805,29.083913264674095L594.4078772038212,51.287635706222375L594.8924588972676,65.42010140841819L596.3524932293732,49.29376231923305L596.8321260033972,72.68169319598178L597.4025920693205,68.29924404392898L598.0695620639812,42.249157226981595L600.2080107669118,73.57743021225099L605.3275648069299,91.2153824981907L606.7492450135115,94.67687069040147L607.8332645720002,88.94654448936399L609.4582628848533,90.34250573600275L610.0172845746123,108.4120001890899L610.5884723579513,61.779209183808746L611.7091964021563,36.25835244398985L613.0943783279974,30.69051301199096L613.648038688382,22.289285219636497L614.4637855731797,68.86582041502191L616.32478548099,20.245267848436356L617.7242986526588,59.980745383774206L621.5630104846587,63.53779416542375L622.0343950596454,45.2892333498653L623.9802483150529,29.169816494190798L624.9459062173551,58.21513686767037L628.3306577948347,113.01255034721504L629.0026798114059,138.19877618903462L630.3534255062659,76.50877661852945L631.7085015056207,99.08089695081162L634.6266112225602,66.08662807800533L637.2749017284893,38.890590828625704L638.3585088770261,66.92573784745872L639.472737464489,111.29941573782071L641.1589786551948,84.23273983760714L641.9720448753053,133.98291649563774L642.7760380764746,189.00883121501707L643.3249557224127,84.37597942078708L647.2088264441422,33.44856721155571L647.7624868045268,22.194197368096013L651.2623007585782,86.72349452268531L652.5337606401914,55.808023023595695L653.734492215059,62.08024192403718L654.2227855980724,76.85971697401959L654.713037928357,48.510401854784334L660.060757774247,122.6681037351832L661.418205130825,146.89793015828593L663.7639929370578,27.702302989947498L666.3812495941087,40.704013406441675L667.8727301850441,36.0272173787219L668.41010035233,30.862049335082474L668.962214175395,38.50638998529206L670.6241231789406,55.88808456336932L671.4348180418277,59.422340624923095L672.5722446890834,45.8162348054733L673.1380711430481,54.617567694739364L674.2172448846023,82.13790314234154L676.0714400282069,31.722567377929522L676.6070574531972,25.008709979513014L682.6027764359618,30.249853756805123L683.5754453074456,52.94333266097527L684.0603363083561,66.552747645713L685.7644142294803,43.51302199804286L686.2400260064736,129.60134528539612L686.9608154998532,60.23477447011618L688.865015350122,44.129472217404725L689.3250586514322,49.034195446082606L690.0494567318908,30.70428994502663L699.7989310965703,30.927726135951104L701.7500425788642,61.226916250642546L703.1323376350423,68.01512856706057L703.68836935265,41.87863201570548L704.8133205988618,52.19552883987603L705.6429863195349,39.816076565494086L707.293450946916,28.02140107128895L709.4720065176659,80.0316194365389L710.0575255468324,40.39491035494967L710.525920149668,37.53221224490051L711.0865914792345,53.12996282981908L712.0541052263198,59.149503323627926L713.2807155256673,63.443111517796126L714.522584993234,28.781327242779867L715.4969035045252,46.178487103529505L716.2083106714999,33.18599507605194L717.4229610822432,19.260622340297118L718.3921244691361,47.866431536343896L719.348812454985,42.18432460093129L719.8362810180945,56.818567815162396L720.321172019005,47.05528083687466L721.0411366924809,40.73258028229509L721.732335771814,32.54391570920461L728.1067501928826,37.33646498801835L730.6651353293041,26.711275520181402L732.9272039153075,84.26674319929083L733.5563352968842,83.12295385439364L734.1711354326334,65.11197759971543L735.5480691594372,58.84688353474098L737.4714460724679,45.07106480980747L739.6534040253207,21.231939376139735L740.7514455221728,67.39614582324367L741.9731069020978,29.18369472820467L742.452533471146,63.73796489835411L743.8185383342252,25.85913169153241L746.4922951546821,58.935927094581984L747.0797731311201,78.32601486652436L747.8665482167987,54.18210855643474L748.945928163329,39.524194680296716L749.6986794279784,42.00181400520108L751.713714452812,82.25649282082526L752.3032544790093,60.86277300099323L752.8701119578539,36.204764226520126L753.4121217370981,15.216687290408117L754.8796825508251,39.503292911794006L758.4748663062461,44.55456488893981L759.1049256102145,27.524992511098446L760.5058822167147,61.165966828756666L763.2003626372532,38.61461319700629L764.0104388852126,35.76116724296645L765.1126044815833,32.10950334767472L767.8689463949021,45.64189582198486L768.974101963424,51.002034481673604L771.203177753278,56.43345526302494L771.7626118529887,67.84058698161573L772.5684608989415,64.00016559693785L773.1261422563567,64.961680715054L774.4836927154228,76.76310960780603L776.4243908464318,57.0048940810716L776.9759891570571,30.716783732338456L778.308795019011,44.147267422575794L778.8720439107765,26.546492595636835L779.6732533447707,36.40118682325692L783.3161735521205,64.5976725333756L784.6526911036412,48.74146938606685L785.4506012580206,74.8324817982085L786.8773334865125,66.88184075690384L787.4489336798034,36.20513566344022L789.1986860030971,16.607110750238462L789.8786469112417,70.60316595820689L793.9115007280843,46.68148022730327L794.5546540480243,28.271580720459156L795.4582442525701,21.19516712105184L797.6842269677851,62.85266188283987L798.8251590996315,30.255222708649967L799.3879955814454,22.181433444842355L799.957224417513,18.939228103449693L800.5344952476422,29.203076982034304L801.0926921174972,28.904104028362667L801.6530541395996,32.363262298074744L803.9225461047367,108.9438134411626L805.941705229089,32.201721004832734L809.4934828370759,50.20945562820839L810.0642582104631,36.84917351586614L810.8861912445388,22.724676823955747L811.4873818518762,46.40364541108346L814.404976056376,4.0018923624333524L817.1691537587805,29.843839436165013L818.2711131501752,28.61178317225972L818.8242579981201,30.963721750206105L821.4367719407243,48.37931838898891L823.9672163029066,59.48666674608239L828.9709862489376,57.280027537872684L830.6412465540085,46.75461953356631L832.4913175980944,35.59462843479963L834.1000257178488,43.71184205126383L834.6509023110582,36.27705935796479L835.7552330596765,41.033241585603434L836.3115740847481,30.3729682123153L836.871008184459,30.12538862158567L837.988329846561,40.272403705308705L838.7950037124174,114.49841621200954L840.7483834494467,75.42914455982788L852.8173544859274,49.02774595047032L853.6594956076445,64.0429146097398L854.2387253850451,57.88492944571931L854.8141403703908,52.33593199566627L857.3083957592967,85.90535405572001L859.4547833538005,149.39675515462764L860.006072356962,121.35772493163017L861.909550489815,60.93736428794381L863.0591432306508,69.5091829275932L863.6046584944861,88.42234569415291L866.0875726097153,56.88289393632169L866.6280358516401,65.04072924504555L867.2340722759122,65.40909336878667L868.5746108244635,61.42945067306431L869.2145679672767,93.78184278097967L869.8213261089646,86.49313609825026L871.5202489056903,87.32917307136478L872.8746031876294,52.06066347089427L876.8506475336019,122.97506258263655L878.4839971479803,34.65529823091015L881.7772968186331,43.92372993067312L882.3671461522943,43.395884300246735L887.8831292585467,100.39259266708132L888.4648334956585,72.95459803126238L896.6148789645007,47.75054321727896L899.0869673184935,56.71787464282801L899.650216210259,74.38331326085364L901.5751396606092,87.98857490548494L902.1556066678655,61.35654773575044L904.5143853875821,122.9838251172512L905.8814212755411,56.24473154063156L906.5020982531045,50.29633810051439L907.1280334575542,45.32668094480795L911.6213429856589,53.77795142039497L912.1009757596829,69.78559953011813L912.605559335795,52.954408234592165L913.1196283408001,44.48719973843447L914.6763728066189,62.09803712920831L915.2221973779181,71.3558322262599L916.3485920589611,37.80099750706745L917.0203047680683,58.29583998030597L917.6543850690676,51.700504726387635L918.2445437101926,77.14663511128498L921.8147766635255,94.77574044512824L923.4238971932317,87.36388553989588L926.6968856737549,54.568740623245276L927.2521956739471,64.56063014234581L928.8679147628831,57.70022399546133L932.7883868678413,120.62513314075784L933.7743559602728,105.00337422400503L940.690264648146,147.64090529942413L942.3353679461528,123.20109883200163L943.2150383734901,125.56855334310956L944.7247681047959,54.88577891802987L945.317813615584,44.56226376328334L946.7314518281041,87.95447024282305L947.8405252911688,69.06325602154078L951.343947832299,127.33252416006579L952.2094932187848,154.15931934389315L956.8076579771521,50.112578126052995L957.5743280776771,37.9952590162693L962.6185141989913,149.3919264746666L965.4810516749166,88.25763030359383L966.4406265304284,46.00141299362957L968.7943532282349,57.88739443618891L973.0462998320078,110.42349994628665L974.1523833229215,126.94455829704219L974.7343968674971,122.80813545405337L976.1936063796987,30.19771752002299L978.2445210703452,75.692695938121L979.9629302372966,104.89174054602461L980.6907306998581,50.431912576343564L983.7077157027584,105.83519032302775L984.3268461430023,110.45100316186893L986.0089632341894,68.1343260514135L986.6082979967437,88.10297747686963L987.2058800170023,56.05317139084849L987.8194429228959,51.88595305048574L989.9665522348156,71.61857319672737L990.4961897155039,89.87864855680834L990.9958243721936,103.56243534304383L993.3248064728879,113.4426743006677L994.6163713396546,162.39681098847777L995.3799483655407,110.95247677096961L995.9076268989576,112.31357359761L997.2173378036066,49.97325551403026L998.5209656614658,95.98493645495222L999.9126430440489,55.99603763914166L1001.525165955858,69.12727823976547L1003.3978164448088,109.64184471497106L1003.9151847294288,83.0765917733691L1004.5249328432677,64.61421835981554L1006.3439700384755,191.94775831116442L1007.974226578215,83.97087680895078L1008.5602611198215,65.82888462246257L1010.5231262857435,60.59516958357193L1011.3105199863501,150.78825915822543L1013.1300726939977,88.1163829729852L1014.9744731012455,56.659998017281L1015.581952960349,68.11784775895904L1016.1369536530771,51.944876452807534L1016.9041392660421,141.528404274617L1018.7012156313128,92.92297932077656L1021.4687957158201,144.69330008614395L1022.842120855545,47.781980287514784L1023.4644474729158,53.200502077641545L1024.0553278314567,55.872484212725965L1025.9720030827693,82.65970448106845L1026.5709254353717,92.43562031463887L1027.580504997548,89.5546542615204L1030.483974161196,74.25145315422526L1030.9992803960567,48.611128794111494L1031.5275775444015,51.20412993318985L1033.3748648213123,45.88474803373174L1035.5398108636505,37.35132246482158L1036.3030785820727,63.7967869996977L1037.9104463694835,70.81265638113206L1038.486376867269,55.699867345867005L1039.0724114088755,46.54387973191001L1039.6783447306595,25.375757190537456L1040.986715302965,49.13907572551608L1042.6648113971214,95.38290474148806L1043.1821796817414,172.24875320619006L1043.9682330500045,232.93845626742345L1044.7385117376084,216.66791523576546L1047.4142275053366,51.059742272256926L1047.9654134060102,63.2159609576708L1050.9029063906876,124.76792106187719L1052.0891005147519,151.43693997215237L1052.5789404350844,78.7393228575952L1053.332104109686,71.65700003445926L1055.6468580670405,64.59686212554999L1057.413519198361,93.32392859250655L1058.691990049156,130.87913894096033L1060.2618285309468,86.00884988845144L1061.0699458316349,117.08886794313645L1061.6011298496426,76.20973613087233L1062.3148052713525,55.48034812609973L1062.8015521170462,52.49622391017715L1063.8981501790668,73.86043137835918L1065.1779613622052,82.3736642856141L1066.9048249331702,82.18092229108532L1067.5456068958872,48.772703854346275L1068.68622972027,70.79523261288102L1069.383924256345,115.31218385341572L1070.053059403253,125.92734452441047L1071.4694813829483,71.35421141060868L1072.7460963889598,140.57418282693158L1073.5245201731132,136.42112974002094L1074.0947800340605,94.62264090006983L1074.5947239982142,87.60879753819955L1078.610565904542,79.82118353781726L1079.0820535820167,99.17419515173714L1080.6914834191869,90.33419905579007L1083.5583511996067,48.82497515909938L1085.7512380161838,76.51353776450503L1086.704832927394,84.10915264419873L1089.1560945788174,45.732762799433544L1089.645831396662,25.177105972280117L1090.9746162615852,72.12389624299982L1093.6721897567627,24.400701508334805L1094.1704840811087,26.24005713657084L1094.67207768507,51.2852382497382L1095.707123561774,46.61681643621665L1096.1961386622033,63.93982398092123L1096.6740186939317,74.88428036506332L1098.9090744280877,97.09647832178791L1101.6409810517584,49.94465487118413L1102.5832346892917,53.30153291990325L1103.0553409816941,42.98389322189257L1104.0737873578355,53.5303042956798L1107.3473944532864,25.598281672658118L1107.8929097171217,27.43429436861345L1109.287164661904,75.58430389144308L1111.353957135697,125.57341579006334L1113.936777561767,376.6735869492331L1115.0894633772418,59.37665388375325L1117.2182204463036,31.46641097104532L1119.7463965537506,74.01299065153387L1120.205821240133,42.37061709984778L1120.6809175046865,26.73484488111012L1123.4302484488237,74.79895117442311L1123.8924569023811,73.93927730639433L1125.2551624858454,44.15837676318546L1125.7339704399658,93.97691469800714L1126.1984471482588,64.55742227803603L1127.6128070781947,107.18251021663241L1129.066655261022,92.75117286174316L1129.5418546280634,123.57145520831412L1130.9848770496544,164.9808807579778L1132.7770044955025,86.7587810300929L1133.3260252439286,102.20268919611289L1133.8729839425953,96.95631153494685L1138.2756663837768,46.65767449742543L1139.8960250846712,46.18503790012005L1140.4342200718609,80.99755803070326L1144.038579948711,85.06458970362263L1144.8542237310205,89.08333457693158L1145.4790248081026,56.42035366984396L1146.3580766205123,31.9166938191604L1146.8956529927739,72.09961777522369L1148.32826206308,57.92977201207077L1149.9833663024199,48.87798933769261L1154.162522549688,93.17153815429555L1154.6970058473105,186.05048809804734L1155.1677718073693,116.89713895838969L1160.3141324942592,108.03531250163974L1162.103785480396,40.916509091720116L1162.7400309336426,118.12556527057598L1164.9536413503013,135.8138134921938L1165.421932850649,134.30821082014597L1165.9045555968241,86.06010818342247L1166.3897559051984,61.53291273880296L1167.1454971419992,51.056399339976224L1168.5609911993026,81.00015808914384L1169.0289733921863,55.16992816189105L1169.4974710975098,71.44909666019271L1169.9775162814858,98.9677775251509L1172.5887929942346,148.24871116864588L1173.0753336349526,66.70061330689748L1173.547130619891,37.33825463863326L1174.9759248981422,37.57401578190587L1175.9625126055018,61.174948848824044L1176.95373992482,81.80695284655025L1177.9163047524828,39.519940039212145L1178.3915041195244,26.07959638709633L1179.3497386426927,207.49246095049705L1180.8300841649277,50.20175675386491L1181.3178620355013,31.70294875515077L1184.2214343016374,38.69423576587434L1185.7079659731505,61.100526396837154L1187.1844967033308,30.231248143808443L1188.7608306418633,51.70178787211154L1190.3267512291116,47.47112135240059L1190.829891370392,53.975927298797615L1191.8438012370627,74.79712775681543L1192.856267668902,38.96447300872887L1196.4826914781772,87.11660985210085L1197.4717536452479,66.45127783254566L1198.418749997228,43.17126626457656L1199.608449605883,33.62381790384802L1202.5890394305309,67.4569939441513L1204.7435721215843,5.743121109782805L1205.21701874633,20.843990396612583L1205.9330655252634,75.14134848075139L1206.3930057240857,80.0496510106592L1213.0921929822516,83.07841519097678L1214.300038628789,65.53247796023874L1215.5432484286991,29.512889140373773L1216.7761479798123,28.510448427063352L1218.7014838401144,22.578567046393346L1219.4283563802842,44.23077319560832L1219.9108760239715,80.84719361205634L1220.3774147820236,68.0949199708923L1220.853438968969,40.943691520871425L1221.3182249847255,55.12586223637243L1222.068295584688,47.354827829422845L1223.0422016860273,28.422417877004364L1223.5144110809179,37.10722087434351L1223.990332165375,30.724144936754556L1224.9558869651892,56.1310380760944L1227.7854316449648,101.016944362743L1229.4835296217868,72.53440157367368L1230.4498061390166,50.6112490747567L1230.9430484414524,48.934447749544745L1231.9187072850875,50.142529448608514L1234.0598366527051,76.77982426920966L1235.7224673736664,57.02444516986492L1236.9382519117771,53.04743629957585L1238.343848130236,45.45195648785307L1238.835956305304,38.28204208556377L1240.268874683074,86.56516109375303L1240.991416918749,74.94360897129786L1242.6564189969338,47.631784703831556L1243.628159946026,32.40378268935626L1244.088306349824,33.1081621577988L1248.2239533471702,24.031088005862443L1248.7627669492874,26.585020734346926L1249.928856088198,7.629412857919874L1252.7769592158077,71.76296085766029L1255.6043387433358,58.6935476207334L1256.1085099094964,45.18634532300314L1256.5937102178707,49.01190923087779L1257.8066078863185,85.08167580194635L1258.2671667000684,88.1538305679278L1259.2177716391275,100.76571793679801L1260.2848823895895,32.87773619937826L1262.1480474496468,59.230949310103654L1262.606131803686,68.05240732703953L1264.739425382218,106.1217370233731L1268.0676767962918,50.9987928503711L1268.99549608551,57.75867465988483L1272.3057045641892,66.58128075457364L1272.78956454022,92.65800972878861L1273.2618770375982,92.53010036031014L1273.7337771250247,136.85988116011723L1274.4268320491412,114.57792059640303L1276.0643057630384,81.81157892455491L1277.249881272175,32.193718227554655L1279.199858627101,123.8607539185673L1279.7080507902922,62.411631190734L1281.1654044577106,38.28227845451289L1282.3587126534444,38.05941630246491L1283.3741690574348,75.92828824642993L1283.8481311946207,39.30862619867935L1284.3157009775525,58.73845772107035L1286.9734769123745,74.65301023182445L1289.3129754668414,114.68892958501783L1289.7798235323576,80.75433438203635L1290.4050370193916,85.20441882053638L1292.6597853287494,135.89649197390435L1293.4450138771083,167.82029652653648L1294.5490353182627,72.1839677230746L1295.2919918465554,53.448014134385744L1296.5105601518412,178.74545507433075L1297.2423816114333,77.15565089834513L1297.7132506739802,36.428977058277496L1298.8870724994883,61.58646718927997L1299.3538174625166,107.16976317687511L1299.8271609847745,130.2441337590909L1300.311536473245,62.196839349949585L1301.991385309697,138.6770687576231L1303.2071698478078,112.18956431679237L1303.692885668622,61.97843444094252L1307.364262162651,109.32070373056922L1307.8448228590667,121.4315226942515L1308.3084747474556,98.781282424278L1310.7749955670986,81.37173007719474L1311.7501388982935,37.91458967062647L1313.1770773317614,75.37089649736077L1315.3076902456066,58.03107299027437L1319.1715590846704,46.5367886634358L1320.6739685393306,96.14168283522599L1321.6817953592113,105.8195224383989L1322.8794338594398,152.32661581322577L1323.806531431242,196.03489822825722L1324.7804375325816,83.99822807306577L1326.007460241881,23.656747124407275L1327.1553002404212,40.903914003430145L1327.6500890801765,23.08490310244781L1328.1514764791618,25.060812449302375L1329.8965891904968,120.2680134255973L1330.533762566135,140.0596413916426L1332.8816124221273,112.52255751564411L1333.4837309518566,98.94164187277431L1334.9258254510555,21.531013630789573L1336.592167861584,108.34549609689924L1339.0275517298603,56.48305897535198L1342.3733305668884,48.40808786679867L1342.8644077170768,54.743451043653806L1344.5887968283305,16.15372133879174L1345.0720381894334,14.027380039304774L1346.256170263738,46.14732016923557L1347.2139923769548,73.57223009536989L1347.6945530733708,77.6657350905931L1349.1406685696006,99.20164771683034L1349.625662672999,112.49046198904989L1350.8108257721833,26.8116985565739L1351.2904585462074,23.86319851798629L1352.0108356296353,50.431203469496154L1352.4879939439481,83.56243126483372L1353.9399862819923,87.76888685075403L1354.9427610799626,68.26395753652145L1355.6899448102617,213.82363702025305L1358.139247514414,48.97091610169804L1358.6548630567386,30.36533687195731L1359.8263135250234,41.012103448151606L1361.2945960561665,65.30772485659759L1362.6482286206895,147.91556601832687L1364.802452004279,53.91332329426774L1368.2582411959684,103.91109642652435L1371.8736330390311,94.37934971741743L1374.064045395897,43.36421086106168L1375.5951173422122,57.74874716402087L1378.2522746621062,73.58195498927745L1379.2431926739603,65.70728968162547L1381.1085228862653,86.40233665478706L1384.1218993020868,88.13181448866493L1384.578952631246,79.85991427848376L1385.784220715584,68.0960680486453L1387.6832654414545,44.5478790243784L1389.1503107427418,52.386109746869806L1389.6529353715825,66.3479170677852L1390.3947577725075,40.96121659010066L1395.286661519094,47.740041682538504L1395.7762952344508,83.76101494910557L1396.281291220515,62.15834497823215L1397.274374384616,57.97343273367653L1398.225597938603,95.47421068984227L1399.405605913389,52.10253454188512L1401.3197036025028,28.54337124497954L1401.9498660089591,29.147834181920587L1405.2214110546506,45.14937046595884L1407.5225554835936,43.89891119101321L1408.3636655804314,49.43561745571088L1408.8776314829483,92.97288693603821L1409.6377030242436,101.60771478413022L1414.3162877232255,39.52122318493605L1419.116430255521,25.67662109580226L1420.6174993778372,30.942921282681652L1422.374056465337,17.627312901727237L1425.215457931229,19.336969510869892L1426.6045577516127,29.0768559631926L1427.0884177276434,27.24391606357608L1428.7752775332772,71.62485385737602L1429.2470745182154,59.834838208168264L1430.6954582691808,21.480531976651434L1432.1038382548147,36.75624675186066L1433.307972211785,70.53438259400667L1434.6071666626615,81.7273302776822L1436.1289593850595,23.99235726519595L1437.9617092111669,73.62669625465065L1438.4612407653685,72.4416774116246L1439.0172724829763,45.42747541812054L1440.050771822361,114.16103330410238L1444.8815357935828,35.692518946737096L1446.0120545741445,91.04556829172867L1447.2645435979719,127.91974904721587L1448.5186822616065,101.16997637381593L1451.6304184509486,65.32275116836445L1454.644928994138,58.94565198848949L1457.167331362259,14.017959048331875L1459.1688599611687,66.5574750246958" fill="none"></path></g></g></g></g></g></g><g transform="translate(40, 378)" clip-path="url(#clip_1)"><clipPath id="clip_1"><rect width="1473" height="22"></rect></clipPath><g><g><line x1="11.996460127131847" y1="0" x2="11.996460127131847" y2="5" style="visibility: inherit;" fill="rgb(0, 0, 0)" stroke="rgb(204, 204, 204)" stroke-width="1px"></line><line x1="197.58093846834035" y1="0" x2="197.58093846834035" y2="5" style="visibility: inherit;" fill="rgb(0, 0, 0)" stroke="rgb(204, 204, 204)" stroke-width="1px"></line><line x1="383.1654168095489" y1="0" x2="383.1654168095489" y2="5" style="visibility: inherit;" fill="rgb(0, 0, 0)" stroke="rgb(204, 204, 204)" stroke-width="1px"></line><line x1="568.7498951507574" y1="0" x2="568.7498951507574" y2="5" style="visibility: inherit;" fill="rgb(0, 0, 0)" stroke="rgb(204, 204, 204)" stroke-width="1px"></line><line x1="754.334373491966" y1="0" x2="754.334373491966" y2="5" style="visibility: inherit;" fill="rgb(0, 0, 0)" stroke="rgb(204, 204, 204)" stroke-width="1px"></line><line x1="939.9188518331744" y1="0" x2="939.9188518331744" y2="5" style="visibility: inherit;" fill="rgb(0, 0, 0)" stroke="rgb(204, 204, 204)" stroke-width="1px"></line><line x1="1125.5033301743829" y1="0" x2="1125.5033301743829" y2="5" style="visibility: inherit;" fill="rgb(0, 0, 0)" stroke="rgb(204, 204, 204)" stroke-width="1px"></line><line x1="1311.0878085155914" y1="0" x2="1311.0878085155914" y2="5" style="visibility: inherit;" fill="rgb(0, 0, 0)" stroke="rgb(204, 204, 204)" stroke-width="1px"></line></g><g transform="translate(0, 8)"><text x="11.996460127131847" y="0" dx="0em" dy="0.95em" style="text-anchor: middle; visibility: inherit; font-family: &quot;Helvetica Neue&quot;, sans-serif; font-size: 12px; font-weight: 200;" fill="rgb(50, 49, 63)" stroke="none" stroke-width="1px">0</text><text x="197.58093846834035" y="0" dx="0em" dy="0.95em" style="text-anchor: middle; visibility: inherit; font-family: &quot;Helvetica Neue&quot;, sans-serif; font-size: 12px; font-weight: 200;" fill="rgb(50, 49, 63)" stroke="none" stroke-width="1px">0.5</text><text x="383.1654168095489" y="0" dx="0em" dy="0.95em" style="text-anchor: middle; visibility: inherit; font-family: &quot;Helvetica Neue&quot;, sans-serif; font-size: 12px; font-weight: 200;" fill="rgb(50, 49, 63)" stroke="none" stroke-width="1px">1</text><text x="568.7498951507574" y="0" dx="0em" dy="0.95em" style="text-anchor: middle; visibility: inherit; font-family: &quot;Helvetica Neue&quot;, sans-serif; font-size: 12px; font-weight: 200;" fill="rgb(50, 49, 63)" stroke="none" stroke-width="1px">1.5</text><text x="754.334373491966" y="0" dx="0em" dy="0.95em" style="text-anchor: middle; visibility: inherit; font-family: &quot;Helvetica Neue&quot;, sans-serif; font-size: 12px; font-weight: 200;" fill="rgb(50, 49, 63)" stroke="none" stroke-width="1px">2</text><text x="939.9188518331744" y="0" dx="0em" dy="0.95em" style="text-anchor: middle; visibility: inherit; font-family: &quot;Helvetica Neue&quot;, sans-serif; font-size: 12px; font-weight: 200;" fill="rgb(50, 49, 63)" stroke="none" stroke-width="1px">2.5</text><text x="1125.5033301743829" y="0" dx="0em" dy="0.95em" style="text-anchor: middle; visibility: inherit; font-family: &quot;Helvetica Neue&quot;, sans-serif; font-size: 12px; font-weight: 200;" fill="rgb(50, 49, 63)" stroke="none" stroke-width="1px">3</text><text x="1311.0878085155914" y="0" dx="0em" dy="0.95em" style="text-anchor: middle; visibility: inherit; font-family: &quot;Helvetica Neue&quot;, sans-serif; font-size: 12px; font-weight: 200;" fill="rgb(50, 49, 63)" stroke="none" stroke-width="1px">3.5</text></g><line x1="0" y1="0" x2="1473" y2="0" fill="rgb(0, 0, 0)" stroke="rgb(204, 204, 204)" stroke-width="1px"></line></g></g></g></g></svg>