<?xml version="1.0" encoding="UTF-8" standalone="no"?>
<!DOCTYPE svg PUBLIC "-//W3C//DTD SVG 1.1//EN" "http://www.w3.org/Graphics/SVG/1.1/DTD/svg11.dtd">
<svg xmlns="http://www.w3.org/2000/svg" xmlns:xlink="http://www.w3.org/1999/xlink" version="1.1" width="347.03999pt" height="240pt" viewBox="0 0 347.03999 240">
<g enable-background="new">
<clipPath id="cp0">
<path transform="matrix(.24,0,0,.24,0,0)" d="M 0 0 L 1445.8333 0 L 1445.8333 995.88516 L 0 995.88516 Z " fill-rule="evenodd"/>
</clipPath>
<g clip-path="url(#cp0)">
<path transform="matrix(.71991696,0,0,.71991696,.35995848,.35995848)" stroke-width="5" stroke-linecap="butt" stroke-miterlimit="10" stroke-linejoin="miter" fill="none" stroke="#000000" d="M 350 46 L 460 46 C 466.66667 46 470 49.333333 470 56 L 470 256 C 470 262.66667 466.66667 266 460 266 L 363.84 266 "/>
<path transform="matrix(.71991696,0,0,.71991696,.35995848,.35995848)" d="M 355.59 266 L 366.59 260.5 L 363.84 266 L 366.59 271.5 L 355.59 266 Z "/>
<path transform="matrix(.71991696,0,0,.71991696,.35995848,.35995848)" stroke-width="5" stroke-linecap="butt" stroke-miterlimit="10" stroke-linejoin="miter" fill="none" stroke="#000000" d="M 355.59 266 L 366.59 260.5 L 363.84 266 L 366.59 271.5 L 355.59 266 Z "/>
<path transform="matrix(.71991696,0,0,.71991696,.35995848,.35995848)" stroke-width="5" stroke-linecap="butt" stroke-miterlimit="10" stroke-linejoin="miter" fill="none" stroke="#000000" d="M 150 288.5 L 20 288.5 C 13.333333 288.5 10 285.16667 10 278.5 L 10 33.5 C 10 26.833333 13.333333 23.5 20 23.5 L 136.16 23.5 "/>
<path transform="matrix(.71991696,0,0,.71991696,.35995848,.35995848)" d="M 144.41 23.5 L 133.41 29 L 136.16 23.5 L 133.41 18 L 144.41 23.5 Z "/>
<path transform="matrix(.71991696,0,0,.71991696,.35995848,.35995848)" stroke-width="5" stroke-linecap="butt" stroke-miterlimit="10" stroke-linejoin="miter" fill="none" stroke="#000000" d="M 144.41 23.5 L 133.41 29 L 136.16 23.5 L 133.41 18 L 144.41 23.5 Z "/>
<path transform="matrix(.71991696,0,0,.71991696,.35995848,.35995848)" stroke-width="5" stroke-linecap="butt" stroke-miterlimit="10" stroke-linejoin="miter" fill="none" stroke="#000000" d="M 150 243.5 L 50 243.5 C 43.333333 243.5 40 240.16667 40 233.5 L 40 78.5 C 40 71.833339 43.333333 68.5 50 68.5 L 136.16 68.5 "/>
<path transform="matrix(.71991696,0,0,.71991696,.35995848,.35995848)" d="M 144.41 68.5 L 133.41 74 L 136.16 68.5 L 133.41 63 L 144.41 68.5 Z "/>
<path transform="matrix(.71991696,0,0,.71991696,.35995848,.35995848)" stroke-width="5" stroke-linecap="butt" stroke-miterlimit="10" stroke-linejoin="miter" fill="none" stroke="#000000" d="M 144.41 68.5 L 133.41 74 L 136.16 68.5 L 133.41 63 L 144.41 68.5 Z "/>
<symbol id="font_1_36">
<path d="M 0 .24560547 L .140625 .25927735 C .14908855 .21207683 .16617839 .17740886 .19189453 .15527344 C .2179362 .13313802 .2529297 .12207031 .296875 .12207031 C .34342448 .12207031 .37841798 .13183594 .40185548 .15136719 C .4256185 .17122396 .4375 .19433594 .4375 .22070313 C .4375 .2376302 .43245445 .25195313 .42236329 .26367188 C .41259767 .27571617 .39534507 .2861328 .37060548 .29492188 C .35367839 .30078126 .31510417 .3111979 .2548828 .32617188 C .17740886 .3453776 .123046878 .36897788 .091796878 .39697267 C .047851564 .4363607 .025878907 .484375 .025878907 .5410156 C .025878907 .57747396 .036132814 .6114909 .056640626 .6430664 C .07747396 .67496749 .10725912 .69921877 .1459961 .7158203 C .1850586 .7324219 .23209636 .74072268 .28710938 .74072268 C .37695313 .74072268 .4444987 .7210286 .4897461 .6816406 C .53531906 .6422526 .5592448 .58968099 .56152346 .5239258 L .4169922 .5175781 C .41080729 .554362 .39746095 .5807292 .37695313 .5966797 C .35677085 .61295577 .32633464 .62109377 .28564454 .62109377 C .24365235 .62109377 .21077474 .61246749 .18701172 .59521487 C .17171224 .58414718 .1640625 .56933596 .1640625 .55078127 C .1640625 .5338542 .17122396 .51936849 .18554688 .5073242 C .20377605 .49202476 .24804688 .47607423 .31835938 .45947267 C .38867188 .4428711 .44059245 .4256185 .4741211 .40771485 C .5079753 .39013673 .53434249 .3658854 .55322268 .33496095 C .5724284 .30436198 .58203127 .2664388 .58203127 .2211914 C .58203127 .18017578 .570638 .14176433 .54785159 .10595703 C .5250651 .07014974 .49283854 .04345703 .45117188 .025878907 C .40950523 .008626302 .35758464 0 .29541017 0 C .20491536 0 .13541667 .020833334 .08691406 .0625 C .038411458 .10449219 .0094401049 .16552735 0 .24560547 Z "/>
</symbol>
<use xlink:href="#font_1_36" transform="matrix(17.997923,0,0,-17.997923,71.213428,229.16208)"/>
<symbol id="font_1_57">
<path d="M .2944336 .53027346 L .2944336 .42089845 L .2006836 .42089845 L .2006836 .21191406 C .2006836 .16959636 .20149739 .14485677 .203125 .13769531 C .20507813 .13085938 .20914714 .12516277 .21533203 .12060547 C .22184246 .11604818 .22965496 .11376953 .23876953 .11376953 C .25146485 .11376953 .26985679 .11816406 .2939453 .12695313 L .30566407 .020507813 C .27376304 .0068359377 .2376302 0 .19726563 0 C .17252605 0 .15022786 .0040690104 .1303711 .012207031 C .11051432 .020670573 .09586588 .03141276 .08642578 .044433595 C .077311199 .05777995 .07096354 .075683597 .06738281 .09814453 C .064453128 .114095058 .06298828 .14632161 .06298828 .19482422 L .06298828 .42089845 L 0 .42089845 L 0 .53027346 L .06298828 .53027346 L .06298828 .6333008 L .2006836 .7133789 L .2006836 .53027346 L .2944336 .53027346 Z "/>
</symbol>
<use xlink:href="#font_1_57" transform="matrix(17.997923,0,0,-17.997923,82.837909,233.46399)"/>
<symbol id="font_1_35">
<path d="M 0 0 L 0 .7158203 L .30419923 .7158203 C .38069663 .7158203 .4361979 .7093099 .47070313 .69628909 C .5055339 .68359377 .5333659 .6608073 .5541992 .6279297 C .57503256 .59505209 .5854492 .5574544 .5854492 .5151367 C .5854492 .46142579 .56966146 .4169922 .53808596 .38183595 C .50651046 .34700523 .4593099 .32503257 .39648438 .31591798 C .42773438 .2976888 .45345054 .27766929 .4736328 .25585938 C .49414063 .23404949 .52164718 .1953125 .55615237 .13964844 L .6435547 0 L .47070313 0 L .36621095 .15576172 C .32910157 .21142578 .30371095 .24641927 .29003907 .2607422 C .2763672 .27539063 .2618815 .285319 .24658203 .29052735 C .23128255 .2960612 .20703125 .29882813 .17382813 .29882813 L .14453125 .29882813 L .14453125 0 L 0 0 M .14453125 .41308595 L .25146485 .41308595 C .32080079 .41308595 .36409507 .41601563 .38134767 .421875 C .39860026 .42773438 .41210938 .43782554 .421875 .45214845 C .43164063 .46647135 .43652345 .484375 .43652345 .5058594 C .43652345 .52994796 .43001304 .5493164 .4169922 .56396487 C .40429688 .5789388 .38623048 .5883789 .36279298 .59228518 C .35107423 .5939128 .31591798 .59472659 .25732423 .59472659 L .14453125 .59472659 L .14453125 .41308595 Z "/>
</symbol>
<use xlink:href="#font_1_35" transform="matrix(17.997923,0,0,-17.997923,57.516725,164.14107)"/>
<symbol id="font_1_e">
<path d="M .1875 0 L .1875 .18603516 L 0 .18603516 L 0 .31445313 L .1875 .31445313 L .1875 .5004883 L .3125 .5004883 L .3125 .31445313 L .5004883 .31445313 L .5004883 .18603516 L .3125 .18603516 L .3125 0 L .1875 0 Z "/>
</symbol>
<symbol id="font_1_14">
<path d="M .31445313 0 L .1772461 0 L .1772461 .51708987 C .12711589 .47021485 .06803385 .43554688 0 .41308595 L 0 .53759768 C .035807294 .5493164 .07470703 .57145187 .11669922 .6040039 C .1586914 .63688156 .1875 .6751302 .203125 .71875 L .31445313 .71875 L .31445313 0 Z "/>
</symbol>
<use xlink:href="#font_1_57" transform="matrix(17.997923,0,0,-17.997923,69.463199,168.67148)"/>
<use xlink:href="#font_1_e" transform="matrix(17.997923,0,0,-17.997923,75.93106,166.6063)"/>
<use xlink:href="#font_1_14" transform="matrix(17.997923,0,0,-17.997923,87.11852,168.46057)"/>
<symbol id="font_1_24">
<path d="M .7182617 0 L .56103518 0 L .49853517 .16259766 L .21240235 .16259766 L .15332031 0 L 0 0 L .2788086 .7158203 L .43164063 .7158203 L .7182617 0 M .45214845 .28320313 L .35351563 .5488281 L .25683595 .28320313 L .45214845 .28320313 Z "/>
</symbol>
<use xlink:href="#font_1_24" transform="matrix(17.997923,0,0,-17.997923,257.24659,56.153524)"/>
<use xlink:href="#font_1_57" transform="matrix(17.997923,0,0,-17.997923,270.51127,60.683938)"/>
<path transform="matrix(.71991696,0,0,.71991696,.35995848,.35995848)" d="M 163.5 221 L 336.5 221 C 337.3864 221 338.2643 221.08646 339.1337 221.25939 C 340.00306 221.43231 340.84724 221.68839 341.6662 222.0276 C 342.48515 222.36682 343.26316 222.78266 344.00019 223.27513 C 344.7372 223.76761 345.41914 224.32724 346.04594 224.95404 C 346.67274 225.58083 347.23234 226.26274 347.7248 226.99977 C 348.2173 227.73679 348.63316 228.51477 348.97236 229.33373 C 349.31156 230.15268 349.56764 230.99686 349.74058 231.86626 C 349.9135 232.73566 349.99998 233.61357 350 234.5 L 350 297.5 C 349.99998 298.38645 349.9135 299.26435 349.74058 300.1337 C 349.56764 301.00309 349.31156 301.84727 348.97236 302.6662 C 348.63316 303.48515 348.2173 304.26313 347.7248 305.00016 C 347.23234 305.73719 346.67274 306.41914 346.04594 307.04594 C 345.41914 307.6727 344.7372 308.23234 344.00019 308.72483 C 343.26316 309.2173 342.48515 309.63313 341.6662 309.97236 C 340.84724 310.31159 340.00306 310.56767 339.1337 310.74058 C 338.2643 310.9135 337.3864 310.99998 336.5 311 L 163.5 311 C 162.61357 310.99998 161.73567 310.9135 160.86627 310.74058 C 159.99687 310.56767 159.1527 310.31159 158.33374 309.97236 C 157.51479 309.63313 156.7368 309.2173 155.99979 308.72483 C 155.26274 308.23234 154.58083 307.6727 153.95404 307.04594 C 153.32726 306.41914 152.76761 305.7372 152.27513 305.00019 C 151.78266 304.26313 151.36682 303.48515 151.02762 302.6662 C 150.6884 301.84727 150.43231 301.00309 150.25939 300.1337 C 150.08646 299.26435 149.99999 298.38645 150 297.5 L 150 234.5 C 149.99999 233.61357 150.08646 232.73566 150.25939 231.86626 C 150.43231 230.99686 150.6884 230.1527 151.02762 229.33374 C 151.36682 228.51479 151.78266 227.7368 152.27513 226.99977 C 152.76761 226.26274 153.32726 225.58083 153.95404 224.95404 C 154.58083 224.32724 155.26274 223.76761 155.99979 223.27515 C 156.7368 222.78267 157.51479 222.36684 158.33374 222.02762 C 159.1527 221.6884 159.99687 221.43233 160.86627 221.2594 C 161.73567 221.08647 162.61357 221 163.5 221 Z " fill="#ffffff"/>
<path transform="matrix(.71991696,0,0,.71991696,.35995848,.35995848)" stroke-width="1" stroke-linecap="butt" stroke-miterlimit="4" stroke-linejoin="miter" fill="none" stroke="#000000" d="M 163.5 221 L 336.5 221 C 337.3864 221 338.2643 221.08646 339.1337 221.25939 C 340.00306 221.43231 340.84724 221.68839 341.6662 222.0276 C 342.48515 222.36682 343.26316 222.78266 344.00019 223.27513 C 344.7372 223.76761 345.41914 224.32724 346.04594 224.95404 C 346.67274 225.58083 347.23234 226.26274 347.7248 226.99977 C 348.2173 227.73679 348.63316 228.51477 348.97236 229.33373 C 349.31156 230.15268 349.56764 230.99686 349.74058 231.86626 C 349.9135 232.73566 349.99998 233.61357 350 234.5 L 350 297.5 C 349.99998 298.38645 349.9135 299.26435 349.74058 300.1337 C 349.56764 301.00309 349.31156 301.84727 348.97236 302.6662 C 348.63316 303.48515 348.2173 304.26313 347.7248 305.00016 C 347.23234 305.73719 346.67274 306.41914 346.04594 307.04594 C 345.41914 307.6727 344.7372 308.23234 344.00019 308.72483 C 343.26316 309.2173 342.48515 309.63313 341.6662 309.97236 C 340.84724 310.31159 340.00306 310.56767 339.1337 310.74058 C 338.2643 310.9135 337.3864 310.99998 336.5 311 L 163.5 311 C 162.61357 310.99998 161.73567 310.9135 160.86627 310.74058 C 159.99687 310.56767 159.1527 310.31159 158.33374 309.97236 C 157.51479 309.63313 156.7368 309.2173 155.99979 308.72483 C 155.26274 308.23234 154.58083 307.6727 153.95404 307.04594 C 153.32726 306.41914 152.76761 305.7372 152.27513 305.00019 C 151.78266 304.26313 151.36682 303.48515 151.02762 302.6662 C 150.6884 301.84727 150.43231 301.00309 150.25939 300.1337 C 150.08646 299.26435 149.99999 298.38645 150 297.5 L 150 234.5 C 149.99999 233.61357 150.08646 232.73566 150.25939 231.86626 C 150.43231 230.99686 150.6884 230.1527 151.02762 229.33374 C 151.36682 228.51479 151.78266 227.7368 152.27513 226.99977 C 152.76761 226.26274 153.32726 225.58083 153.95404 224.95404 C 154.58083 224.32724 155.26274 223.76761 155.99979 223.27515 C 156.7368 222.78267 157.51479 222.36684 158.33374 222.02762 C 159.1527 221.6884 159.99687 221.43233 160.86627 221.2594 C 161.73567 221.08647 162.61357 221 163.5 221 Z "/>
<symbol id="font_1_28">
<path d="M 0 0 L 0 .7158203 L .5307617 .7158203 L .5307617 .59472659 L .14453125 .59472659 L .14453125 .43603517 L .50390627 .43603517 L .50390627 .3154297 L .14453125 .3154297 L .14453125 .12060547 L .5444336 .12060547 L .5444336 0 L 0 0 Z "/>
</symbol>
<symbol id="font_1_51">
<path d="M .47265626 0 L .33544923 0 L .33544923 .26464845 C .33544923 .32063804 .33251954 .35677085 .32666017 .37304688 C .32080079 .38964845 .3111979 .4025065 .29785157 .4116211 C .28483073 .4207357 .26904298 .42529298 .25048829 .42529298 C .22672527 .42529298 .20540364 .41878257 .18652344 .40576173 C .16764324 .39274089 .15462239 .37548829 .14746094 .3540039 C .140625 .33251954 .13720703 .292806 .13720703 .23486328 L .13720703 0 L 0 0 L 0 .5185547 L .1274414 .5185547 L .1274414 .4423828 C .1726888 .50097659 .22965496 .53027346 .29833985 .53027346 C .32861329 .53027346 .35628257 .52473959 .38134767 .5136719 C .40641276 .5029297 .42529298 .48909507 .43798829 .47216798 C .45100913 .45524089 .45996095 .43603517 .46484376 .41455079 C .4700521 .3930664 .47265626 .3623047 .47265626 .32226563 L .47265626 0 Z "/>
</symbol>
<symbol id="font_1_59">
<path d="M .20898438 0 L 0 .5185547 L .14404297 .5185547 L .24169922 .25390626 L .27001954 .16552735 C .2775065 .18798828 .28222657 .20279949 .2841797 .20996094 C .28873698 .22460938 .29361979 .23925781 .29882813 .25390626 L .39746095 .5185547 L .5385742 .5185547 L .33251954 0 L .20898438 0 Z "/>
</symbol>
<symbol id="font_1_4c">
<path d="M 0 .5888672 L 0 .7158203 L .13720703 .7158203 L .13720703 .5888672 L 0 .5888672 M 0 0 L 0 .5185547 L .13720703 .5185547 L .13720703 0 L 0 0 Z "/>
</symbol>
<symbol id="font_1_55">
<path d="M .13720703 0 L 0 0 L 0 .5185547 L .1274414 .5185547 L .1274414 .44482423 C .1492513 .47965495 .16878255 .5026042 .18603516 .5136719 C .20361328 .52473959 .22347005 .53027346 .24560547 .53027346 C .27685548 .53027346 .30696617 .52164718 .3359375 .50439456 L .29345704 .38476563 C .27034507 .3997396 .24886067 .40722657 .2290039 .40722657 C .20979817 .40722657 .19352214 .40185548 .18017578 .39111329 C .16682942 .38069663 .15625 .36165367 .1484375 .33398438 C .14095052 .3063151 .13720703 .24837239 .13720703 .16015625 L .13720703 0 Z "/>
</symbol>
<symbol id="font_1_52">
<path d="M 0 .2783203 C 0 .32389323 .011230469 .3680013 .033691408 .41064454 C .056152345 .45328776 .087890628 .48583985 .12890625 .5083008 C .17024739 .5307617 .2163086 .5419922 .26708985 .5419922 C .34554038 .5419922 .40983073 .5164388 .45996095 .46533204 C .5100911 .41455079 .53515627 .3502604 .53515627 .27246095 C .53515627 .19401042 .5097656 .12890625 .45898438 .07714844 C .40852867 .025716147 .3448893 0 .2680664 0 C .22054036 0 .1751302 .0107421879 .13183594 .032226564 C .08886719 .053710939 .056152345 .085123699 .033691408 .12646485 C .011230469 .16813152 0 .21875 0 .2783203 M .140625 .2709961 C .140625 .2195638 .15283203 .18017578 .1772461 .15283203 C .20166016 .12548828 .23177083 .111816409 .26757813 .111816409 C .3033854 .111816409 .33333335 .12548828 .35742188 .15283203 C .38183595 .18017578 .39404298 .21988933 .39404298 .27197267 C .39404298 .3227539 .38183595 .3618164 .35742188 .38916017 C .33333335 .4165039 .3033854 .43017579 .26757813 .43017579 C .23177083 .43017579 .20166016 .4165039 .1772461 .38916017 C .15283203 .3618164 .140625 .32242839 .140625 .2709961 Z "/>
</symbol>
<symbol id="font_1_50">
<path d="M 0 .5185547 L .12646485 .5185547 L .12646485 .4477539 C .17171224 .5027669 .22558594 .53027346 .28808595 .53027346 C .32128907 .53027346 .35009767 .5234375 .37451173 .5097656 C .39892579 .49609376 .4189453 .4754232 .4345703 .4477539 C .45735679 .4754232 .4819336 .49609376 .5083008 .5097656 C .53466799 .5234375 .5628255 .53027346 .59277346 .53027346 C .6308594 .53027346 .66308596 .52246096 .6894531 .50683596 C .7158203 .49153648 .73551437 .46891276 .74853518 .43896485 C .7579753 .41682945 .7626953 .38102214 .7626953 .33154298 L .7626953 0 L .6254883 0 L .6254883 .29638673 C .6254883 .347819 .62076827 .38102214 .6113281 .3959961 C .5986328 .41552735 .57910159 .42529298 .5527344 .42529298 C .5335286 .42529298 .5154622 .4194336 .49853517 .40771485 C .48160807 .3959961 .46940104 .3787435 .46191407 .35595704 C .4544271 .3334961 .4506836 .29785157 .4506836 .24902344 L .4506836 0 L .31347657 0 L .31347657 .2841797 C .31347657 .3346354 .31103517 .3671875 .30615235 .38183595 C .30126954 .39648438 .29361979 .4073893 .28320313 .41455079 C .27311198 .42171226 .25927735 .42529298 .24169922 .42529298 C .22054036 .42529298 .20149739 .41959635 .18457031 .40820313 C .16764324 .3968099 .1554362 .3803711 .14794922 .35888673 C .14078777 .33740235 .13720703 .3017578 .13720703 .25195313 L .13720703 0 L 0 0 L 0 .5185547 Z "/>
</symbol>
<symbol id="font_1_48">
<path d="M .34033204 .17675781 L .47705079 .1538086 C .45947267 .10367838 .43164063 .06542969 .3935547 .0390625 C .35579429 .013020833 .308431 0 .25146485 0 C .16129558 0 .094563808 .029459635 .05126953 .088378909 C .017089844 .13557942 0 .19514974 0 .26708985 C 0 .35302735 .022460938 .4202474 .06738281 .46875 C .11230469 .5175781 .16910808 .5419922 .23779297 .5419922 C .3149414 .5419922 .3758138 .5164388 .42041017 .46533204 C .4650065 .41455079 .48632813 .33658854 .484375 .23144531 L .140625 .23144531 C .14160156 .1907552 .15266927 .15901692 .17382813 .13623047 C .19498699 .11376953 .22135417 .10253906 .2529297 .10253906 C .27441407 .10253906 .29248048 .10839844 .3071289 .12011719 C .32177735 .13183594 .33284507 .15071614 .34033204 .17675781 M .34814454 .3154297 C .34716798 .35514323 .33691407 .3852539 .3173828 .40576173 C .29785157 .42659507 .27408854 .43701173 .24609375 .43701173 C .21614583 .43701173 .19140625 .42610679 .171875 .40429688 C .15234375 .38248698 .14274089 .3528646 .1430664 .3154297 L .34814454 .3154297 Z "/>
</symbol>
<use xlink:href="#font_1_28" transform="matrix(20.877593,0,0,-20.877593,118.05548,199.41699)"/>
<use xlink:href="#font_1_51" transform="matrix(20.877593,0,0,-20.877593,131.94007,199.41699)"/>
<use xlink:href="#font_1_59" transform="matrix(20.877593,0,0,-20.877593,143.33025,199.41699)"/>
<use xlink:href="#font_1_4c" transform="matrix(20.877593,0,0,-20.877593,156.3246,199.41699)"/>
<use xlink:href="#font_1_55" transform="matrix(20.877593,0,0,-20.877593,162.00624,199.41699)"/>
<use xlink:href="#font_1_52" transform="matrix(20.877593,0,0,-20.877593,169.58734,199.66165)"/>
<use xlink:href="#font_1_51" transform="matrix(20.877593,0,0,-20.877593,182.98577,199.41699)"/>
<use xlink:href="#font_1_50" transform="matrix(20.877593,0,0,-20.877593,195.5483,199.41699)"/>
<use xlink:href="#font_1_48" transform="matrix(20.877593,0,0,-20.877593,213.48664,199.66165)"/>
<use xlink:href="#font_1_51" transform="matrix(20.877593,0,0,-20.877593,225.9101,199.41699)"/>
<use xlink:href="#font_1_57" transform="matrix(20.877593,0,0,-20.877593,237.50418,199.66165)"/>
<path transform="matrix(.71991696,0,0,.71991696,.35995848,.35995848)" d="M 163.5 1 L 336.5 1 C 337.3864 1 338.2643 1.0864662 339.1337 1.2593987 C 340.00306 1.4323311 340.84724 1.6884068 341.6662 2.027626 C 342.48515 2.3668454 343.26316 2.7826899 344.00019 3.2751599 C 344.7372 3.7676299 345.41914 4.327263 346.04594 4.954058 C 346.67274 5.5808537 347.23234 6.2627675 347.7248 6.9998009 C 348.2173 7.736834 348.63316 8.514824 348.97236 9.333772 C 349.31156 10.1527199 349.56764 10.996889 349.74058 11.86628 C 349.9135 12.73567 349.99998 13.613577 350 14.5 L 350 77.5 C 349.99998 78.38641 349.9135 79.26432 349.74058 80.13371 C 349.56764 81.003108 349.31156 81.84727 348.97236 82.666217 C 348.63316 83.48516 348.2173 84.263149 347.7248 85.00018 C 347.23234 85.73722 346.67274 86.419139 346.04594 87.04593 C 345.41914 87.67272 344.7372 88.23235 344.00019 88.724819 C 343.26316 89.217288 342.48515 89.63314 341.6662 89.97237 C 340.84724 90.311588 340.00306 90.56766 339.1337 90.74059 C 338.2643 90.91353 337.3864 90.99999 336.5 91 L 163.5 91 C 162.61357 90.99999 161.73567 90.91352 160.86627 90.740589 C 159.99687 90.56766 159.1527 90.311588 158.33374 89.97236 C 157.51479 89.63313 156.7368 89.21729 155.99979 88.72482 C 155.26274 88.23235 154.58083 87.67272 153.95404 87.04593 C 153.32726 86.419139 152.76761 85.73722 152.27513 85.00018 C 151.78266 84.263149 151.36682 83.48516 151.02762 82.666217 C 150.6884 81.84727 150.43231 81.003108 150.25939 80.13371 C 150.08646 79.26432 149.99999 78.38641 150 77.5 L 150 14.5 C 149.99999 13.613577 150.08646 12.73567 150.25939 11.866279 C 150.43231 10.996889 150.6884 10.15272 151.02762 9.333773 C 151.36682 8.514825 151.78266 7.7368347 152.27513 6.9998 C 152.76761 6.2627675 153.32726 5.5808537 153.95404 4.954058 C 154.58083 4.327263 155.26274 3.7676299 155.99979 3.2751599 C 156.7368 2.7826899 157.51479 2.3668454 158.33374 2.027626 C 159.1527 1.6884068 159.99687 1.4323311 160.86627 1.2593987 C 161.73567 1.0864662 162.61357 1 163.5 1 Z " fill="#ffffff"/>
<path transform="matrix(.71991696,0,0,.71991696,.35995848,.35995848)" stroke-width="1" stroke-linecap="butt" stroke-miterlimit="4" stroke-linejoin="miter" fill="none" stroke="#000000" d="M 163.5 1 L 336.5 1 C 337.3864 1 338.2643 1.0864662 339.1337 1.2593987 C 340.00306 1.4323311 340.84724 1.6884068 341.6662 2.027626 C 342.48515 2.3668454 343.26316 2.7826899 344.00019 3.2751599 C 344.7372 3.7676299 345.41914 4.327263 346.04594 4.954058 C 346.67274 5.5808537 347.23234 6.2627675 347.7248 6.9998009 C 348.2173 7.736834 348.63316 8.514824 348.97236 9.333772 C 349.31156 10.1527199 349.56764 10.996889 349.74058 11.86628 C 349.9135 12.73567 349.99998 13.613577 350 14.5 L 350 77.5 C 349.99998 78.38641 349.9135 79.26432 349.74058 80.13371 C 349.56764 81.003108 349.31156 81.84727 348.97236 82.666217 C 348.63316 83.48516 348.2173 84.263149 347.7248 85.00018 C 347.23234 85.73722 346.67274 86.419139 346.04594 87.04593 C 345.41914 87.67272 344.7372 88.23235 344.00019 88.724819 C 343.26316 89.217288 342.48515 89.63314 341.6662 89.97237 C 340.84724 90.311588 340.00306 90.56766 339.1337 90.74059 C 338.2643 90.91353 337.3864 90.99999 336.5 91 L 163.5 91 C 162.61357 90.99999 161.73567 90.91352 160.86627 90.740589 C 159.99687 90.56766 159.1527 90.311588 158.33374 89.97236 C 157.51479 89.63313 156.7368 89.21729 155.99979 88.72482 C 155.26274 88.23235 154.58083 87.67272 153.95404 87.04593 C 153.32726 86.419139 152.76761 85.73722 152.27513 85.00018 C 151.78266 84.263149 151.36682 83.48516 151.02762 82.666217 C 150.6884 81.84727 150.43231 81.003108 150.25939 80.13371 C 150.08646 79.26432 149.99999 78.38641 150 77.5 L 150 14.5 C 149.99999 13.613577 150.08646 12.73567 150.25939 11.866279 C 150.43231 10.996889 150.6884 10.15272 151.02762 9.333773 C 151.36682 8.514825 151.78266 7.7368347 152.27513 6.9998 C 152.76761 6.2627675 153.32726 5.5808537 153.95404 4.954058 C 154.58083 4.327263 155.26274 3.7676299 155.99979 3.2751599 C 156.7368 2.7826899 157.51479 2.3668454 158.33374 2.027626 C 159.1527 1.6884068 159.99687 1.4323311 160.86627 1.2593987 C 161.73567 1.0864662 162.61357 1 163.5 1 Z "/>
<symbol id="font_1_4a">
<path d="M .018066407 .17626953 L .17480469 .15722656 C .17740886 .13899739 .18343099 .12646485 .1928711 .119628909 C .20589192 .10986328 .22639974 .10498047 .25439454 .10498047 C .2902018 .10498047 .31705729 .11035156 .33496095 .12109375 C .34700523 .1282552 .35611979 .1398112 .3623047 .15576172 C .36653648 .16715496 .36865235 .18815105 .36865235 .21875 L .36865235 .2944336 C .32763673 .23844402 .2758789 .21044922 .2133789 .21044922 C .14371746 .21044922 .088541667 .23990886 .047851564 .29882813 C .015950522 .3453776 0 .4033203 0 .47265626 C 0 .5595703 .020833334 .62597659 .0625 .671875 C .10449219 .71777346 .15657552 .74072268 .21875 .74072268 C .2828776 .74072268 .33577476 .7125651 .3774414 .65625 L .3774414 .7290039 L .5058594 .7290039 L .5058594 .26367188 C .5058594 .20247396 .5008138 .15673828 .49072267 .12646485 C .4806315 .096191409 .46647135 .07242838 .4482422 .05517578 C .43001304 .037923177 .40559898 .024414063 .375 .0146484379 C .34472657 .0048828127 .3063151 0 .25976563 0 C .171875 0 .10953776 .015136719 .072753909 .045410158 C .03597005 .07535807 .017578125 .11344401 .017578125 .15966797 C .017578125 .16422527 .017740885 .16975911 .018066407 .17626953 M .140625 .48046876 C .140625 .42545573 .15120442 .38509117 .17236328 .359375 C .19384766 .33398438 .22021485 .32128907 .25146485 .32128907 C .2849935 .32128907 .3133138 .3343099 .33642579 .36035157 C .35953776 .38671876 .37109376 .4256185 .37109376 .47705079 C .37109376 .5307617 .36002604 .570638 .33789063 .5966797 C .31575523 .6227214 .2877604 .6357422 .25390626 .6357422 C .22102864 .6357422 .19384766 .6228841 .17236328 .59716799 C .15120442 .57177737 .140625 .5328776 .140625 .48046876 Z "/>
</symbol>
<use xlink:href="#font_1_24" transform="matrix(20.877593,0,0,-20.877593,150.76636,41.035268)"/>
<use xlink:href="#font_1_4a" transform="matrix(20.877593,0,0,-20.877593,166.69629,45.42894)"/>
<use xlink:href="#font_1_48" transform="matrix(20.877593,0,0,-20.877593,179.25879,41.279928)"/>
<use xlink:href="#font_1_51" transform="matrix(20.877593,0,0,-20.877593,191.68228,41.035268)"/>
<use xlink:href="#font_1_57" transform="matrix(20.877593,0,0,-20.877593,203.27635,41.279928)"/>
</g>
</g>
</svg>
