<?xml version="1.0" encoding="UTF-8" standalone="no"?>
<!DOCTYPE svg PUBLIC "-//W3C//DTD SVG 1.1//EN" "http://www.w3.org/Graphics/SVG/1.1/DTD/svg11.dtd">
<svg xmlns="http://www.w3.org/2000/svg" xmlns:xlink="http://www.w3.org/1999/xlink" version="1.1" width="816pt" height="259.91999pt" viewBox="0 0 816 259.91999">
<g enable-background="new">
<clipPath id="cp0">
<path transform="matrix(.24,0,0,.24,0,0)" d="M 0 0 L 3399.9998 0 L 3399.9998 1078.4141 L 0 1078.4141 Z " fill-rule="evenodd"/>
</clipPath>
<g clip-path="url(#cp0)">
<path transform="matrix(.71894267,0,0,.71894267,.35947133,.35947133)" stroke-width="5" stroke-linecap="butt" stroke-miterlimit="10" stroke-linejoin="miter" fill="none" stroke="#1a1a1a" d="M 813 302 L 813 23.84 "/>
<path transform="matrix(.71894267,0,0,.71894267,.35947133,.35947133)" d="M 813 15.59 L 818.5 26.59 L 813 23.84 L 807.5 26.59 L 813 15.59 Z " fill="#1a1a1a"/>
<path transform="matrix(.71894267,0,0,.71894267,.35947133,.35947133)" stroke-width="5" stroke-linecap="butt" stroke-miterlimit="10" stroke-linejoin="miter" fill="none" stroke="#1a1a1a" d="M 813 15.59 L 818.5 26.59 L 813 23.84 L 807.5 26.59 L 813 15.59 Z "/>
<path transform="matrix(.71894267,0,0,.71894267,.35947133,.35947133)" stroke-width="5" stroke-linecap="butt" stroke-miterlimit="10" stroke-linejoin="miter" fill="none" stroke="#1a1a1a" d="M 811 300 L 1109.16 300 "/>
<path transform="matrix(.71894267,0,0,.71894267,.35947133,.35947133)" d="M 1117.41 300 L 1106.41 305.5 L 1109.16 300 L 1106.41 294.5 L 1117.41 300 Z " fill="#1a1a1a"/>
<path transform="matrix(.71894267,0,0,.71894267,.35947133,.35947133)" stroke-width="5" stroke-linecap="butt" stroke-miterlimit="10" stroke-linejoin="miter" fill="none" stroke="#1a1a1a" d="M 1117.41 300 L 1106.41 305.5 L 1109.16 300 L 1106.41 294.5 L 1117.41 300 Z "/>
<path transform="matrix(.71894267,0,0,.71894267,.35947133,.35947133)" d="M 973 154 C 973 154.6566 972.9359 155.3069 972.8078 155.95088 C 972.6797 156.59488 972.49 157.22019 972.2387 157.82682 C 971.9874 158.43346 971.6794 159.00975 971.3146 159.5557 C 970.94979 160.10164 970.5353 160.60677 970.071 161.07106 C 969.6067 161.53534 969.1015 161.94989 968.55557 162.31468 C 968.0096 162.67946 967.4333 162.98749 966.8267 163.23877 C 966.2201 163.49004 965.5948 163.67974 964.9508 163.80783 C 964.3068 163.93593 963.65658 163.99999 963 164 C 962.3434 163.99999 961.69308 163.93593 961.0491 163.80783 C 960.405 163.67974 959.7797 163.49004 959.1731 163.23877 C 958.56649 162.98749 957.9902 162.67946 957.4443 162.31468 C 956.8983 161.94989 956.3932 161.53534 955.9289 161.07106 C 955.4646 160.60677 955.05 160.10166 954.6852 159.55571 C 954.32046 159.00975 954.0124 158.43346 953.7611 157.82682 C 953.5098 157.22019 953.3202 156.59488 953.1921 155.95088 C 953.06399 155.3069 952.99996 154.6566 953 154 C 952.99996 153.34339 953.06399 152.69309 953.1921 152.04909 C 953.3202 151.40509 953.5098 150.77979 953.7611 150.17314 C 954.0124 149.56652 954.32046 148.99022 954.68527 148.44426 C 955.05007 147.89832 955.4646 147.3932 955.9289 146.92891 C 956.3932 146.46462 956.89828 146.05007 957.4442 145.68527 C 957.9902 145.32048 958.56649 145.01245 959.1731 144.76119 C 959.7797 144.50992 960.405 144.32024 961.0491 144.19214 C 961.69308 144.06404 962.3434 144 963 144 C 963.65658 144 964.3068 144.06404 964.9508 144.19214 C 965.5948 144.32024 966.2201 144.50992 966.8267 144.76119 C 967.4333 145.01245 968.0096 145.32048 968.55557 145.68527 C 969.1015 146.05007 969.6067 146.46462 970.071 146.92891 C 970.5353 147.3932 970.94979 147.89833 971.3145 148.44428 C 971.6793 148.99022 971.98739 149.56652 972.23867 150.17314 C 972.4899 150.77979 972.6796 151.40509 972.80776 152.04909 C 972.9359 152.69309 973 153.34339 973 154 Z " fill="#cc0000"/>
<path transform="matrix(.71894267,0,0,.71894267,.35947133,.35947133)" d="M 983 104 C 982.99996 104.65661 982.93588 105.30691 982.80776 105.9509 C 982.6796 106.59489 982.49 107.22019 982.2387 107.82682 C 981.9874 108.43345 981.6794 109.009738 981.3146 109.55568 C 980.94979 110.10164 980.5353 110.606769 980.071 111.07106 C 979.6067 111.535358 979.1015 111.9499 978.55557 112.31468 C 978.0096 112.679477 977.4333 112.9875 976.8267 113.23878 C 976.2201 113.49005 975.5948 113.67974 974.9508 113.807849 C 974.3068 113.93594 973.65658 113.99999 973 114 C 972.3433 113.99999 971.693 113.93594 971.049 113.80784 C 970.405 113.67974 969.7797 113.49005 969.1731 113.23878 C 968.56649 112.9875 967.9902 112.679477 967.4443 112.31469 C 966.8983 111.9499 966.3932 111.535358 965.9289 111.07106 C 965.4646 110.606769 965.05 110.10164 964.6852 109.55569 C 964.3204 109.009738 964.0124 108.43345 963.7611 107.82682 C 963.5098 107.22019 963.3202 106.59489 963.1921 105.9509 C 963.064 105.30691 963 104.65661 963 104 C 963 103.34338 963.064 102.69308 963.19216 102.04909 C 963.3202 101.40509 963.5099 100.77978 963.76119 100.17315 C 964.01248 99.56652 964.32046 98.99023 964.68527 98.444278 C 965.05007 97.89833 965.4646 97.39321 965.9289 96.928928 C 966.3932 96.46463 966.89828 96.05009 967.4442 95.685298 C 967.9902 95.3205 968.56649 95.012477 969.1731 94.7612 C 969.7797 94.509929 970.405 94.320247 971.0491 94.19215 C 971.69308 94.06405 972.3433 94 973 94 C 973.65658 94 974.3068 94.06405 974.9508 94.19215 C 975.5948 94.320247 976.2201 94.509929 976.8267 94.7612 C 977.4333 95.012477 978.0096 95.3205 978.55557 95.685298 C 979.1015 96.05009 979.6067 96.46463 980.071 96.928928 C 980.5353 97.39321 980.94979 97.89833 981.3146 98.444278 C 981.6794 98.990238 981.9874 99.56653 982.2387 100.17316 C 982.49 100.77978 982.6796 101.40509 982.80776 102.04909 C 982.93588 102.69308 982.99996 103.34338 983 104 Z " fill="#cc0000"/>
<path transform="matrix(.71894267,0,0,.71894267,.35947133,.35947133)" d="M 913 147.5 C 912.99996 148.1566 912.93588 148.80689 912.80776 149.45088 C 912.6796 150.09488 912.49 150.72019 912.2387 151.32683 C 911.9874 151.93344 911.6794 152.50974 911.31466 153.0557 C 910.9498 153.60166 910.53536 154.10678 910.07107 154.57106 C 909.60678 155.03536 909.1016 155.44989 908.5556 155.81468 C 908.00967 156.17948 907.43338 156.48752 906.8267 156.73879 C 906.2201 156.99005 905.5948 157.17975 904.9508 157.30785 C 904.3068 157.43595 903.65658 157.5 903 157.5 C 902.3433 157.5 901.693 157.43595 901.049 157.30785 C 900.40499 157.17975 899.7796 156.99005 899.173 156.73879 C 898.5664 156.48752 897.9902 156.17948 897.4442 155.81468 C 896.89828 155.44989 896.3931 155.03536 895.92886 154.57106 C 895.46456 154.10678 895.0499 153.60166 894.68508 153.0557 C 894.32028 152.50974 894.01229 151.93344 893.76107 151.32683 C 893.5098 150.72019 893.3202 150.09488 893.1921 149.45088 C 893.064 148.80689 893 148.1566 893 147.5 C 893 146.84339 893.064 146.19309 893.1921 145.54909 C 893.3202 144.90509 893.5098 144.27977 893.76107 143.67314 C 894.01229 143.06653 894.3203 142.49024 894.6851 141.94428 C 895.0499 141.39833 895.46456 140.89322 895.92886 140.42893 C 896.3931 139.96462 896.89828 139.55008 897.4442 139.18529 C 897.9902 138.8205 898.5664 138.51245 899.17306 138.26119 C 899.77969 138.00992 900.40499 137.82025 901.049 137.69216 C 901.693 137.56406 902.3433 137.5 903 137.5 C 903.65658 137.5 904.3069 137.56406 904.95089 137.69216 C 905.59487 137.82025 906.22018 138.00994 906.8268 138.2612 C 907.4334 138.51247 908.0097 138.8205 908.55569 139.18529 C 909.1016 139.55008 909.60678 139.96462 910.07107 140.42893 C 910.53536 140.89322 910.9498 141.39835 911.31466 141.94429 C 911.67947 142.49024 911.9875 143.06653 912.2388 143.67314 C 912.49 144.27977 912.6796 144.90509 912.80776 145.54909 C 912.93588 146.19309 912.99996 146.84339 913 147.5 Z " fill="#cc0000"/>
<path transform="matrix(.71894267,0,0,.71894267,.35947133,.35947133)" d="M 913 214 C 912.99996 214.6566 912.93588 215.30689 912.80776 215.95087 C 912.6796 216.59488 912.49 217.2202 912.2387 217.82682 C 911.9874 218.43343 911.6794 219.00972 911.31466 219.55567 C 910.9498 220.10163 910.53536 220.60675 910.07107 221.07105 C 909.60678 221.53533 909.1016 221.94986 908.5556 222.31465 C 908.00967 222.67945 907.43338 222.98749 906.8267 223.23877 C 906.2201 223.49004 905.5948 223.67972 904.9508 223.80782 C 904.3068 223.93592 903.65658 223.99999 903 224 C 902.3433 223.99999 901.693 223.93592 901.049 223.80782 C 900.40499 223.67972 899.7796 223.49004 899.173 223.23877 C 898.5664 222.98749 897.9902 222.67945 897.4442 222.31465 C 896.89828 221.94986 896.3931 221.53533 895.92886 221.07105 C 895.46456 220.60675 895.0499 220.10163 894.68508 219.55567 C 894.32028 219.00972 894.01229 218.43343 893.76107 217.82682 C 893.5098 217.2202 893.3202 216.59488 893.1921 215.95088 C 893.064 215.30689 893 214.6566 893 214 C 893 213.34339 893.064 212.69309 893.1921 212.04909 C 893.3202 211.40509 893.5098 210.77979 893.76107 210.17314 C 894.01229 209.56653 894.3203 208.99024 894.6851 208.44428 C 895.0499 207.89833 895.46456 207.3932 895.92886 206.92893 C 896.3931 206.46462 896.89828 206.05008 897.4442 205.68529 C 897.9902 205.3205 898.5664 205.01247 899.17306 204.7612 C 899.77969 204.50994 900.40499 204.32025 901.049 204.19216 C 901.693 204.06406 902.3433 204 903 204 C 903.65658 204 904.3069 204.06406 904.95089 204.19216 C 905.59487 204.32025 906.22018 204.50994 906.8268 204.7612 C 907.4334 205.01247 908.0097 205.3205 908.55569 205.68529 C 909.1016 206.05008 909.60678 206.46462 910.07107 206.92893 C 910.53536 207.3932 910.9498 207.89833 911.31466 208.44429 C 911.67947 208.99024 911.9875 209.56653 912.2388 210.17314 C 912.49 210.77979 912.6796 211.40509 912.80776 212.04909 C 912.93588 212.69309 912.99996 213.34339 913 214 Z " fill="#cc0000"/>
<path transform="matrix(.71894267,0,0,.71894267,.35947133,.35947133)" d="M 863 264 C 862.99996 264.6566 862.9359 265.3069 862.8078 265.9509 C 862.6796 266.59489 862.4899 267.22019 862.2387 267.8268 C 861.9874 268.43345 861.6794 269.00975 861.31466 269.55567 C 860.9498 270.10163 860.53536 270.60676 860.07107 271.07106 C 859.60678 271.5353 859.10159 271.94987 858.55557 272.31465 C 858.0096 272.67945 857.43338 272.9875 856.8268 273.23875 C 856.22018 273.49003 855.59487 273.67973 854.95089 273.8078 C 854.3069 273.9359 853.65658 273.99998 853 274 C 852.3434 273.99998 851.69308 273.9359 851.0491 273.8078 C 850.4051 273.67973 849.7797 273.49003 849.1731 273.23875 C 848.56649 272.9875 847.9902 272.67945 847.4442 272.31465 C 846.89828 271.94987 846.3931 271.5353 845.9289 271.07106 C 845.46456 270.60676 845.05 270.10163 844.68527 269.55567 C 844.32046 269.00975 844.0124 268.43345 843.7611 267.8268 C 843.5098 267.22019 843.3201 266.59489 843.1921 265.9509 C 843.064 265.3069 843 264.6566 843 264 C 843 263.3434 843.064 262.6931 843.19216 262.0491 C 843.3201 261.4051 843.5098 260.77976 843.7611 260.17314 C 844.0124 259.5665 844.3204 258.9902 844.6852 258.44425 C 845.05 257.89833 845.46456 257.3932 845.9289 256.9289 C 846.3931 256.4646 846.89828 256.05006 847.4442 255.68526 C 847.9902 255.32047 848.56649 255.01244 849.1731 254.76117 C 849.7797 254.5099 850.405 254.32024 851.049 254.19214 C 851.69308 254.06404 852.3434 254 853 254 C 853.65658 254 854.3068 254.06404 854.9508 254.19214 C 855.5948 254.32024 856.2201 254.5099 856.8267 254.76117 C 857.43338 255.01244 858.00967 255.32047 858.5556 255.68526 C 859.10159 256.05006 859.60678 256.4646 860.07107 256.9289 C 860.53536 257.3932 860.9498 257.89833 861.31466 258.44429 C 861.6794 258.9902 861.9874 259.5665 862.2387 260.17314 C 862.4899 260.77976 862.6796 261.4051 862.8078 262.0491 C 862.9359 262.6931 862.99996 263.3434 863 264 Z " fill="#cc0000"/>
<path transform="matrix(.71894267,0,0,.71894267,.35947133,.35947133)" d="M 1043 104 C 1043 104.65661 1042.9359 105.30691 1042.8079 105.9509 C 1042.6797 106.59489 1042.49 107.22019 1042.2388 107.82682 C 1041.9874 108.43345 1041.6795 109.009738 1041.3146 109.55568 C 1040.9498 110.10164 1040.5353 110.606769 1040.071 111.07106 C 1039.6067 111.535358 1039.1016 111.9499 1038.5557 112.31468 C 1038.0097 112.679477 1037.4334 112.9875 1036.8268 113.23878 C 1036.2201 113.49005 1035.5947 113.67974 1034.9508 113.807849 C 1034.3069 113.93594 1033.6566 113.99999 1033 114 C 1032.3434 113.99999 1031.6931 113.93594 1031.0491 113.80784 C 1030.405 113.67974 1029.7797 113.49005 1029.1731 113.23878 C 1028.5665 112.9875 1027.9901 112.679477 1027.4441 112.31469 C 1026.8982 111.9499 1026.3931 111.535358 1025.9288 111.07106 C 1025.4646 110.606769 1025.05 110.10164 1024.6852 109.55569 C 1024.3204 109.009738 1024.0125 108.43345 1023.76107 107.82682 C 1023.50979 107.22019 1023.32009 106.59489 1023.192 105.9509 C 1023.06399 105.30691 1022.99996 104.65661 1023 104 C 1022.99996 103.34338 1023.06399 102.69308 1023.192 102.04909 C 1023.32009 101.40509 1023.5097 100.77978 1023.761 100.17315 C 1024.0123 99.56652 1024.3203 98.99023 1024.6852 98.444278 C 1025.05 97.89833 1025.4646 97.39321 1025.9288 96.928928 C 1026.3931 96.46463 1026.8982 96.05009 1027.4442 95.685298 C 1027.9902 95.3205 1028.5665 95.012477 1029.1731 94.7612 C 1029.7797 94.509929 1030.405 94.320247 1031.0491 94.19215 C 1031.6931 94.06405 1032.3434 94 1033 94 C 1033.6566 94 1034.3069 94.06405 1034.9508 94.19215 C 1035.5947 94.320247 1036.2201 94.509929 1036.8267 94.7612 C 1037.4332 95.012477 1038.0097 95.3205 1038.5557 95.685298 C 1039.1016 96.05009 1039.6067 96.46463 1040.071 96.928928 C 1040.5353 97.39321 1040.9498 97.89833 1041.3147 98.444278 C 1041.6795 98.990238 1041.9874 99.56653 1042.2387 100.17316 C 1042.49 100.77978 1042.6797 101.40509 1042.8078 102.04909 C 1042.9359 102.69308 1043 103.34338 1043 104 Z " fill="#cc0000"/>
<path transform="matrix(.71894267,0,0,.71894267,.35947133,.35947133)" d="M 1073 64 C 1073 64.65661 1072.9359 65.30691 1072.8079 65.950908 C 1072.6797 66.594898 1072.49 67.2202 1072.2388 67.82683 C 1071.9874 68.43345 1071.6795 69.00974 1071.3147 69.555698 C 1070.9498 70.10164 1070.5353 70.60676 1070.071 71.07106 C 1069.6068 71.53535 1069.1017 71.94989 1068.5557 72.31469 C 1068.0097 72.67948 1067.4334 72.98751 1066.8268 73.238788 C 1066.2202 73.49006 1065.5949 73.67975 1064.9508 73.807849 C 1064.3069 73.93594 1063.6566 73.99999 1063 74 C 1062.3434 73.99999 1061.693 73.93594 1061.0491 73.807849 C 1060.405 73.67975 1059.7797 73.49006 1059.1731 73.238788 C 1058.5664 72.98751 1057.9901 72.67948 1057.4441 72.31469 C 1056.8982 71.94989 1056.3932 71.53535 1055.929 71.07106 C 1055.4646 70.60676 1055.05 70.10164 1054.6852 69.55569 C 1054.3203 69.009738 1054.0123 68.43345 1053.7611 67.82682 C 1053.5099 67.22019 1053.3202 66.59489 1053.1921 65.9509 C 1053.0641 65.30691 1053.0001 64.65661 1053 64 C 1053.0001 63.343389 1053.0641 62.693086 1053.1921 62.04909 C 1053.3202 61.405099 1053.5099 60.779787 1053.7611 60.173158 C 1054.0123 59.56653 1054.3203 58.99024 1054.6852 58.444288 C 1055.05 57.89834 1055.4646 57.393217 1055.929 56.928926 C 1056.3932 56.46463 1056.8982 56.050088 1057.4441 55.685297 C 1057.9901 55.320505 1058.5664 55.01247 1059.1731 54.7612 C 1059.7797 54.509927 1060.405 54.32024 1061.0491 54.192144 C 1061.693 54.06405 1062.3434 54 1063 54 C 1063.6566 54 1064.3069 54.06405 1064.9508 54.192144 C 1065.5949 54.32024 1066.2202 54.509927 1066.8268 54.7612 C 1067.4334 55.01247 1068.0098 55.320505 1068.5558 55.685297 C 1069.1017 56.050088 1069.6068 56.46463 1070.071 56.928926 C 1070.5353 57.393217 1070.9498 57.89834 1071.3147 58.444288 C 1071.6795 58.99024 1071.9874 59.56653 1072.2388 60.173158 C 1072.49 60.779787 1072.6797 61.405099 1072.8079 62.04909 C 1072.9359 62.693086 1073 63.343389 1073 64 Z " fill="#cc0000"/>
<path transform="matrix(.71894267,0,0,.71894267,.35947133,.35947133)" d="M 1123 84 C 1123 84.65661 1122.9359 85.30691 1122.8078 85.9509 C 1122.6796 86.59489 1122.4899 87.22019 1122.2385 87.82682 C 1121.9872 88.43344 1121.6792 89.009738 1121.3145 89.55569 C 1120.9497 90.10164 1120.5352 90.606769 1120.0709 91.07106 C 1119.6066 91.535358 1119.1015 91.9499 1118.5556 92.31468 C 1118.0095 92.67948 1117.4332 92.98751 1116.8267 93.238788 C 1116.22 93.49006 1115.5946 93.67974 1114.9507 93.807849 C 1114.3068 93.93594 1113.6565 93.99999 1113 94 C 1112.3434 93.99999 1111.693 93.93594 1111.049 93.80784 C 1110.405 93.67974 1109.7797 93.49005 1109.1731 93.23878 C 1108.5665 92.9875 1107.9902 92.679477 1107.4442 92.31468 C 1106.8982 91.9499 1106.3931 91.535358 1105.9288 91.07106 C 1105.4645 90.606769 1105.0499 90.10164 1104.685 89.55568 C 1104.3202 89.00973 1104.0122 88.43344 1103.761 87.82682 C 1103.5097 87.22019 1103.3201 86.59489 1103.192 85.9509 C 1103.064 85.30691 1103 84.65661 1103 84 C 1103 83.34339 1103.064 82.693088 1103.192 82.049098 C 1103.3201 81.4051 1103.5097 80.779788 1103.761 80.17315 C 1104.0122 79.56653 1104.3202 78.99024 1104.685 78.44429 C 1105.0499 77.89834 1105.4645 77.39322 1105.9288 76.928928 C 1106.3931 76.46463 1106.8983 76.05009 1107.4443 75.685298 C 1107.9902 75.3205 1108.5665 75.01247 1109.1731 74.76119 C 1109.7797 74.50992 1110.405 74.32024 1111.049 74.19215 C 1111.693 74.06405 1112.3434 74 1113 74 C 1113.6565 74 1114.3068 74.06405 1114.9507 74.19215 C 1115.5946 74.32024 1116.22 74.50992 1116.8267 74.76119 C 1117.4332 75.01247 1118.0095 75.3205 1118.5556 75.685298 C 1119.1015 76.05009 1119.6066 76.46463 1120.0709 76.928928 C 1120.5352 77.39322 1120.9497 77.89834 1121.3143 78.44429 C 1121.6792 78.99024 1121.9872 79.56653 1122.2385 80.17315 C 1122.4899 80.779788 1122.6796 81.4051 1122.8078 82.049098 C 1122.9359 82.693088 1123 83.34339 1123 84 Z " fill="#cc0000"/>
<path transform="matrix(.71894267,0,0,.71894267,0,0)" stroke-width="2" stroke-linecap="butt" stroke-miterlimit="10" stroke-linejoin="miter" fill="none" stroke="#001dbc" d="M 1101 54 L 853 254 "/>
<symbol id="font_1_5b">
<path d="M 0 0 L .18945313 .26953126 L .014160156 .5185547 L .12402344 .5185547 L .20361328 .39697267 C .21858724 .3738607 .23063152 .3544922 .2397461 .3388672 C .254069 .36035157 .2672526 .37939454 .27929688 .3959961 L .36669923 .5185547 L .4716797 .5185547 L .29248048 .27441407 L .48535157 0 L .3774414 0 L .2709961 .16113281 L .24267578 .20458985 L .10644531 0 L 0 0 Z "/>
</symbol>
<use xlink:href="#font_1_5b" transform="matrix(17.973567,0,0,-17.973567,785.5203,246.59732)"/>
<symbol id="font_1_14">
<path d="M .26367188 0 L .17578125 0 L .17578125 .5600586 C .15462239 .5398763 .12679036 .51969406 .092285159 .49951173 C .05810547 .47932945 .02734375 .46419273 0 .45410157 L 0 .5390625 C .049153646 .5621745 .0921224 .59016928 .12890625 .6230469 C .16569011 .6559245 .19173177 .6878255 .20703125 .71875 L .26367188 .71875 L .26367188 0 Z "/>
</symbol>
<use xlink:href="#font_1_14" transform="matrix(12.4808449,0,0,-12.4808449,795.73446,250.19205)"/>
<path transform="matrix(.71894267,0,0,.71894267,.35947133,.35947133)" stroke-width="5" stroke-linecap="butt" stroke-miterlimit="10" stroke-linejoin="miter" fill="none" stroke="#1a1a1a" d="M 428 306 L 428 27.84 "/>
<path transform="matrix(.71894267,0,0,.71894267,.35947133,.35947133)" d="M 428 19.59 L 433.5 30.59 L 428 27.84 L 422.5 30.59 L 428 19.59 Z " fill="#1a1a1a"/>
<path transform="matrix(.71894267,0,0,.71894267,.35947133,.35947133)" stroke-width="5" stroke-linecap="butt" stroke-miterlimit="10" stroke-linejoin="miter" fill="none" stroke="#1a1a1a" d="M 428 19.59 L 433.5 30.59 L 428 27.84 L 422.5 30.59 L 428 19.59 Z "/>
<path transform="matrix(.71894267,0,0,.71894267,.35947133,.35947133)" stroke-width="5" stroke-linecap="butt" stroke-miterlimit="10" stroke-linejoin="miter" fill="none" stroke="#1a1a1a" d="M 426 304 L 724.16 304 "/>
<path transform="matrix(.71894267,0,0,.71894267,.35947133,.35947133)" d="M 732.41 304 L 721.41 309.5 L 724.16 304 L 721.41 298.5 L 732.41 304 Z " fill="#1a1a1a"/>
<path transform="matrix(.71894267,0,0,.71894267,.35947133,.35947133)" stroke-width="5" stroke-linecap="butt" stroke-miterlimit="10" stroke-linejoin="miter" fill="none" stroke="#1a1a1a" d="M 732.41 304 L 721.41 309.5 L 724.16 304 L 721.41 298.5 L 732.41 304 Z "/>
<path transform="matrix(.71894267,0,0,.71894267,.35947133,.35947133)" d="M 588 158 C 588 158.6566 587.936 159.3069 587.80789 159.95088 C 587.67977 160.59488 587.49008 161.22019 587.2388 161.82682 C 586.9875 162.43343 586.67947 163.00972 586.3147 163.55568 C 585.9499 164.10164 585.53536 164.60677 585.07107 165.07106 C 584.6067 165.53536 584.10159 165.94989 583.55569 166.31468 C 583.0097 166.67948 582.4334 166.9875 581.8268 167.23877 C 581.22018 167.49004 580.5948 167.67974 579.9508 167.80783 C 579.3068 167.93593 578.65658 167.99999 578 168 C 577.3433 167.99999 576.69308 167.93593 576.0491 167.80783 C 575.405 167.67974 574.7797 167.49004 574.1731 167.23877 C 573.56649 166.9875 572.9902 166.67948 572.4443 166.31468 C 571.8983 165.94989 571.3932 165.53536 570.9289 165.07106 C 570.4646 164.60677 570.05007 164.10164 569.68527 163.55568 C 569.32046 163.00972 569.01248 162.43343 568.76119 161.82682 C 568.5099 161.22019 568.3202 160.59488 568.1921 159.95088 C 568.06399 159.3069 567.99996 158.6566 568 158 C 567.99996 157.34339 568.06399 156.69309 568.1921 156.04909 C 568.3202 155.40509 568.5099 154.77977 568.76119 154.17316 C 569.01248 153.56653 569.32046 152.99024 569.68527 152.44429 C 570.05007 151.89833 570.4646 151.3932 570.9289 150.92893 C 571.3932 150.46462 571.8983 150.05008 572.4443 149.68529 C 572.9902 149.3205 573.56649 149.01247 574.1731 148.7612 C 574.7797 148.50994 575.405 148.32024 576.0491 148.19214 C 576.69308 148.06404 577.3433 148 578 148 C 578.65658 148 579.3068 148.06404 579.9508 148.19214 C 580.5948 148.32024 581.22018 148.50994 581.8268 148.7612 C 582.4334 149.01247 583.0097 149.3205 583.55569 149.68529 C 584.10159 150.05008 584.6067 150.46462 585.07107 150.92893 C 585.53536 151.3932 585.9499 151.89833 586.3147 152.44429 C 586.67947 152.99024 586.9875 153.56653 587.2388 154.17316 C 587.49008 154.77977 587.67977 155.40509 587.80789 156.04909 C 587.936 156.69309 588 157.34339 588 158 Z " fill="#cc0000"/>
<path transform="matrix(.71894267,0,0,.71894267,.35947133,.35947133)" d="M 598 108 C 597.99996 108.65661 597.9359 109.30691 597.8078 109.9509 C 597.6797 110.59489 597.49 111.2202 597.2387 111.82683 C 596.9874 112.43345 596.67947 113.009738 596.31466 113.55569 C 595.9498 114.10164 595.53536 114.606769 595.07107 115.07106 C 594.60678 115.53535 594.1016 115.94989 593.55569 116.31468 C 593.0097 116.679477 592.4334 116.98751 591.8268 117.238788 C 591.22018 117.49006 590.5948 117.67974 589.9508 117.807849 C 589.3068 117.93595 588.65658 118 588 118 C 587.3433 118 586.69308 117.93595 586.0491 117.807849 C 585.405 117.67974 584.7797 117.49006 584.1731 117.238788 C 583.56649 116.98751 582.99026 116.679477 582.4443 116.31468 C 581.8983 115.94989 581.3932 115.53535 580.9289 115.07106 C 580.4646 114.606769 580.05 114.10164 579.6852 113.55569 C 579.3204 113.009738 579.0124 112.43345 578.7611 111.82683 C 578.5099 111.2202 578.3202 110.59489 578.1921 109.9509 C 578.06399 109.30691 577.99996 108.65661 578 108 C 577.99996 107.34339 578.06399 106.693088 578.1921 106.049098 C 578.3202 105.40509 578.5099 104.77978 578.7611 104.17315 C 579.0124 103.56652 579.3204 102.990238 579.6852 102.44428 C 580.05 101.89833 580.4646 101.39321 580.9289 100.928928 C 581.3932 100.46463 581.8983 100.05009 582.4443 99.68529 C 582.99026 99.3205 583.56649 99.012477 584.1731 98.7612 C 584.7797 98.509929 585.405 98.320247 586.0491 98.19215 C 586.69308 98.06405 587.3433 98 588 98 C 588.65658 98 589.3068 98.06405 589.9508 98.19215 C 590.5948 98.32024 591.22018 98.50992 591.8268 98.76119 C 592.4334 99.01247 593.0097 99.320499 593.55569 99.68529 C 594.1016 100.05009 594.60678 100.46463 595.07107 100.928928 C 595.53536 101.39321 595.9498 101.89833 596.31466 102.44428 C 596.67947 102.990238 596.9874 103.56652 597.2387 104.17315 C 597.49 104.77978 597.6797 105.40509 597.8078 106.04909 C 597.9359 106.693088 597.99996 107.34339 598 108 Z " fill="#cc0000"/>
<path transform="matrix(.71894267,0,0,.71894267,.35947133,.35947133)" d="M 528 151.5 C 528 152.1566 527.9359 152.8069 527.8078 153.45088 C 527.6797 154.09488 527.49008 154.72019 527.2388 155.32682 C 526.9875 155.93346 526.67947 156.50974 526.31466 157.05568 C 525.9498 157.60164 525.53536 158.10677 525.07107 158.57106 C 524.60678 159.03536 524.10159 159.44989 523.5556 159.81468 C 523.00967 160.17948 522.4334 160.4875 521.8268 160.73877 C 521.22018 160.99005 520.5949 161.17975 519.9509 161.30785 C 519.30697 161.43595 518.6566 161.5 518 161.5 C 517.3434 161.5 516.69308 161.43595 516.0491 161.30785 C 515.405 161.17975 514.77969 160.99005 514.17306 160.73877 C 513.5664 160.4875 512.9902 160.17948 512.4442 159.81468 C 511.89823 159.44989 511.39314 159.03536 510.92887 158.57106 C 510.46458 158.10677 510.05003 157.60164 509.6852 157.0557 C 509.3204 156.50975 509.01237 155.93346 508.7611 155.32682 C 508.50987 154.72019 508.3202 154.09488 508.1921 153.45088 C 508.06404 152.8069 507.99998 152.1566 508 151.5 C 507.99998 150.84339 508.06404 150.19307 508.1921 149.54907 C 508.3202 148.90508 508.50987 148.27977 508.7611 147.67314 C 509.01237 147.06652 509.3204 146.49022 509.6852 145.94428 C 510.05003 145.39833 510.46458 144.8932 510.92887 144.42893 C 511.39314 143.96463 511.89823 143.55008 512.4442 143.18529 C 512.9902 142.8205 513.56649 142.51247 514.1731 142.2612 C 514.7797 142.00994 515.4051 141.82025 516.0491 141.69216 C 516.69308 141.56406 517.3434 141.5 518 141.5 C 518.6566 141.5 519.30697 141.56406 519.9509 141.69216 C 520.5949 141.82025 521.22018 142.00994 521.8268 142.2612 C 522.4334 142.51247 523.00967 142.8205 523.5556 143.18529 C 524.10159 143.55008 524.60678 143.96463 525.07107 144.42893 C 525.53536 144.8932 525.9498 145.39833 526.31466 145.94428 C 526.67947 146.49022 526.9875 147.06652 527.2388 147.67314 C 527.49008 148.27977 527.6797 148.90508 527.8078 149.54907 C 527.9359 150.19307 528 150.84339 528 151.5 Z " fill="#cc0000"/>
<path transform="matrix(.71894267,0,0,.71894267,.35947133,.35947133)" d="M 528 218 C 528 218.6566 527.9359 219.3069 527.8078 219.95088 C 527.6797 220.59487 527.49008 221.22017 527.2388 221.8268 C 526.9875 222.43343 526.67947 223.00972 526.31466 223.55568 C 525.9498 224.10163 525.53536 224.60675 525.07107 225.07105 C 524.60678 225.53533 524.10159 225.94988 523.5556 226.31467 C 523.00967 226.67946 522.4334 226.98749 521.8268 227.23877 C 521.22018 227.49004 520.5949 227.67974 519.9509 227.80783 C 519.30697 227.93593 518.6566 227.99999 518 228 C 517.3434 227.99999 516.69308 227.93593 516.0491 227.80783 C 515.405 227.67974 514.77969 227.49004 514.17306 227.23877 C 513.5664 226.98749 512.9902 226.67946 512.4442 226.31467 C 511.89823 225.94988 511.39314 225.53533 510.92887 225.07105 C 510.46458 224.60675 510.05003 224.10163 509.6852 223.55568 C 509.3204 223.00972 509.01237 222.43343 508.7611 221.8268 C 508.50987 221.22017 508.3202 220.59487 508.1921 219.95088 C 508.06404 219.3069 507.99998 218.6566 508 218 C 507.99998 217.34337 508.06404 216.69307 508.1921 216.04907 C 508.3202 215.40508 508.50987 214.77976 508.7611 214.17313 C 509.01237 213.5665 509.3204 212.99022 509.6852 212.44428 C 510.05003 211.89833 510.46458 211.3932 510.92887 210.92891 C 511.39314 210.46462 511.89823 210.05007 512.4442 209.68527 C 512.9902 209.32048 513.56649 209.01245 514.1731 208.76119 C 514.7797 208.50992 515.4051 208.32024 516.0491 208.19214 C 516.69308 208.06404 517.3434 208 518 208 C 518.6566 208 519.30697 208.06404 519.9509 208.19214 C 520.5949 208.32024 521.22018 208.5099 521.8268 208.76117 C 522.4334 209.01244 523.00967 209.32048 523.5556 209.68527 C 524.10159 210.05007 524.60678 210.46462 525.07107 210.92891 C 525.53536 211.3932 525.9498 211.89832 526.31466 212.44426 C 526.67947 212.9902 526.9875 213.5665 527.2388 214.17313 C 527.49008 214.77976 527.6797 215.40508 527.8078 216.04907 C 527.9359 216.69307 528 217.34337 528 218 Z " fill="#cc0000"/>
<path transform="matrix(.71894267,0,0,.71894267,.35947133,.35947133)" d="M 478 268 C 477.99998 268.6566 477.9359 269.3069 477.8078 269.95088 C 477.67973 270.59486 477.49003 271.22016 477.23878 271.82679 C 476.98747 272.4334 476.6794 273.0097 476.31465 273.55564 C 475.94987 274.10163 475.5353 274.60676 475.07106 275.07106 C 474.60673 275.5353 474.1016 275.94987 473.55567 276.31468 C 473.0097 276.67945 472.4334 276.9875 471.82679 277.23878 C 471.22016 277.49006 470.59486 277.67976 469.95088 277.80787 C 469.3069 277.93595 468.6566 278 468 278 C 467.34339 278 466.69306 277.93595 466.04905 277.80787 C 465.40504 277.67976 464.77973 277.49006 464.1731 277.23878 C 463.56648 276.9875 462.99018 276.67945 462.44425 276.31468 C 461.8983 275.94987 461.39317 275.5353 460.92887 275.07106 C 460.46455 274.60676 460.05 274.10163 459.6852 273.55564 C 459.32044 273.0097 459.0124 272.4334 458.7611 271.82679 C 458.50984 271.22016 458.32017 270.59486 458.1921 269.95088 C 458.064 269.3069 457.99998 268.6566 458 268 C 457.99998 267.34339 458.064 266.69309 458.19209 266.04908 C 458.32017 265.40507 458.50984 264.77976 458.7611 264.17314 C 459.0124 263.56654 459.32044 262.99024 459.6852 262.44425 C 460.05 261.89833 460.46455 261.3932 460.92887 260.9289 C 461.39317 260.4646 461.8983 260.05006 462.44425 259.68525 C 462.99018 259.32048 463.56648 259.01243 464.1731 258.76118 C 464.77973 258.50993 465.40504 258.32023 466.04905 258.19215 C 466.69306 258.06407 467.34339 258 468 258 C 468.6566 258 469.3069 258.06407 469.95088 258.19215 C 470.59486 258.32023 471.22016 258.50993 471.82679 258.76118 C 472.4334 259.01243 473.0097 259.32048 473.55567 259.68525 C 474.1016 260.05006 474.60673 260.4646 475.07106 260.9289 C 475.5353 261.3932 475.94987 261.89833 476.31465 262.44429 C 476.6794 262.99024 476.98747 263.56654 477.23878 264.17314 C 477.49003 264.77976 477.67973 265.40507 477.8078 266.04908 C 477.9359 266.69309 477.99998 267.34339 478 268 Z " fill="#cc0000"/>
<path transform="matrix(.71894267,0,0,.71894267,.35947133,.35947133)" d="M 658 108 C 658 108.65661 657.9359 109.30691 657.8078 109.9509 C 657.6797 110.59489 657.49 111.2202 657.2387 111.82683 C 656.9874 112.43345 656.67947 113.009738 656.31466 113.55569 C 655.9498 114.10164 655.53536 114.606769 655.07107 115.07106 C 654.60678 115.53535 654.1016 115.94989 653.55569 116.31468 C 653.0097 116.679477 652.4334 116.98751 651.8268 117.238788 C 651.22018 117.49006 650.59487 117.67974 649.95089 117.807849 C 649.3069 117.93595 648.6566 118 648 118 C 647.3433 118 646.69308 117.93595 646.0491 117.807849 C 645.405 117.67974 644.7797 117.49006 644.1731 117.238788 C 643.56649 116.98751 642.9902 116.679477 642.4442 116.31468 C 641.89828 115.94989 641.3932 115.53535 640.9289 115.07106 C 640.4646 114.606769 640.0501 114.10164 639.6853 113.55569 C 639.3205 113.009738 639.01248 112.43345 638.76119 111.82683 C 638.5099 111.2202 638.32028 110.59489 638.19216 109.9509 C 638.064 109.30691 637.99996 108.65661 638 108 C 637.99996 107.34339 638.064 106.693088 638.19216 106.049098 C 638.32028 105.40509 638.5099 104.77978 638.76119 104.17315 C 639.01248 103.56652 639.3205 102.990238 639.6853 102.44428 C 640.0501 101.89833 640.4646 101.39321 640.9289 100.928928 C 641.3932 100.46463 641.89828 100.05009 642.4442 99.68529 C 642.9902 99.3205 643.56649 99.012477 644.1731 98.7612 C 644.7797 98.509929 645.405 98.320247 646.0491 98.19215 C 646.69308 98.06405 647.3433 98 648 98 C 648.6566 98 649.3069 98.06405 649.95089 98.19215 C 650.59487 98.32024 651.22018 98.50992 651.8268 98.76119 C 652.4334 99.01247 653.0097 99.320499 653.55569 99.68529 C 654.1016 100.05009 654.60678 100.46463 655.07107 100.928928 C 655.53536 101.39321 655.9498 101.89833 656.31466 102.44428 C 656.67947 102.990238 656.9874 103.56652 657.2387 104.17315 C 657.49 104.77978 657.6797 105.40509 657.8078 106.04909 C 657.9359 106.693088 658 107.34339 658 108 Z " fill="#cc0000"/>
<path transform="matrix(.71894267,0,0,.71894267,.35947133,.35947133)" d="M 688 68 C 688 68.6566 687.936 69.3069 687.80789 69.9509 C 687.67977 70.59489 687.49008 71.22019 687.2388 71.82682 C 686.9875 72.43344 686.6795 73.009738 686.3147 73.55569 C 685.9499 74.10164 685.53536 74.60676 685.07107 75.07106 C 684.60678 75.535358 684.1016 75.9499 683.55569 76.3147 C 683.0097 76.67949 682.4334 76.98752 681.8268 77.238788 C 681.22018 77.49006 680.59487 77.67974 679.95089 77.807849 C 679.3069 77.93594 678.6566 77.99999 678 78 C 677.3434 77.99999 676.69308 77.93594 676.0491 77.807849 C 675.4051 77.67974 674.7797 77.49006 674.17306 77.238788 C 673.5664 76.98752 672.9901 76.67949 672.4442 76.3147 C 671.89828 75.9499 671.3931 75.535358 670.9289 75.07106 C 670.46456 74.60676 670.05 74.10164 669.68527 73.55569 C 669.32046 73.009738 669.0124 72.43344 668.7611 71.82682 C 668.5098 71.22019 668.3202 70.59489 668.19216 69.9509 C 668.064 69.3069 668 68.6566 668 68 C 668 67.34339 668.064 66.693088 668.19216 66.049098 C 668.3202 65.4051 668.5098 64.779788 668.7611 64.17316 C 669.0124 63.566534 669.3204 62.990243 669.6852 62.44429 C 670.05 61.898344 670.46456 61.39322 670.9289 60.92893 C 671.3931 60.464639 671.89828 60.050096 672.4442 59.6853 C 672.9901 59.320508 673.5664 59.012475 674.17306 58.7612 C 674.7797 58.509927 675.4051 58.32024 676.0491 58.192144 C 676.69308 58.06405 677.3434 58 678 58 C 678.6566 58 679.3069 58.06405 679.95089 58.192144 C 680.59487 58.32024 681.22018 58.509927 681.8268 58.7612 C 682.4334 59.012475 683.0097 59.320508 683.55569 59.6853 C 684.1016 60.050096 684.60678 60.464639 685.07107 60.92893 C 685.53536 61.39322 685.9499 61.898344 686.3147 62.44429 C 686.6795 62.990243 686.9875 63.566534 687.2388 64.17316 C 687.49008 64.779788 687.67977 65.4051 687.80789 66.049098 C 687.936 66.693088 688 67.34339 688 68 Z " fill="#cc0000"/>
<path transform="matrix(.71894267,0,0,.71894267,.35947133,.35947133)" d="M 738 88 C 737.99996 88.65661 737.93588 89.30691 737.80776 89.9509 C 737.6796 90.59489 737.4899 91.22019 737.23867 91.82682 C 736.98739 92.43345 736.6794 93.009738 736.3146 93.55568 C 735.94979 94.10164 735.5353 94.606769 735.071 95.07106 C 734.6067 95.535358 734.10159 95.9499 733.5556 96.31468 C 733.00967 96.679477 732.43338 96.9875 731.8267 97.23878 C 731.2201 97.49005 730.59487 97.67974 729.95089 97.807849 C 729.3069 97.93594 728.6566 97.99999 728 98 C 727.3434 97.99999 726.69308 97.93594 726.0491 97.80784 C 725.4051 97.67974 724.7797 97.49005 724.1731 97.23878 C 723.5664 96.9875 722.9901 96.679477 722.4443 96.31469 C 721.8983 95.9499 721.3932 95.535358 720.9289 95.07106 C 720.4646 94.606769 720.05007 94.10164 719.68527 93.55569 C 719.32046 93.009738 719.0124 92.43345 718.7611 91.82682 C 718.5098 91.22019 718.3201 90.59489 718.1921 89.9509 C 718.064 89.30691 718 88.65661 718 88 C 718 87.34339 718.064 86.693088 718.19216 86.049098 C 718.3201 85.4051 718.5098 84.779788 718.7611 84.17316 C 719.0124 83.56652 719.32046 82.990238 719.68527 82.44429 C 720.05007 81.89834 720.4646 81.39321 720.9289 80.928928 C 721.3932 80.46463 721.89828 80.05009 722.4442 79.685298 C 722.9901 79.3205 723.5664 79.012477 724.1731 78.7612 C 724.7797 78.509929 725.405 78.320247 726.049 78.19215 C 726.69308 78.06405 727.3434 78 728 78 C 728.6566 78 729.3069 78.06405 729.95089 78.19215 C 730.59487 78.320247 731.22018 78.509929 731.8268 78.7612 C 732.4334 79.012477 733.0097 79.3205 733.55569 79.685298 C 734.10159 80.05009 734.6067 80.46463 735.071 80.928928 C 735.5353 81.39321 735.9498 81.89834 736.31466 82.44429 C 736.6794 82.990238 736.98739 83.56652 737.23867 84.17316 C 737.4899 84.779788 737.6796 85.4051 737.80776 86.049098 C 737.93588 86.693088 737.99996 87.34339 738 88 Z " fill="#cc0000"/>
<path transform="matrix(.71894267,0,0,.71894267,0,0)" stroke-width="2" stroke-linecap="butt" stroke-miterlimit="10" stroke-linejoin="miter" fill="none" stroke="#001dbc" d="M 450 268 C 508.66667 201.33333 548.3333 159.66667 569 143 C 589.6667 126.33333 613 113 639 103 C 665 93 698 84.666667 738 78 "/>
<use xlink:href="#font_1_5b" transform="matrix(17.973567,0,0,-17.973567,508.72743,249.4731)"/>
<use xlink:href="#font_1_14" transform="matrix(12.4808449,0,0,-12.4808449,518.9415,253.06781)"/>
<path transform="matrix(.71894267,0,0,.71894267,.35947133,.35947133)" stroke-width="5" stroke-linecap="butt" stroke-miterlimit="10" stroke-linejoin="miter" fill="none" stroke="#1a1a1a" d="M 43 306 L 43 27.84 "/>
<path transform="matrix(.71894267,0,0,.71894267,.35947133,.35947133)" d="M 43 19.59 L 48.5 30.59 L 43 27.84 L 37.5 30.59 L 43 19.59 Z " fill="#1a1a1a"/>
<path transform="matrix(.71894267,0,0,.71894267,.35947133,.35947133)" stroke-width="5" stroke-linecap="butt" stroke-miterlimit="10" stroke-linejoin="miter" fill="none" stroke="#1a1a1a" d="M 43 19.59 L 48.5 30.59 L 43 27.84 L 37.5 30.59 L 43 19.59 Z "/>
<path transform="matrix(.71894267,0,0,.71894267,.35947133,.35947133)" stroke-width="5" stroke-linecap="butt" stroke-miterlimit="10" stroke-linejoin="miter" fill="none" stroke="#1a1a1a" d="M 41 304 L 339.16 304 "/>
<path transform="matrix(.71894267,0,0,.71894267,.35947133,.35947133)" d="M 347.41 304 L 336.41 309.5 L 339.16 304 L 336.41 298.5 L 347.41 304 Z " fill="#1a1a1a"/>
<path transform="matrix(.71894267,0,0,.71894267,.35947133,.35947133)" stroke-width="5" stroke-linecap="butt" stroke-miterlimit="10" stroke-linejoin="miter" fill="none" stroke="#1a1a1a" d="M 347.41 304 L 336.41 309.5 L 339.16 304 L 336.41 298.5 L 347.41 304 Z "/>
<path transform="matrix(.71894267,0,0,.71894267,.35947133,.35947133)" d="M 203 158 C 202.99999 158.6566 202.93593 159.3069 202.80783 159.95088 C 202.67974 160.59488 202.49004 161.22019 202.23877 161.82682 C 201.9875 162.43343 201.67948 163.00972 201.31468 163.55568 C 200.94989 164.10164 200.53536 164.60677 200.07105 165.07106 C 199.60675 165.53536 199.10163 165.94989 198.55567 166.31468 C 198.0097 166.67948 197.43341 166.9875 196.8268 167.23877 C 196.22016 167.49004 195.59485 167.67974 194.95087 167.80783 C 194.30689 167.93593 193.6566 167.99999 193 168 C 192.34339 167.99999 191.69307 167.93593 191.04907 167.80783 C 190.40508 167.67974 189.77976 167.49004 189.17313 167.23877 C 188.56652 166.9875 187.99022 166.67948 187.44428 166.31468 C 186.89833 165.94989 186.3932 165.53536 185.92893 165.07106 C 185.46462 164.60677 185.05007 164.10164 184.68527 163.55568 C 184.32048 163.00972 184.01245 162.43343 183.76119 161.82682 C 183.50992 161.22019 183.32024 160.59488 183.19214 159.95088 C 183.06404 159.3069 183 158.6566 183 158 C 183 157.34339 183.06404 156.69309 183.19214 156.04909 C 183.32024 155.40509 183.50992 154.77977 183.76119 154.17316 C 184.01245 153.56653 184.3205 152.99024 184.68529 152.44429 C 185.05008 151.89833 185.46462 151.3932 185.92893 150.92893 C 186.3932 150.46462 186.89833 150.05008 187.44428 149.68529 C 187.99022 149.3205 188.56652 149.01247 189.17313 148.7612 C 189.77976 148.50994 190.40508 148.32024 191.04907 148.19214 C 191.69307 148.06404 192.34339 148 193 148 C 193.6566 148 194.30689 148.06404 194.95087 148.19214 C 195.59485 148.32024 196.22016 148.50994 196.8268 148.7612 C 197.43341 149.01247 198.0097 149.3205 198.55567 149.68529 C 199.10163 150.05008 199.60675 150.46462 200.07105 150.92893 C 200.53536 151.3932 200.94989 151.89833 201.31468 152.44429 C 201.67948 152.99024 201.9875 153.56653 202.23877 154.17316 C 202.49004 154.77977 202.67974 155.40509 202.80783 156.04909 C 202.93593 156.69309 202.99999 157.34339 203 158 Z " fill="#cc0000"/>
<path transform="matrix(.71894267,0,0,.71894267,.35947133,.35947133)" d="M 213 108 C 212.99999 108.65661 212.93592 109.30691 212.80782 109.9509 C 212.67972 110.59489 212.49002 111.2202 212.23876 111.82683 C 211.98749 112.43345 211.67945 113.009738 211.31465 113.55569 C 210.94986 114.10164 210.53533 114.606769 210.07105 115.07106 C 209.60675 115.53535 209.10163 115.94989 208.55567 116.31468 C 208.00972 116.679477 207.43344 116.98751 206.82682 117.238788 C 206.2202 117.49006 205.5949 117.67974 204.9509 117.807849 C 204.3069 117.93595 203.6566 118 203 118 C 202.34339 118 201.69309 117.93595 201.04909 117.807849 C 200.40509 117.67974 199.77979 117.49006 199.17316 117.238788 C 198.56653 116.98751 197.99025 116.679477 197.4443 116.31468 C 196.89836 115.94989 196.39324 115.53535 195.92893 115.07106 C 195.46463 114.606769 195.05008 114.10164 194.68527 113.55569 C 194.3205 113.009738 194.01247 112.43345 193.76119 111.82683 C 193.50992 111.2202 193.32024 110.59489 193.19214 109.9509 C 193.06404 109.30691 193 108.65661 193 108 C 193 107.34339 193.06406 106.693088 193.19216 106.049098 C 193.32025 105.40509 193.50995 104.77978 193.76122 104.17315 C 194.01248 103.56652 194.3205 102.990238 194.68529 102.44428 C 195.05008 101.89833 195.46463 101.39321 195.92893 100.928928 C 196.39324 100.46463 196.89835 100.05009 197.44429 99.68529 C 197.99024 99.3205 198.56653 99.012477 199.17316 98.7612 C 199.77979 98.509929 200.40509 98.320247 201.04907 98.19215 C 201.69307 98.06405 202.34339 98 203 98 C 203.6566 98 204.30689 98.06405 204.95088 98.19215 C 205.59488 98.32024 206.2202 98.50992 206.82682 98.76119 C 207.43344 99.01247 208.00972 99.320499 208.55567 99.68529 C 209.10163 100.05009 209.60675 100.46463 210.07105 100.928928 C 210.53533 101.39321 210.94986 101.89833 211.31465 102.44428 C 211.67945 102.990238 211.98749 103.56652 212.23876 104.17315 C 212.49002 104.77978 212.67972 105.40509 212.80782 106.04909 C 212.93592 106.693088 212.99999 107.34339 213 108 Z " fill="#cc0000"/>
<path transform="matrix(.71894267,0,0,.71894267,.35947133,.35947133)" d="M 143 151.5 C 143 152.1566 142.93595 152.8069 142.80785 153.45088 C 142.67975 154.09488 142.49007 154.72019 142.23879 155.32682 C 141.98752 155.93346 141.67948 156.50974 141.31468 157.05568 C 140.94989 157.60164 140.53536 158.10677 140.07106 158.57106 C 139.60675 159.03536 139.10163 159.44989 138.55568 159.81468 C 138.00974 160.17948 137.43346 160.4875 136.82683 160.73877 C 136.2202 160.99005 135.5949 161.17975 134.9509 161.30785 C 134.3069 161.43595 133.6566 161.5 133 161.5 C 132.34339 161.5 131.69309 161.43595 131.04909 161.30785 C 130.40509 161.17975 129.77979 160.99005 129.17316 160.73877 C 128.56653 160.4875 127.99024 160.17948 127.44429 159.81468 C 126.89834 159.44989 126.39321 159.03536 125.928928 158.57106 C 125.46462 158.10677 125.05008 157.60164 124.68529 157.0557 C 124.320499 156.50975 124.01247 155.93346 123.76119 155.32682 C 123.50992 154.72019 123.32023 154.09488 123.19214 153.45088 C 123.06404 152.8069 122.99999 152.1566 123 151.5 C 122.99999 150.84339 123.06404 150.19307 123.19214 149.54907 C 123.32023 148.90508 123.50992 148.27977 123.76119 147.67314 C 124.01247 147.06652 124.320499 146.49022 124.68529 145.94428 C 125.05008 145.39833 125.46462 144.8932 125.928928 144.42893 C 126.39321 143.96463 126.89834 143.55008 127.44429 143.18529 C 127.99024 142.8205 128.56653 142.51247 129.17316 142.2612 C 129.77979 142.00994 130.40509 141.82025 131.04909 141.69216 C 131.69309 141.56406 132.34339 141.5 133 141.5 C 133.6566 141.5 134.3069 141.56406 134.9509 141.69216 C 135.5949 141.82025 136.2202 142.00994 136.82683 142.2612 C 137.43346 142.51247 138.00974 142.8205 138.55568 143.18529 C 139.10163 143.55008 139.60675 143.96463 140.07106 144.42893 C 140.53536 144.8932 140.94989 145.39833 141.31468 145.94428 C 141.67948 146.49022 141.98752 147.06652 142.23879 147.67314 C 142.49007 148.27977 142.67975 148.90508 142.80785 149.54907 C 142.93595 150.19307 143 150.84339 143 151.5 Z " fill="#cc0000"/>
<path transform="matrix(.71894267,0,0,.71894267,.35947133,.35947133)" d="M 143 218 C 143 218.6566 142.93595 219.3069 142.80785 219.95088 C 142.67975 220.59487 142.49007 221.22017 142.23879 221.8268 C 141.98752 222.43343 141.67948 223.00972 141.31468 223.55568 C 140.94989 224.10163 140.53536 224.60675 140.07106 225.07105 C 139.60675 225.53533 139.10163 225.94988 138.55568 226.31467 C 138.00974 226.67946 137.43346 226.98749 136.82683 227.23877 C 136.2202 227.49004 135.5949 227.67974 134.9509 227.80783 C 134.3069 227.93593 133.6566 227.99999 133 228 C 132.34339 227.99999 131.69309 227.93593 131.04909 227.80783 C 130.40509 227.67974 129.77979 227.49004 129.17316 227.23877 C 128.56653 226.98749 127.99024 226.67946 127.44429 226.31467 C 126.89834 225.94988 126.39321 225.53533 125.928928 225.07105 C 125.46462 224.60675 125.05008 224.10163 124.68529 223.55568 C 124.320499 223.00972 124.01247 222.43343 123.76119 221.8268 C 123.50992 221.22017 123.32023 220.59487 123.19214 219.95088 C 123.06404 219.3069 122.99999 218.6566 123 218 C 122.99999 217.34337 123.06404 216.69307 123.19214 216.04907 C 123.32023 215.40508 123.50992 214.77976 123.76119 214.17313 C 124.01247 213.5665 124.320499 212.99022 124.68529 212.44428 C 125.05008 211.89833 125.46462 211.3932 125.928928 210.92891 C 126.39321 210.46462 126.89834 210.05007 127.44429 209.68527 C 127.99024 209.32048 128.56653 209.01245 129.17316 208.76119 C 129.77979 208.50992 130.40509 208.32024 131.04909 208.19214 C 131.69309 208.06404 132.34339 208 133 208 C 133.6566 208 134.3069 208.06404 134.9509 208.19214 C 135.5949 208.32024 136.2202 208.5099 136.82683 208.76117 C 137.43346 209.01244 138.00974 209.32048 138.55568 209.68527 C 139.10163 210.05007 139.60675 210.46462 140.07106 210.92891 C 140.53536 211.3932 140.94989 211.89832 141.31468 212.44426 C 141.67948 212.9902 141.98752 213.5665 142.23879 214.17313 C 142.49007 214.77976 142.67975 215.40508 142.80785 216.04907 C 142.93595 216.69307 143 217.34337 143 218 Z " fill="#cc0000"/>
<path transform="matrix(.71894267,0,0,.71894267,.35947133,.35947133)" d="M 93 268 C 93 268.6566 92.93595 269.3069 92.80785 269.95088 C 92.67975 270.59486 92.49006 271.22016 92.238788 271.82679 C 91.98751 272.4334 91.679477 273.0097 91.31468 273.55564 C 90.94989 274.10163 90.53535 274.60676 90.07106 275.07106 C 89.606769 275.5353 89.10165 275.94987 88.555698 276.31468 C 88.00974 276.67945 87.43346 276.9875 86.82683 277.23878 C 86.22019 277.49006 85.59489 277.67976 84.9509 277.80787 C 84.30691 277.93595 83.65661 278 83 278 C 82.34339 278 81.693088 277.93595 81.04909 277.80787 C 80.4051 277.67976 79.779788 277.49006 79.17316 277.23878 C 78.56652 276.9875 77.990238 276.67945 77.44429 276.31468 C 76.89834 275.94987 76.39321 275.5353 75.928928 275.07106 C 75.46464 274.60676 75.050098 274.10163 74.685298 273.55564 C 74.3205 273.0097 74.01247 272.4334 73.76119 271.82679 C 73.50992 271.22016 73.32024 270.59486 73.19214 269.95088 C 73.06404 269.3069 72.99999 268.6566 73 268 C 72.99999 267.34339 73.06404 266.69309 73.19214 266.04908 C 73.32024 265.40507 73.50992 264.77976 73.76119 264.17314 C 74.01247 263.56654 74.3205 262.99024 74.685298 262.44425 C 75.050098 261.89833 75.46464 261.3932 75.928928 260.9289 C 76.39321 260.4646 76.89834 260.05006 77.44429 259.68525 C 77.990238 259.32048 78.56652 259.01243 79.17316 258.76118 C 79.779788 258.50993 80.4051 258.32023 81.04909 258.19215 C 81.693088 258.06407 82.34339 258 83 258 C 83.65661 258 84.30691 258.06407 84.9509 258.19215 C 85.59489 258.32023 86.22019 258.50993 86.82683 258.76118 C 87.43346 259.01243 88.00974 259.32048 88.555698 259.68525 C 89.10165 260.05006 89.606769 260.4646 90.07106 260.9289 C 90.53535 261.3932 90.94989 261.89833 91.31468 262.44429 C 91.679477 262.99024 91.98751 263.56654 92.238788 264.17314 C 92.49006 264.77976 92.67975 265.40507 92.80785 266.04908 C 92.93595 266.69309 93 267.34339 93 268 Z " fill="#cc0000"/>
<path transform="matrix(.71894267,0,0,.71894267,.35947133,.35947133)" d="M 273 108 C 273 108.65661 272.93595 109.30691 272.80787 109.9509 C 272.67976 110.59489 272.49006 111.2202 272.23878 111.82683 C 271.98753 112.43345 271.67948 113.009738 271.31468 113.55569 C 270.9499 114.10164 270.53535 114.606769 270.07106 115.07106 C 269.60676 115.53535 269.10163 115.94989 268.55567 116.31468 C 268.0097 116.679477 267.4334 116.98751 266.82679 117.238788 C 266.22016 117.49006 265.59486 117.67974 264.95088 117.807849 C 264.3069 117.93595 263.6566 118 263 118 C 262.34339 118 261.69309 117.93595 261.04908 117.807849 C 260.40507 117.67974 259.77976 117.49006 259.17314 117.238788 C 258.5665 116.98751 257.9902 116.679477 257.44425 116.31468 C 256.89833 115.94989 256.3932 115.53535 255.92891 115.07106 C 255.46462 114.606769 255.05007 114.10164 254.68527 113.55569 C 254.32048 113.009738 254.01244 112.43345 253.76117 111.82683 C 253.5099 111.2202 253.32022 110.59489 253.19213 109.9509 C 253.06404 109.30691 253 108.65661 253 108 C 253 107.34339 253.06404 106.693088 253.19214 106.049098 C 253.32022 105.40509 253.5099 104.77978 253.76117 104.17315 C 254.01244 103.56652 254.32048 102.990238 254.68527 102.44428 C 255.05007 101.89833 255.46462 101.39321 255.92891 100.928928 C 256.3932 100.46463 256.89833 100.05009 257.44429 99.68529 C 257.9902 99.3205 258.5665 99.012477 259.17314 98.7612 C 259.77976 98.509929 260.40507 98.320247 261.04908 98.19215 C 261.69309 98.06405 262.34339 98 263 98 C 263.6566 98 264.3069 98.06405 264.95088 98.19215 C 265.59486 98.32024 266.22016 98.50992 266.82679 98.76119 C 267.4334 99.01247 268.0097 99.320499 268.55567 99.68529 C 269.10163 100.05009 269.60676 100.46463 270.07106 100.928928 C 270.53535 101.39321 270.9499 101.89833 271.31468 102.44428 C 271.67948 102.990238 271.98753 103.56652 272.23878 104.17315 C 272.49006 104.77978 272.67976 105.40509 272.80787 106.04909 C 272.93595 106.693088 273 107.34339 273 108 Z " fill="#cc0000"/>
<path transform="matrix(.71894267,0,0,.71894267,.35947133,.35947133)" d="M 303 68 C 302.99998 68.6566 302.9359 69.3069 302.80784 69.9509 C 302.67973 70.59489 302.49003 71.22019 302.23878 71.82682 C 301.9875 72.43344 301.67945 73.009738 301.31468 73.55569 C 300.9499 74.10164 300.53535 74.60676 300.07106 75.07106 C 299.60676 75.535358 299.10163 75.9499 298.55567 76.3147 C 298.0097 76.67949 297.4334 76.98752 296.8268 77.238788 C 296.2202 77.49006 295.59489 77.67974 294.95088 77.807849 C 294.3069 77.93594 293.6566 77.99999 293 78 C 292.34339 77.99999 291.69309 77.93594 291.04908 77.807849 C 290.4051 77.67974 289.7798 77.49006 289.17317 77.238788 C 288.56654 76.98752 287.99024 76.67949 287.44425 76.3147 C 286.89833 75.9499 286.3932 75.535358 285.9289 75.07106 C 285.4646 74.60676 285.05006 74.10164 284.68528 73.55569 C 284.32048 73.009738 284.01243 72.43344 283.76118 71.82682 C 283.5099 71.22019 283.32023 70.59489 283.19215 69.9509 C 283.06407 69.3069 283 68.6566 283 68 C 283 67.34339 283.06407 66.693088 283.19215 66.049098 C 283.32023 65.4051 283.5099 64.779788 283.76118 64.17316 C 284.01243 63.566534 284.32048 62.990243 284.68528 62.44429 C 285.05006 61.898344 285.4646 61.39322 285.9289 60.92893 C 286.3932 60.464639 286.89833 60.050096 287.44425 59.6853 C 287.99024 59.320508 288.56654 59.012475 289.17317 58.7612 C 289.7798 58.509927 290.4051 58.32024 291.04908 58.192144 C 291.69309 58.06405 292.34339 58 293 58 C 293.6566 58 294.3069 58.06405 294.95088 58.192144 C 295.59489 58.32024 296.2202 58.509927 296.8268 58.7612 C 297.4334 59.012475 298.0097 59.320508 298.55567 59.6853 C 299.10163 60.050096 299.60676 60.464639 300.07106 60.92893 C 300.53535 61.39322 300.9499 61.898344 301.31468 62.44429 C 301.67945 62.990243 301.9875 63.566534 302.23878 64.17316 C 302.49003 64.779788 302.67973 65.4051 302.80784 66.049098 C 302.9359 66.693088 302.99998 67.34339 303 68 Z " fill="#cc0000"/>
<path transform="matrix(.71894267,0,0,.71894267,.35947133,.35947133)" d="M 353 88 C 352.99998 88.65661 352.9359 89.30691 352.80784 89.9509 C 352.67973 90.59489 352.49003 91.22019 352.23875 91.82682 C 351.9875 92.43345 351.67945 93.009738 351.31468 93.55568 C 350.94987 94.10164 350.5353 94.606769 350.07106 95.07106 C 349.60676 95.535358 349.10163 95.9499 348.55567 96.31468 C 348.00975 96.679477 347.43345 96.9875 346.8268 97.23878 C 346.22019 97.49005 345.59489 97.67974 344.9509 97.807849 C 344.3069 97.93594 343.6566 97.99999 343 98 C 342.34336 97.99999 341.69306 97.93594 341.04908 97.80784 C 340.40507 97.67974 339.77976 97.49005 339.17314 97.23878 C 338.5665 96.9875 337.9902 96.679477 337.44429 96.31469 C 336.89833 95.9499 336.3932 95.535358 335.9289 95.07106 C 335.4646 94.606769 335.05006 94.10164 334.68525 93.55569 C 334.32048 93.009738 334.01243 92.43345 333.76118 91.82682 C 333.50993 91.22019 333.32023 90.59489 333.1921 89.9509 C 333.06404 89.30691 332.99998 88.65661 333 88 C 332.99998 87.34339 333.06404 86.693088 333.1921 86.049098 C 333.32023 85.4051 333.50993 84.779788 333.76118 84.17316 C 334.01243 83.56652 334.32048 82.990238 334.68525 82.44429 C 335.05006 81.89834 335.4646 81.39321 335.9289 80.928928 C 336.3932 80.46463 336.89833 80.05009 337.44429 79.685298 C 337.9902 79.3205 338.5665 79.012477 339.17314 78.7612 C 339.77976 78.509929 340.40507 78.320247 341.04908 78.19215 C 341.69306 78.06405 342.34336 78 343 78 C 343.6566 78 344.3069 78.06405 344.9509 78.19215 C 345.59489 78.320247 346.22019 78.509929 346.8268 78.7612 C 347.43345 79.012477 348.00975 79.3205 348.55567 79.685298 C 349.10163 80.05009 349.60676 80.46463 350.07106 80.928928 C 350.5353 81.39321 350.94987 81.89834 351.31468 82.44429 C 351.67945 82.990238 351.9875 83.56652 352.23875 84.17316 C 352.49003 84.779788 352.67973 85.4051 352.80784 86.049098 C 352.9359 86.693088 352.99998 87.34339 353 88 Z " fill="#cc0000"/>
<path transform="matrix(.71894267,0,0,.71894267,0,0)" stroke-width="2" stroke-linecap="butt" stroke-miterlimit="10" stroke-linejoin="miter" fill="none" stroke="#001dbc" d="M 88 258 C 114.66667 258 129.66667 230.16667 133 174.5 C 136.33333 118.83333 143 104.33333 153 131 C 163 157.66667 171.33333 183.83333 178 209.5 C 184.66667 235.16667 193 208.5 203 129.5 C 213 50.5 223 49.33333 233 126 C 243 202.66667 254.66667 197.66667 268 111 C 281.33335 24.333329 291.33335 9.333332 298 66 C 304.66667 122.66667 319.66667 126.66667 343 78 "/>
<use xlink:href="#font_1_5b" transform="matrix(17.973567,0,0,-17.973567,231.93448,246.59732)"/>
<use xlink:href="#font_1_14" transform="matrix(12.4808449,0,0,-12.4808449,242.1486,250.19205)"/>
<use xlink:href="#font_1_5b" transform="matrix(17.973567,0,0,-17.973567,561.7944,38.10396)"/>
<symbol id="font_1_15">
<path d="M .47379557 .084472659 L .47379557 0 L .00065104107 0 C -.00000000062088176 .021158854 .003417968 .041503908 .010904947 .061035158 C .022949219 .09326172 .04215495 .125 .06852213 .15625 C .095214847 .1875 .1336263 .22363281 .18375652 .26464845 C .261556 .32845054 .3141276 .37890626 .34147135 .41601563 C .3688151 .45345054 .38248698 .48876954 .38248698 .52197268 C .38248698 .5568034 .36995445 .5861003 .3448893 .6098633 C .32014976 .63395187 .2877604 .6459961 .24772136 .6459961 C .20540364 .6459961 .17154949 .6333008 .14615886 .60791018 C .12076823 .58251956 .107910159 .5473633 .10758463 .5024414 L .017252604 .51171877 C .0234375 .57910159 .04671224 .6303711 .08707682 .66552737 C .1274414 .7010091 .18164063 .71875 .24967449 .71875 C .31835938 .71875 .37272135 .69970706 .4127604 .6616211 C .45279948 .62353518 .472819 .57633468 .472819 .52001956 C .472819 .4913737 .46695964 .46321617 .45524089 .43554688 C .44352214 .4078776 .42399089 .3787435 .39664714 .34814454 C .3696289 .31754557 .32454429 .27555339 .26139323 .22216797 C .20865886 .17789714 .17480469 .14778646 .15983074 .13183594 C .14485677 .11621094 .13248699 .10042318 .12272135 .084472659 L .47379557 .084472659 Z "/>
</symbol>
<use xlink:href="#font_1_15" transform="matrix(10.39591,0,0,-10.39591,570.9574,40.97973)"/>
<use xlink:href="#font_1_5b" transform="matrix(17.973567,0,0,-17.973567,285.00144,38.10396)"/>
<use xlink:href="#font_1_15" transform="matrix(10.39591,0,0,-10.39591,294.16453,40.97973)"/>
<use xlink:href="#font_1_5b" transform="matrix(17.973567,0,0,-17.973567,8.208513,38.10396)"/>
<use xlink:href="#font_1_15" transform="matrix(10.39591,0,0,-10.39591,17.371605,40.97973)"/>
</g>
</g>
</svg>
