<?xml version="1.0" encoding="UTF-8" standalone="no"?>
<svg
   xmlns:dc="http://purl.org/dc/elements/1.1/"
   xmlns:cc="http://creativecommons.org/ns#"
   xmlns:rdf="http://www.w3.org/1999/02/22-rdf-syntax-ns#"
   xmlns:svg="http://www.w3.org/2000/svg"
   xmlns="http://www.w3.org/2000/svg"
   viewBox="0 0 444.16 290.56"
   height="290.56"
   width="444.16"
   xml:space="preserve"
   id="svg2"
   version="1.1"><metadata
     id="metadata8"><rdf:RDF><cc:Work
         rdf:about=""><dc:format>image/svg+xml</dc:format><dc:type
           rdf:resource="http://purl.org/dc/dcmitype/StillImage" /></cc:Work></rdf:RDF></metadata><defs
     id="defs6"><clipPath
       id="clipPath18"
       clipPathUnits="userSpaceOnUse"><path
         style="clip-rule:evenodd"
         id="path16"
         d="M 0,0 H 1387.5 V 908.01831 H 0 Z" /></clipPath><clipPath
       id="clipPath30"
       clipPathUnits="userSpaceOnUse"><path
         style="clip-rule:evenodd"
         id="path28"
         d="M 0,0 H 1387.5 V 905.02155 H 0 Z" /></clipPath></defs><g
     transform="matrix(0.31999998,0,0,0.31999998,0,7.264e-6)"
     id="g10"><g
       id="g12"><g
         clip-path="url(#clipPath18)"
         id="g14"><g
           transform="scale(2.9967601)"
           id="g20"><path
             id="path22"
             style="fill:#ffffff;fill-opacity:1;fill-rule:nonzero;stroke:none"
             d="M 0,0 H 463 V 303 H 0 Z" /></g></g></g><g
       id="g24"><g
         clip-path="url(#clipPath30)"
         id="g26"><g
           transform="matrix(2.9967601,0,0,2.9967601,1.4983801,1.4983801)"
           id="g32"><path
             id="path34"
             style="fill:#dae8fc;fill-opacity:1;fill-rule:nonzero;stroke:none"
             d="m 71,16 c -8e-6,0.984915 -0.09608,1.960365 -0.288223,2.926353 -0.192154,0.965991 -0.476685,1.903956 -0.853592,2.813897 -0.376915,0.90994 -0.838959,1.774374 -1.386147,2.593299 -0.547188,0.818926 -1.169006,1.576611 -1.86544,2.273051 -0.696442,0.696438 -1.454125,1.31825 -2.273049,1.86544 -0.818927,0.54719 -1.683361,1.009239 -2.593303,1.386151 -0.909939,0.376911 -1.847904,0.661439 -2.813896,0.853588 C 57.960361,30.903925 56.984913,30.999998 56,31 55.015087,30.999998 54.039631,30.90393 53.073639,30.711779 52.107647,30.51963 51.169682,30.235102 50.259743,29.858191 49.3498,29.481279 48.485367,29.01923 47.666443,28.47204 46.847515,27.92485 46.089832,27.303038 45.393394,26.6066 44.696957,25.91016 44.075138,25.152475 43.527946,24.333549 42.980762,23.514624 42.518715,22.65019 42.141804,21.74025 41.764893,20.830309 41.480366,19.892344 41.288219,18.926353 41.096069,17.960365 40.999996,16.984915 41,16 c -4e-6,-0.984915 0.09607,-1.960367 0.288219,-2.926356 0.192147,-0.965989 0.476674,-1.903955 0.853585,-2.813896 0.376911,-0.9099422 0.838958,-1.7743764 1.386146,-2.5933023 0.547192,-0.8189263 1.169007,-1.5766086 1.865444,-2.2730479 0.696438,-0.6964393 1.454121,-1.3182535 2.273049,-1.8654425 0.818924,-0.547189 1.683357,-1.0092385 2.5933,-1.3861485 0.909939,-0.3769102 1.847904,-0.6614389 2.813896,-0.853586 C 54.039631,1.0960736 55.015087,1 56,1 c 0.984913,0 1.960361,0.096074 2.92635,0.2882208 0.965992,0.1921471 1.903957,0.4766758 2.813896,0.853586 0.909942,0.37691 1.774376,0.8389595 2.593303,1.3861485 0.818924,0.547189 1.576607,1.1690032 2.273049,1.8654425 0.696434,0.6964393 1.318252,1.4541216 1.86544,2.2730479 0.547188,0.8189268 1.009232,1.6833611 1.386147,2.5933033 0.376907,0.909941 0.661438,1.847907 0.853592,2.813896 C 70.903923,14.039634 70.999992,15.015085 71,16 Z" /><path
             id="path36"
             style="fill:none;stroke:#6c8ebf;stroke-width:1;stroke-linecap:butt;stroke-linejoin:miter;stroke-miterlimit:10;stroke-dasharray:none;stroke-opacity:1"
             d="m 71,16 c -8e-6,0.984915 -0.09608,1.960365 -0.288223,2.926353 -0.192154,0.965991 -0.476685,1.903956 -0.853592,2.813897 -0.376915,0.90994 -0.838959,1.774374 -1.386147,2.593299 -0.547188,0.818926 -1.169006,1.576611 -1.86544,2.273051 -0.696442,0.696438 -1.454125,1.31825 -2.273049,1.86544 -0.818927,0.54719 -1.683361,1.009239 -2.593303,1.386151 -0.909939,0.376911 -1.847904,0.661439 -2.813896,0.853588 C 57.960361,30.903925 56.984913,30.999998 56,31 55.015087,30.999998 54.039631,30.90393 53.073639,30.711779 52.107647,30.51963 51.169682,30.235102 50.259743,29.858191 49.3498,29.481279 48.485367,29.01923 47.666443,28.47204 46.847515,27.92485 46.089832,27.303038 45.393394,26.6066 44.696957,25.91016 44.075138,25.152475 43.527946,24.333549 42.980762,23.514624 42.518715,22.65019 42.141804,21.74025 41.764893,20.830309 41.480366,19.892344 41.288219,18.926353 41.096069,17.960365 40.999996,16.984915 41,16 c -4e-6,-0.984915 0.09607,-1.960367 0.288219,-2.926356 0.192147,-0.965989 0.476674,-1.903955 0.853585,-2.813896 0.376911,-0.9099422 0.838958,-1.7743764 1.386146,-2.5933023 0.547192,-0.8189263 1.169007,-1.5766086 1.865444,-2.2730479 0.696438,-0.6964393 1.454121,-1.3182535 2.273049,-1.8654425 0.818924,-0.547189 1.683357,-1.0092385 2.5933,-1.3861485 0.909939,-0.3769102 1.847904,-0.6614389 2.813896,-0.853586 C 54.039631,1.0960736 55.015087,1 56,1 c 0.984913,0 1.960361,0.096074 2.92635,0.2882208 0.965992,0.1921471 1.903957,0.4766758 2.813896,0.853586 0.909942,0.37691 1.774376,0.8389595 2.593303,1.3861485 0.818924,0.547189 1.576607,1.1690032 2.273049,1.8654425 0.696434,0.6964393 1.318252,1.4541216 1.86544,2.2730479 0.547188,0.8189268 1.009232,1.6833611 1.386147,2.5933033 0.376907,0.909941 0.661438,1.847907 0.853592,2.813896 C 70.903923,14.039634 70.999992,15.015085 71,16 Z" /><path
             id="path38"
             style="fill:#dae8fc;fill-opacity:1;fill-rule:nonzero;stroke:none"
             d="m 71,76 c -8e-6,0.984917 -0.09608,1.960365 -0.288223,2.926346 -0.192154,0.965988 -0.476685,1.903953 -0.853592,2.813896 -0.376915,0.909935 -0.838959,1.774368 -1.386147,2.593292 -0.547188,0.818924 -1.169006,1.576607 -1.86544,2.273056 -0.696442,0.696434 -1.454125,1.318253 -2.273049,1.865441 -0.818927,0.547187 -1.683361,1.009231 -2.593303,1.386146 -0.909939,0.376908 -1.847904,0.661438 -2.813896,0.853592 C 57.960361,90.903915 56.984913,90.999992 56,91 55.015087,90.999992 54.039631,90.90391 53.073639,90.711769 52.107647,90.519615 51.169682,90.235085 50.259743,89.858177 49.3498,89.481262 48.485367,89.019218 47.666443,88.472031 46.847515,87.924843 46.089832,87.303024 45.393394,86.60659 44.696957,85.910141 44.075138,85.152458 43.527946,84.333534 42.980762,83.51461 42.518715,82.650177 42.141804,81.740242 41.764893,80.830299 41.480366,79.892334 41.288219,78.926346 41.096069,77.960365 40.999996,76.984917 41,76 c -4e-6,-0.984917 0.09607,-1.960365 0.288219,-2.926361 0.192147,-0.965981 0.476674,-1.903946 0.853585,-2.813896 0.376911,-0.909943 0.838958,-1.774376 1.386146,-2.5933 0.547192,-0.818932 1.169007,-1.576615 1.865444,-2.273049 0.696438,-0.696441 1.454121,-1.31826 2.273049,-1.865444 0.818924,-0.547191 1.683357,-1.009239 2.5933,-1.386146 0.909939,-0.376908 1.847904,-0.661434 2.813896,-0.853585 C 54.039631,61.096073 55.015087,61 56,61 c 0.984913,0 1.960361,0.09607 2.92635,0.288219 0.965992,0.192151 1.903957,0.476677 2.813896,0.853589 0.909942,0.376907 1.774376,0.838954 2.593303,1.386146 0.818924,0.547188 1.576607,1.168999 2.273049,1.86544 0.696434,0.696434 1.318252,1.454117 1.86544,2.273041 0.547188,0.818932 1.009232,1.683365 1.386147,2.593308 0.376907,0.90995 0.661438,1.847915 0.853592,2.813896 C 70.903923,74.039635 70.999992,75.015083 71,76 Z" /><path
             id="path40"
             style="fill:none;stroke:#6c8ebf;stroke-width:1;stroke-linecap:butt;stroke-linejoin:miter;stroke-miterlimit:10;stroke-dasharray:none;stroke-opacity:1"
             d="m 71,76 c -8e-6,0.984917 -0.09608,1.960365 -0.288223,2.926346 -0.192154,0.965988 -0.476685,1.903953 -0.853592,2.813896 -0.376915,0.909935 -0.838959,1.774368 -1.386147,2.593292 -0.547188,0.818924 -1.169006,1.576607 -1.86544,2.273056 -0.696442,0.696434 -1.454125,1.318253 -2.273049,1.865441 -0.818927,0.547187 -1.683361,1.009231 -2.593303,1.386146 -0.909939,0.376908 -1.847904,0.661438 -2.813896,0.853592 C 57.960361,90.903915 56.984913,90.999992 56,91 55.015087,90.999992 54.039631,90.90391 53.073639,90.711769 52.107647,90.519615 51.169682,90.235085 50.259743,89.858177 49.3498,89.481262 48.485367,89.019218 47.666443,88.472031 46.847515,87.924843 46.089832,87.303024 45.393394,86.60659 44.696957,85.910141 44.075138,85.152458 43.527946,84.333534 42.980762,83.51461 42.518715,82.650177 42.141804,81.740242 41.764893,80.830299 41.480366,79.892334 41.288219,78.926346 41.096069,77.960365 40.999996,76.984917 41,76 c -4e-6,-0.984917 0.09607,-1.960365 0.288219,-2.926361 0.192147,-0.965981 0.476674,-1.903946 0.853585,-2.813896 0.376911,-0.909943 0.838958,-1.774376 1.386146,-2.5933 0.547192,-0.818932 1.169007,-1.576615 1.865444,-2.273049 0.696438,-0.696441 1.454121,-1.31826 2.273049,-1.865444 0.818924,-0.547191 1.683357,-1.009239 2.5933,-1.386146 0.909939,-0.376908 1.847904,-0.661434 2.813896,-0.853585 C 54.039631,61.096073 55.015087,61 56,61 c 0.984913,0 1.960361,0.09607 2.92635,0.288219 0.965992,0.192151 1.903957,0.476677 2.813896,0.853589 0.909942,0.376907 1.774376,0.838954 2.593303,1.386146 0.818924,0.547188 1.576607,1.168999 2.273049,1.86544 0.696434,0.696434 1.318252,1.454117 1.86544,2.273041 0.547188,0.818932 1.009232,1.683365 1.386147,2.593308 0.376907,0.90995 0.661438,1.847915 0.853592,2.813896 C 70.903923,74.039635 70.999992,75.015083 71,76 Z" /><path
             id="path42"
             style="fill:#dae8fc;fill-opacity:1;fill-rule:nonzero;stroke:none"
             d="m 71,136 c -8e-6,0.98491 -0.09608,1.96036 -0.288223,2.92635 -0.192154,0.96598 -0.476685,1.90394 -0.853592,2.81388 -0.376915,0.90995 -0.838959,1.77437 -1.386147,2.5933 -0.547188,0.81894 -1.169006,1.57663 -1.86544,2.27307 -0.696442,0.69644 -1.454125,1.31825 -2.273049,1.86545 -0.818927,0.54719 -1.683361,1.00923 -2.593303,1.38614 -0.909939,0.3769 -1.847904,0.66143 -2.813896,0.85357 C 57.960361,150.90391 56.984913,151 56,151 c -0.984913,0 -1.960369,-0.0961 -2.926361,-0.28824 -0.965992,-0.19214 -1.903957,-0.47667 -2.813896,-0.85357 -0.909943,-0.37691 -1.774376,-0.83895 -2.5933,-1.38614 -0.818928,-0.5472 -1.576611,-1.16901 -2.273049,-1.86545 -0.696437,-0.69644 -1.318256,-1.45413 -1.865448,-2.27307 -0.547184,-0.81893 -1.009231,-1.68335 -1.386142,-2.5933 -0.376911,-0.90994 -0.661438,-1.8479 -0.853585,-2.81388 C 41.096069,137.96036 40.999996,136.98491 41,136 c -4e-6,-0.98491 0.09607,-1.96037 0.288219,-2.92636 0.192147,-0.96601 0.476674,-1.90398 0.853585,-2.81391 0.376911,-0.90994 0.838958,-1.77438 1.386146,-2.5933 0.547192,-0.81892 1.169007,-1.5766 1.865444,-2.27304 0.696438,-0.69644 1.454121,-1.31826 2.273049,-1.86544 0.818924,-0.54719 1.683357,-1.00924 2.5933,-1.38615 0.909939,-0.3769 1.847904,-0.66143 2.813896,-0.85358 C 54.039631,121.09608 55.015087,121 56,121 c 0.984913,0 1.960361,0.0961 2.92635,0.28822 0.965992,0.19215 1.903957,0.47668 2.813896,0.85358 0.909942,0.37691 1.774376,0.83896 2.593303,1.38615 0.818924,0.54719 1.576607,1.169 2.273049,1.86544 0.696434,0.69644 1.318252,1.45412 1.86544,2.27304 0.547188,0.81892 1.009232,1.68336 1.386147,2.5933 0.376907,0.90993 0.661438,1.8479 0.853592,2.81391 C 70.903923,134.03963 70.999992,135.01509 71,136 Z" /><path
             id="path44"
             style="fill:none;stroke:#6c8ebf;stroke-width:1;stroke-linecap:butt;stroke-linejoin:miter;stroke-miterlimit:10;stroke-dasharray:none;stroke-opacity:1"
             d="m 71,136 c -8e-6,0.98491 -0.09608,1.96036 -0.288223,2.92635 -0.192154,0.96598 -0.476685,1.90394 -0.853592,2.81388 -0.376915,0.90995 -0.838959,1.77437 -1.386147,2.5933 -0.547188,0.81894 -1.169006,1.57663 -1.86544,2.27307 -0.696442,0.69644 -1.454125,1.31825 -2.273049,1.86545 -0.818927,0.54719 -1.683361,1.00923 -2.593303,1.38614 -0.909939,0.3769 -1.847904,0.66143 -2.813896,0.85357 C 57.960361,150.90391 56.984913,151 56,151 c -0.984913,0 -1.960369,-0.0961 -2.926361,-0.28824 -0.965992,-0.19214 -1.903957,-0.47667 -2.813896,-0.85357 -0.909943,-0.37691 -1.774376,-0.83895 -2.5933,-1.38614 -0.818928,-0.5472 -1.576611,-1.16901 -2.273049,-1.86545 -0.696437,-0.69644 -1.318256,-1.45413 -1.865448,-2.27307 -0.547184,-0.81893 -1.009231,-1.68335 -1.386142,-2.5933 -0.376911,-0.90994 -0.661438,-1.8479 -0.853585,-2.81388 C 41.096069,137.96036 40.999996,136.98491 41,136 c -4e-6,-0.98491 0.09607,-1.96037 0.288219,-2.92636 0.192147,-0.96601 0.476674,-1.90398 0.853585,-2.81391 0.376911,-0.90994 0.838958,-1.77438 1.386146,-2.5933 0.547192,-0.81892 1.169007,-1.5766 1.865444,-2.27304 0.696438,-0.69644 1.454121,-1.31826 2.273049,-1.86544 0.818924,-0.54719 1.683357,-1.00924 2.5933,-1.38615 0.909939,-0.3769 1.847904,-0.66143 2.813896,-0.85358 C 54.039631,121.09608 55.015087,121 56,121 c 0.984913,0 1.960361,0.0961 2.92635,0.28822 0.965992,0.19215 1.903957,0.47668 2.813896,0.85358 0.909942,0.37691 1.774376,0.83896 2.593303,1.38615 0.818924,0.54719 1.576607,1.169 2.273049,1.86544 0.696434,0.69644 1.318252,1.45412 1.86544,2.27304 0.547188,0.81892 1.009232,1.68336 1.386147,2.5933 0.376907,0.90993 0.661438,1.8479 0.853592,2.81391 C 70.903923,134.03963 70.999992,135.01509 71,136 Z" /><path
             id="path46"
             style="fill:#dae8fc;fill-opacity:1;fill-rule:nonzero;stroke:none"
             d="m 71,286 c -8e-6,0.98489 -0.09608,1.96036 -0.288223,2.92633 -0.192154,0.96597 -0.476685,1.90393 -0.853592,2.81387 -0.376915,0.90995 -0.838959,1.77439 -1.386147,2.59333 -0.547188,0.81894 -1.169006,1.57663 -1.86544,2.27307 -0.696442,0.69644 -1.454125,1.31827 -2.273049,1.86542 -0.818927,0.54718 -1.683361,1.00921 -2.593303,1.38613 -0.909939,0.3769 -1.847904,0.66141 -2.813896,0.85358 C 57.960361,300.9039 56.984913,300.99997 56,301 c -0.984913,-3e-5 -1.960369,-0.0961 -2.926361,-0.28827 -0.965992,-0.19217 -1.903957,-0.47668 -2.813896,-0.85358 -0.909943,-0.37692 -1.774376,-0.83895 -2.5933,-1.38613 -0.818928,-0.54715 -1.576611,-1.16898 -2.273049,-1.86542 -0.696437,-0.69644 -1.318256,-1.45413 -1.865448,-2.27307 -0.547184,-0.81894 -1.009231,-1.68338 -1.386142,-2.59333 -0.376911,-0.90994 -0.661438,-1.8479 -0.853585,-2.81387 C 41.096069,287.96036 40.999996,286.98489 41,286 c -4e-6,-0.98492 0.09607,-1.96039 0.288219,-2.92642 0.192147,-0.96598 0.476674,-1.90393 0.853585,-2.81388 0.376911,-0.90994 0.838958,-1.77435 1.386146,-2.59329 0.547192,-0.81894 1.169007,-1.5766 1.865444,-2.27304 0.696438,-0.69644 1.454121,-1.31824 2.273049,-1.86545 0.818924,-0.54718 1.683357,-1.00921 2.5933,-1.38614 0.909939,-0.37692 1.847904,-0.66143 2.813896,-0.85357 C 54.039631,271.09607 55.015087,271 56,271 c 0.984913,0 1.960361,0.0961 2.92635,0.28821 0.965992,0.19214 1.903957,0.47665 2.813896,0.85357 0.909942,0.37693 1.774376,0.83896 2.593303,1.38614 0.818924,0.54721 1.576607,1.16901 2.273049,1.86545 0.696434,0.69644 1.318252,1.4541 1.86544,2.27304 0.547188,0.81894 1.009232,1.68335 1.386147,2.59329 0.376907,0.90995 0.661438,1.8479 0.853592,2.81388 C 70.903923,284.03961 70.999992,285.01508 71,286 Z" /><path
             id="path48"
             style="fill:none;stroke:#6c8ebf;stroke-width:1;stroke-linecap:butt;stroke-linejoin:miter;stroke-miterlimit:10;stroke-dasharray:none;stroke-opacity:1"
             d="m 71,286 c -8e-6,0.98489 -0.09608,1.96036 -0.288223,2.92633 -0.192154,0.96597 -0.476685,1.90393 -0.853592,2.81387 -0.376915,0.90995 -0.838959,1.77439 -1.386147,2.59333 -0.547188,0.81894 -1.169006,1.57663 -1.86544,2.27307 -0.696442,0.69644 -1.454125,1.31827 -2.273049,1.86542 -0.818927,0.54718 -1.683361,1.00921 -2.593303,1.38613 -0.909939,0.3769 -1.847904,0.66141 -2.813896,0.85358 C 57.960361,300.9039 56.984913,300.99997 56,301 c -0.984913,-3e-5 -1.960369,-0.0961 -2.926361,-0.28827 -0.965992,-0.19217 -1.903957,-0.47668 -2.813896,-0.85358 -0.909943,-0.37692 -1.774376,-0.83895 -2.5933,-1.38613 -0.818928,-0.54715 -1.576611,-1.16898 -2.273049,-1.86542 -0.696437,-0.69644 -1.318256,-1.45413 -1.865448,-2.27307 -0.547184,-0.81894 -1.009231,-1.68338 -1.386142,-2.59333 -0.376911,-0.90994 -0.661438,-1.8479 -0.853585,-2.81387 C 41.096069,287.96036 40.999996,286.98489 41,286 c -4e-6,-0.98492 0.09607,-1.96039 0.288219,-2.92642 0.192147,-0.96598 0.476674,-1.90393 0.853585,-2.81388 0.376911,-0.90994 0.838958,-1.77435 1.386146,-2.59329 0.547192,-0.81894 1.169007,-1.5766 1.865444,-2.27304 0.696438,-0.69644 1.454121,-1.31824 2.273049,-1.86545 0.818924,-0.54718 1.683357,-1.00921 2.5933,-1.38614 0.909939,-0.37692 1.847904,-0.66143 2.813896,-0.85357 C 54.039631,271.09607 55.015087,271 56,271 c 0.984913,0 1.960361,0.0961 2.92635,0.28821 0.965992,0.19214 1.903957,0.47665 2.813896,0.85357 0.909942,0.37693 1.774376,0.83896 2.593303,1.38614 0.818924,0.54721 1.576607,1.16901 2.273049,1.86545 0.696434,0.69644 1.318252,1.4541 1.86544,2.27304 0.547188,0.81894 1.009232,1.68335 1.386147,2.59329 0.376907,0.90995 0.661438,1.8479 0.853592,2.81388 C 70.903923,284.03961 70.999992,285.01508 71,286 Z" /><path
             id="path50"
             style="fill:#dae8fc;fill-opacity:0.70200004;fill-rule:nonzero;stroke:none"
             d="m 383,160 c 3e-5,2.65285 -0.12997,5.29932 -0.39001,7.93938 -0.26004,2.64007 -0.64884,5.26104 -1.16639,7.86291 -0.51754,2.60188 -1.16134,5.17214 -1.93142,7.71076 -0.77011,2.53862 -1.66275,5.03338 -2.67798,7.48428 -1.0152,2.45091 -2.14807,4.84618 -3.39862,7.18579 -1.25055,2.3396 -2.61273,4.61227 -4.08658,6.81802 -1.47382,2.20577 -3.05222,4.334 -4.73517,6.38471 -1.68295,2.05067 -3.46234,4.01395 -5.3382,5.88978 -1.87582,1.87586 -3.83908,3.65526 -5.88974,5.3382 -2.05068,1.68295 -4.17892,3.26135 -6.3847,4.73518 -2.20575,1.47385 -4.47842,2.83605 -6.81805,4.0866 -2.33963,1.25055 -4.7349,2.38342 -7.18583,3.3986 -2.45089,1.01522 -4.94564,1.90787 -7.48425,2.67795 -2.53863,0.7701 -5.10889,1.4139 -7.71078,1.93143 -2.60184,0.51756 -5.22281,0.90636 -7.86289,1.16638 C 307.29932,240.87 304.65286,241 302,241 c -2.65283,0 -5.29929,-0.13 -7.93939,-0.39001 -2.64005,-0.26003 -5.26105,-0.64882 -7.86295,-1.16639 -2.60187,-0.51753 -5.17212,-1.16134 -7.71075,-1.93144 -2.53861,-0.77008 -5.03336,-1.66273 -7.48429,-2.67795 -2.45089,-1.01518 -4.84616,-2.14805 -7.18576,-3.3986 -2.3396,-1.25055 -4.61227,-2.61275 -6.81805,-4.0866 -2.20576,-1.47383 -4.33398,-3.05223 -6.38466,-4.73518 -2.05069,-1.68294 -4.01396,-3.46234 -5.88982,-5.3382 -1.87583,-1.87583 -3.65524,-3.83911 -5.33819,-5.88978 -1.68294,-2.05071 -3.26134,-4.17894 -4.7352,-6.38471 -1.47383,-2.20575 -2.83603,-4.47842 -4.08656,-6.81802 -1.25055,-2.33961 -2.38343,-4.73488 -3.39864,-7.18579 -1.0152,-2.4509 -1.90784,-4.94566 -2.67792,-7.48428 -0.77008,-2.53862 -1.41389,-5.10888 -1.93145,-7.71076 -0.51754,-2.60187 -0.90632,-5.22284 -1.16634,-7.86291 C 221.13,165.29932 221,162.65285 221,160 c 0,-2.65285 0.13,-5.2993 0.39003,-7.93939 0.26002,-2.64008 0.64882,-5.26105 1.16635,-7.86293 0.51755,-2.60189 1.16136,-5.17214 1.93144,-7.71076 0.77008,-2.53862 1.66272,-5.03338 2.67792,-7.4843 1.01521,-2.4509 2.14809,-4.84616 3.39862,-7.18576 1.25055,-2.33961 2.61275,-4.61229 4.08658,-6.81806 1.47386,-2.20577 3.05226,-4.33399 4.73521,-6.38466 1.68294,-2.05069 3.46235,-4.01395 5.33818,-5.8898 1.87586,-1.87584 3.83913,-3.655248 5.88982,-5.338201 2.05068,-1.682945 4.17888,-3.261345 6.38463,-4.735191 2.20578,-1.473839 4.47845,-2.836029 6.81805,-4.086579 2.33963,-1.250541 4.7349,-2.383407 7.18579,-3.398613 2.45093,-1.015198 4.94571,-1.907837 7.48432,-2.677917 2.5386,-0.770088 5.10885,-1.413903 7.71072,-1.93145 2.6019,-0.51754 5.2229,-0.906326 7.86295,-1.166351 C 296.70071,79.13002 299.34717,79.000008 302,79 c 2.65286,8e-6 5.29932,0.13002 7.93939,0.390038 2.64008,0.260025 5.26105,0.648811 7.86289,1.166351 2.60189,0.517547 5.17215,1.161362 7.71078,1.93145 2.53861,0.77008 5.03336,1.662719 7.48425,2.677917 2.45093,1.015206 4.8462,2.148072 7.18583,3.398613 2.33963,1.25055 4.6123,2.612747 6.81805,4.086586 2.20578,1.473847 4.33402,3.052239 6.3847,4.735184 2.05066,1.682953 4.01392,3.462361 5.88974,5.338201 1.87586,1.87585 3.65525,3.83912 5.3382,5.8898 1.68295,2.05067 3.26135,4.17889 4.73517,6.38466 1.47385,2.20577 2.83603,4.47845 4.08661,6.81806 1.25052,2.3396 2.38339,4.73486 3.39859,7.18576 1.01523,2.45092 1.90787,4.94568 2.67798,7.4843 0.77005,2.53862 1.41385,5.10887 1.93139,7.71076 0.51758,2.60188 0.90638,5.22285 1.16642,7.86293 0.26004,2.64009 0.39004,5.28654 0.39001,7.93939 z" /><path
             id="path52"
             style="fill:none;stroke:#6c8ebf;stroke-width:1;stroke-linecap:butt;stroke-linejoin:miter;stroke-miterlimit:10;stroke-dasharray:none;stroke-opacity:0.70200004"
             d="m 383,160 c 3e-5,2.65285 -0.12997,5.29932 -0.39001,7.93938 -0.26004,2.64007 -0.64884,5.26104 -1.16639,7.86291 -0.51754,2.60188 -1.16134,5.17214 -1.93142,7.71076 -0.77011,2.53862 -1.66275,5.03338 -2.67798,7.48428 -1.0152,2.45091 -2.14807,4.84618 -3.39862,7.18579 -1.25055,2.3396 -2.61273,4.61227 -4.08658,6.81802 -1.47382,2.20577 -3.05222,4.334 -4.73517,6.38471 -1.68295,2.05067 -3.46234,4.01395 -5.3382,5.88978 -1.87582,1.87586 -3.83908,3.65526 -5.88974,5.3382 -2.05068,1.68295 -4.17892,3.26135 -6.3847,4.73518 -2.20575,1.47385 -4.47842,2.83605 -6.81805,4.0866 -2.33963,1.25055 -4.7349,2.38342 -7.18583,3.3986 -2.45089,1.01522 -4.94564,1.90787 -7.48425,2.67795 -2.53863,0.7701 -5.10889,1.4139 -7.71078,1.93143 -2.60184,0.51756 -5.22281,0.90636 -7.86289,1.16638 C 307.29932,240.87 304.65286,241 302,241 c -2.65283,0 -5.29929,-0.13 -7.93939,-0.39001 -2.64005,-0.26003 -5.26105,-0.64882 -7.86295,-1.16639 -2.60187,-0.51753 -5.17212,-1.16134 -7.71075,-1.93144 -2.53861,-0.77008 -5.03336,-1.66273 -7.48429,-2.67795 -2.45089,-1.01518 -4.84616,-2.14805 -7.18576,-3.3986 -2.3396,-1.25055 -4.61227,-2.61275 -6.81805,-4.0866 -2.20576,-1.47383 -4.33398,-3.05223 -6.38466,-4.73518 -2.05069,-1.68294 -4.01396,-3.46234 -5.88982,-5.3382 -1.87583,-1.87583 -3.65524,-3.83911 -5.33819,-5.88978 -1.68294,-2.05071 -3.26134,-4.17894 -4.7352,-6.38471 -1.47383,-2.20575 -2.83603,-4.47842 -4.08656,-6.81802 -1.25055,-2.33961 -2.38343,-4.73488 -3.39864,-7.18579 -1.0152,-2.4509 -1.90784,-4.94566 -2.67792,-7.48428 -0.77008,-2.53862 -1.41389,-5.10888 -1.93145,-7.71076 -0.51754,-2.60187 -0.90632,-5.22284 -1.16634,-7.86291 C 221.13,165.29932 221,162.65285 221,160 c 0,-2.65285 0.13,-5.2993 0.39003,-7.93939 0.26002,-2.64008 0.64882,-5.26105 1.16635,-7.86293 0.51755,-2.60189 1.16136,-5.17214 1.93144,-7.71076 0.77008,-2.53862 1.66272,-5.03338 2.67792,-7.4843 1.01521,-2.4509 2.14809,-4.84616 3.39862,-7.18576 1.25055,-2.33961 2.61275,-4.61229 4.08658,-6.81806 1.47386,-2.20577 3.05226,-4.33399 4.73521,-6.38466 1.68294,-2.05069 3.46235,-4.01395 5.33818,-5.8898 1.87586,-1.87584 3.83913,-3.655248 5.88982,-5.338201 2.05068,-1.682945 4.17888,-3.261345 6.38463,-4.735191 2.20578,-1.473839 4.47845,-2.836029 6.81805,-4.086579 2.33963,-1.250541 4.7349,-2.383407 7.18579,-3.398613 2.45093,-1.015198 4.94571,-1.907837 7.48432,-2.677917 2.5386,-0.770088 5.10885,-1.413903 7.71072,-1.93145 2.6019,-0.51754 5.2229,-0.906326 7.86295,-1.166351 C 296.70071,79.13002 299.34717,79.000008 302,79 c 2.65286,8e-6 5.29932,0.13002 7.93939,0.390038 2.64008,0.260025 5.26105,0.648811 7.86289,1.166351 2.60189,0.517547 5.17215,1.161362 7.71078,1.93145 2.53861,0.77008 5.03336,1.662719 7.48425,2.677917 2.45093,1.015206 4.8462,2.148072 7.18583,3.398613 2.33963,1.25055 4.6123,2.612747 6.81805,4.086586 2.20578,1.473847 4.33402,3.052239 6.3847,4.735184 2.05066,1.682953 4.01392,3.462361 5.88974,5.338201 1.87586,1.87585 3.65525,3.83912 5.3382,5.8898 1.68295,2.05067 3.26135,4.17889 4.73517,6.38466 1.47385,2.20577 2.83603,4.47845 4.08661,6.81806 1.25052,2.3396 2.38339,4.73486 3.39859,7.18576 1.01523,2.45092 1.90787,4.94568 2.67798,7.4843 0.77005,2.53862 1.41385,5.10887 1.93139,7.71076 0.51758,2.60188 0.90638,5.22285 1.16642,7.86293 0.26004,2.64009 0.39004,5.28654 0.39001,7.93939 z" /><path
             id="path54"
             style="fill:#ffffff;fill-opacity:1;fill-rule:nonzero;stroke:none"
             d="m 285,160 c 0,1.44453 -0.1409,2.8752 -0.42273,4.29198 -0.28183,1.41679 -0.69913,2.79246 -1.25192,4.12704 -0.5528,1.33458 -1.23047,2.60242 -2.03302,3.80351 -0.80255,1.2011 -1.71454,2.31237 -2.73599,3.33381 -1.02146,1.02143 -2.13273,1.93342 -3.33381,2.73596 -1.20108,0.80255 -2.4689,1.48022 -3.80349,2.03303 -1.3346,0.55281 -2.7103,0.97011 -4.12708,1.25193 -1.41678,0.28181 -2.84741,0.42272 -4.29196,0.42274 -1.44455,-2e-5 -2.87521,-0.14093 -4.29199,-0.42274 -1.41678,-0.28182 -2.79248,-0.69913 -4.12708,-1.25194 -1.33458,-0.5528 -2.60243,-1.23047 -3.80353,-2.03301 -1.20106,-0.80253 -2.31233,-1.71454 -3.33377,-2.73597 -1.02147,-1.02144 -1.93347,-2.13273 -2.736,-3.33382 -0.80254,-1.20108 -1.48021,-2.46892 -2.03301,-3.8035 -0.55279,-1.33458 -0.97011,-2.71025 -1.25192,-4.12704 C 241.1409,162.8752 241,161.44453 241,160 c 0,-1.44455 0.1409,-2.87521 0.42271,-4.29201 0.28182,-1.41678 0.69912,-2.79246 1.25191,-4.12704 0.5528,-1.33458 1.23046,-2.60242 2.03299,-3.8035 0.80255,-1.2011 1.71455,-2.31238 2.73602,-3.33382 1.02144,-1.02143 2.13271,-1.93344 3.33379,-2.73597 1.2011,-0.80255 2.46893,-1.48023 3.80351,-2.03302 1.3346,-0.5528 2.7103,-0.9701 4.12708,-1.25191 C 260.12479,138.14091 261.55545,138 263,138 c 1.44455,0 2.87518,0.14091 4.29196,0.42273 1.41678,0.28181 2.79245,0.69911 4.12705,1.25191 1.33459,0.55279 2.60244,1.23047 3.80352,2.03302 1.20108,0.80253 2.31235,1.71454 3.33381,2.73597 1.02145,1.02144 1.93344,2.13271 2.73599,3.3338 0.80255,1.2011 1.48022,2.46894 2.03302,3.80352 0.55279,1.33458 0.97009,2.71026 1.25192,4.12704 C 284.8591,157.12479 285,158.55545 285,160 Z" /><path
             id="path56"
             style="fill:none;stroke:#000000;stroke-width:1;stroke-linecap:butt;stroke-linejoin:miter;stroke-miterlimit:10;stroke-dasharray:none;stroke-opacity:1"
             d="m 285,160 c 0,1.44453 -0.1409,2.8752 -0.42273,4.29198 -0.28183,1.41679 -0.69913,2.79246 -1.25192,4.12704 -0.5528,1.33458 -1.23047,2.60242 -2.03302,3.80351 -0.80255,1.2011 -1.71454,2.31237 -2.73599,3.33381 -1.02146,1.02143 -2.13273,1.93342 -3.33381,2.73596 -1.20108,0.80255 -2.4689,1.48022 -3.80349,2.03303 -1.3346,0.55281 -2.7103,0.97011 -4.12708,1.25193 -1.41678,0.28181 -2.84741,0.42272 -4.29196,0.42274 -1.44455,-2e-5 -2.87521,-0.14093 -4.29199,-0.42274 -1.41678,-0.28182 -2.79248,-0.69913 -4.12708,-1.25194 -1.33458,-0.5528 -2.60243,-1.23047 -3.80353,-2.03301 -1.20106,-0.80253 -2.31233,-1.71454 -3.33377,-2.73597 -1.02147,-1.02144 -1.93347,-2.13273 -2.736,-3.33382 -0.80254,-1.20108 -1.48021,-2.46892 -2.03301,-3.8035 -0.55279,-1.33458 -0.97011,-2.71025 -1.25192,-4.12704 C 241.1409,162.8752 241,161.44453 241,160 c 0,-1.44455 0.1409,-2.87521 0.42271,-4.29201 0.28182,-1.41678 0.69912,-2.79246 1.25191,-4.12704 0.5528,-1.33458 1.23046,-2.60242 2.03299,-3.8035 0.80255,-1.2011 1.71455,-2.31238 2.73602,-3.33382 1.02144,-1.02143 2.13271,-1.93344 3.33379,-2.73597 1.2011,-0.80255 2.46893,-1.48023 3.80351,-2.03302 1.3346,-0.5528 2.7103,-0.9701 4.12708,-1.25191 C 260.12479,138.14091 261.55545,138 263,138 c 1.44455,0 2.87518,0.14091 4.29196,0.42273 1.41678,0.28181 2.79245,0.69911 4.12705,1.25191 1.33459,0.55279 2.60244,1.23047 3.80352,2.03302 1.20108,0.80253 2.31235,1.71454 3.33381,2.73597 1.02145,1.02144 1.93344,2.13271 2.73599,3.3338 0.80255,1.2011 1.48022,2.46894 2.03302,3.80352 0.55279,1.33458 0.97009,2.71026 1.25192,4.12704 C 284.8591,157.12479 285,158.55545 285,160 Z" /><path
             id="path58"
             style="fill:#ffffff;fill-opacity:1;fill-rule:nonzero;stroke:none"
             d="m 368,160 c -3e-5,1.44453 -0.14093,2.8752 -0.42276,4.29198 -0.28183,1.41679 -0.69913,2.79246 -1.25192,4.12704 -0.5528,1.33458 -1.23047,2.60242 -2.03302,3.80351 -0.80255,1.2011 -1.71454,2.31237 -2.73596,3.33381 -1.02146,1.02143 -2.13273,1.93342 -3.33384,2.73596 -1.20108,0.80255 -2.46893,1.48022 -3.80352,2.03303 -1.33457,0.55281 -2.71024,0.97011 -4.12702,1.25193 -1.41678,0.28181 -2.84741,0.42272 -4.29196,0.42274 -1.44455,-2e-5 -2.87524,-0.14093 -4.29202,-0.42274 -1.41678,-0.28182 -2.79248,-0.69913 -4.12705,-1.25194 -1.33456,-0.5528 -2.60241,-1.23047 -3.80349,-2.03301 -1.20112,-0.80253 -2.31238,-1.71454 -3.33381,-2.73597 -1.02145,-1.02144 -1.93347,-2.13273 -2.73602,-3.33382 -0.80252,-1.20108 -1.48019,-2.46892 -2.03299,-3.8035 -0.55282,-1.33458 -0.97012,-2.71025 -1.25192,-4.12704 C 324.1409,162.8752 324,161.44453 324,160 c 0,-1.44455 0.1409,-2.87521 0.4227,-4.29201 0.2818,-1.41678 0.6991,-2.79246 1.25192,-4.12704 0.5528,-1.33458 1.23047,-2.60242 2.03302,-3.8035 0.80252,-1.2011 1.71454,-2.31238 2.73599,-3.33382 1.02143,-1.02143 2.13269,-1.93344 3.33381,-2.73597 1.20108,-0.80255 2.46893,-1.48023 3.80349,-2.03302 1.33457,-0.5528 2.71027,-0.9701 4.12705,-1.25191 C 343.12476,138.14091 344.55545,138 346,138 c 1.44455,0 2.87518,0.14091 4.29196,0.42273 1.41678,0.28181 2.79245,0.69911 4.12702,1.25191 1.33459,0.55279 2.60244,1.23047 3.80352,2.03302 1.20111,0.80253 2.31238,1.71454 3.33384,2.73597 1.02142,1.02144 1.93341,2.13271 2.73596,3.3338 0.80255,1.2011 1.48022,2.46894 2.03302,3.80352 0.55279,1.33458 0.97009,2.71026 1.25192,4.12704 0.28183,1.4168 0.42273,2.84746 0.42276,4.29201 z" /><path
             id="path60"
             style="fill:none;stroke:#000000;stroke-width:1;stroke-linecap:butt;stroke-linejoin:miter;stroke-miterlimit:10;stroke-dasharray:none;stroke-opacity:1"
             d="m 368,160 c -3e-5,1.44453 -0.14093,2.8752 -0.42276,4.29198 -0.28183,1.41679 -0.69913,2.79246 -1.25192,4.12704 -0.5528,1.33458 -1.23047,2.60242 -2.03302,3.80351 -0.80255,1.2011 -1.71454,2.31237 -2.73596,3.33381 -1.02146,1.02143 -2.13273,1.93342 -3.33384,2.73596 -1.20108,0.80255 -2.46893,1.48022 -3.80352,2.03303 -1.33457,0.55281 -2.71024,0.97011 -4.12702,1.25193 -1.41678,0.28181 -2.84741,0.42272 -4.29196,0.42274 -1.44455,-2e-5 -2.87524,-0.14093 -4.29202,-0.42274 -1.41678,-0.28182 -2.79248,-0.69913 -4.12705,-1.25194 -1.33456,-0.5528 -2.60241,-1.23047 -3.80349,-2.03301 -1.20112,-0.80253 -2.31238,-1.71454 -3.33381,-2.73597 -1.02145,-1.02144 -1.93347,-2.13273 -2.73602,-3.33382 -0.80252,-1.20108 -1.48019,-2.46892 -2.03299,-3.8035 -0.55282,-1.33458 -0.97012,-2.71025 -1.25192,-4.12704 C 324.1409,162.8752 324,161.44453 324,160 c 0,-1.44455 0.1409,-2.87521 0.4227,-4.29201 0.2818,-1.41678 0.6991,-2.79246 1.25192,-4.12704 0.5528,-1.33458 1.23047,-2.60242 2.03302,-3.8035 0.80252,-1.2011 1.71454,-2.31238 2.73599,-3.33382 1.02143,-1.02143 2.13269,-1.93344 3.33381,-2.73597 1.20108,-0.80255 2.46893,-1.48023 3.80349,-2.03302 1.33457,-0.5528 2.71027,-0.9701 4.12705,-1.25191 C 343.12476,138.14091 344.55545,138 346,138 c 1.44455,0 2.87518,0.14091 4.29196,0.42273 1.41678,0.28181 2.79245,0.69911 4.12702,1.25191 1.33459,0.55279 2.60244,1.23047 3.80352,2.03302 1.20111,0.80253 2.31238,1.71454 3.33384,2.73597 1.02142,1.02144 1.93341,2.13271 2.73596,3.3338 0.80255,1.2011 1.48022,2.46894 2.03302,3.80352 0.55279,1.33458 0.97009,2.71026 1.25192,4.12704 0.28183,1.4168 0.42273,2.84746 0.42276,4.29201 z" /><path
             id="path62"
             style="fill:none;stroke:#000000;stroke-width:1;stroke-linecap:butt;stroke-linejoin:miter;stroke-miterlimit:10;stroke-dasharray:none;stroke-opacity:1"
             d="M 71,16 242.3,140.7" /><path
             id="path64"
             style="fill:#000000;fill-opacity:1;fill-rule:nonzero;stroke:none"
             d="M 246.53999,143.78999 238.82001,142.5 242.3,140.7 l 0.64,-3.86 z" /><path
             id="path66"
             style="fill:none;stroke:#000000;stroke-width:1;stroke-linecap:butt;stroke-linejoin:miter;stroke-miterlimit:10;stroke-dasharray:none;stroke-opacity:1"
             d="M 246.53999,143.78999 238.82001,142.5 242.3,140.7 l 0.64,-3.86 z" /><path
             id="path68"
             style="fill:none;stroke:#000000;stroke-width:1;stroke-linecap:butt;stroke-linejoin:miter;stroke-miterlimit:10;stroke-dasharray:none;stroke-opacity:1"
             d="m 71,76 166.61,74.92" /><path
             id="path70"
             style="fill:#000000;fill-opacity:1;fill-rule:nonzero;stroke:none"
             d="M 242.39999,153.07001 234.58,153.39 l 3.03,-2.47 -0.16,-3.91001 z" /><path
             id="path72"
             style="fill:none;stroke:#000000;stroke-width:1;stroke-linecap:butt;stroke-linejoin:miter;stroke-miterlimit:10;stroke-dasharray:none;stroke-opacity:1"
             d="M 242.39999,153.07001 234.58,153.39 l 3.03,-2.47 -0.16,-3.91001 z" /><path
             id="path74"
             style="fill:none;stroke:#000000;stroke-width:1;stroke-linecap:butt;stroke-linejoin:miter;stroke-miterlimit:10;stroke-dasharray:none;stroke-opacity:1"
             d="m 71,136 163.69,23.11" /><path
             id="path76"
             style="fill:#000000;fill-opacity:1;fill-rule:nonzero;stroke:none"
             d="m 239.89,159.84 -7.42,2.49 2.22,-3.22 -1.24,-3.71001 z" /><path
             id="path78"
             style="fill:none;stroke:#000000;stroke-width:1;stroke-linecap:butt;stroke-linejoin:miter;stroke-miterlimit:10;stroke-dasharray:none;stroke-opacity:1"
             d="m 239.89,159.84 -7.42,2.49 2.22,-3.22 -1.24,-3.71001 z" /><path
             id="path80"
             style="fill:none;stroke:#000000;stroke-width:1;stroke-linecap:butt;stroke-linejoin:miter;stroke-miterlimit:10;stroke-dasharray:none;stroke-opacity:1"
             d="M 71,286 242.05,178.94" /><path
             id="path82"
             style="fill:#000000;fill-opacity:1;fill-rule:nonzero;stroke:none"
             d="m 246.5,176.14999 -4.08,6.68001 -0.37,-3.89 -3.33999,-2.04001 z" /><path
             id="path84"
             style="fill:none;stroke:#000000;stroke-width:1;stroke-linecap:butt;stroke-linejoin:miter;stroke-miterlimit:10;stroke-dasharray:none;stroke-opacity:1"
             d="m 246.5,176.14999 -4.08,6.68001 -0.37,-3.89 -3.33999,-2.04001 z" /></g><g
           transform="scale(2.9967601)"
           id="g86"><path
             id="path88"
             style="fill:#000000;fill-opacity:1;fill-rule:nonzero;stroke:none"
             d="m 54,246 v -2 h 2 v 2 m -2,-10 v -2 h 2 v 2 m -2,-10 v -2 h 2 v 2 m -2,-10 v -2 h 2 v 2 m -2,-10 v -2 h 2 v 2 m -2,-10 v -2 h 2 v 2 m -2,-10 v -2 h 2 v 2" /></g><g
           transform="matrix(2.9967601,0,0,2.9967601,23.974081,20.977322)"
           id="g90"><text
             id="text94"
             style="font-variant:normal;font-weight:bold;font-size:16px;font-family:Helvetica;-inkscape-font-specification:Helvetica-Bold;writing-mode:lr-tb;fill:#000000;fill-opacity:1;fill-rule:nonzero;stroke:none"
             transform="translate(0.015625,14)"><tspan
               id="tspan92"
               y="0"
               x="0">x</tspan></text>
<text
             id="text98"
             style="font-variant:normal;font-weight:bold;font-size:13.32999992px;font-family:Helvetica;-inkscape-font-specification:Helvetica-Bold;writing-mode:lr-tb;fill:#000000;fill-opacity:1;fill-rule:nonzero;stroke:none"
             transform="translate(8.90625,18)"><tspan
               id="tspan96"
               y="0"
               x="0">1</tspan></text>
</g><g
           transform="matrix(2.9967601,0,0,2.9967601,23.974081,200.78293)"
           id="g100"><text
             id="text104"
             style="font-variant:normal;font-weight:bold;font-size:16px;font-family:Helvetica;-inkscape-font-specification:Helvetica-Bold;writing-mode:lr-tb;fill:#000000;fill-opacity:1;fill-rule:nonzero;stroke:none"
             transform="translate(0.015625,14)"><tspan
               id="tspan102"
               y="0"
               x="0">x</tspan></text>
<text
             id="text108"
             style="font-variant:normal;font-weight:bold;font-size:13.32999992px;font-family:Helvetica;-inkscape-font-specification:Helvetica-Bold;writing-mode:lr-tb;fill:#000000;fill-opacity:1;fill-rule:nonzero;stroke:none"
             transform="translate(8.90625,18)"><tspan
               id="tspan106"
               y="0"
               x="0">2</tspan></text>
</g><g
           transform="matrix(2.9967601,0,0,2.9967601,23.974081,380.58853)"
           id="g110"><text
             id="text114"
             style="font-variant:normal;font-weight:bold;font-size:16px;font-family:Helvetica;-inkscape-font-specification:Helvetica-Bold;writing-mode:lr-tb;fill:#000000;fill-opacity:1;fill-rule:nonzero;stroke:none"
             transform="translate(0.015625,14)"><tspan
               id="tspan112"
               y="0"
               x="0">x</tspan></text>
<text
             id="text118"
             style="font-variant:normal;font-weight:bold;font-size:13.32999992px;font-family:Helvetica;-inkscape-font-specification:Helvetica-Bold;writing-mode:lr-tb;fill:#000000;fill-opacity:1;fill-rule:nonzero;stroke:none"
             transform="translate(8.90625,18)"><tspan
               id="tspan116"
               y="0"
               x="0">3</tspan></text>
</g><g
           transform="matrix(2.9967601,0,0,2.9967601,23.974081,830.10254)"
           id="g120"><text
             id="text124"
             style="font-variant:normal;font-weight:bold;font-size:16px;font-family:Helvetica;-inkscape-font-specification:Helvetica-Bold;writing-mode:lr-tb;fill:#000000;fill-opacity:1;fill-rule:nonzero;stroke:none"
             transform="translate(0.015625,14)"><tspan
               id="tspan122"
               y="0"
               x="0">x</tspan></text>
<text
             id="text128"
             style="font-variant:normal;font-weight:bold;font-size:13.32999992px;font-family:Helvetica;-inkscape-font-specification:Helvetica-Bold;writing-mode:lr-tb;fill:#000000;fill-opacity:1;fill-rule:nonzero;stroke:none"
             transform="translate(8.90625,18)"><tspan
               id="tspan126"
               y="0"
               x="0">n</tspan></text>
</g><g
           transform="matrix(2.9967601,0,0,2.9967601,380.58853,230.75053)"
           id="g130"><text
             id="text134"
             style="font-variant:normal;font-weight:bold;font-size:16px;font-family:Helvetica;-inkscape-font-specification:Helvetica-Bold;writing-mode:lr-tb;fill:#000000;fill-opacity:1;fill-rule:nonzero;stroke:none"
             transform="translate(0.015625,14)"><tspan
               id="tspan132"
               y="0"
               x="0">w</tspan></text>
<text
             id="text138"
             style="font-variant:normal;font-weight:bold;font-size:11.10999966px;font-family:Helvetica;-inkscape-font-specification:Helvetica-Bold;writing-mode:lr-tb;fill:#000000;fill-opacity:1;fill-rule:nonzero;stroke:none"
             transform="translate(12.453125,17)"><tspan
               id="tspan136"
               y="0"
               x="0">2</tspan></text>
</g><g
           transform="matrix(2.9967601,0,0,2.9967601,377.59177,365.60474)"
           id="g140"><text
             id="text144"
             style="font-variant:normal;font-weight:bold;font-size:16px;font-family:Helvetica;-inkscape-font-specification:Helvetica-Bold;writing-mode:lr-tb;fill:#000000;fill-opacity:1;fill-rule:nonzero;stroke:none"
             transform="translate(0.015625,14)"><tspan
               id="tspan142"
               y="0"
               x="0">w</tspan></text>
<text
             id="text148"
             style="font-variant:normal;font-weight:bold;font-size:13.32999992px;font-family:Helvetica;-inkscape-font-specification:Helvetica-Bold;writing-mode:lr-tb;fill:#000000;fill-opacity:1;fill-rule:nonzero;stroke:none"
             transform="translate(12.453125,18)"><tspan
               id="tspan146"
               y="0"
               x="0">3</tspan></text>
</g><g
           transform="matrix(2.9967601,0,0,2.9967601,377.59177,635.31317)"
           id="g150"><text
             id="text154"
             style="font-variant:normal;font-weight:bold;font-size:16px;font-family:Helvetica;-inkscape-font-specification:Helvetica-Bold;writing-mode:lr-tb;fill:#000000;fill-opacity:1;fill-rule:nonzero;stroke:none"
             transform="translate(0.015625,14)"><tspan
               id="tspan152"
               y="0"
               x="0">w</tspan></text>
<text
             id="text158"
             style="font-variant:normal;font-weight:bold;font-size:13.32999992px;font-family:Helvetica;-inkscape-font-specification:Helvetica-Bold;writing-mode:lr-tb;fill:#000000;fill-opacity:1;fill-rule:nonzero;stroke:none"
             transform="translate(12.453125,18)"><tspan
               id="tspan156"
               y="0"
               x="0">n</tspan></text>
</g><g
           transform="matrix(2.9967601,0,0,2.9967601,740.19977,833.0993)"
           id="g160"><text
             id="text164"
             style="font-variant:normal;font-weight:bold;font-size:16px;font-family:Helvetica;-inkscape-font-specification:Helvetica-Bold;writing-mode:lr-tb;fill:#000000;fill-opacity:1;fill-rule:nonzero;stroke:none"
             transform="translate(0,14)"><tspan
               id="tspan162"
               y="0"
               x="0 9.7734375 14.21875 23.117188">bias</tspan></text>
</g><g
           transform="matrix(2.9967601,0,0,2.9967601,1.4983801,1.4983801)"
           id="g166"><path
             id="path168"
             style="fill:none;stroke:#000000;stroke-width:1;stroke-linecap:butt;stroke-linejoin:miter;stroke-miterlimit:10;stroke-dasharray:none;stroke-opacity:1"
             d="m 263.54999,274.5 -0.50998,-86.13" /><path
             id="path170"
             style="fill:#000000;fill-opacity:1;fill-rule:nonzero;stroke:none"
             d="m 263.01001,183.12 3.53998,6.98001 -3.50998,-1.73001 -3.49002,1.77 z" /><path
             id="path172"
             style="fill:none;stroke:#000000;stroke-width:1;stroke-linecap:butt;stroke-linejoin:miter;stroke-miterlimit:10;stroke-dasharray:none;stroke-opacity:1"
             d="m 263.01001,183.12 3.53998,6.98001 -3.50998,-1.73001 -3.49002,1.77 z" /></g><g
           transform="matrix(2.9967601,0,0,2.9967601,377.59177,95.896324)"
           id="g174"><text
             id="text178"
             style="font-variant:normal;font-weight:bold;font-size:16px;font-family:Helvetica;-inkscape-font-specification:Helvetica-Bold;writing-mode:lr-tb;fill:#000000;fill-opacity:1;fill-rule:nonzero;stroke:none"
             transform="translate(0.015625,14)"><tspan
               id="tspan176"
               y="0"
               x="0">w</tspan></text>
<text
             id="text182"
             style="font-variant:normal;font-weight:bold;font-size:13.32999992px;font-family:Helvetica;-inkscape-font-specification:Helvetica-Bold;writing-mode:lr-tb;fill:#000000;fill-opacity:1;fill-rule:nonzero;stroke:none"
             transform="translate(12.453125,18)"><tspan
               id="tspan180"
               y="0"
               x="0">1</tspan></text>
</g><g
           transform="matrix(2.9967601,0,0,2.9967601,761.17706,428.53671)"
           id="g184"><path
             id="path186"
             style="fill:#ffffff;fill-opacity:1;fill-rule:nonzero;stroke:none"
             d="M 0,17 H 18 V 31 H 0 Z" /><text
             id="text190"
             style="font-variant:normal;font-weight:bold;font-size:30px;font-family:Arial;-inkscape-font-specification:Arial-BoldMT;writing-mode:lr-tb;fill:#222222;fill-opacity:1;fill-rule:nonzero;stroke:none"
             transform="translate(0,28)"><tspan
               id="tspan188"
               y="0"
               x="0">Σ</tspan></text>
</g><g
           transform="matrix(2.9967601,0,0,2.9967601,1012.9049,431.53345)"
           id="g192"><path
             id="path194"
             style="fill:#ffffff;fill-opacity:1;fill-rule:nonzero;stroke:none"
             d="M 0,0 H 16 V 26 H 0 Z" /><text
             id="text198"
             style="font-variant:normal;font-weight:bold;font-size:23px;font-family:Arial;-inkscape-font-specification:Arial-BoldMT;writing-mode:lr-tb;fill:#222222;fill-opacity:1;fill-rule:nonzero;stroke:none"
             transform="translate(0,21)"><tspan
               id="tspan196"
               y="0"
               x="0">φ</tspan></text>
</g><g
           transform="matrix(2.9967601,0,0,2.9967601,1.4983801,1.4983801)"
           id="g200"><path
             id="path202"
             style="fill:none;stroke:#000000;stroke-width:1;stroke-linecap:butt;stroke-linejoin:miter;stroke-miterlimit:10;stroke-dasharray:none;stroke-opacity:1"
             d="m 285,160 h 32.63" /><path
             id="path204"
             style="fill:#000000;fill-opacity:1;fill-rule:nonzero;stroke:none"
             d="m 322.88,160 -7,3.5 1.75,-3.5 -1.75,-3.5 z" /><path
             id="path206"
             style="fill:none;stroke:#000000;stroke-width:1;stroke-linecap:butt;stroke-linejoin:miter;stroke-miterlimit:10;stroke-dasharray:none;stroke-opacity:1"
             d="m 322.88,160 -7,3.5 1.75,-3.5 -1.75,-3.5 z" /><path
             id="path208"
             style="fill:none;stroke:#000000;stroke-width:1;stroke-linecap:butt;stroke-linejoin:miter;stroke-miterlimit:10;stroke-dasharray:none;stroke-opacity:1"
             d="m 368,160 h 66.63" /><path
             id="path210"
             style="fill:#000000;fill-opacity:1;fill-rule:nonzero;stroke:none"
             d="m 439.88,160 -7,3.5 1.75,-3.5 -1.75,-3.5 z" /><path
             id="path212"
             style="fill:none;stroke:#000000;stroke-width:1;stroke-linecap:butt;stroke-linejoin:miter;stroke-miterlimit:10;stroke-dasharray:none;stroke-opacity:1"
             d="m 439.88,160 -7,3.5 1.75,-3.5 -1.75,-3.5 z" /></g><g
           transform="matrix(2.9967601,0,0,2.9967601,1339.5518,443.52051)"
           id="g214"><text
             id="text218"
             style="font-variant:normal;font-weight:bold;font-size:16px;font-family:Helvetica;-inkscape-font-specification:Helvetica-Bold;writing-mode:lr-tb;fill:#000000;fill-opacity:1;fill-rule:nonzero;stroke:none"
             transform="translate(0,14)"><tspan
               id="tspan216"
               y="0"
               x="0">y</tspan></text>
</g></g></g></g></svg>