<?xml version="1.0" encoding="UTF-8" standalone="no"?>
<!DOCTYPE svg PUBLIC "-//W3C//DTD SVG 1.1//EN" "http://www.w3.org/Graphics/SVG/1.1/DTD/svg11.dtd">
<svg xmlns="http://www.w3.org/2000/svg" xmlns:xlink="http://www.w3.org/1999/xlink" version="1.1" width="587.04pt" height="145.92pt" viewBox="0 0 587.04 145.92">
<g enable-background="new">
<clipPath id="cp0">
<path transform="matrix(.24,0,0,.24,0,0)" d="M 0 0 L 2445.8333 0 L 2445.8333 605.4636 L 0 605.4636 Z " fill-rule="evenodd"/>
</clipPath>
<g clip-path="url(#cp0)">
<path transform="matrix(.71936276,0,0,.71936276,0,0)" d="M 0 0 L 816 0 L 816 202 L 0 202 Z " fill="#ffffff"/>
</g>
<clipPath id="cp1">
<path transform="matrix(.24,0,0,.24,0,0)" d="M 0 0 L 2445.8333 0 L 2445.8333 605.4636 L 0 605.4636 Z " fill-rule="evenodd"/>
</clipPath>
<g clip-path="url(#cp1)">
<path transform="matrix(.000000000000000044048265,.71936276,.71936276,-.000000000000000044048265,-30.141297,30.860657)" d="M -41.4 58.35 L 84.29 58.35 L 113.22 87.28 L 113.22 98.26 L -12.47 98.26 L -41.4 69.33 L -41.4 58.35 Z " fill="#bac8d3" fill-opacity=".8"/>
<path transform="matrix(.000000000000000044048265,.71936276,.71936276,-.000000000000000044048265,-30.141297,30.860657)" stroke-width="1" stroke-linecap="butt" stroke-miterlimit="10" stroke-linejoin="miter" fill="none" stroke="#23445d" stroke-opacity=".8" d="M -41.4 58.35 L 84.29 58.35 L 113.22 87.28 L 113.22 98.26 L -12.47 98.26 L -41.4 69.33 L -41.4 58.35 Z "/>
<path transform="matrix(.000000000000000044048265,.71936276,.71936276,-.000000000000000044048265,-30.141297,30.860657)" stroke-width="1" stroke-linecap="butt" stroke-miterlimit="10" stroke-linejoin="miter" fill="none" stroke="#23445d" stroke-opacity=".8" d="M -12.47 98.26 L -12.47 87.28 L -41.4 58.35 M -12.47 87.28 L 113.22 87.28 "/>
<path transform="matrix(.00000000000000013214479,.71936276,.71936276,-.00000000000000013214479,64.217517,-63.49815)" d="M 107.23 58.35 L 195.01 58.35 L 226.94 90.28 L 226.94 98.26 L 139.15 98.26 L 107.23 66.33 L 107.23 58.35 Z " fill="#dae8fc"/>
<path transform="matrix(.00000000000000013214479,.71936276,.71936276,-.00000000000000013214479,64.217517,-63.49815)" stroke-width="1" stroke-linecap="butt" stroke-miterlimit="10" stroke-linejoin="miter" fill="none" stroke="#6c8ebf" d="M 107.23 58.35 L 195.01 58.35 L 226.94 90.28 L 226.94 98.26 L 139.15 98.26 L 107.23 66.33 L 107.23 58.35 Z "/>
<path transform="matrix(.00000000000000013214479,.71936276,.71936276,-.00000000000000013214479,64.217517,-63.49815)" d="M 107.23 58.35 L 195.01 58.35 L 226.94 90.28 L 139.15 90.28 L 107.23 58.35 Z " fill-opacity=".051"/>
<path transform="matrix(.00000000000000013214479,.71936276,.71936276,-.00000000000000013214479,64.217517,-63.49815)" d="M 107.23 58.35 L 139.15 90.28 L 139.15 98.26 L 107.23 66.33 L 107.23 58.35 Z " fill-opacity=".102"/>
<path transform="matrix(.00000000000000013214479,.71936276,.71936276,-.00000000000000013214479,64.217517,-63.49815)" stroke-width="1" stroke-linecap="butt" stroke-miterlimit="10" stroke-linejoin="miter" fill="none" stroke="#6c8ebf" d="M 139.15 98.26 L 139.15 90.28 L 107.23 58.35 M 139.15 90.28 L 226.94 90.28 "/>
<path transform="matrix(.71936276,-.00000000000000017619306,.00000000000000017619306,.71936276,.35968138,.35968138)" d="M 270.33 18.45 L 278.31 18.45 L 310.23 50.37 L 310.23 138.16 L 302.25 138.16 L 270.33 106.24 L 270.33 18.45 Z " fill="#f8cecc"/>
<path transform="matrix(.71936276,-.00000000000000017619306,.00000000000000017619306,.71936276,.35968138,.35968138)" stroke-width="1" stroke-linecap="butt" stroke-miterlimit="10" stroke-linejoin="miter" fill="none" stroke="#b85450" d="M 270.33 18.45 L 278.31 18.45 L 310.23 50.37 L 310.23 138.16 L 302.25 138.16 L 270.33 106.24 L 270.33 18.45 Z "/>
<path transform="matrix(.71936276,-.00000000000000017619306,.00000000000000017619306,.71936276,.35968138,.35968138)" d="M 270.33 18.45 L 278.31 18.45 L 310.23 50.37 L 302.25 50.37 L 270.33 18.45 Z " fill-opacity=".051"/>
<path transform="matrix(.71936276,-.00000000000000017619306,.00000000000000017619306,.71936276,.35968138,.35968138)" d="M 270.33 18.45 L 302.25 50.37 L 302.25 138.16 L 270.33 106.24 L 270.33 18.45 Z " fill-opacity=".102"/>
<path transform="matrix(.71936276,-.00000000000000017619306,.00000000000000017619306,.71936276,.35968138,.35968138)" stroke-width="1" stroke-linecap="butt" stroke-miterlimit="10" stroke-linejoin="miter" fill="none" stroke="#b85450" d="M 302.25 138.16 L 302.25 50.37 L 270.33 18.45 M 302.25 50.37 L 310.23 50.37 "/>
<path transform="matrix(.71936276,-.00000000000000017619306,.00000000000000017619306,.71936276,.35968138,.35968138)" d="M 395.02 18.45 L 403 18.45 L 434.92 50.37 L 434.92 138.16 L 426.94 138.16 L 395.02 106.24 L 395.02 18.45 Z " fill="#d5e8d4"/>
<path transform="matrix(.71936276,-.00000000000000017619306,.00000000000000017619306,.71936276,.35968138,.35968138)" stroke-width="1" stroke-linecap="butt" stroke-miterlimit="10" stroke-linejoin="miter" fill="none" stroke="#82b366" d="M 395.02 18.45 L 403 18.45 L 434.92 50.37 L 434.92 138.16 L 426.94 138.16 L 395.02 106.24 L 395.02 18.45 Z "/>
<path transform="matrix(.71936276,-.00000000000000017619306,.00000000000000017619306,.71936276,.35968138,.35968138)" d="M 395.02 18.45 L 403 18.45 L 434.92 50.37 L 426.94 50.37 L 395.02 18.45 Z " fill-opacity=".051"/>
<path transform="matrix(.71936276,-.00000000000000017619306,.00000000000000017619306,.71936276,.35968138,.35968138)" d="M 395.02 18.45 L 426.94 50.37 L 426.94 138.16 L 395.02 106.24 L 395.02 18.45 Z " fill-opacity=".102"/>
<path transform="matrix(.71936276,-.00000000000000017619306,.00000000000000017619306,.71936276,.35968138,.35968138)" stroke-width="1" stroke-linecap="butt" stroke-miterlimit="10" stroke-linejoin="miter" fill="none" stroke="#82b366" d="M 426.94 138.16 L 426.94 50.37 L 395.02 18.45 M 426.94 50.37 L 434.92 50.37 "/>
<path transform="matrix(.00000000000000013214479,.71936276,.71936276,-.00000000000000013214479,493.6914,-492.97206)" d="M 734.17 73.32 L 792.03 73.32 L 823.95 105.24 L 823.95 113.22 L 766.09 113.22 L 734.17 81.3 L 734.17 73.32 Z " fill="#0050ef"/>
<path transform="matrix(.00000000000000013214479,.71936276,.71936276,-.00000000000000013214479,493.6914,-492.97206)" stroke-width="1" stroke-linecap="butt" stroke-miterlimit="10" stroke-linejoin="miter" fill="none" stroke="#001dbc" d="M 734.17 73.32 L 792.03 73.32 L 823.95 105.24 L 823.95 113.22 L 766.09 113.22 L 734.17 81.3 L 734.17 73.32 Z "/>
<path transform="matrix(.00000000000000013214479,.71936276,.71936276,-.00000000000000013214479,493.6914,-492.97206)" d="M 734.17 73.32 L 792.03 73.32 L 823.95 105.24 L 766.09 105.24 L 734.17 73.32 Z " fill-opacity=".051"/>
<path transform="matrix(.00000000000000013214479,.71936276,.71936276,-.00000000000000013214479,493.6914,-492.97206)" d="M 734.17 73.32 L 766.09 105.24 L 766.09 113.22 L 734.17 81.3 L 734.17 73.32 Z " fill-opacity=".102"/>
<path transform="matrix(.00000000000000013214479,.71936276,.71936276,-.00000000000000013214479,493.6914,-492.97206)" stroke-width="1" stroke-linecap="butt" stroke-miterlimit="10" stroke-linejoin="miter" fill="none" stroke="#001dbc" d="M 766.09 113.22 L 766.09 105.24 L 734.17 73.32 M 766.09 105.24 L 823.95 105.24 "/>
<path transform="matrix(.71936276,-.00000000000000017619306,.00000000000000017619306,.71936276,.35968138,.35968138)" d="M 519.71 18.45 L 527.69 18.45 L 559.61 50.37 L 559.61 138.16 L 551.63 138.16 L 519.71 106.24 L 519.71 18.45 Z " fill="#60a917"/>
<path transform="matrix(.71936276,-.00000000000000017619306,.00000000000000017619306,.71936276,.35968138,.35968138)" stroke-width="1" stroke-linecap="butt" stroke-miterlimit="10" stroke-linejoin="miter" fill="none" stroke="#2d7600" d="M 519.71 18.45 L 527.69 18.45 L 559.61 50.37 L 559.61 138.16 L 551.63 138.16 L 519.71 106.24 L 519.71 18.45 Z "/>
<path transform="matrix(.71936276,-.00000000000000017619306,.00000000000000017619306,.71936276,.35968138,.35968138)" d="M 519.71 18.45 L 527.69 18.45 L 559.61 50.37 L 551.63 50.37 L 519.71 18.45 Z " fill-opacity=".051"/>
<path transform="matrix(.71936276,-.00000000000000017619306,.00000000000000017619306,.71936276,.35968138,.35968138)" d="M 519.71 18.45 L 551.63 50.37 L 551.63 138.16 L 519.71 106.24 L 519.71 18.45 Z " fill-opacity=".102"/>
<path transform="matrix(.71936276,-.00000000000000017619306,.00000000000000017619306,.71936276,.35968138,.35968138)" stroke-width="1" stroke-linecap="butt" stroke-miterlimit="10" stroke-linejoin="miter" fill="none" stroke="#2d7600" d="M 551.63 138.16 L 551.63 50.37 L 519.71 18.45 M 551.63 50.37 L 559.61 50.37 "/>
<path transform="matrix(.71936276,-.00000000000000017619306,.00000000000000017619306,.71936276,.35968138,.35968138)" d="M 639.41 30.92 L 647.39 30.92 L 679.31 62.84 L 679.31 150.63 L 671.33 150.63 L 639.41 118.7 L 639.41 30.92 Z " fill="#e1d5e7"/>
<path transform="matrix(.71936276,-.00000000000000017619306,.00000000000000017619306,.71936276,.35968138,.35968138)" stroke-width="1" stroke-linecap="butt" stroke-miterlimit="10" stroke-linejoin="miter" fill="none" stroke="#9673a6" d="M 639.41 30.92 L 647.39 30.92 L 679.31 62.84 L 679.31 150.63 L 671.33 150.63 L 639.41 118.7 L 639.41 30.92 Z "/>
<path transform="matrix(.71936276,-.00000000000000017619306,.00000000000000017619306,.71936276,.35968138,.35968138)" d="M 639.41 30.92 L 647.39 30.92 L 679.31 62.84 L 671.33 62.84 L 639.41 30.92 Z " fill-opacity=".051"/>
<path transform="matrix(.71936276,-.00000000000000017619306,.00000000000000017619306,.71936276,.35968138,.35968138)" d="M 639.41 30.92 L 671.33 62.84 L 671.33 150.63 L 639.41 118.7 L 639.41 30.92 Z " fill-opacity=".102"/>
<path transform="matrix(.71936276,-.00000000000000017619306,.00000000000000017619306,.71936276,.35968138,.35968138)" stroke-width="1" stroke-linecap="butt" stroke-miterlimit="10" stroke-linejoin="miter" fill="none" stroke="#9673a6" d="M 671.33 150.63 L 671.33 62.84 L 639.41 30.92 M 671.33 62.84 L 679.31 62.84 "/>
<symbol id="font_2_3e">
<path d="M 0 .9189453 L .24511719 .9189453 L .24511719 .8173828 L .13183594 .8173828 L .13183594 .10205078 L .24511719 .10205078 L .24511719 0 L 0 0 L 0 .9189453 Z "/>
</symbol>
<symbol id="font_2_14">
<path d="M 0 .48828126 L 0 .5830078 C .043945314 .58496096 .07470703 .5878906 .092285159 .5917969 C .120279949 .59798178 .1430664 .61035159 .16064453 .62890627 C .1726888 .64160159 .18180339 .6585286 .18798828 .6796875 C .19156902 .6923828 .19335938 .70182296 .19335938 .7080078 L .30908204 .7080078 L .30908204 0 L .1665039 0 L .1665039 .48828126 L 0 .48828126 Z "/>
</symbol>
<symbol id="font_2_ac">
<path d="M 0 0 Z "/>
</symbol>
<use xlink:href="#font_2_3e" transform="matrix(13.633977,0,0,-13.633977,6.973959,145.42092)"/>
<use xlink:href="#font_2_14" transform="matrix(13.633977,0,0,-13.633977,11.607274,142.79798)"/>
<use xlink:href="#font_2_ac" transform="matrix(13.633977,0,0,-13.633977,18.242442,142.79798)"/>
<symbol id="font_2_5b">
<path d="M 0 0 L .18164063 .26953126 L .0078125 .53125 L .17822266 .53125 L .26708985 .37695313 L .3540039 .53125 L .51953127 .53125 L .34472657 .27197267 L .5263672 0 L .35302735 0 L .26123048 .15966797 L .16894531 0 L 0 0 Z "/>
</symbol>
<symbol id="font_2_3">
<path d="M 0 0 Z "/>
</symbol>
<symbol id="font_2_51">
<path d="M .2939453 .5449219 C .34895835 .5449219 .39388023 .5304362 .42871095 .50146487 C .4638672 .472819 .4814453 .42513023 .4814453 .35839845 L .4814453 0 L .3388672 0 L .3388672 .32373048 C .3388672 .35172526 .3351237 .37320964 .32763673 .3881836 C .31396485 .41552735 .2879232 .42919923 .24951172 .42919923 C .2023112 .42919923 .16992188 .4091797 .15234375 .36914063 C .14322917 .34798179 .13867188 .32096354 .13867188 .28808595 L .13867188 0 L 0 0 L 0 .53125 L .13427735 .53125 L .13427735 .45361329 C .15218099 .48095704 .16910808 .50065109 .1850586 .5126953 C .21370442 .5341797 .25 .5449219 .2939453 .5449219 M .24267578 .5463867 L .24267578 .5463867 Z "/>
</symbol>
<symbol id="font_2_40">
<path d="M 0 .10205078 L .11328125 .10205078 L .11328125 .81933596 L 0 .81933596 L 0 .9189453 L .24511719 .9189453 L .24511719 0 L 0 0 L 0 .10205078 Z "/>
</symbol>
<use xlink:href="#font_2_5b" transform="matrix(13.633977,0,0,-13.633977,22.204968,142.79798)"/>
<use xlink:href="#font_2_3" transform="matrix(13.633977,0,0,-13.633977,29.612374,142.79798)"/>
<use xlink:href="#font_2_51" transform="matrix(13.633977,0,0,-13.633977,34.301343,142.79798)"/>
<use xlink:href="#font_2_40" transform="matrix(13.633977,0,0,-13.633977,42.04587,145.42092)"/>
<use xlink:href="#font_2_3e" transform="matrix(13.633977,0,0,-13.633977,99.79937,145.42092)"/>
<use xlink:href="#font_2_14" transform="matrix(13.633977,0,0,-13.633977,104.432689,142.79798)"/>
<use xlink:href="#font_2_ac" transform="matrix(13.633977,0,0,-13.633977,111.06785,142.79798)"/>
<symbol id="font_2_50">
<path d="M .59716799 .5439453 C .62060549 .5439453 .64371749 .539388 .6665039 .53027346 C .68929037 .5211589 .70996096 .5052083 .7285156 .48242188 C .74348959 .4638672 .75358077 .44108073 .75878909 .4140625 C .76204428 .39615885 .7636719 .36995445 .7636719 .33544923 L .7626953 0 L .6201172 0 L .6201172 .3388672 C .6201172 .35904948 .616862 .37565104 .61035159 .38867188 C .59798178 .41341148 .5751953 .42578126 .5419922 .42578126 C .50358077 .42578126 .47705079 .40983073 .46240235 .3779297 C .45491538 .3610026 .45117188 .34065757 .45117188 .31689454 L .45117188 0 L .31103517 0 L .31103517 .31689454 C .31103517 .34847007 .30777995 .37141929 .30126954 .3857422 C .28955079 .41145835 .26660157 .4243164 .23242188 .4243164 C .19270833 .4243164 .16601563 .41145835 .15234375 .3857422 C .14485677 .37109376 .14111328 .34928385 .14111328 .3203125 L .14111328 0 L 0 0 L 0 .53125 L .1352539 .53125 L .1352539 .45361329 C .15250652 .48128257 .16878255 .50097659 .18408203 .5126953 C .21110027 .5335286 .24609375 .5439453 .2890625 .5439453 C .3297526 .5439453 .36263023 .53499349 .3876953 .51708987 C .4078776 .5004883 .4231771 .47916667 .43359376 .453125 C .4518229 .484375 .47444663 .5073242 .50146487 .52197268 C .53011068 .5366211 .5620117 .5439453 .59716799 .5439453 Z "/>
</symbol>
<use xlink:href="#font_2_5b" transform="matrix(13.633977,0,0,-13.633977,115.03038,142.79798)"/>
<use xlink:href="#font_2_3" transform="matrix(13.633977,0,0,-13.633977,122.437778,142.79798)"/>
<use xlink:href="#font_2_50" transform="matrix(13.633977,0,0,-13.633977,127.08015,142.79798)"/>
<use xlink:href="#font_2_40" transform="matrix(13.633977,0,0,-13.633977,138.66153,145.42092)"/>
<use xlink:href="#font_2_3e" transform="matrix(13.633977,0,0,-13.633977,188.06143,145.42092)"/>
<use xlink:href="#font_2_14" transform="matrix(13.633977,0,0,-13.633977,192.69475,142.79798)"/>
<use xlink:href="#font_2_ac" transform="matrix(13.633977,0,0,-13.633977,199.32991,142.79798)"/>
<use xlink:href="#font_2_5b" transform="matrix(13.633977,0,0,-13.633977,203.29244,142.79798)"/>
<use xlink:href="#font_2_3" transform="matrix(13.633977,0,0,-13.633977,210.69985,142.79798)"/>
<use xlink:href="#font_2_50" transform="matrix(13.633977,0,0,-13.633977,215.34223,142.79798)"/>
<use xlink:href="#font_2_40" transform="matrix(13.633977,0,0,-13.633977,226.9236,145.42092)"/>
<use xlink:href="#font_2_3e" transform="matrix(13.633977,0,0,-13.633977,280.0235,145.42092)"/>
<use xlink:href="#font_2_14" transform="matrix(13.633977,0,0,-13.633977,284.6568,142.79798)"/>
<use xlink:href="#font_2_ac" transform="matrix(13.633977,0,0,-13.633977,291.292,142.79798)"/>
<symbol id="font_2_4e">
<path d="M 0 .71728518 L .13671875 .71728518 L .13671875 .32958985 L .3100586 .52978518 L .48242188 .52978518 L .29638673 .32617188 L .4897461 0 L .32177735 0 L .19433594 .22753906 L .13671875 .16748047 L .13671875 0 L 0 0 L 0 .71728518 Z "/>
</symbol>
<use xlink:href="#font_2_5b" transform="matrix(13.633977,0,0,-13.633977,295.25453,142.79798)"/>
<use xlink:href="#font_2_3" transform="matrix(13.633977,0,0,-13.633977,302.66194,142.79798)"/>
<use xlink:href="#font_2_4e" transform="matrix(13.633977,0,0,-13.633977,307.31764,142.79798)"/>
<use xlink:href="#font_2_40" transform="matrix(13.633977,0,0,-13.633977,314.34556,145.42092)"/>
<use xlink:href="#font_2_3e" transform="matrix(13.633977,0,0,-13.633977,369.7207,145.42092)"/>
<use xlink:href="#font_2_14" transform="matrix(13.633977,0,0,-13.633977,374.35404,142.79798)"/>
<use xlink:href="#font_2_ac" transform="matrix(13.633977,0,0,-13.633977,380.98927,142.79798)"/>
<use xlink:href="#font_2_5b" transform="matrix(13.633977,0,0,-13.633977,384.95176,142.79798)"/>
<use xlink:href="#font_2_3" transform="matrix(13.633977,0,0,-13.633977,392.35917,142.79798)"/>
<use xlink:href="#font_2_4e" transform="matrix(13.633977,0,0,-13.633977,397.01484,142.79798)"/>
<use xlink:href="#font_2_40" transform="matrix(13.633977,0,0,-13.633977,404.0428,145.42092)"/>
<use xlink:href="#font_2_3e" transform="matrix(13.633977,0,0,-13.633977,463.00584,145.42092)"/>
<use xlink:href="#font_2_14" transform="matrix(13.633977,0,0,-13.633977,467.63917,142.79798)"/>
<use xlink:href="#font_2_ac" transform="matrix(13.633977,0,0,-13.633977,474.27436,142.79798)"/>
<use xlink:href="#font_2_5b" transform="matrix(13.633977,0,0,-13.633977,478.23686,142.79798)"/>
<use xlink:href="#font_2_3" transform="matrix(13.633977,0,0,-13.633977,485.64427,142.79798)"/>
<use xlink:href="#font_2_4e" transform="matrix(13.633977,0,0,-13.633977,490.29997,142.79798)"/>
<use xlink:href="#font_2_40" transform="matrix(13.633977,0,0,-13.633977,497.3279,145.42092)"/>
<use xlink:href="#font_2_3e" transform="matrix(13.633977,0,0,-13.633977,541.9394,145.42092)"/>
<use xlink:href="#font_2_14" transform="matrix(13.633977,0,0,-13.633977,546.5727,142.79798)"/>
<use xlink:href="#font_2_ac" transform="matrix(13.633977,0,0,-13.633977,553.2079,142.79798)"/>
<use xlink:href="#font_2_5b" transform="matrix(13.633977,0,0,-13.633977,557.1704,142.79798)"/>
<use xlink:href="#font_2_3" transform="matrix(13.633977,0,0,-13.633977,564.5778,142.79798)"/>
<use xlink:href="#font_2_14" transform="matrix(13.633977,0,0,-13.633977,569.31338,142.79798)"/>
<use xlink:href="#font_2_40" transform="matrix(13.633977,0,0,-13.633977,576.2614,145.42092)"/>
</g>
</g>
</svg>
