<?xml version="1.0" encoding="UTF-8" standalone="no"?>
<!DOCTYPE svg PUBLIC "-//W3C//DTD SVG 1.1//EN" "http://www.w3.org/Graphics/SVG/1.1/DTD/svg11.dtd">
<svg xmlns="http://www.w3.org/2000/svg" xmlns:xlink="http://www.w3.org/1999/xlink" version="1.1" width="675.12pt" height="791.04pt" viewBox="0 0 675.12 791.04">
<g enable-background="new">
<clipPath id="cp0">
<path transform="matrix(.24,0,0,.24,0,0)" d="M 0 0 L 2812.5 0 L 2812.5 3288.7379 L 0 3288.7379 Z " fill-rule="evenodd"/>
</clipPath>
<g clip-path="url(#cp0)">
<path transform="matrix(.7188498,0,0,.7188498,.3594249,.3594249)" d="M 264.2 233 L 699.8 233 C 701.6362 233 703.4713 233.04505 705.30538 233.13515 C 707.1394 233.22525 708.9701 233.3603 710.7975 233.5403 C 712.6249 233.72026 714.4467 233.94496 716.263 234.21439 C 718.07937 234.48381 719.88809 234.79764 721.689 235.15587 C 723.49 235.5141 725.28109 235.9163 727.06228 236.36249 C 728.84347 236.80864 730.6127 237.29825 732.3699 237.83129 C 734.127 238.3643 735.87 238.94011 737.5989 239.55872 C 739.3278 240.17733 741.04049 240.83798 742.73696 241.54067 C 744.4334 242.24337 746.1116 242.98726 747.7715 243.77236 C 749.43148 244.55747 751.0711 245.38282 752.69058 246.2484 C 754.31 247.11399 755.90719 248.0188 757.4821 248.96282 C 759.0571 249.90683 760.60806 250.88892 762.1348 251.90908 C 763.6616 252.92923 765.1624 253.98624 766.63729 255.08008 C 768.1122 256.17393 769.5593 257.30329 770.9788 258.4682 C 772.3982 259.6331 773.7882 260.83213 775.1488 262.06526 C 776.50936 263.29838 777.83889 264.56416 779.1373 265.86259 C 780.4357 267.16099 781.70156 268.49046 782.93466 269.851 C 784.16787 271.21159 785.3669 272.6016 786.53176 274.02104 C 787.6966 275.44047 788.826 276.8876 789.9198 278.3625 C 791.0136 279.83738 792.0706 281.3382 793.09078 282.865 C 794.11099 284.39176 795.093 285.94264 796.03707 287.51765 C 796.9811 289.09266 797.88589 290.68989 798.7515 292.3093 C 799.61709 293.92869 800.4424 295.56837 801.2275 297.2283 C 802.0126 298.88825 802.7565 300.56645 803.45919 302.2629 C 804.16189 303.95936 804.8225 305.67204 805.44119 307.40095 C 806.05978 309.12986 806.6356 310.8729 807.16867 312.63008 C 807.70169 314.38725 808.1912 316.1564 808.6374 317.93763 C 809.0836 319.71885 809.48587 321.50993 809.84408 323.31089 C 810.2023 325.11186 810.51608 326.9205 810.7855 328.73686 C 811.055 330.55323 811.2797 332.3751 811.4597 334.20249 C 811.6397 336.02989 811.7747 337.8606 811.8648 339.69465 C 811.95498 341.52867 812 343.36378 812 345.2 L 812 780.8 C 812 782.63619 811.95498 784.4713 811.86489 786.3054 C 811.7747 788.1394 811.63967 789.9701 811.45968 791.79757 C 811.27969 793.6249 811.055 795.4468 810.7855 797.2631 C 810.51608 799.07949 810.2023 800.8881 809.84408 802.689 C 809.48587 804.49 809.0836 806.28109 808.63748 808.06228 C 808.1912 809.8435 807.70169 811.61276 807.16867 813.3699 C 806.6356 815.127 806.05978 816.87008 805.44119 818.59896 C 804.8225 820.3278 804.16189 822.04049 803.45919 823.73696 C 802.7565 825.4334 802.0126 827.1116 801.2275 828.77157 C 800.4424 830.4315 799.61709 832.07119 798.7515 833.6906 C 797.8859 835.31008 796.98117 836.9072 796.0371 838.4822 C 795.0931 840.0572 794.11099 841.60806 793.0908 843.1348 C 792.0706 844.6616 791.0136 846.1624 789.9198 847.6373 C 788.826 849.11227 787.6966 850.5594 786.5317 851.9788 C 785.3668 853.3983 784.16787 854.78829 782.93466 856.1488 C 781.70156 857.5094 780.4357 858.8389 779.1373 860.1373 C 777.83889 861.4357 776.50936 862.7015 775.14877 863.93466 C 773.7882 865.1678 772.3982 866.3668 770.9788 867.53176 C 769.5593 868.6966 768.1122 869.8259 766.6373 870.91976 C 765.1625 872.0136 763.6617 873.0706 762.1349 874.09078 C 760.6081 875.11099 759.0572 876.093 757.48226 877.03707 C 755.9073 877.9811 754.3101 878.8859 752.6907 879.7515 C 751.0712 880.61709 749.4315 881.44247 747.77157 882.22756 C 746.11166 883.01266 744.4335 883.75656 742.737 884.45919 C 741.0405 885.1618 739.3278 885.82247 737.59896 886.44119 C 735.87 887.05978 734.127 887.63558 732.3699 888.16867 C 730.61276 888.70169 728.8435 889.1913 727.06228 889.6374 C 725.28109 890.0836 723.49008 890.48587 721.6891 890.84408 C 719.8881 891.2023 718.07949 891.5161 716.2631 891.7855 C 714.4468 892.055 712.62496 892.2798 710.7975 892.4598 C 708.9701 892.6397 707.1394 892.7747 705.30538 892.8648 C 703.4713 892.9549 701.6362 892.99996 699.8 893 L 264.2 893 C 262.36378 892.99996 260.52864 892.9549 258.6946 892.86489 C 256.8606 892.7748 255.02988 892.6398 253.2025 892.45986 C 251.37509 892.2798 249.5532 892.05508 247.73685 891.7856 C 245.92049 891.5161 244.11182 891.20236 242.31085 890.8441 C 240.5099 890.48587 238.71881 890.0836 236.9376 889.63748 C 235.1564 889.1913 233.3872 888.70169 231.63005 888.16867 C 229.87288 887.63558 228.12984 887.05978 226.40094 886.44119 C 224.67203 885.82247 222.95935 885.1618 221.2629 884.45919 C 219.56644 883.75656 217.88823 883.01266 216.2283 882.22756 C 214.56838 881.44247 212.9287 880.61709 211.30928 879.7515 C 209.68987 878.8859 208.09267 877.98117 206.51769 877.0371 C 204.94269 876.0931 203.3918 875.111 201.86502 874.0908 C 200.33824 873.0706 198.83742 872.0136 197.36255 870.91976 C 195.88765 869.8259 194.4405 868.6966 193.02109 867.53176 C 191.60166 866.3668 190.21166 865.1678 188.85109 863.93466 C 187.49051 862.7015 186.16103 861.4357 184.86261 860.1373 C 183.5642 858.8389 182.2984 857.5094 181.06526 856.14889 C 179.83213 854.7883 178.63312 853.3983 177.46822 851.9788 C 176.30332 850.55947 175.17394 849.11227 174.0801 847.6373 C 172.98624 846.1625 171.92923 844.6617 170.90908 843.1349 C 169.88892 841.6081 168.90683 840.0572 167.96282 838.4822 C 167.0188 836.9072 166.11399 835.31008 165.2484 833.6907 C 164.3828 832.0712 163.55745 830.4315 162.77237 828.7716 C 161.98728 827.11166 161.24338 825.4335 160.54068 823.737 C 159.83798 822.0405 159.17733 820.3279 158.55872 818.59909 C 157.94011 816.8702 157.3643 815.12716 156.83129 813.37 C 156.29825 811.61288 155.80864 809.8436 155.36248 808.0623 C 154.91629 806.2811 154.5141 804.49008 154.15587 802.6891 C 153.79764 800.8881 153.48381 799.0795 153.21439 797.2632 C 152.94496 795.44686 152.72025 793.62496 152.54027 791.7976 C 152.36029 789.97018 152.22525 788.13949 152.13515 786.3054 C 152.04505 784.4713 151.99999 782.63619 152 780.8 L 152 345.2 C 151.99999 343.36378 152.04505 341.52867 152.13515 339.69465 C 152.22525 337.8606 152.36029 336.02989 152.54027 334.2025 C 152.72025 332.3751 152.94496 330.55323 153.21439 328.73686 C 153.48381 326.9205 153.79764 325.11186 154.15587 323.31089 C 154.5141 321.50993 154.91629 319.71885 155.36248 317.93763 C 155.80864 316.1564 156.29825 314.38725 156.83129 312.63008 C 157.3643 310.8729 157.94011 309.12986 158.55872 307.40095 C 159.17733 305.67204 159.83798 303.95936 160.54068 302.2629 C 161.24338 300.56645 161.98728 298.88825 162.77237 297.2283 C 163.55747 295.56837 164.38282 293.92869 165.24842 292.3093 C 166.114 290.68989 167.0188 289.09266 167.96282 287.51765 C 168.90683 285.94264 169.88893 284.39176 170.90909 282.865 C 171.92925 281.3382 172.98625 279.83738 174.0801 278.3625 C 175.17395 276.88764 176.30333 275.4405 177.46823 274.02107 C 178.63312 272.60163 179.83213 271.2116 181.06526 269.85105 C 182.2984 268.49049 183.5642 267.161 184.86261 265.8626 C 186.16103 264.56419 187.49051 263.2984 188.85109 262.06529 C 190.21164 260.83213 191.60164 259.63313 193.02108 258.46824 C 194.44049 257.3033 195.88765 256.17396 197.36254 255.08011 C 198.8374 253.98625 200.33823 252.92925 201.865 251.90909 C 203.39179 250.88893 204.94268 249.90685 206.51767 248.96283 C 208.09267 248.01882 209.68987 247.11402 211.30928 246.24843 C 212.9287 245.38283 214.56838 244.55748 216.2283 243.77239 C 217.88823 242.98729 219.56644 242.2434 221.2629 241.5407 C 222.95935 240.83802 224.67203 240.17736 226.40094 239.55875 C 228.12984 238.94014 229.87288 238.36432 231.63005 237.8313 C 233.3872 237.29827 235.1564 236.80867 236.9376 236.3625 C 238.71881 235.91632 240.5099 235.51412 242.31085 235.15589 C 244.11182 234.79766 245.92049 234.48381 247.73685 234.21439 C 249.5532 233.94496 251.37509 233.72028 253.2025 233.5403 C 255.02988 233.3603 256.8606 233.22525 258.6946 233.13515 C 260.52864 233.04505 262.36378 233 264.2 233 Z " fill="#cdeb8b" fill-opacity=".902"/>
<path transform="matrix(.7188498,0,0,.7188498,.3594249,.3594249)" stroke-width="1" stroke-linecap="butt" stroke-miterlimit="4" stroke-linejoin="miter" fill="none" stroke="#36393d" stroke-opacity=".902" d="M 264.2 233 L 699.8 233 C 701.6362 233 703.4713 233.04505 705.30538 233.13515 C 707.1394 233.22525 708.9701 233.3603 710.7975 233.5403 C 712.6249 233.72026 714.4467 233.94496 716.263 234.21439 C 718.07937 234.48381 719.88809 234.79764 721.689 235.15587 C 723.49 235.5141 725.28109 235.9163 727.06228 236.36249 C 728.84347 236.80864 730.6127 237.29825 732.3699 237.83129 C 734.127 238.3643 735.87 238.94011 737.5989 239.55872 C 739.3278 240.17733 741.04049 240.83798 742.73696 241.54067 C 744.4334 242.24337 746.1116 242.98726 747.7715 243.77236 C 749.43148 244.55747 751.0711 245.38282 752.69058 246.2484 C 754.31 247.11399 755.90719 248.0188 757.4821 248.96282 C 759.0571 249.90683 760.60806 250.88892 762.1348 251.90908 C 763.6616 252.92923 765.1624 253.98624 766.63729 255.08008 C 768.1122 256.17393 769.5593 257.30329 770.9788 258.4682 C 772.3982 259.6331 773.7882 260.83213 775.1488 262.06526 C 776.50936 263.29838 777.83889 264.56416 779.1373 265.86259 C 780.4357 267.16099 781.70156 268.49046 782.93466 269.851 C 784.16787 271.21159 785.3669 272.6016 786.53176 274.02104 C 787.6966 275.44047 788.826 276.8876 789.9198 278.3625 C 791.0136 279.83738 792.0706 281.3382 793.09078 282.865 C 794.11099 284.39176 795.093 285.94264 796.03707 287.51765 C 796.9811 289.09266 797.88589 290.68989 798.7515 292.3093 C 799.61709 293.92869 800.4424 295.56837 801.2275 297.2283 C 802.0126 298.88825 802.7565 300.56645 803.45919 302.2629 C 804.16189 303.95936 804.8225 305.67204 805.44119 307.40095 C 806.05978 309.12986 806.6356 310.8729 807.16867 312.63008 C 807.70169 314.38725 808.1912 316.1564 808.6374 317.93763 C 809.0836 319.71885 809.48587 321.50993 809.84408 323.31089 C 810.2023 325.11186 810.51608 326.9205 810.7855 328.73686 C 811.055 330.55323 811.2797 332.3751 811.4597 334.20249 C 811.6397 336.02989 811.7747 337.8606 811.8648 339.69465 C 811.95498 341.52867 812 343.36378 812 345.2 L 812 780.8 C 812 782.63619 811.95498 784.4713 811.86489 786.3054 C 811.7747 788.1394 811.63967 789.9701 811.45968 791.79757 C 811.27969 793.6249 811.055 795.4468 810.7855 797.2631 C 810.51608 799.07949 810.2023 800.8881 809.84408 802.689 C 809.48587 804.49 809.0836 806.28109 808.63748 808.06228 C 808.1912 809.8435 807.70169 811.61276 807.16867 813.3699 C 806.6356 815.127 806.05978 816.87008 805.44119 818.59896 C 804.8225 820.3278 804.16189 822.04049 803.45919 823.73696 C 802.7565 825.4334 802.0126 827.1116 801.2275 828.77157 C 800.4424 830.4315 799.61709 832.07119 798.7515 833.6906 C 797.8859 835.31008 796.98117 836.9072 796.0371 838.4822 C 795.0931 840.0572 794.11099 841.60806 793.0908 843.1348 C 792.0706 844.6616 791.0136 846.1624 789.9198 847.6373 C 788.826 849.11227 787.6966 850.5594 786.5317 851.9788 C 785.3668 853.3983 784.16787 854.78829 782.93466 856.1488 C 781.70156 857.5094 780.4357 858.8389 779.1373 860.1373 C 777.83889 861.4357 776.50936 862.7015 775.14877 863.93466 C 773.7882 865.1678 772.3982 866.3668 770.9788 867.53176 C 769.5593 868.6966 768.1122 869.8259 766.6373 870.91976 C 765.1625 872.0136 763.6617 873.0706 762.1349 874.09078 C 760.6081 875.11099 759.0572 876.093 757.48226 877.03707 C 755.9073 877.9811 754.3101 878.8859 752.6907 879.7515 C 751.0712 880.61709 749.4315 881.44247 747.77157 882.22756 C 746.11166 883.01266 744.4335 883.75656 742.737 884.45919 C 741.0405 885.1618 739.3278 885.82247 737.59896 886.44119 C 735.87 887.05978 734.127 887.63558 732.3699 888.16867 C 730.61276 888.70169 728.8435 889.1913 727.06228 889.6374 C 725.28109 890.0836 723.49008 890.48587 721.6891 890.84408 C 719.8881 891.2023 718.07949 891.5161 716.2631 891.7855 C 714.4468 892.055 712.62496 892.2798 710.7975 892.4598 C 708.9701 892.6397 707.1394 892.7747 705.30538 892.8648 C 703.4713 892.9549 701.6362 892.99996 699.8 893 L 264.2 893 C 262.36378 892.99996 260.52864 892.9549 258.6946 892.86489 C 256.8606 892.7748 255.02988 892.6398 253.2025 892.45986 C 251.37509 892.2798 249.5532 892.05508 247.73685 891.7856 C 245.92049 891.5161 244.11182 891.20236 242.31085 890.8441 C 240.5099 890.48587 238.71881 890.0836 236.9376 889.63748 C 235.1564 889.1913 233.3872 888.70169 231.63005 888.16867 C 229.87288 887.63558 228.12984 887.05978 226.40094 886.44119 C 224.67203 885.82247 222.95935 885.1618 221.2629 884.45919 C 219.56644 883.75656 217.88823 883.01266 216.2283 882.22756 C 214.56838 881.44247 212.9287 880.61709 211.30928 879.7515 C 209.68987 878.8859 208.09267 877.98117 206.51769 877.0371 C 204.94269 876.0931 203.3918 875.111 201.86502 874.0908 C 200.33824 873.0706 198.83742 872.0136 197.36255 870.91976 C 195.88765 869.8259 194.4405 868.6966 193.02109 867.53176 C 191.60166 866.3668 190.21166 865.1678 188.85109 863.93466 C 187.49051 862.7015 186.16103 861.4357 184.86261 860.1373 C 183.5642 858.8389 182.2984 857.5094 181.06526 856.14889 C 179.83213 854.7883 178.63312 853.3983 177.46822 851.9788 C 176.30332 850.55947 175.17394 849.11227 174.0801 847.6373 C 172.98624 846.1625 171.92923 844.6617 170.90908 843.1349 C 169.88892 841.6081 168.90683 840.0572 167.96282 838.4822 C 167.0188 836.9072 166.11399 835.31008 165.2484 833.6907 C 164.3828 832.0712 163.55745 830.4315 162.77237 828.7716 C 161.98728 827.11166 161.24338 825.4335 160.54068 823.737 C 159.83798 822.0405 159.17733 820.3279 158.55872 818.59909 C 157.94011 816.8702 157.3643 815.12716 156.83129 813.37 C 156.29825 811.61288 155.80864 809.8436 155.36248 808.0623 C 154.91629 806.2811 154.5141 804.49008 154.15587 802.6891 C 153.79764 800.8881 153.48381 799.0795 153.21439 797.2632 C 152.94496 795.44686 152.72025 793.62496 152.54027 791.7976 C 152.36029 789.97018 152.22525 788.13949 152.13515 786.3054 C 152.04505 784.4713 151.99999 782.63619 152 780.8 L 152 345.2 C 151.99999 343.36378 152.04505 341.52867 152.13515 339.69465 C 152.22525 337.8606 152.36029 336.02989 152.54027 334.2025 C 152.72025 332.3751 152.94496 330.55323 153.21439 328.73686 C 153.48381 326.9205 153.79764 325.11186 154.15587 323.31089 C 154.5141 321.50993 154.91629 319.71885 155.36248 317.93763 C 155.80864 316.1564 156.29825 314.38725 156.83129 312.63008 C 157.3643 310.8729 157.94011 309.12986 158.55872 307.40095 C 159.17733 305.67204 159.83798 303.95936 160.54068 302.2629 C 161.24338 300.56645 161.98728 298.88825 162.77237 297.2283 C 163.55747 295.56837 164.38282 293.92869 165.24842 292.3093 C 166.114 290.68989 167.0188 289.09266 167.96282 287.51765 C 168.90683 285.94264 169.88893 284.39176 170.90909 282.865 C 171.92925 281.3382 172.98625 279.83738 174.0801 278.3625 C 175.17395 276.88764 176.30333 275.4405 177.46823 274.02107 C 178.63312 272.60163 179.83213 271.2116 181.06526 269.85105 C 182.2984 268.49049 183.5642 267.161 184.86261 265.8626 C 186.16103 264.56419 187.49051 263.2984 188.85109 262.06529 C 190.21164 260.83213 191.60164 259.63313 193.02108 258.46824 C 194.44049 257.3033 195.88765 256.17396 197.36254 255.08011 C 198.8374 253.98625 200.33823 252.92925 201.865 251.90909 C 203.39179 250.88893 204.94268 249.90685 206.51767 248.96283 C 208.09267 248.01882 209.68987 247.11402 211.30928 246.24843 C 212.9287 245.38283 214.56838 244.55748 216.2283 243.77239 C 217.88823 242.98729 219.56644 242.2434 221.2629 241.5407 C 222.95935 240.83802 224.67203 240.17736 226.40094 239.55875 C 228.12984 238.94014 229.87288 238.36432 231.63005 237.8313 C 233.3872 237.29827 235.1564 236.80867 236.9376 236.3625 C 238.71881 235.91632 240.5099 235.51412 242.31085 235.15589 C 244.11182 234.79766 245.92049 234.48381 247.73685 234.21439 C 249.5532 233.94496 251.37509 233.72028 253.2025 233.5403 C 255.02988 233.3603 256.8606 233.22525 258.6946 233.13515 C 260.52864 233.04505 262.36378 233 264.2 233 Z "/>
<symbol id="font_1_5b">
<path d="M 0 0 L .18701172 .26708985 L .0078125 .5185547 L .17529297 .5185547 L .26708985 .37597657 L .36376954 .5185547 L .52490237 .5185547 L .3491211 .27294923 L .5410156 0 L .3725586 0 L .26708985 .16064453 L .16064453 0 L 0 0 Z "/>
</symbol>
<use xlink:href="#font_1_5b" transform="matrix(57.50798,0,0,-57.50798,362.63728,758.38656)"/>
<symbol id="font_1_57">
<path d="M .2944336 .53027346 L .2944336 .42089845 L .2006836 .42089845 L .2006836 .21191406 C .2006836 .16959636 .20149739 .14485677 .203125 .13769531 C .20507813 .13085938 .20914714 .12516277 .21533203 .12060547 C .22184246 .11604818 .22965496 .11376953 .23876953 .11376953 C .25146485 .11376953 .26985679 .11816406 .2939453 .12695313 L .30566407 .020507813 C .27376304 .0068359377 .2376302 0 .19726563 0 C .17252605 0 .15022786 .0040690104 .1303711 .012207031 C .11051432 .020670573 .09586588 .03141276 .08642578 .044433595 C .077311199 .05777995 .07096354 .075683597 .06738281 .09814453 C .064453128 .114095058 .06298828 .14632161 .06298828 .19482422 L .06298828 .42089845 L 0 .42089845 L 0 .53027346 L .06298828 .53027346 L .06298828 .6333008 L .2006836 .7133789 L .2006836 .53027346 L .2944336 .53027346 Z "/>
</symbol>
<use xlink:href="#font_1_57" transform="matrix(47.91853,0,0,-47.91853,395.0032,771.16848)"/>
<path transform="matrix(.7188498,0,0,.7188498,0,0)" stroke-width="10" stroke-linecap="butt" stroke-miterlimit="10" stroke-linejoin="miter" fill="none" stroke="#000000" d="M 482 1083 L 482 916.18 "/>
<path transform="matrix(.7188498,0,0,.7188498,0,0)" d="M 482 904.18 L 490 920.18 L 482 916.18 L 474 920.18 L 482 904.18 Z "/>
<path transform="matrix(.7188498,0,0,.7188498,0,0)" stroke-width="10" stroke-linecap="butt" stroke-miterlimit="10" stroke-linejoin="miter" fill="none" stroke="#000000" d="M 482 904.18 L 490 920.18 L 482 916.18 L 474 920.18 L 482 904.18 Z "/>
<path transform="matrix(.7188498,0,0,.7188498,0,0)" stroke-width="10" stroke-linecap="butt" stroke-miterlimit="10" stroke-linejoin="miter" fill="none" stroke="#000000" d="M 482 233 L 482 46.18 "/>
<path transform="matrix(.7188498,0,0,.7188498,0,0)" d="M 482 34.18 L 490 50.18 L 482 46.18 L 474 50.18 L 482 34.18 Z "/>
<path transform="matrix(.7188498,0,0,.7188498,0,0)" stroke-width="10" stroke-linecap="butt" stroke-miterlimit="10" stroke-linejoin="miter" fill="none" stroke="#000000" d="M 482 34.18 L 490 50.18 L 482 46.18 L 474 50.18 L 482 34.18 Z "/>
<symbol id="font_1_4b">
<path d="M .13720703 .7158203 L .13720703 .45263673 C .18147786 .50439456 .234375 .53027346 .29589845 .53027346 C .32747398 .53027346 .35595704 .52441409 .38134767 .5126953 C .40673829 .50097659 .42578126 .4860026 .43847657 .46777345 C .4514974 .44954429 .46028648 .42936198 .46484376 .40722657 C .46972657 .38509117 .47216798 .3507487 .47216798 .30419923 L .47216798 0 L .33496095 0 L .33496095 .27392579 C .33496095 .32828776 .33235679 .36279298 .32714845 .3774414 C .3219401 .39208985 .31266276 .40364585 .2993164 .41210938 C .28629557 .42089845 .26985679 .42529298 .25 .42529298 C .22721355 .42529298 .20686849 .41975913 .18896485 .4086914 C .1710612 .3976237 .15787761 .38085938 .14941406 .35839845 C .14127605 .33626304 .13720703 .3033854 .13720703 .25976563 L .13720703 0 L 0 0 L 0 .7158203 L .13720703 .7158203 Z "/>
</symbol>
<use xlink:href="#font_1_4b" transform="matrix(57.50798,0,0,-57.50798,373.5885,59.66453)"/>
<use xlink:href="#font_1_57" transform="matrix(47.91853,0,0,-47.91853,405.33668,72.446529)"/>
<path transform="matrix(.7188498,0,0,.7188498,0,0)" stroke-width="10" stroke-linecap="butt" stroke-miterlimit="10" stroke-linejoin="miter" fill="none" stroke="#000000" d="M 812 563 L 922 563 C 928.6667 563 932 559.6667 932 553 L 932 153 C 932 146.33333 928.6667 143 922 143 L 499 143 "/>
<path transform="matrix(.7188498,0,0,.7188498,0,0)" stroke-width="10" stroke-linecap="butt" stroke-miterlimit="10" stroke-linejoin="miter" fill="none" stroke="#000000" d="M 502 143 C 488.66667 129.66667 475.33335 129.66667 462 143 "/>
<path transform="matrix(.7188498,0,0,.7188498,0,0)" stroke-width="10" stroke-linecap="butt" stroke-miterlimit="10" stroke-linejoin="miter" fill="none" stroke="#000000" d="M 128.82 563 L 22 563 C 15.333333 563 12 559.6667 12 553 L 12 153 C 12 146.33333 15.333333 143 22 143 L 465 143 "/>
<path transform="matrix(.7188498,0,0,.7188498,0,0)" d="M 140.82 563 L 124.82 571 L 128.82 563 L 124.82 555 L 140.82 563 Z "/>
<path transform="matrix(.7188498,0,0,.7188498,0,0)" stroke-width="10" stroke-linecap="butt" stroke-miterlimit="10" stroke-linejoin="miter" fill="none" stroke="#000000" d="M 140.82 563 L 124.82 571 L 128.82 563 L 124.82 555 L 140.82 563 Z "/>
<symbol id="font_1_35">
<path d="M 0 0 L 0 .7158203 L .30419923 .7158203 C .38069663 .7158203 .4361979 .7093099 .47070313 .69628909 C .5055339 .68359377 .5333659 .6608073 .5541992 .6279297 C .57503256 .59505209 .5854492 .5574544 .5854492 .5151367 C .5854492 .46142579 .56966146 .4169922 .53808596 .38183595 C .50651046 .34700523 .4593099 .32503257 .39648438 .31591798 C .42773438 .2976888 .45345054 .27766929 .4736328 .25585938 C .49414063 .23404949 .52164718 .1953125 .55615237 .13964844 L .6435547 0 L .47070313 0 L .36621095 .15576172 C .32910157 .21142578 .30371095 .24641927 .29003907 .2607422 C .2763672 .27539063 .2618815 .285319 .24658203 .29052735 C .23128255 .2960612 .20703125 .29882813 .17382813 .29882813 L .14453125 .29882813 L .14453125 0 L 0 0 M .14453125 .41308595 L .25146485 .41308595 C .32080079 .41308595 .36409507 .41601563 .38134767 .421875 C .39860026 .42773438 .41210938 .43782554 .421875 .45214845 C .43164063 .46647135 .43652345 .484375 .43652345 .5058594 C .43652345 .52994796 .43001304 .5493164 .4169922 .56396487 C .40429688 .5789388 .38623048 .5883789 .36279298 .59228518 C .35107423 .5939128 .31591798 .59472659 .25732423 .59472659 L .14453125 .59472659 L .14453125 .41308595 Z "/>
</symbol>
<symbol id="font_1_31">
<path d="M 0 0 L 0 .7158203 L .140625 .7158203 L .43359376 .23779297 L .43359376 .7158203 L .5678711 .7158203 L .5678711 0 L .42285157 0 L .13427735 .46679688 L .13427735 0 L 0 0 Z "/>
</symbol>
<use xlink:href="#font_1_35" transform="matrix(57.50798,0,0,-57.50798,283.12574,431.30989)"/>
<use xlink:href="#font_1_31" transform="matrix(57.50798,0,0,-57.50798,324.70265,431.30989)"/>
<use xlink:href="#font_1_31" transform="matrix(57.50798,0,0,-57.50798,366.22343,431.30989)"/>
</g>
</g>
</svg>
