<?xml version="1.0" encoding="UTF-8" standalone="no"?>
<!DOCTYPE svg PUBLIC "-//W3C//DTD SVG 1.1//EN" "http://www.w3.org/Graphics/SVG/1.1/DTD/svg11.dtd">
<svg xmlns="http://www.w3.org/2000/svg" xmlns:xlink="http://www.w3.org/1999/xlink" version="1.1" width="361.91999pt" height="215.04pt" viewBox="0 0 361.91999 215.04">
<g enable-background="new">
<clipPath id="cp0">
<path transform="matrix(.24,0,0,.24,0,0)" d="M 0 0 L 1508.3334 0 L 1508.3334 893.60507 L 0 893.60507 Z " fill-rule="evenodd"/>
</clipPath>
<g clip-path="url(#cp0)">
<path transform="matrix(.7196819,0,0,.7196819,.35984097,.35984097)" stroke-width="1" stroke-linecap="butt" stroke-miterlimit="10" stroke-linejoin="miter" fill="none" stroke="#000000" d="M 68.75 21.34 L 170.39 101.45 "/>
<path transform="matrix(.7196819,0,0,.7196819,.35984097,.35984097)" d="M 174.52 104.7 L 167.57 102.2 L 170.39 101.45 L 170.46 98.54 L 174.52 104.7 Z "/>
<path transform="matrix(.7196819,0,0,.7196819,.35984097,.35984097)" stroke-width="1" stroke-linecap="butt" stroke-miterlimit="10" stroke-linejoin="miter" fill="none" stroke="#000000" d="M 174.52 104.7 L 167.57 102.2 L 170.39 101.45 L 170.46 98.54 L 174.52 104.7 Z "/>
<path transform="matrix(.7196819,0,0,.7196819,.35984097,.35984097)" stroke-width="1" stroke-linecap="butt" stroke-miterlimit="10" stroke-linejoin="miter" fill="none" stroke="#000000" d="M 66.61 26.61 L 171.46 160.38 "/>
<path transform="matrix(.7196819,0,0,.7196819,.35984097,.35984097)" d="M 174.7 164.51 L 168.55 160.44 L 171.46 160.38 L 172.22 157.56 L 174.7 164.51 Z "/>
<path transform="matrix(.7196819,0,0,.7196819,.35984097,.35984097)" stroke-width="1" stroke-linecap="butt" stroke-miterlimit="10" stroke-linejoin="miter" fill="none" stroke="#000000" d="M 174.7 164.51 L 168.55 160.44 L 171.46 160.38 L 172.22 157.56 L 174.7 164.51 Z "/>
<path transform="matrix(.7196819,0,0,.7196819,.35984097,.35984097)" stroke-width="1" stroke-linecap="butt" stroke-miterlimit="10" stroke-linejoin="miter" fill="none" stroke="#000000" d="M 61.85 29.62 L 174.98 215.89 "/>
<path transform="matrix(.7196819,0,0,.7196819,.35984097,.35984097)" d="M 177.71 220.37 L 172.08 215.6 L 174.98 215.89 L 176.07 213.18 L 177.71 220.37 Z "/>
<path transform="matrix(.7196819,0,0,.7196819,.35984097,.35984097)" stroke-width="1" stroke-linecap="butt" stroke-miterlimit="10" stroke-linejoin="miter" fill="none" stroke="#000000" d="M 177.71 220.37 L 172.08 215.6 L 174.98 215.89 L 176.07 213.18 L 177.71 220.37 Z "/>
<path transform="matrix(.7196819,0,0,.7196819,.35984097,.35984097)" d="M 71 16 C 70.99999 16.984915 70.90392 17.960366 70.71178 18.926354 C 70.51962 19.892344 70.23509 20.830309 69.858188 21.74025 C 69.48127 22.65019 69.019229 23.514624 68.47204 24.33355 C 67.92485 25.152476 67.30303 25.91016 66.6066 26.6066 C 65.91016 27.303038 65.15247 27.92485 64.33355 28.47204 C 63.51462 29.01923 62.65019 29.48128 61.740247 29.85819 C 60.830308 30.235102 59.89234 30.51963 58.92635 30.711779 C 57.96036 30.903925 56.984914 30.999999 56 31 C 55.015089 30.999999 54.03963 30.903925 53.07364 30.711779 C 52.107648 30.51963 51.16968 30.235102 50.259744 29.85819 C 49.3498 29.48128 48.485368 29.01923 47.666444 28.47204 C 46.847517 27.92485 46.089834 27.303038 45.393396 26.6066 C 44.696958 25.91016 44.075139 25.152476 43.527948 24.33355 C 42.980764 23.514624 42.518716 22.65019 42.141805 21.74025 C 41.764894 20.830309 41.480367 19.892344 41.28822 18.926354 C 41.09607 17.960366 40.999998 16.984915 41 16 C 40.999998 15.015085 41.09607 14.039633 41.28822 13.073644 C 41.480367 12.107655 41.764894 11.169689 42.141805 10.2597479 C 42.518716 9.349806 42.980764 8.485372 43.52795 7.6664459 C 44.07514 6.8475196 44.696958 6.089837 45.393396 5.393398 C 46.089834 4.6969587 46.847517 4.0751445 47.666444 3.5279554 C 48.485368 2.9807664 49.3498 2.5187169 50.259744 2.1418069 C 51.16968 1.7648966 52.107648 1.4803679 53.07364 1.2882208 C 54.03963 1.0960736 55.015089 1 56 1 C 56.984914 1 57.96036 1.0960736 58.92635 1.2882208 C 59.89234 1.4803679 60.830308 1.7648966 61.740247 2.1418069 C 62.65019 2.5187169 63.51462 2.9807664 64.33355 3.5279554 C 65.15247 4.0751445 65.91016 4.6969587 66.6066 5.393398 C 67.30303 6.089837 67.92485 6.8475196 68.47204 7.6664459 C 69.019229 8.485373 69.48127 9.349807 69.858188 10.259748 C 70.23509 11.16969 70.51962 12.107656 70.71178 13.073645 C 70.90392 14.039634 70.99999 15.015085 71 16 Z " fill="#dae8fc"/>
<path transform="matrix(.7196819,0,0,.7196819,.35984097,.35984097)" stroke-width="1" stroke-linecap="butt" stroke-miterlimit="4" stroke-linejoin="miter" fill="none" stroke="#6c8ebf" d="M 71 16 C 70.99999 16.984915 70.90392 17.960366 70.71178 18.926354 C 70.51962 19.892344 70.23509 20.830309 69.858188 21.74025 C 69.48127 22.65019 69.019229 23.514624 68.47204 24.33355 C 67.92485 25.152476 67.30303 25.91016 66.6066 26.6066 C 65.91016 27.303038 65.15247 27.92485 64.33355 28.47204 C 63.51462 29.01923 62.65019 29.48128 61.740247 29.85819 C 60.830308 30.235102 59.89234 30.51963 58.92635 30.711779 C 57.96036 30.903925 56.984914 30.999999 56 31 C 55.015089 30.999999 54.03963 30.903925 53.07364 30.711779 C 52.107648 30.51963 51.16968 30.235102 50.259744 29.85819 C 49.3498 29.48128 48.485368 29.01923 47.666444 28.47204 C 46.847517 27.92485 46.089834 27.303038 45.393396 26.6066 C 44.696958 25.91016 44.075139 25.152476 43.527948 24.33355 C 42.980764 23.514624 42.518716 22.65019 42.141805 21.74025 C 41.764894 20.830309 41.480367 19.892344 41.28822 18.926354 C 41.09607 17.960366 40.999998 16.984915 41 16 C 40.999998 15.015085 41.09607 14.039633 41.28822 13.073644 C 41.480367 12.107655 41.764894 11.169689 42.141805 10.2597479 C 42.518716 9.349806 42.980764 8.485372 43.52795 7.6664459 C 44.07514 6.8475196 44.696958 6.089837 45.393396 5.393398 C 46.089834 4.6969587 46.847517 4.0751445 47.666444 3.5279554 C 48.485368 2.9807664 49.3498 2.5187169 50.259744 2.1418069 C 51.16968 1.7648966 52.107648 1.4803679 53.07364 1.2882208 C 54.03963 1.0960736 55.015089 1 56 1 C 56.984914 1 57.96036 1.0960736 58.92635 1.2882208 C 59.89234 1.4803679 60.830308 1.7648966 61.740247 2.1418069 C 62.65019 2.5187169 63.51462 2.9807664 64.33355 3.5279554 C 65.15247 4.0751445 65.91016 4.6969587 66.6066 5.393398 C 67.30303 6.089837 67.92485 6.8475196 68.47204 7.6664459 C 69.019229 8.485373 69.48127 9.349807 69.858188 10.259748 C 70.23509 11.16969 70.51962 12.107656 70.71178 13.073645 C 70.90392 14.039634 70.99999 15.015085 71 16 Z "/>
<path transform="matrix(.7196819,0,0,.7196819,.35984097,.35984097)" stroke-width="1" stroke-linecap="butt" stroke-miterlimit="10" stroke-linejoin="miter" fill="none" stroke="#000000" d="M 69.23 82.75 L 166.4 108.29 "/>
<path transform="matrix(.7196819,0,0,.7196819,.35984097,.35984097)" d="M 171.48 109.63 L 164.12 110.1 L 166.4 108.29 L 165.3 105.59 L 171.48 109.63 Z "/>
<path transform="matrix(.7196819,0,0,.7196819,.35984097,.35984097)" stroke-width="1" stroke-linecap="butt" stroke-miterlimit="10" stroke-linejoin="miter" fill="none" stroke="#000000" d="M 171.48 109.63 L 164.12 110.1 L 166.4 108.29 L 165.3 105.59 L 171.48 109.63 Z "/>
<path transform="matrix(.7196819,0,0,.7196819,.35984097,.35984097)" stroke-width="1" stroke-linecap="butt" stroke-miterlimit="10" stroke-linejoin="miter" fill="none" stroke="#000000" d="M 66.61 86.61 L 168.53 167.37 "/>
<path transform="matrix(.7196819,0,0,.7196819,.35984097,.35984097)" d="M 172.64 170.63 L 165.71 168.11 L 168.53 167.37 L 168.61 164.45 L 172.64 170.63 Z "/>
<path transform="matrix(.7196819,0,0,.7196819,.35984097,.35984097)" stroke-width="1" stroke-linecap="butt" stroke-miterlimit="10" stroke-linejoin="miter" fill="none" stroke="#000000" d="M 172.64 170.63 L 165.71 168.11 L 168.53 167.37 L 168.61 164.45 L 172.64 170.63 Z "/>
<path transform="matrix(.7196819,0,0,.7196819,.35984097,.35984097)" stroke-width="1" stroke-linecap="butt" stroke-miterlimit="10" stroke-linejoin="miter" fill="none" stroke="#000000" d="M 63.05 89.44 L 171.34 220.48 "/>
<path transform="matrix(.7196819,0,0,.7196819,.35984097,.35984097)" d="M 174.68 224.53 L 168.42 220.62 L 171.34 220.48 L 172.02 217.65 L 174.68 224.53 Z "/>
<path transform="matrix(.7196819,0,0,.7196819,.35984097,.35984097)" stroke-width="1" stroke-linecap="butt" stroke-miterlimit="10" stroke-linejoin="miter" fill="none" stroke="#000000" d="M 174.68 224.53 L 168.42 220.62 L 171.34 220.48 L 172.02 217.65 L 174.68 224.53 Z "/>
<path transform="matrix(.7196819,0,0,.7196819,.35984097,.35984097)" d="M 71 76 C 70.99999 76.98492 70.90392 77.960369 70.71178 78.926349 C 70.51962 79.892337 70.23509 80.8303 69.858188 81.74024 C 69.48127 82.65018 69.019229 83.51461 68.47204 84.333538 C 67.92485 85.15246 67.30303 85.91014 66.6066 86.60659 C 65.91016 87.303028 65.15247 87.92484 64.33355 88.47203 C 63.51462 89.01922 62.65019 89.48126 61.740247 89.85818 C 60.830308 90.235088 59.89234 90.519618 58.92635 90.71177 C 57.96036 90.903919 56.984914 90.99999 56 91 C 55.015089 90.99999 54.03963 90.903919 53.07364 90.71177 C 52.107648 90.519618 51.16968 90.235088 50.259744 89.85818 C 49.3498 89.48126 48.485368 89.01922 47.666444 88.47203 C 46.847517 87.92484 46.089834 87.303028 45.393396 86.60659 C 44.696958 85.91014 44.075139 85.15246 43.527948 84.333538 C 42.980764 83.51461 42.518716 82.65018 42.141805 81.74024 C 41.764894 80.8303 41.480367 79.892337 41.28822 78.926349 C 41.09607 77.960369 40.999998 76.98492 41 76 C 40.999998 75.01508 41.09607 74.039638 41.28822 73.07364 C 41.480367 72.10766 41.764894 71.16969 42.141805 70.25974 C 42.518716 69.3498 42.980764 68.48537 43.52795 67.66644 C 44.07514 66.84751 44.696958 66.08983 45.393396 65.393398 C 46.089834 64.69695 46.847517 64.075138 47.666444 63.52795 C 48.485368 62.98076 49.3498 62.51871 50.259744 62.141805 C 51.16968 61.764898 52.107648 61.48037 53.07364 61.28822 C 54.03963 61.096075 55.015089 61 56 61 C 56.984914 61 57.96036 61.096075 58.92635 61.28822 C 59.89234 61.48037 60.830308 61.764898 61.740247 62.141809 C 62.65019 62.518716 63.51462 62.980764 64.33355 63.527956 C 65.15247 64.07514 65.91016 64.69695 66.6066 65.393398 C 67.30303 66.08983 67.92485 66.84751 68.47204 67.666439 C 69.019229 68.48537 69.48127 69.3498 69.858188 70.25974 C 70.23509 71.16969 70.51962 72.10766 70.71178 73.07364 C 70.90392 74.039638 70.99999 75.01508 71 76 Z " fill="#dae8fc"/>
<path transform="matrix(.7196819,0,0,.7196819,.35984097,.35984097)" stroke-width="1" stroke-linecap="butt" stroke-miterlimit="4" stroke-linejoin="miter" fill="none" stroke="#6c8ebf" d="M 71 76 C 70.99999 76.98492 70.90392 77.960369 70.71178 78.926349 C 70.51962 79.892337 70.23509 80.8303 69.858188 81.74024 C 69.48127 82.65018 69.019229 83.51461 68.47204 84.333538 C 67.92485 85.15246 67.30303 85.91014 66.6066 86.60659 C 65.91016 87.303028 65.15247 87.92484 64.33355 88.47203 C 63.51462 89.01922 62.65019 89.48126 61.740247 89.85818 C 60.830308 90.235088 59.89234 90.519618 58.92635 90.71177 C 57.96036 90.903919 56.984914 90.99999 56 91 C 55.015089 90.99999 54.03963 90.903919 53.07364 90.71177 C 52.107648 90.519618 51.16968 90.235088 50.259744 89.85818 C 49.3498 89.48126 48.485368 89.01922 47.666444 88.47203 C 46.847517 87.92484 46.089834 87.303028 45.393396 86.60659 C 44.696958 85.91014 44.075139 85.15246 43.527948 84.333538 C 42.980764 83.51461 42.518716 82.65018 42.141805 81.74024 C 41.764894 80.8303 41.480367 79.892337 41.28822 78.926349 C 41.09607 77.960369 40.999998 76.98492 41 76 C 40.999998 75.01508 41.09607 74.039638 41.28822 73.07364 C 41.480367 72.10766 41.764894 71.16969 42.141805 70.25974 C 42.518716 69.3498 42.980764 68.48537 43.52795 67.66644 C 44.07514 66.84751 44.696958 66.08983 45.393396 65.393398 C 46.089834 64.69695 46.847517 64.075138 47.666444 63.52795 C 48.485368 62.98076 49.3498 62.51871 50.259744 62.141805 C 51.16968 61.764898 52.107648 61.48037 53.07364 61.28822 C 54.03963 61.096075 55.015089 61 56 61 C 56.984914 61 57.96036 61.096075 58.92635 61.28822 C 59.89234 61.48037 60.830308 61.764898 61.740247 62.141809 C 62.65019 62.518716 63.51462 62.980764 64.33355 63.527956 C 65.15247 64.07514 65.91016 64.69695 66.6066 65.393398 C 67.30303 66.08983 67.92485 66.84751 68.47204 67.666439 C 69.019229 68.48537 69.48127 69.3498 69.858188 70.25974 C 70.23509 71.16969 70.51962 72.10766 70.71178 73.07364 C 70.90392 74.039638 70.99999 75.01508 71 76 Z "/>
<path transform="matrix(.7196819,0,0,.7196819,.35984097,.35984097)" stroke-width="1" stroke-linecap="butt" stroke-miterlimit="10" stroke-linejoin="miter" fill="none" stroke="#000000" d="M 71 136 L 164.76 117.25 "/>
<path transform="matrix(.7196819,0,0,.7196819,.35984097,.35984097)" d="M 169.9 116.22 L 163.5 119.88 L 164.76 117.25 L 162.58 115.3 L 169.9 116.22 Z "/>
<path transform="matrix(.7196819,0,0,.7196819,.35984097,.35984097)" stroke-width="1" stroke-linecap="butt" stroke-miterlimit="10" stroke-linejoin="miter" fill="none" stroke="#000000" d="M 169.9 116.22 L 163.5 119.88 L 164.76 117.25 L 162.58 115.3 L 169.9 116.22 Z "/>
<path transform="matrix(.7196819,0,0,.7196819,.35984097,.35984097)" stroke-width="1" stroke-linecap="butt" stroke-miterlimit="10" stroke-linejoin="miter" fill="none" stroke="#000000" d="M 69.71 139.42 L 165.01 173.84 "/>
<path transform="matrix(.7196819,0,0,.7196819,.35984097,.35984097)" d="M 169.95 175.62 L 162.57 175.44 L 165.01 173.84 L 164.16 171.05 L 169.95 175.62 Z "/>
<path transform="matrix(.7196819,0,0,.7196819,.35984097,.35984097)" stroke-width="1" stroke-linecap="butt" stroke-miterlimit="10" stroke-linejoin="miter" fill="none" stroke="#000000" d="M 169.95 175.62 L 162.57 175.44 L 165.01 173.84 L 164.16 171.05 L 169.95 175.62 Z "/>
<path transform="matrix(.7196819,0,0,.7196819,.35984097,.35984097)" stroke-width="1" stroke-linecap="butt" stroke-miterlimit="10" stroke-linejoin="miter" fill="none" stroke="#000000" d="M 66.61 146.61 L 166.05 226.99 "/>
<path transform="matrix(.7196819,0,0,.7196819,.35984097,.35984097)" d="M 170.13 230.29 L 163.22 227.7 L 166.05 226.99 L 166.15 224.07 L 170.13 230.29 Z "/>
<path transform="matrix(.7196819,0,0,.7196819,.35984097,.35984097)" stroke-width="1" stroke-linecap="butt" stroke-miterlimit="10" stroke-linejoin="miter" fill="none" stroke="#000000" d="M 170.13 230.29 L 163.22 227.7 L 166.05 226.99 L 166.15 224.07 L 170.13 230.29 Z "/>
<path transform="matrix(.7196819,0,0,.7196819,.35984097,.35984097)" d="M 71 136 C 70.99999 136.98491 70.90392 137.96036 70.71178 138.92635 C 70.51962 139.89234 70.23509 140.83029 69.858188 141.74024 C 69.48127 142.65018 69.019229 143.5146 68.47204 144.33353 C 67.92485 145.15247 67.30303 145.91016 66.6066 146.6066 C 65.91016 147.30304 65.15247 147.92485 64.33355 148.47205 C 63.51462 149.01924 62.65019 149.48128 61.740247 149.85819 C 60.830308 150.23509 59.89234 150.51963 58.92635 150.71176 C 57.96036 150.90392 56.984914 151 56 151 C 55.015089 151 54.03963 150.90392 53.07364 150.71176 C 52.107648 150.51963 51.16968 150.23509 50.259744 149.85819 C 49.3498 149.48128 48.485368 149.01924 47.666444 148.47205 C 46.847517 147.92485 46.089834 147.30304 45.393396 146.6066 C 44.696958 145.91016 44.075139 145.15247 43.527948 144.33353 C 42.980764 143.5146 42.518716 142.65018 42.141805 141.74024 C 41.764894 140.83029 41.480367 139.89234 41.28822 138.92635 C 41.09607 137.96036 40.999998 136.98491 41 136 C 40.999998 135.01509 41.09607 134.03963 41.28822 133.07364 C 41.480367 132.10764 41.764894 131.16967 42.141805 130.25974 C 42.518716 129.3498 42.980764 128.48535 43.52795 127.666439 C 44.07514 126.84751 44.696958 126.08983 45.393396 125.393398 C 46.089834 124.69695 46.847517 124.075138 47.666444 123.52795 C 48.485368 122.98076 49.3498 122.51871 50.259744 122.1418 C 51.16968 121.7649 52.107648 121.48037 53.07364 121.28822 C 54.03963 121.09608 55.015089 121 56 121 C 56.984914 121 57.96036 121.09607 58.92635 121.288219 C 59.89234 121.48037 60.830308 121.7649 61.740247 122.1418 C 62.65019 122.51871 63.51462 122.98076 64.33355 123.527957 C 65.15247 124.07514 65.91016 124.69695 66.6066 125.393398 C 67.30303 126.08983 67.92485 126.84751 68.47204 127.66643 C 69.019229 128.48535 69.48127 129.3498 69.858188 130.25974 C 70.23509 131.16967 70.51962 132.10764 70.71178 133.07364 C 70.90392 134.03963 70.99999 135.01509 71 136 Z " fill="#dae8fc"/>
<path transform="matrix(.7196819,0,0,.7196819,.35984097,.35984097)" stroke-width="1" stroke-linecap="butt" stroke-miterlimit="4" stroke-linejoin="miter" fill="none" stroke="#6c8ebf" d="M 71 136 C 70.99999 136.98491 70.90392 137.96036 70.71178 138.92635 C 70.51962 139.89234 70.23509 140.83029 69.858188 141.74024 C 69.48127 142.65018 69.019229 143.5146 68.47204 144.33353 C 67.92485 145.15247 67.30303 145.91016 66.6066 146.6066 C 65.91016 147.30304 65.15247 147.92485 64.33355 148.47205 C 63.51462 149.01924 62.65019 149.48128 61.740247 149.85819 C 60.830308 150.23509 59.89234 150.51963 58.92635 150.71176 C 57.96036 150.90392 56.984914 151 56 151 C 55.015089 151 54.03963 150.90392 53.07364 150.71176 C 52.107648 150.51963 51.16968 150.23509 50.259744 149.85819 C 49.3498 149.48128 48.485368 149.01924 47.666444 148.47205 C 46.847517 147.92485 46.089834 147.30304 45.393396 146.6066 C 44.696958 145.91016 44.075139 145.15247 43.527948 144.33353 C 42.980764 143.5146 42.518716 142.65018 42.141805 141.74024 C 41.764894 140.83029 41.480367 139.89234 41.28822 138.92635 C 41.09607 137.96036 40.999998 136.98491 41 136 C 40.999998 135.01509 41.09607 134.03963 41.28822 133.07364 C 41.480367 132.10764 41.764894 131.16967 42.141805 130.25974 C 42.518716 129.3498 42.980764 128.48535 43.52795 127.666439 C 44.07514 126.84751 44.696958 126.08983 45.393396 125.393398 C 46.089834 124.69695 46.847517 124.075138 47.666444 123.52795 C 48.485368 122.98076 49.3498 122.51871 50.259744 122.1418 C 51.16968 121.7649 52.107648 121.48037 53.07364 121.28822 C 54.03963 121.09608 55.015089 121 56 121 C 56.984914 121 57.96036 121.09607 58.92635 121.288219 C 59.89234 121.48037 60.830308 121.7649 61.740247 122.1418 C 62.65019 122.51871 63.51462 122.98076 64.33355 123.527957 C 65.15247 124.07514 65.91016 124.69695 66.6066 125.393398 C 67.30303 126.08983 67.92485 126.84751 68.47204 127.66643 C 69.019229 128.48535 69.48127 129.3498 69.858188 130.25974 C 70.23509 131.16967 70.51962 132.10764 70.71178 133.07364 C 70.90392 134.03963 70.99999 135.01509 71 136 Z "/>
<path transform="matrix(.7196819,0,0,.7196819,.35984097,.35984097)" stroke-width="1" stroke-linecap="butt" stroke-miterlimit="10" stroke-linejoin="miter" fill="none" stroke="#000000" d="M 68.75 273.71 L 171.66 131.76 "/>
<path transform="matrix(.7196819,0,0,.7196819,.35984097,.35984097)" d="M 174.74 127.51 L 172.52 134.55 L 171.66 131.76 L 168.74 131.81 L 174.74 127.51 Z "/>
<path transform="matrix(.7196819,0,0,.7196819,.35984097,.35984097)" stroke-width="1" stroke-linecap="butt" stroke-miterlimit="10" stroke-linejoin="miter" fill="none" stroke="#000000" d="M 174.74 127.51 L 172.52 134.55 L 171.66 131.76 L 168.74 131.81 L 174.74 127.51 Z "/>
<path transform="matrix(.7196819,0,0,.7196819,.35984097,.35984097)" stroke-width="1" stroke-linecap="butt" stroke-miterlimit="10" stroke-linejoin="miter" fill="none" stroke="#000000" d="M 69.71 275.15 L 169.23 186.97 "/>
<path transform="matrix(.7196819,0,0,.7196819,.35984097,.35984097)" d="M 173.16 183.49 L 169.47 189.88 L 169.23 186.97 L 166.38 186.39 L 173.16 183.49 Z "/>
<path transform="matrix(.7196819,0,0,.7196819,.35984097,.35984097)" stroke-width="1" stroke-linecap="butt" stroke-miterlimit="10" stroke-linejoin="miter" fill="none" stroke="#000000" d="M 173.16 183.49 L 169.47 189.88 L 169.23 186.97 L 166.38 186.39 L 173.16 183.49 Z "/>
<path transform="matrix(.7196819,0,0,.7196819,.35984097,.35984097)" stroke-width="1" stroke-linecap="butt" stroke-miterlimit="10" stroke-linejoin="miter" fill="none" stroke="#000000" d="M 71 281 L 165.19 238.61 "/>
<path transform="matrix(.7196819,0,0,.7196819,.35984097,.35984097)" d="M 169.98 236.46 L 164.55 241.46 L 165.19 238.61 L 162.64 237.2 L 169.98 236.46 Z "/>
<path transform="matrix(.7196819,0,0,.7196819,.35984097,.35984097)" stroke-width="1" stroke-linecap="butt" stroke-miterlimit="10" stroke-linejoin="miter" fill="none" stroke="#000000" d="M 169.98 236.46 L 164.55 241.46 L 165.19 238.61 L 162.64 237.2 L 169.98 236.46 Z "/>
<path transform="matrix(.7196819,0,0,.7196819,.35984097,.35984097)" d="M 71 281 C 70.99999 281.9849 70.90392 282.96037 70.71178 283.92634 C 70.51962 284.8923 70.23509 285.8303 69.858188 286.74024 C 69.48127 287.65016 69.019229 288.51457 68.47204 289.3335 C 67.92485 290.15245 67.30303 290.91014 66.6066 291.60658 C 65.91016 292.30299 65.15247 292.9248 64.33355 293.47203 C 63.51462 294.01918 62.65019 294.48124 61.740247 294.85816 C 60.830308 295.23506 59.89234 295.51957 58.92635 295.71174 C 57.96036 295.9039 56.984914 295.99998 56 296 C 55.015089 295.99998 54.03963 295.9039 53.07364 295.71174 C 52.107648 295.51957 51.16968 295.23506 50.259744 294.85816 C 49.3498 294.48124 48.485368 294.01918 47.666444 293.47203 C 46.847517 292.9248 46.089834 292.30299 45.393396 291.60658 C 44.696958 290.91014 44.075139 290.15245 43.527948 289.3335 C 42.980764 288.51457 42.518716 287.65016 42.141805 286.74024 C 41.764894 285.8303 41.480367 284.8923 41.28822 283.92634 C 41.09607 282.96037 40.999998 281.9849 41 281 C 40.999998 280.01506 41.09607 279.03959 41.28822 278.07359 C 41.480367 277.1076 41.764894 276.16966 42.141805 275.2597 C 42.518716 274.34977 42.980764 273.48536 43.52795 272.6664 C 44.07514 271.84748 44.696958 271.0898 45.393396 270.39338 C 46.089834 269.69694 46.847517 269.0751 47.666444 268.5279 C 48.485368 267.98075 49.3498 267.5187 50.259744 267.14179 C 51.16968 266.76487 52.107648 266.48036 53.07364 266.2882 C 54.03963 266.09608 55.015089 266 56 266 C 56.984914 266 57.96036 266.09608 58.92635 266.2882 C 59.89234 266.48036 60.830308 266.76487 61.740247 267.14176 C 62.65019 267.51869 63.51462 267.9807 64.33355 268.5279 C 65.15247 269.0751 65.91016 269.69694 66.6066 270.39338 C 67.30303 271.0898 67.92485 271.84748 68.47204 272.6664 C 69.019229 273.48536 69.48127 274.3498 69.858188 275.25975 C 70.23509 276.16966 70.51962 277.1076 70.71178 278.0736 C 70.90392 279.03959 70.99999 280.01506 71 281 Z " fill="#dae8fc"/>
<path transform="matrix(.7196819,0,0,.7196819,.35984097,.35984097)" stroke-width="1" stroke-linecap="butt" stroke-miterlimit="4" stroke-linejoin="miter" fill="none" stroke="#6c8ebf" d="M 71 281 C 70.99999 281.9849 70.90392 282.96037 70.71178 283.92634 C 70.51962 284.8923 70.23509 285.8303 69.858188 286.74024 C 69.48127 287.65016 69.019229 288.51457 68.47204 289.3335 C 67.92485 290.15245 67.30303 290.91014 66.6066 291.60658 C 65.91016 292.30299 65.15247 292.9248 64.33355 293.47203 C 63.51462 294.01918 62.65019 294.48124 61.740247 294.85816 C 60.830308 295.23506 59.89234 295.51957 58.92635 295.71174 C 57.96036 295.9039 56.984914 295.99998 56 296 C 55.015089 295.99998 54.03963 295.9039 53.07364 295.71174 C 52.107648 295.51957 51.16968 295.23506 50.259744 294.85816 C 49.3498 294.48124 48.485368 294.01918 47.666444 293.47203 C 46.847517 292.9248 46.089834 292.30299 45.393396 291.60658 C 44.696958 290.91014 44.075139 290.15245 43.527948 289.3335 C 42.980764 288.51457 42.518716 287.65016 42.141805 286.74024 C 41.764894 285.8303 41.480367 284.8923 41.28822 283.92634 C 41.09607 282.96037 40.999998 281.9849 41 281 C 40.999998 280.01506 41.09607 279.03959 41.28822 278.07359 C 41.480367 277.1076 41.764894 276.16966 42.141805 275.2597 C 42.518716 274.34977 42.980764 273.48536 43.52795 272.6664 C 44.07514 271.84748 44.696958 271.0898 45.393396 270.39338 C 46.089834 269.69694 46.847517 269.0751 47.666444 268.5279 C 48.485368 267.98075 49.3498 267.5187 50.259744 267.14179 C 51.16968 266.76487 52.107648 266.48036 53.07364 266.2882 C 54.03963 266.09608 55.015089 266 56 266 C 56.984914 266 57.96036 266.09608 58.92635 266.2882 C 59.89234 266.48036 60.830308 266.76487 61.740247 267.14176 C 62.65019 267.51869 63.51462 267.9807 64.33355 268.5279 C 65.15247 269.0751 65.91016 269.69694 66.6066 270.39338 C 67.30303 271.0898 67.92485 271.84748 68.47204 272.6664 C 69.019229 273.48536 69.48127 274.3498 69.858188 275.25975 C 70.23509 276.16966 70.51962 277.1076 70.71178 278.0736 C 70.90392 279.03959 70.99999 280.01506 71 281 Z "/>
<path transform="matrix(.7196819,0,0,.7196819,.35984097,.35984097)" stroke-width="1" stroke-linecap="butt" stroke-miterlimit="10" stroke-linejoin="miter" fill="none" stroke="#000000" d="M 201 56 L 294.63 56 "/>
<path transform="matrix(.7196819,0,0,.7196819,.35984097,.35984097)" d="M 299.88 56 L 292.88 58.33 L 294.63 56 L 292.88 53.67 L 299.88 56 Z "/>
<path transform="matrix(.7196819,0,0,.7196819,.35984097,.35984097)" stroke-width="1" stroke-linecap="butt" stroke-miterlimit="10" stroke-linejoin="miter" fill="none" stroke="#000000" d="M 299.88 56 L 292.88 58.33 L 294.63 56 L 292.88 53.67 L 299.88 56 Z "/>
<path transform="matrix(.7196819,0,0,.7196819,.35984097,.35984097)" stroke-width="1" stroke-linecap="butt" stroke-miterlimit="10" stroke-linejoin="miter" fill="none" stroke="#000000" d="M 198.87 61.7 L 296.51 107.02 "/>
<path transform="matrix(.7196819,0,0,.7196819,.35984097,.35984097)" d="M 301.28 109.23 L 293.94 108.4 L 296.51 107.02 L 295.91 104.17 L 301.28 109.23 Z "/>
<path transform="matrix(.7196819,0,0,.7196819,.35984097,.35984097)" stroke-width="1" stroke-linecap="butt" stroke-miterlimit="10" stroke-linejoin="miter" fill="none" stroke="#000000" d="M 301.28 109.23 L 293.94 108.4 L 296.51 107.02 L 295.91 104.17 L 301.28 109.23 Z "/>
<path transform="matrix(.7196819,0,0,.7196819,.35984097,.35984097)" stroke-width="1" stroke-linecap="butt" stroke-miterlimit="10" stroke-linejoin="miter" fill="none" stroke="#000000" d="M 196.61 66.61 L 300.68 161.11 "/>
<path transform="matrix(.7196819,0,0,.7196819,.35984097,.35984097)" d="M 304.57 164.64 L 297.81 161.66 L 300.68 161.11 L 300.95 158.21 L 304.57 164.64 Z "/>
<path transform="matrix(.7196819,0,0,.7196819,.35984097,.35984097)" stroke-width="1" stroke-linecap="butt" stroke-miterlimit="10" stroke-linejoin="miter" fill="none" stroke="#000000" d="M 304.57 164.64 L 297.81 161.66 L 300.68 161.11 L 300.95 158.21 L 304.57 164.64 Z "/>
<path transform="matrix(.7196819,0,0,.7196819,.35984097,.35984097)" stroke-width="1" stroke-linecap="butt" stroke-miterlimit="10" stroke-linejoin="miter" fill="none" stroke="#000000" d="M 192 69.14 L 305.26 217.23 "/>
<path transform="matrix(.7196819,0,0,.7196819,.35984097,.35984097)" d="M 308.45 221.4 L 302.34 217.26 L 305.26 217.23 L 306.05 214.42 L 308.45 221.4 Z "/>
<path transform="matrix(.7196819,0,0,.7196819,.35984097,.35984097)" stroke-width="1" stroke-linecap="butt" stroke-miterlimit="10" stroke-linejoin="miter" fill="none" stroke="#000000" d="M 308.45 221.4 L 302.34 217.26 L 305.26 217.23 L 306.05 214.42 L 308.45 221.4 Z "/>
<path transform="matrix(.7196819,0,0,.7196819,.35984097,.35984097)" d="M 201 56 C 200.99999 56.984914 200.9039 57.96036 200.71175 58.92635 C 200.51963 59.89234 200.23509 60.830308 199.85819 61.740247 C 199.48128 62.65019 199.01923 63.51462 198.47203 64.33355 C 197.92484 65.15247 197.30303 65.91016 196.6066 66.6066 C 195.91016 67.30303 195.15247 67.92485 194.33354 68.47204 C 193.5146 69.019229 192.65016 69.48127 191.74024 69.858188 C 190.83029 70.23509 189.89234 70.51962 188.92635 70.71178 C 187.96036 70.90392 186.98491 70.99999 186 71 C 185.01508 70.99999 184.03961 70.90392 183.07363 70.71178 C 182.10764 70.51962 181.16967 70.23509 180.25972 69.858188 C 179.34978 69.48127 178.48535 69.019229 177.66643 68.47204 C 176.8475 67.92485 176.08982 67.30303 175.39339 66.6066 C 174.69695 65.91016 174.07514 65.15247 173.52794 64.33355 C 172.98075 63.51462 172.51869 62.65019 172.14179 61.740247 C 171.76488 60.830308 171.48036 59.89234 171.28821 58.92635 C 171.09607 57.96036 171 56.984914 171 56 C 171 55.015089 171.09607 54.03963 171.28821 53.07364 C 171.48036 52.107648 171.76488 51.16968 172.14179 50.259744 C 172.51869 49.3498 172.98075 48.485368 173.52794 47.666444 C 174.07514 46.847517 174.69695 46.089834 175.39339 45.393396 C 176.08982 44.696958 176.8475 44.07514 177.66645 43.52795 C 178.48537 42.980764 179.3498 42.518716 180.25974 42.141805 C 181.16967 41.764898 182.10764 41.48037 183.07363 41.28822 C 184.03961 41.096075 185.01508 41 186 41 C 186.98491 41 187.96036 41.096075 188.92635 41.28822 C 189.89234 41.48037 190.83029 41.764898 191.74024 42.141805 C 192.65016 42.518716 193.5146 42.980764 194.33353 43.52795 C 195.15247 44.07514 195.91016 44.696958 196.6066 45.393396 C 197.30303 46.089834 197.92484 46.847517 198.47203 47.666444 C 199.01923 48.485368 199.48128 49.3498 199.85819 50.259744 C 200.23509 51.16968 200.51963 52.107648 200.71176 53.07364 C 200.90392 54.03963 200.99999 55.015089 201 56 Z " fill="#d5e8d4" fill-opacity=".702"/>
<path transform="matrix(.7196819,0,0,.7196819,.35984097,.35984097)" stroke-width="1" stroke-linecap="butt" stroke-miterlimit="4" stroke-linejoin="miter" fill="none" stroke="#82b366" stroke-opacity=".702" d="M 201 56 C 200.99999 56.984914 200.9039 57.96036 200.71175 58.92635 C 200.51963 59.89234 200.23509 60.830308 199.85819 61.740247 C 199.48128 62.65019 199.01923 63.51462 198.47203 64.33355 C 197.92484 65.15247 197.30303 65.91016 196.6066 66.6066 C 195.91016 67.30303 195.15247 67.92485 194.33354 68.47204 C 193.5146 69.019229 192.65016 69.48127 191.74024 69.858188 C 190.83029 70.23509 189.89234 70.51962 188.92635 70.71178 C 187.96036 70.90392 186.98491 70.99999 186 71 C 185.01508 70.99999 184.03961 70.90392 183.07363 70.71178 C 182.10764 70.51962 181.16967 70.23509 180.25972 69.858188 C 179.34978 69.48127 178.48535 69.019229 177.66643 68.47204 C 176.8475 67.92485 176.08982 67.30303 175.39339 66.6066 C 174.69695 65.91016 174.07514 65.15247 173.52794 64.33355 C 172.98075 63.51462 172.51869 62.65019 172.14179 61.740247 C 171.76488 60.830308 171.48036 59.89234 171.28821 58.92635 C 171.09607 57.96036 171 56.984914 171 56 C 171 55.015089 171.09607 54.03963 171.28821 53.07364 C 171.48036 52.107648 171.76488 51.16968 172.14179 50.259744 C 172.51869 49.3498 172.98075 48.485368 173.52794 47.666444 C 174.07514 46.847517 174.69695 46.089834 175.39339 45.393396 C 176.08982 44.696958 176.8475 44.07514 177.66645 43.52795 C 178.48537 42.980764 179.3498 42.518716 180.25974 42.141805 C 181.16967 41.764898 182.10764 41.48037 183.07363 41.28822 C 184.03961 41.096075 185.01508 41 186 41 C 186.98491 41 187.96036 41.096075 188.92635 41.28822 C 189.89234 41.48037 190.83029 41.764898 191.74024 42.141805 C 192.65016 42.518716 193.5146 42.980764 194.33353 43.52795 C 195.15247 44.07514 195.91016 44.696958 196.6066 45.393396 C 197.30303 46.089834 197.92484 46.847517 198.47203 47.666444 C 199.01923 48.485368 199.48128 49.3498 199.85819 50.259744 C 200.23509 51.16968 200.51963 52.107648 200.71176 53.07364 C 200.90392 54.03963 200.99999 55.015089 201 56 Z "/>
<path transform="matrix(.7196819,0,0,.7196819,.35984097,.35984097)" stroke-width="1" stroke-linecap="butt" stroke-miterlimit="10" stroke-linejoin="miter" fill="none" stroke="#000000" d="M 71 16 L 165.13 48.32 "/>
<path transform="matrix(.7196819,0,0,.7196819,.35984097,.35984097)" d="M 170.09 50.03 L 162.71 49.96 L 165.13 48.32 L 164.23 45.55 L 170.09 50.03 Z "/>
<path transform="matrix(.7196819,0,0,.7196819,.35984097,.35984097)" stroke-width="1" stroke-linecap="butt" stroke-miterlimit="10" stroke-linejoin="miter" fill="none" stroke="#000000" d="M 170.09 50.03 L 162.71 49.96 L 165.13 48.32 L 164.23 45.55 L 170.09 50.03 Z "/>
<path transform="matrix(.7196819,0,0,.7196819,.35984097,.35984097)" stroke-width="1" stroke-linecap="butt" stroke-miterlimit="10" stroke-linejoin="miter" fill="none" stroke="#000000" d="M 71 76 L 164.76 57.25 "/>
<path transform="matrix(.7196819,0,0,.7196819,.35984097,.35984097)" d="M 169.9 56.22 L 163.5 59.88 L 164.76 57.25 L 162.58 55.3 L 169.9 56.22 Z "/>
<path transform="matrix(.7196819,0,0,.7196819,.35984097,.35984097)" stroke-width="1" stroke-linecap="butt" stroke-miterlimit="10" stroke-linejoin="miter" fill="none" stroke="#000000" d="M 169.9 56.22 L 163.5 59.88 L 164.76 57.25 L 162.58 55.3 L 169.9 56.22 Z "/>
<path transform="matrix(.7196819,0,0,.7196819,.35984097,.35984097)" stroke-width="1" stroke-linecap="butt" stroke-miterlimit="10" stroke-linejoin="miter" fill="none" stroke="#000000" d="M 68.75 129.91 L 168.18 65.29 "/>
<path transform="matrix(.7196819,0,0,.7196819,.35984097,.35984097)" d="M 172.58 62.43 L 167.98 68.2 L 168.18 65.29 L 165.44 64.29 L 172.58 62.43 Z "/>
<path transform="matrix(.7196819,0,0,.7196819,.35984097,.35984097)" stroke-width="1" stroke-linecap="butt" stroke-miterlimit="10" stroke-linejoin="miter" fill="none" stroke="#000000" d="M 172.58 62.43 L 167.98 68.2 L 168.18 65.29 L 165.44 64.29 L 172.58 62.43 Z "/>
<path transform="matrix(.7196819,0,0,.7196819,.35984097,.35984097)" stroke-width="1" stroke-linecap="butt" stroke-miterlimit="10" stroke-linejoin="miter" fill="none" stroke="#000000" d="M 66.61 270.39 L 172.39 72.22 "/>
<path transform="matrix(.7196819,0,0,.7196819,.35984097,.35984097)" d="M 174.87 67.59 L 173.63 74.87 L 172.39 72.22 L 169.51 72.67 L 174.87 67.59 Z "/>
<path transform="matrix(.7196819,0,0,.7196819,.35984097,.35984097)" stroke-width="1" stroke-linecap="butt" stroke-miterlimit="10" stroke-linejoin="miter" fill="none" stroke="#000000" d="M 174.87 67.59 L 173.63 74.87 L 172.39 72.22 L 169.51 72.67 L 174.87 67.59 Z "/>
<path transform="matrix(.7196819,0,0,.7196819,0,0)" d="M 54 246 L 54 244 L 56 244 L 56 246 M 54 236 L 54 234 L 56 234 L 56 236 M 54 226 L 54 224 L 56 224 L 56 226 M 54 216 L 54 214 L 56 214 L 56 216 M 54 206 L 54 204 L 56 204 L 56 206 M 54 196 L 54 194 L 56 194 L 56 196 M 54 186 L 54 184 L 56 184 L 56 186 "/>
<symbol id="font_1_5b">
<path d="M 0 0 L .18701172 .26708985 L .0078125 .5185547 L .17529297 .5185547 L .26708985 .37597657 L .36376954 .5185547 L .52490237 .5185547 L .3491211 .27294923 L .5410156 0 L .3725586 0 L .26708985 .16064453 L .16064453 0 L 0 0 Z "/>
</symbol>
<use xlink:href="#font_1_5b" transform="matrix(11.514911,0,0,-11.514911,6.083561,15.11332)"/>
<symbol id="font_1_14">
<path d="M .31445313 0 L .1772461 0 L .1772461 .51708987 C .12711589 .47021485 .06803385 .43554688 0 .41308595 L 0 .53759768 C .035807294 .5493164 .07470703 .57145187 .11669922 .6040039 C .1586914 .63688156 .1875 .6751302 .203125 .71875 L .31445313 .71875 L .31445313 0 Z "/>
</symbol>
<use xlink:href="#font_1_14" transform="matrix(9.59336,0,0,-9.59336,13.173363,17.992049)"/>
<use xlink:href="#font_1_5b" transform="matrix(11.514911,0,0,-11.514911,6.083561,58.294237)"/>
<symbol id="font_1_15">
<path d="M .48095704 .1274414 L .48095704 0 L 0 0 C .0052083337 .048177083 .020833334 .09375 .046875 .13671875 C .072916667 .18001302 .12434896 .23730469 .20117188 .30859376 C .26302085 .36621095 .300944 .40527345 .3149414 .42578126 C .33382163 .45410157 .34326173 .48209635 .34326173 .5097656 C .34326173 .54036459 .33496095 .56380209 .31835938 .5800781 C .30208335 .5966797 .27945964 .60498049 .25048829 .60498049 C .22184246 .60498049 .19905599 .5963542 .1821289 .57910159 C .16520183 .56184896 .1554362 .5332031 .15283203 .49316407 L .016113282 .50683596 C .024251303 .58235678 .049804689 .63655599 .09277344 .6694336 C .13574219 .7023112 .18945313 .71875 .25390626 .71875 C .32454429 .71875 .38004557 .69970706 .42041017 .6616211 C .46077476 .62353518 .48095704 .5761719 .48095704 .51953127 C .48095704 .4873047 .47509767 .45654298 .4633789 .4272461 C .4519857 .39827476 .4337565 .36783854 .4086914 .3359375 C .39208985 .31477867 .36214195 .28434245 .31884767 .2446289 C .27555339 .20491536 .24804688 .17854817 .23632813 .16552735 C .22493489 .15250652 .21565755 .1398112 .2084961 .1274414 L .48095704 .1274414 Z "/>
</symbol>
<use xlink:href="#font_1_15" transform="matrix(9.59336,0,0,-9.59336,12.65341,61.172964)"/>
<use xlink:href="#font_1_5b" transform="matrix(11.514911,0,0,-11.514911,6.083561,101.47515)"/>
<symbol id="font_1_16">
<path d="M 0 .20214844 L .1328125 .21826172 C .13704427 .18440755 .1484375 .15852864 .16699219 .140625 C .18554688 .12272135 .20800781 .11376953 .234375 .11376953 C .2626953 .11376953 .28645835 .12451172 .30566407 .1459961 C .3251953 .16748047 .33496095 .19645183 .33496095 .23291016 C .33496095 .26741538 .3256836 .29475913 .3071289 .3149414 C .28857423 .3351237 .26595054 .34521485 .23925781 .34521485 C .22167969 .34521485 .2006836 .34179688 .17626953 .33496095 L .19140625 .44677735 C .22851563 .44580079 .25683595 .45377604 .2763672 .47070313 C .29589845 .48795573 .30566407 .5107422 .30566407 .5390625 C .30566407 .56315109 .2985026 .58235678 .2841797 .5966797 C .26985679 .6110026 .2508138 .61816409 .22705078 .61816409 C .20361328 .61816409 .18359375 .61002609 .16699219 .59375 C .15039063 .57747396 .14029949 .55371096 .13671875 .52246096 L .010253906 .5439453 C .019042969 .58723959 .032226564 .6217448 .049804689 .64746096 C .067708339 .6735026 .092447917 .69384768 .12402344 .7084961 C .15592449 .72347006 .19156902 .73095706 .23095703 .73095706 C .29833985 .73095706 .3523763 .70947268 .3930664 .6665039 C .42659507 .63134768 .44335938 .5916341 .44335938 .5473633 C .44335938 .48453776 .40901695 .43440757 .34033204 .39697267 C .38134767 .3881836 .4140625 .3684896 .43847657 .33789063 C .46321617 .30729167 .47558595 .27034507 .47558595 .22705078 C .47558595 .16422527 .45263673 .110677089 .40673829 .06640625 C .36083985 .022135416 .30371095 0 .23535156 0 C .17057292 0 .11686198 .018554688 .07421875 .055664064 C .03157552 .09309896 .0068359377 .14192708 0 .20214844 Z "/>
</symbol>
<use xlink:href="#font_1_16" transform="matrix(9.59336,0,0,-9.59336,12.775201,104.470989)"/>
<use xlink:href="#font_1_5b" transform="matrix(11.514911,0,0,-11.514911,5.81368,205.82903)"/>
<symbol id="font_1_51">
<path d="M .47265626 0 L .33544923 0 L .33544923 .26464845 C .33544923 .32063804 .33251954 .35677085 .32666017 .37304688 C .32080079 .38964845 .3111979 .4025065 .29785157 .4116211 C .28483073 .4207357 .26904298 .42529298 .25048829 .42529298 C .22672527 .42529298 .20540364 .41878257 .18652344 .40576173 C .16764324 .39274089 .15462239 .37548829 .14746094 .3540039 C .140625 .33251954 .13720703 .292806 .13720703 .23486328 L .13720703 0 L 0 0 L 0 .5185547 L .1274414 .5185547 L .1274414 .4423828 C .1726888 .50097659 .22965496 .53027346 .29833985 .53027346 C .32861329 .53027346 .35628257 .52473959 .38134767 .5136719 C .40641276 .5029297 .42529298 .48909507 .43798829 .47216798 C .45100913 .45524089 .45996095 .43603517 .46484376 .41455079 C .4700521 .3930664 .47265626 .3623047 .47265626 .32226563 L .47265626 0 Z "/>
</symbol>
<use xlink:href="#font_1_51" transform="matrix(9.59336,0,0,-9.59336,12.82385,208.70777)"/>
<path transform="matrix(.7196819,0,0,.7196819,.35984097,.35984097)" stroke-width="1" stroke-linecap="butt" stroke-miterlimit="10" stroke-linejoin="miter" fill="none" stroke="#000000" d="M 201 116 L 294.63 116 "/>
<path transform="matrix(.7196819,0,0,.7196819,.35984097,.35984097)" d="M 299.88 116 L 292.88 118.33 L 294.63 116 L 292.88 113.67 L 299.88 116 Z "/>
<path transform="matrix(.7196819,0,0,.7196819,.35984097,.35984097)" stroke-width="1" stroke-linecap="butt" stroke-miterlimit="10" stroke-linejoin="miter" fill="none" stroke="#000000" d="M 299.88 116 L 292.88 118.33 L 294.63 116 L 292.88 113.67 L 299.88 116 Z "/>
<path transform="matrix(.7196819,0,0,.7196819,.35984097,.35984097)" stroke-width="1" stroke-linecap="butt" stroke-miterlimit="10" stroke-linejoin="miter" fill="none" stroke="#000000" d="M 200.58 110.3 L 296.58 62.81 "/>
<path transform="matrix(.7196819,0,0,.7196819,.35984097,.35984097)" d="M 301.29 60.49 L 296.05 65.68 L 296.58 62.81 L 293.98 61.5 L 301.29 60.49 Z "/>
<path transform="matrix(.7196819,0,0,.7196819,.35984097,.35984097)" stroke-width="1" stroke-linecap="butt" stroke-miterlimit="10" stroke-linejoin="miter" fill="none" stroke="#000000" d="M 301.29 60.49 L 296.05 65.68 L 296.58 62.81 L 293.98 61.5 L 301.29 60.49 Z "/>
<path transform="matrix(.7196819,0,0,.7196819,.35984097,.35984097)" stroke-width="1" stroke-linecap="butt" stroke-miterlimit="10" stroke-linejoin="miter" fill="none" stroke="#000000" d="M 198.87 123.44 L 295.94 168.2 "/>
<path transform="matrix(.7196819,0,0,.7196819,.35984097,.35984097)" d="M 300.7 170.4 L 293.37 169.59 L 295.94 168.2 L 295.33 165.35 L 300.7 170.4 Z "/>
<path transform="matrix(.7196819,0,0,.7196819,.35984097,.35984097)" stroke-width="1" stroke-linecap="butt" stroke-miterlimit="10" stroke-linejoin="miter" fill="none" stroke="#000000" d="M 300.7 170.4 L 293.37 169.59 L 295.94 168.2 L 295.33 165.35 L 300.7 170.4 Z "/>
<path transform="matrix(.7196819,0,0,.7196819,.35984097,.35984097)" stroke-width="1" stroke-linecap="butt" stroke-miterlimit="10" stroke-linejoin="miter" fill="none" stroke="#000000" d="M 196.61 126.61 L 300.68 221.11 "/>
<path transform="matrix(.7196819,0,0,.7196819,.35984097,.35984097)" d="M 304.57 224.64 L 297.81 221.66 L 300.68 221.11 L 300.95 218.21 L 304.57 224.64 Z "/>
<path transform="matrix(.7196819,0,0,.7196819,.35984097,.35984097)" stroke-width="1" stroke-linecap="butt" stroke-miterlimit="10" stroke-linejoin="miter" fill="none" stroke="#000000" d="M 304.57 224.64 L 297.81 221.66 L 300.68 221.11 L 300.95 218.21 L 304.57 224.64 Z "/>
<path transform="matrix(.7196819,0,0,.7196819,.35984097,.35984097)" d="M 201 116 C 200.99999 116.98492 200.9039 117.960369 200.71175 118.926349 C 200.51963 119.892337 200.23509 120.8303 199.85819 121.74024 C 199.48128 122.650188 199.01923 123.51462 198.47203 124.333538 C 197.92484 125.15246 197.30303 125.91014 196.6066 126.60659 C 195.91016 127.303028 195.15247 127.924839 194.33354 128.47202 C 193.5146 129.01921 192.65016 129.48126 191.74024 129.85817 C 190.83029 130.23508 189.89234 130.51963 188.92635 130.71178 C 187.96036 130.90392 186.98491 130.99999 186 131 C 185.01508 130.99999 184.03961 130.90392 183.07363 130.71178 C 182.10764 130.51963 181.16967 130.23508 180.25972 129.85817 C 179.34978 129.48126 178.48535 129.01921 177.66643 128.47203 C 176.8475 127.92484 176.08982 127.303028 175.39339 126.60659 C 174.69695 125.91014 174.07514 125.15246 173.52794 124.333538 C 172.98075 123.51461 172.51869 122.65018 172.14179 121.740238 C 171.76488 120.8303 171.48036 119.892337 171.28821 118.926349 C 171.09607 117.960369 171 116.98492 171 116 C 171 115.01508 171.09607 114.03963 171.28821 113.07363 C 171.48036 112.10765 171.76488 111.169689 172.14179 110.25974 C 172.51869 109.34979 172.98075 108.48536 173.52794 107.666439 C 174.07514 106.8475 174.69695 106.08983 175.39339 105.393398 C 176.08982 104.69695 176.8475 104.07514 177.66645 103.527957 C 178.48537 102.98076 179.3498 102.51871 180.25974 102.1418 C 181.16967 101.764888 182.10764 101.48036 183.07363 101.28822 C 184.03961 101.09608 185.01508 101.00001 186 101 C 186.98491 101.00001 187.96036 101.09608 188.92635 101.28822 C 189.89234 101.48036 190.83029 101.764888 191.74024 102.1418 C 192.65016 102.51871 193.5146 102.98076 194.33353 103.52795 C 195.15247 104.075138 195.91016 104.69695 196.6066 105.393398 C 197.30303 106.08983 197.92484 106.8475 198.47203 107.66643 C 199.01923 108.48536 199.48128 109.34979 199.85819 110.259738 C 200.23509 111.16968 200.51963 112.10764 200.71176 113.07364 C 200.90392 114.03963 200.99999 115.01508 201 116 Z " fill="#d5e8d4" fill-opacity=".702"/>
<path transform="matrix(.7196819,0,0,.7196819,.35984097,.35984097)" stroke-width="1" stroke-linecap="butt" stroke-miterlimit="4" stroke-linejoin="miter" fill="none" stroke="#82b366" stroke-opacity=".702" d="M 201 116 C 200.99999 116.98492 200.9039 117.960369 200.71175 118.926349 C 200.51963 119.892337 200.23509 120.8303 199.85819 121.74024 C 199.48128 122.650188 199.01923 123.51462 198.47203 124.333538 C 197.92484 125.15246 197.30303 125.91014 196.6066 126.60659 C 195.91016 127.303028 195.15247 127.924839 194.33354 128.47202 C 193.5146 129.01921 192.65016 129.48126 191.74024 129.85817 C 190.83029 130.23508 189.89234 130.51963 188.92635 130.71178 C 187.96036 130.90392 186.98491 130.99999 186 131 C 185.01508 130.99999 184.03961 130.90392 183.07363 130.71178 C 182.10764 130.51963 181.16967 130.23508 180.25972 129.85817 C 179.34978 129.48126 178.48535 129.01921 177.66643 128.47203 C 176.8475 127.92484 176.08982 127.303028 175.39339 126.60659 C 174.69695 125.91014 174.07514 125.15246 173.52794 124.333538 C 172.98075 123.51461 172.51869 122.65018 172.14179 121.740238 C 171.76488 120.8303 171.48036 119.892337 171.28821 118.926349 C 171.09607 117.960369 171 116.98492 171 116 C 171 115.01508 171.09607 114.03963 171.28821 113.07363 C 171.48036 112.10765 171.76488 111.169689 172.14179 110.25974 C 172.51869 109.34979 172.98075 108.48536 173.52794 107.666439 C 174.07514 106.8475 174.69695 106.08983 175.39339 105.393398 C 176.08982 104.69695 176.8475 104.07514 177.66645 103.527957 C 178.48537 102.98076 179.3498 102.51871 180.25974 102.1418 C 181.16967 101.764888 182.10764 101.48036 183.07363 101.28822 C 184.03961 101.09608 185.01508 101.00001 186 101 C 186.98491 101.00001 187.96036 101.09608 188.92635 101.28822 C 189.89234 101.48036 190.83029 101.764888 191.74024 102.1418 C 192.65016 102.51871 193.5146 102.98076 194.33353 103.52795 C 195.15247 104.075138 195.91016 104.69695 196.6066 105.393398 C 197.30303 106.08983 197.92484 106.8475 198.47203 107.66643 C 199.01923 108.48536 199.48128 109.34979 199.85819 110.259738 C 200.23509 111.16968 200.51963 112.10764 200.71176 113.07364 C 200.90392 114.03963 200.99999 115.01508 201 116 Z "/>
<path transform="matrix(.7196819,0,0,.7196819,.35984097,.35984097)" stroke-width="1" stroke-linecap="butt" stroke-miterlimit="10" stroke-linejoin="miter" fill="none" stroke="#000000" d="M 201 176 L 294.63 176 "/>
<path transform="matrix(.7196819,0,0,.7196819,.35984097,.35984097)" d="M 299.88 176 L 292.88 178.33 L 294.63 176 L 292.88 173.67 L 299.88 176 Z "/>
<path transform="matrix(.7196819,0,0,.7196819,.35984097,.35984097)" stroke-width="1" stroke-linecap="butt" stroke-miterlimit="10" stroke-linejoin="miter" fill="none" stroke="#000000" d="M 299.88 176 L 292.88 178.33 L 294.63 176 L 292.88 173.67 L 299.88 176 Z "/>
<path transform="matrix(.7196819,0,0,.7196819,.35984097,.35984097)" stroke-width="1" stroke-linecap="butt" stroke-miterlimit="10" stroke-linejoin="miter" fill="none" stroke="#000000" d="M 196.61 165.39 L 299.15 68.91 "/>
<path transform="matrix(.7196819,0,0,.7196819,.35984097,.35984097)" d="M 302.98 65.32 L 299.48 71.81 L 299.15 68.91 L 296.28 68.41 L 302.98 65.32 Z "/>
<path transform="matrix(.7196819,0,0,.7196819,.35984097,.35984097)" stroke-width="1" stroke-linecap="butt" stroke-miterlimit="10" stroke-linejoin="miter" fill="none" stroke="#000000" d="M 302.98 65.32 L 299.48 71.81 L 299.15 68.91 L 296.28 68.41 L 302.98 65.32 Z "/>
<path transform="matrix(.7196819,0,0,.7196819,.35984097,.35984097)" stroke-width="1" stroke-linecap="butt" stroke-miterlimit="10" stroke-linejoin="miter" fill="none" stroke="#000000" d="M 198.87 169.13 L 295.96 123.28 "/>
<path transform="matrix(.7196819,0,0,.7196819,.35984097,.35984097)" d="M 300.71 121.04 L 295.38 126.14 L 295.96 123.28 L 293.38 121.92 L 300.71 121.04 Z "/>
<path transform="matrix(.7196819,0,0,.7196819,.35984097,.35984097)" stroke-width="1" stroke-linecap="butt" stroke-miterlimit="10" stroke-linejoin="miter" fill="none" stroke="#000000" d="M 300.71 121.04 L 295.38 126.14 L 295.96 123.28 L 293.38 121.92 L 300.71 121.04 Z "/>
<path transform="matrix(.7196819,0,0,.7196819,.35984097,.35984097)" stroke-width="1" stroke-linecap="butt" stroke-miterlimit="10" stroke-linejoin="miter" fill="none" stroke="#000000" d="M 200.58 181.13 L 295.99 227.52 "/>
<path transform="matrix(.7196819,0,0,.7196819,.35984097,.35984097)" d="M 300.71 229.81 L 293.4 228.85 L 295.99 227.52 L 295.44 224.65 L 300.71 229.81 Z "/>
<path transform="matrix(.7196819,0,0,.7196819,.35984097,.35984097)" stroke-width="1" stroke-linecap="butt" stroke-miterlimit="10" stroke-linejoin="miter" fill="none" stroke="#000000" d="M 300.71 229.81 L 293.4 228.85 L 295.99 227.52 L 295.44 224.65 L 300.71 229.81 Z "/>
<path transform="matrix(.7196819,0,0,.7196819,.35984097,.35984097)" d="M 201 176 C 200.99999 176.98491 200.9039 177.96036 200.71175 178.92635 C 200.51963 179.8923 200.23509 180.83026 199.85819 181.7402 C 199.48128 182.65016 199.01923 183.51459 198.47203 184.33351 C 197.92484 185.15245 197.30303 185.91014 196.6066 186.60659 C 195.91016 187.30301 195.15247 187.92482 194.33354 188.47202 C 193.5146 189.0192 192.65016 189.48125 191.74024 189.85816 C 190.83029 190.23506 189.89234 190.51959 188.92635 190.71175 C 187.96036 190.9039 186.98491 190.99999 186 191 C 185.01508 190.99999 184.03961 190.9039 183.07363 190.71175 C 182.10764 190.51959 181.16967 190.23506 180.25972 189.85816 C 179.34978 189.48125 178.48535 189.0192 177.66643 188.472 C 176.8475 187.92482 176.08982 187.30301 175.39339 186.60659 C 174.69695 185.91014 174.07514 185.15245 173.52794 184.33353 C 172.98075 183.5146 172.51869 182.65016 172.14179 181.74022 C 171.76488 180.83028 171.48036 179.89232 171.28821 178.92633 C 171.09607 177.96035 171 176.98491 171 176 C 171 175.01508 171.09607 174.03963 171.28821 173.07364 C 171.48036 172.10765 171.76488 171.16968 172.14179 170.25974 C 172.51869 169.3498 172.98075 168.48535 173.52794 167.66643 C 174.07514 166.8475 174.69695 166.08983 175.39339 165.39339 C 176.08982 164.69695 176.8475 164.07514 177.66645 163.52794 C 178.48537 162.98076 179.3498 162.5187 180.25974 162.1418 C 181.16967 161.7649 182.10764 161.48036 183.07363 161.28821 C 184.03961 161.09607 185.01508 161 186 161 C 186.98491 161 187.96036 161.09607 188.92635 161.28821 C 189.89234 161.48036 190.83029 161.7649 191.74024 162.1418 C 192.65016 162.5187 193.5146 162.98076 194.33353 163.52794 C 195.15247 164.07514 195.91016 164.69695 196.6066 165.39339 C 197.30303 166.08983 197.92484 166.8475 198.47203 167.66643 C 199.01923 168.48535 199.48128 169.3498 199.85819 170.25974 C 200.23509 171.16968 200.51963 172.10765 200.71176 173.07364 C 200.90392 174.03963 200.99999 175.01508 201 176 Z " fill="#d5e8d4" fill-opacity=".702"/>
<path transform="matrix(.7196819,0,0,.7196819,.35984097,.35984097)" stroke-width="1" stroke-linecap="butt" stroke-miterlimit="4" stroke-linejoin="miter" fill="none" stroke="#82b366" stroke-opacity=".702" d="M 201 176 C 200.99999 176.98491 200.9039 177.96036 200.71175 178.92635 C 200.51963 179.8923 200.23509 180.83026 199.85819 181.7402 C 199.48128 182.65016 199.01923 183.51459 198.47203 184.33351 C 197.92484 185.15245 197.30303 185.91014 196.6066 186.60659 C 195.91016 187.30301 195.15247 187.92482 194.33354 188.47202 C 193.5146 189.0192 192.65016 189.48125 191.74024 189.85816 C 190.83029 190.23506 189.89234 190.51959 188.92635 190.71175 C 187.96036 190.9039 186.98491 190.99999 186 191 C 185.01508 190.99999 184.03961 190.9039 183.07363 190.71175 C 182.10764 190.51959 181.16967 190.23506 180.25972 189.85816 C 179.34978 189.48125 178.48535 189.0192 177.66643 188.472 C 176.8475 187.92482 176.08982 187.30301 175.39339 186.60659 C 174.69695 185.91014 174.07514 185.15245 173.52794 184.33353 C 172.98075 183.5146 172.51869 182.65016 172.14179 181.74022 C 171.76488 180.83028 171.48036 179.89232 171.28821 178.92633 C 171.09607 177.96035 171 176.98491 171 176 C 171 175.01508 171.09607 174.03963 171.28821 173.07364 C 171.48036 172.10765 171.76488 171.16968 172.14179 170.25974 C 172.51869 169.3498 172.98075 168.48535 173.52794 167.66643 C 174.07514 166.8475 174.69695 166.08983 175.39339 165.39339 C 176.08982 164.69695 176.8475 164.07514 177.66645 163.52794 C 178.48537 162.98076 179.3498 162.5187 180.25974 162.1418 C 181.16967 161.7649 182.10764 161.48036 183.07363 161.28821 C 184.03961 161.09607 185.01508 161 186 161 C 186.98491 161 187.96036 161.09607 188.92635 161.28821 C 189.89234 161.48036 190.83029 161.7649 191.74024 162.1418 C 192.65016 162.5187 193.5146 162.98076 194.33353 163.52794 C 195.15247 164.07514 195.91016 164.69695 196.6066 165.39339 C 197.30303 166.08983 197.92484 166.8475 198.47203 167.66643 C 199.01923 168.48535 199.48128 169.3498 199.85819 170.25974 C 200.23509 171.16968 200.51963 172.10765 200.71176 173.07364 C 200.90392 174.03963 200.99999 175.01508 201 176 Z "/>
<path transform="matrix(.7196819,0,0,.7196819,.35984097,.35984097)" stroke-width="1" stroke-linecap="butt" stroke-miterlimit="10" stroke-linejoin="miter" fill="none" stroke="#000000" d="M 201 236 L 294.63 236 "/>
<path transform="matrix(.7196819,0,0,.7196819,.35984097,.35984097)" d="M 299.88 236 L 292.88 238.33 L 294.63 236 L 292.88 233.67 L 299.88 236 Z "/>
<path transform="matrix(.7196819,0,0,.7196819,.35984097,.35984097)" stroke-width="1" stroke-linecap="butt" stroke-miterlimit="10" stroke-linejoin="miter" fill="none" stroke="#000000" d="M 299.88 236 L 292.88 238.33 L 294.63 236 L 292.88 233.67 L 299.88 236 Z "/>
<path transform="matrix(.7196819,0,0,.7196819,.35984097,.35984097)" stroke-width="1" stroke-linecap="butt" stroke-miterlimit="10" stroke-linejoin="miter" fill="none" stroke="#000000" d="M 196.61 225.39 L 300.68 130.89 "/>
<path transform="matrix(.7196819,0,0,.7196819,.35984097,.35984097)" d="M 304.57 127.36 L 300.95 133.79 L 300.68 130.89 L 297.81 130.34 L 304.57 127.36 Z "/>
<path transform="matrix(.7196819,0,0,.7196819,.35984097,.35984097)" stroke-width="1" stroke-linecap="butt" stroke-miterlimit="10" stroke-linejoin="miter" fill="none" stroke="#000000" d="M 304.57 127.36 L 300.95 133.79 L 300.68 130.89 L 297.81 130.34 L 304.57 127.36 Z "/>
<path transform="matrix(.7196819,0,0,.7196819,.35984097,.35984097)" stroke-width="1" stroke-linecap="butt" stroke-miterlimit="10" stroke-linejoin="miter" fill="none" stroke="#000000" d="M 193.53 222.77 L 305.31 73.67 "/>
<path transform="matrix(.7196819,0,0,.7196819,.35984097,.35984097)" d="M 308.46 69.46 L 306.13 76.47 L 305.31 73.67 L 302.39 73.67 L 308.46 69.46 Z "/>
<path transform="matrix(.7196819,0,0,.7196819,.35984097,.35984097)" stroke-width="1" stroke-linecap="butt" stroke-miterlimit="10" stroke-linejoin="miter" fill="none" stroke="#000000" d="M 308.46 69.46 L 306.13 76.47 L 305.31 73.67 L 302.39 73.67 L 308.46 69.46 Z "/>
<path transform="matrix(.7196819,0,0,.7196819,.35984097,.35984097)" stroke-width="1" stroke-linecap="butt" stroke-miterlimit="10" stroke-linejoin="miter" fill="none" stroke="#000000" d="M 200.19 228.47 L 297.72 184.44 "/>
<path transform="matrix(.7196819,0,0,.7196819,.35984097,.35984097)" d="M 302.5 182.28 L 297.08 187.29 L 297.72 184.44 L 295.16 183.03 L 302.5 182.28 Z "/>
<path transform="matrix(.7196819,0,0,.7196819,.35984097,.35984097)" stroke-width="1" stroke-linecap="butt" stroke-miterlimit="10" stroke-linejoin="miter" fill="none" stroke="#000000" d="M 302.5 182.28 L 297.08 187.29 L 297.72 184.44 L 295.16 183.03 L 302.5 182.28 Z "/>
<path transform="matrix(.7196819,0,0,.7196819,.35984097,.35984097)" d="M 201 236 C 200.99999 236.98491 200.9039 237.96035 200.71175 238.92633 C 200.51963 239.89232 200.23509 240.83029 199.85819 241.74022 C 199.48128 242.65015 199.01923 243.51459 198.47203 244.33351 C 197.92484 245.15244 197.30303 245.91013 196.6066 246.60659 C 195.91016 247.30303 195.15247 247.92484 194.33354 248.47202 C 193.5146 249.01921 192.65016 249.48126 191.74024 249.85817 C 190.83029 250.23508 189.89234 250.5196 188.92635 250.71176 C 187.96036 250.9039 186.98491 250.99999 186 251 C 185.01508 250.99999 184.03961 250.9039 183.07363 250.71175 C 182.10764 250.51959 181.16967 250.23506 180.25972 249.85816 C 179.34978 249.48125 178.48535 249.0192 177.66643 248.47202 C 176.8475 247.92484 176.08982 247.30303 175.39339 246.60659 C 174.69695 245.91013 174.07514 245.15245 173.52794 244.33353 C 172.98075 243.51459 172.51869 242.65015 172.14179 241.74022 C 171.76488 240.83029 171.48036 239.89232 171.28821 238.92633 C 171.09607 237.96035 171 236.98491 171 236 C 171 235.01508 171.09607 234.03961 171.28821 233.07361 C 171.48036 232.10762 171.76488 231.16967 172.14179 230.25972 C 172.51869 229.34978 172.98075 228.48535 173.52794 227.66643 C 174.07514 226.8475 174.69695 226.08982 175.39339 225.39339 C 176.08982 224.69695 176.8475 224.07514 177.66645 223.52794 C 178.48537 222.98075 179.3498 222.5187 180.25974 222.1418 C 181.16967 221.7649 182.10764 221.48036 183.07363 221.28823 C 184.03961 221.09607 185.01508 221 186 221 C 186.98491 221 187.96036 221.09607 188.92635 221.28821 C 189.89234 221.48035 190.83029 221.76486 191.74024 222.14177 C 192.65016 222.51868 193.5146 222.98073 194.33353 223.52793 C 195.15247 224.07512 195.91016 224.69695 196.6066 225.39339 C 197.30303 226.08982 197.92484 226.8475 198.47203 227.66643 C 199.01923 228.48535 199.48128 229.34978 199.85819 230.25972 C 200.23509 231.16967 200.51963 232.10764 200.71176 233.07363 C 200.90392 234.03961 200.99999 235.01508 201 236 Z " fill="#d5e8d4" fill-opacity=".702"/>
<path transform="matrix(.7196819,0,0,.7196819,.35984097,.35984097)" stroke-width="1" stroke-linecap="butt" stroke-miterlimit="4" stroke-linejoin="miter" fill="none" stroke="#82b366" stroke-opacity=".702" d="M 201 236 C 200.99999 236.98491 200.9039 237.96035 200.71175 238.92633 C 200.51963 239.89232 200.23509 240.83029 199.85819 241.74022 C 199.48128 242.65015 199.01923 243.51459 198.47203 244.33351 C 197.92484 245.15244 197.30303 245.91013 196.6066 246.60659 C 195.91016 247.30303 195.15247 247.92484 194.33354 248.47202 C 193.5146 249.01921 192.65016 249.48126 191.74024 249.85817 C 190.83029 250.23508 189.89234 250.5196 188.92635 250.71176 C 187.96036 250.9039 186.98491 250.99999 186 251 C 185.01508 250.99999 184.03961 250.9039 183.07363 250.71175 C 182.10764 250.51959 181.16967 250.23506 180.25972 249.85816 C 179.34978 249.48125 178.48535 249.0192 177.66643 248.47202 C 176.8475 247.92484 176.08982 247.30303 175.39339 246.60659 C 174.69695 245.91013 174.07514 245.15245 173.52794 244.33353 C 172.98075 243.51459 172.51869 242.65015 172.14179 241.74022 C 171.76488 240.83029 171.48036 239.89232 171.28821 238.92633 C 171.09607 237.96035 171 236.98491 171 236 C 171 235.01508 171.09607 234.03961 171.28821 233.07361 C 171.48036 232.10762 171.76488 231.16967 172.14179 230.25972 C 172.51869 229.34978 172.98075 228.48535 173.52794 227.66643 C 174.07514 226.8475 174.69695 226.08982 175.39339 225.39339 C 176.08982 224.69695 176.8475 224.07514 177.66645 223.52794 C 178.48537 222.98075 179.3498 222.5187 180.25974 222.1418 C 181.16967 221.7649 182.10764 221.48036 183.07363 221.28823 C 184.03961 221.09607 185.01508 221 186 221 C 186.98491 221 187.96036 221.09607 188.92635 221.28821 C 189.89234 221.48035 190.83029 221.76486 191.74024 222.14177 C 192.65016 222.51868 193.5146 222.98073 194.33353 223.52793 C 195.15247 224.07512 195.91016 224.69695 196.6066 225.39339 C 197.30303 226.08982 197.92484 226.8475 198.47203 227.66643 C 199.01923 228.48535 199.48128 229.34978 199.85819 230.25972 C 200.23509 231.16967 200.51963 232.10764 200.71176 233.07363 C 200.90392 234.03961 200.99999 235.01508 201 236 Z "/>
<path transform="matrix(.7196819,0,0,.7196819,.35984097,.35984097)" stroke-width="1" stroke-linecap="butt" stroke-miterlimit="10" stroke-linejoin="miter" fill="none" stroke="#000000" d="M 329.68 62.99 L 425.88 107.65 "/>
<path transform="matrix(.7196819,0,0,.7196819,.35984097,.35984097)" d="M 430.65 109.86 L 423.31 109.03 L 425.88 107.65 L 425.28 104.8 L 430.65 109.86 Z "/>
<path transform="matrix(.7196819,0,0,.7196819,.35984097,.35984097)" stroke-width="1" stroke-linecap="butt" stroke-miterlimit="10" stroke-linejoin="miter" fill="none" stroke="#000000" d="M 430.65 109.86 L 423.31 109.03 L 425.88 107.65 L 425.28 104.8 L 430.65 109.86 Z "/>
<path transform="matrix(.7196819,0,0,.7196819,.35984097,.35984097)" stroke-width="1" stroke-linecap="butt" stroke-miterlimit="10" stroke-linejoin="miter" fill="none" stroke="#000000" d="M 326.61 66.61 L 430.68 161.11 "/>
<path transform="matrix(.7196819,0,0,.7196819,.35984097,.35984097)" d="M 434.57 164.64 L 427.81 161.66 L 430.68 161.11 L 430.95 158.21 L 434.57 164.64 Z "/>
<path transform="matrix(.7196819,0,0,.7196819,.35984097,.35984097)" stroke-width="1" stroke-linecap="butt" stroke-miterlimit="10" stroke-linejoin="miter" fill="none" stroke="#000000" d="M 434.57 164.64 L 427.81 161.66 L 430.68 161.11 L 430.95 158.21 L 434.57 164.64 Z "/>
<path transform="matrix(.7196819,0,0,.7196819,.35984097,.35984097)" d="M 331 56 C 330.99998 56.984914 330.9039 57.96036 330.71174 58.92635 C 330.5196 59.89234 330.23509 60.830308 329.85816 61.740247 C 329.48124 62.65019 329.0192 63.51462 328.47203 64.33355 C 327.92485 65.15247 327.30305 65.91016 326.6066 66.6066 C 325.91017 67.30303 325.15248 67.92485 324.33357 68.47204 C 323.51463 69.019229 322.65019 69.48127 321.74024 69.858188 C 320.8303 70.23509 319.8923 70.51962 318.92634 70.71178 C 317.96037 70.90392 316.9849 70.99999 316 71 C 315.0151 70.99999 314.03965 70.90392 313.07365 70.71178 C 312.10765 70.51962 311.16966 70.23509 310.2597 69.858188 C 309.34977 69.48127 308.48533 69.019229 307.66639 68.47204 C 306.84748 67.92485 306.0898 67.30303 305.39338 66.6066 C 304.69694 65.91016 304.0751 65.15247 303.52793 64.33355 C 302.9807 63.51462 302.51869 62.65019 302.14179 61.740247 C 301.76487 60.830308 301.48036 59.89234 301.2882 58.92635 C 301.09605 57.96036 300.99998 56.984914 301 56 C 300.99998 55.015089 301.09605 54.03963 301.2882 53.07364 C 301.48036 52.107648 301.76487 51.16968 302.14179 50.259744 C 302.51869 49.3498 302.9807 48.485368 303.52793 47.666444 C 304.0751 46.847517 304.69694 46.089834 305.39338 45.393396 C 306.0898 44.696958 306.84748 44.07514 307.66639 43.52795 C 308.48533 42.980764 309.34977 42.518716 310.2597 42.141805 C 311.16966 41.764898 312.10765 41.48037 313.07365 41.28822 C 314.03965 41.096075 315.0151 41 316 41 C 316.9849 41 317.96037 41.096075 318.92634 41.28822 C 319.8923 41.48037 320.8303 41.764898 321.74024 42.141805 C 322.65019 42.518716 323.51463 42.980764 324.33357 43.52795 C 325.15248 44.07514 325.91017 44.696958 326.6066 45.393396 C 327.30305 46.089834 327.92485 46.847517 328.47203 47.666444 C 329.0192 48.485368 329.48124 49.3498 329.85816 50.259744 C 330.23509 51.16968 330.5196 52.107648 330.71174 53.07364 C 330.9039 54.03963 330.99998 55.015089 331 56 Z " fill="#d5e8d4" fill-opacity=".702"/>
<path transform="matrix(.7196819,0,0,.7196819,.35984097,.35984097)" stroke-width="1" stroke-linecap="butt" stroke-miterlimit="4" stroke-linejoin="miter" fill="none" stroke="#82b366" stroke-opacity=".702" d="M 331 56 C 330.99998 56.984914 330.9039 57.96036 330.71174 58.92635 C 330.5196 59.89234 330.23509 60.830308 329.85816 61.740247 C 329.48124 62.65019 329.0192 63.51462 328.47203 64.33355 C 327.92485 65.15247 327.30305 65.91016 326.6066 66.6066 C 325.91017 67.30303 325.15248 67.92485 324.33357 68.47204 C 323.51463 69.019229 322.65019 69.48127 321.74024 69.858188 C 320.8303 70.23509 319.8923 70.51962 318.92634 70.71178 C 317.96037 70.90392 316.9849 70.99999 316 71 C 315.0151 70.99999 314.03965 70.90392 313.07365 70.71178 C 312.10765 70.51962 311.16966 70.23509 310.2597 69.858188 C 309.34977 69.48127 308.48533 69.019229 307.66639 68.47204 C 306.84748 67.92485 306.0898 67.30303 305.39338 66.6066 C 304.69694 65.91016 304.0751 65.15247 303.52793 64.33355 C 302.9807 63.51462 302.51869 62.65019 302.14179 61.740247 C 301.76487 60.830308 301.48036 59.89234 301.2882 58.92635 C 301.09605 57.96036 300.99998 56.984914 301 56 C 300.99998 55.015089 301.09605 54.03963 301.2882 53.07364 C 301.48036 52.107648 301.76487 51.16968 302.14179 50.259744 C 302.51869 49.3498 302.9807 48.485368 303.52793 47.666444 C 304.0751 46.847517 304.69694 46.089834 305.39338 45.393396 C 306.0898 44.696958 306.84748 44.07514 307.66639 43.52795 C 308.48533 42.980764 309.34977 42.518716 310.2597 42.141805 C 311.16966 41.764898 312.10765 41.48037 313.07365 41.28822 C 314.03965 41.096075 315.0151 41 316 41 C 316.9849 41 317.96037 41.096075 318.92634 41.28822 C 319.8923 41.48037 320.8303 41.764898 321.74024 42.141805 C 322.65019 42.518716 323.51463 42.980764 324.33357 43.52795 C 325.15248 44.07514 325.91017 44.696958 326.6066 45.393396 C 327.30305 46.089834 327.92485 46.847517 328.47203 47.666444 C 329.0192 48.485368 329.48124 49.3498 329.85816 50.259744 C 330.23509 51.16968 330.5196 52.107648 330.71174 53.07364 C 330.9039 54.03963 330.99998 55.015089 331 56 Z "/>
<path transform="matrix(.7196819,0,0,.7196819,.35984097,.35984097)" stroke-width="1" stroke-linecap="butt" stroke-miterlimit="10" stroke-linejoin="miter" fill="none" stroke="#000000" d="M 331 116 L 424.63 116 "/>
<path transform="matrix(.7196819,0,0,.7196819,.35984097,.35984097)" d="M 429.88 116 L 422.88 118.33 L 424.63 116 L 422.88 113.67 L 429.88 116 Z "/>
<path transform="matrix(.7196819,0,0,.7196819,.35984097,.35984097)" stroke-width="1" stroke-linecap="butt" stroke-miterlimit="10" stroke-linejoin="miter" fill="none" stroke="#000000" d="M 429.88 116 L 422.88 118.33 L 424.63 116 L 422.88 113.67 L 429.88 116 Z "/>
<path transform="matrix(.7196819,0,0,.7196819,.35984097,.35984097)" stroke-width="1" stroke-linecap="butt" stroke-miterlimit="10" stroke-linejoin="miter" fill="none" stroke="#000000" d="M 329.68 123.32 L 427.55 168.33 "/>
<path transform="matrix(.7196819,0,0,.7196819,.35984097,.35984097)" d="M 432.32 170.52 L 424.99 169.72 L 427.55 168.33 L 426.94 165.48 L 432.32 170.52 Z "/>
<path transform="matrix(.7196819,0,0,.7196819,.35984097,.35984097)" stroke-width="1" stroke-linecap="butt" stroke-miterlimit="10" stroke-linejoin="miter" fill="none" stroke="#000000" d="M 432.32 170.52 L 424.99 169.72 L 427.55 168.33 L 426.94 165.48 L 432.32 170.52 Z "/>
<path transform="matrix(.7196819,0,0,.7196819,.35984097,.35984097)" d="M 331 116 C 330.99998 116.98492 330.9039 117.960369 330.71174 118.926349 C 330.5196 119.892337 330.23509 120.8303 329.85816 121.74024 C 329.48124 122.650188 329.0192 123.51462 328.47203 124.333538 C 327.92485 125.15246 327.30305 125.91014 326.6066 126.60659 C 325.91017 127.303028 325.15248 127.924839 324.33357 128.47202 C 323.51463 129.01921 322.65019 129.48126 321.74024 129.85817 C 320.8303 130.23508 319.8923 130.51963 318.92634 130.71178 C 317.96037 130.90392 316.9849 130.99999 316 131 C 315.0151 130.99999 314.03965 130.90392 313.07365 130.71178 C 312.10765 130.51963 311.16966 130.23508 310.2597 129.85817 C 309.34977 129.48126 308.48533 129.01921 307.66639 128.47203 C 306.84748 127.92484 306.0898 127.303028 305.39338 126.60659 C 304.69694 125.91014 304.0751 125.15246 303.52793 124.333538 C 302.9807 123.51461 302.51869 122.65018 302.14179 121.740238 C 301.76487 120.8303 301.48036 119.892337 301.2882 118.926349 C 301.09605 117.960369 300.99998 116.98492 301 116 C 300.99998 115.01508 301.09605 114.03963 301.2882 113.07363 C 301.48036 112.10765 301.76487 111.169689 302.14179 110.25974 C 302.51869 109.34979 302.9807 108.48536 303.52793 107.666439 C 304.0751 106.8475 304.69694 106.08983 305.39338 105.393398 C 306.0898 104.69695 306.84748 104.07514 307.66639 103.527957 C 308.48533 102.98076 309.34977 102.51871 310.2597 102.1418 C 311.16966 101.764888 312.10765 101.48036 313.07365 101.28822 C 314.03965 101.09608 315.0151 101.00001 316 101 C 316.9849 101.00001 317.96037 101.09608 318.92634 101.28822 C 319.8923 101.48036 320.8303 101.764888 321.74024 102.1418 C 322.65019 102.51871 323.51463 102.98076 324.33357 103.52795 C 325.15248 104.075138 325.91017 104.69695 326.6066 105.393398 C 327.30305 106.08983 327.92485 106.8475 328.47203 107.66643 C 329.0192 108.48536 329.48124 109.34979 329.85816 110.259738 C 330.23509 111.16968 330.5196 112.10764 330.71174 113.07364 C 330.9039 114.03963 330.99998 115.01508 331 116 Z " fill="#d5e8d4" fill-opacity=".702"/>
<path transform="matrix(.7196819,0,0,.7196819,.35984097,.35984097)" stroke-width="1" stroke-linecap="butt" stroke-miterlimit="4" stroke-linejoin="miter" fill="none" stroke="#82b366" stroke-opacity=".702" d="M 331 116 C 330.99998 116.98492 330.9039 117.960369 330.71174 118.926349 C 330.5196 119.892337 330.23509 120.8303 329.85816 121.74024 C 329.48124 122.650188 329.0192 123.51462 328.47203 124.333538 C 327.92485 125.15246 327.30305 125.91014 326.6066 126.60659 C 325.91017 127.303028 325.15248 127.924839 324.33357 128.47202 C 323.51463 129.01921 322.65019 129.48126 321.74024 129.85817 C 320.8303 130.23508 319.8923 130.51963 318.92634 130.71178 C 317.96037 130.90392 316.9849 130.99999 316 131 C 315.0151 130.99999 314.03965 130.90392 313.07365 130.71178 C 312.10765 130.51963 311.16966 130.23508 310.2597 129.85817 C 309.34977 129.48126 308.48533 129.01921 307.66639 128.47203 C 306.84748 127.92484 306.0898 127.303028 305.39338 126.60659 C 304.69694 125.91014 304.0751 125.15246 303.52793 124.333538 C 302.9807 123.51461 302.51869 122.65018 302.14179 121.740238 C 301.76487 120.8303 301.48036 119.892337 301.2882 118.926349 C 301.09605 117.960369 300.99998 116.98492 301 116 C 300.99998 115.01508 301.09605 114.03963 301.2882 113.07363 C 301.48036 112.10765 301.76487 111.169689 302.14179 110.25974 C 302.51869 109.34979 302.9807 108.48536 303.52793 107.666439 C 304.0751 106.8475 304.69694 106.08983 305.39338 105.393398 C 306.0898 104.69695 306.84748 104.07514 307.66639 103.527957 C 308.48533 102.98076 309.34977 102.51871 310.2597 102.1418 C 311.16966 101.764888 312.10765 101.48036 313.07365 101.28822 C 314.03965 101.09608 315.0151 101.00001 316 101 C 316.9849 101.00001 317.96037 101.09608 318.92634 101.28822 C 319.8923 101.48036 320.8303 101.764888 321.74024 102.1418 C 322.65019 102.51871 323.51463 102.98076 324.33357 103.52795 C 325.15248 104.075138 325.91017 104.69695 326.6066 105.393398 C 327.30305 106.08983 327.92485 106.8475 328.47203 107.66643 C 329.0192 108.48536 329.48124 109.34979 329.85816 110.259738 C 330.23509 111.16968 330.5196 112.10764 330.71174 113.07364 C 330.9039 114.03963 330.99998 115.01508 331 116 Z "/>
<path transform="matrix(.7196819,0,0,.7196819,.35984097,.35984097)" stroke-width="1" stroke-linecap="butt" stroke-miterlimit="10" stroke-linejoin="miter" fill="none" stroke="#000000" d="M 331 176 L 424.63 176 "/>
<path transform="matrix(.7196819,0,0,.7196819,.35984097,.35984097)" d="M 429.88 176 L 422.88 178.33 L 424.63 176 L 422.88 173.67 L 429.88 176 Z "/>
<path transform="matrix(.7196819,0,0,.7196819,.35984097,.35984097)" stroke-width="1" stroke-linecap="butt" stroke-miterlimit="10" stroke-linejoin="miter" fill="none" stroke="#000000" d="M 429.88 176 L 422.88 178.33 L 424.63 176 L 422.88 173.67 L 429.88 176 Z "/>
<path transform="matrix(.7196819,0,0,.7196819,.35984097,.35984097)" stroke-width="1" stroke-linecap="butt" stroke-miterlimit="10" stroke-linejoin="miter" fill="none" stroke="#000000" d="M 329.68 171.32 L 426.59 124.13 "/>
<path transform="matrix(.7196819,0,0,.7196819,.35984097,.35984097)" d="M 431.31 121.83 L 426.04 126.99 L 426.59 124.13 L 424 122.8 L 431.31 121.83 Z "/>
<path transform="matrix(.7196819,0,0,.7196819,.35984097,.35984097)" stroke-width="1" stroke-linecap="butt" stroke-miterlimit="10" stroke-linejoin="miter" fill="none" stroke="#000000" d="M 431.31 121.83 L 426.04 126.99 L 426.59 124.13 L 424 122.8 L 431.31 121.83 Z "/>
<path transform="matrix(.7196819,0,0,.7196819,.35984097,.35984097)" d="M 331 176 C 330.99998 176.98491 330.9039 177.96036 330.71174 178.92635 C 330.5196 179.8923 330.23509 180.83026 329.85816 181.7402 C 329.48124 182.65016 329.0192 183.51459 328.47203 184.33351 C 327.92485 185.15245 327.30305 185.91014 326.6066 186.60659 C 325.91017 187.30301 325.15248 187.92482 324.33357 188.47202 C 323.51463 189.0192 322.65019 189.48125 321.74024 189.85816 C 320.8303 190.23506 319.8923 190.51959 318.92634 190.71175 C 317.96037 190.9039 316.9849 190.99999 316 191 C 315.0151 190.99999 314.03965 190.9039 313.07365 190.71175 C 312.10765 190.51959 311.16966 190.23506 310.2597 189.85816 C 309.34977 189.48125 308.48533 189.0192 307.66639 188.472 C 306.84748 187.92482 306.0898 187.30301 305.39338 186.60659 C 304.69694 185.91014 304.0751 185.15245 303.52793 184.33353 C 302.9807 183.5146 302.51869 182.65016 302.14179 181.74022 C 301.76487 180.83028 301.48036 179.89232 301.2882 178.92633 C 301.09605 177.96035 300.99998 176.98491 301 176 C 300.99998 175.01508 301.09605 174.03963 301.2882 173.07364 C 301.48036 172.10765 301.76487 171.16968 302.14179 170.25974 C 302.51869 169.3498 302.9807 168.48535 303.52793 167.66643 C 304.0751 166.8475 304.69694 166.08983 305.39338 165.39339 C 306.0898 164.69695 306.84748 164.07514 307.66639 163.52794 C 308.48533 162.98076 309.34977 162.5187 310.2597 162.1418 C 311.16966 161.7649 312.10765 161.48036 313.07365 161.28821 C 314.03965 161.09607 315.0151 161 316 161 C 316.9849 161 317.96037 161.09607 318.92634 161.28821 C 319.8923 161.48036 320.8303 161.7649 321.74024 162.1418 C 322.65019 162.5187 323.51463 162.98076 324.33357 163.52794 C 325.15248 164.07514 325.91017 164.69695 326.6066 165.39339 C 327.30305 166.08983 327.92485 166.8475 328.47203 167.66643 C 329.0192 168.48535 329.48124 169.3498 329.85816 170.25974 C 330.23509 171.16968 330.5196 172.10765 330.71174 173.07364 C 330.9039 174.03963 330.99998 175.01508 331 176 Z " fill="#d5e8d4" fill-opacity=".702"/>
<path transform="matrix(.7196819,0,0,.7196819,.35984097,.35984097)" stroke-width="1" stroke-linecap="butt" stroke-miterlimit="4" stroke-linejoin="miter" fill="none" stroke="#82b366" stroke-opacity=".702" d="M 331 176 C 330.99998 176.98491 330.9039 177.96036 330.71174 178.92635 C 330.5196 179.8923 330.23509 180.83026 329.85816 181.7402 C 329.48124 182.65016 329.0192 183.51459 328.47203 184.33351 C 327.92485 185.15245 327.30305 185.91014 326.6066 186.60659 C 325.91017 187.30301 325.15248 187.92482 324.33357 188.47202 C 323.51463 189.0192 322.65019 189.48125 321.74024 189.85816 C 320.8303 190.23506 319.8923 190.51959 318.92634 190.71175 C 317.96037 190.9039 316.9849 190.99999 316 191 C 315.0151 190.99999 314.03965 190.9039 313.07365 190.71175 C 312.10765 190.51959 311.16966 190.23506 310.2597 189.85816 C 309.34977 189.48125 308.48533 189.0192 307.66639 188.472 C 306.84748 187.92482 306.0898 187.30301 305.39338 186.60659 C 304.69694 185.91014 304.0751 185.15245 303.52793 184.33353 C 302.9807 183.5146 302.51869 182.65016 302.14179 181.74022 C 301.76487 180.83028 301.48036 179.89232 301.2882 178.92633 C 301.09605 177.96035 300.99998 176.98491 301 176 C 300.99998 175.01508 301.09605 174.03963 301.2882 173.07364 C 301.48036 172.10765 301.76487 171.16968 302.14179 170.25974 C 302.51869 169.3498 302.9807 168.48535 303.52793 167.66643 C 304.0751 166.8475 304.69694 166.08983 305.39338 165.39339 C 306.0898 164.69695 306.84748 164.07514 307.66639 163.52794 C 308.48533 162.98076 309.34977 162.5187 310.2597 162.1418 C 311.16966 161.7649 312.10765 161.48036 313.07365 161.28821 C 314.03965 161.09607 315.0151 161 316 161 C 316.9849 161 317.96037 161.09607 318.92634 161.28821 C 319.8923 161.48036 320.8303 161.7649 321.74024 162.1418 C 322.65019 162.5187 323.51463 162.98076 324.33357 163.52794 C 325.15248 164.07514 325.91017 164.69695 326.6066 165.39339 C 327.30305 166.08983 327.92485 166.8475 328.47203 167.66643 C 329.0192 168.48535 329.48124 169.3498 329.85816 170.25974 C 330.23509 171.16968 330.5196 172.10765 330.71174 173.07364 C 330.9039 174.03963 330.99998 175.01508 331 176 Z "/>
<path transform="matrix(.7196819,0,0,.7196819,.35984097,.35984097)" stroke-width="1" stroke-linecap="butt" stroke-miterlimit="10" stroke-linejoin="miter" fill="none" stroke="#000000" d="M 329.32 229.34 L 427.25 183.04 "/>
<path transform="matrix(.7196819,0,0,.7196819,.35984097,.35984097)" d="M 432 180.8 L 426.67 185.9 L 427.25 183.04 L 424.67 181.68 L 432 180.8 Z "/>
<path transform="matrix(.7196819,0,0,.7196819,.35984097,.35984097)" stroke-width="1" stroke-linecap="butt" stroke-miterlimit="10" stroke-linejoin="miter" fill="none" stroke="#000000" d="M 432 180.8 L 426.67 185.9 L 427.25 183.04 L 424.67 181.68 L 432 180.8 Z "/>
<path transform="matrix(.7196819,0,0,.7196819,.35984097,.35984097)" stroke-width="1" stroke-linecap="butt" stroke-miterlimit="10" stroke-linejoin="miter" fill="none" stroke="#000000" d="M 326.61 225.39 L 430.68 130.89 "/>
<path transform="matrix(.7196819,0,0,.7196819,.35984097,.35984097)" d="M 434.57 127.36 L 430.95 133.79 L 430.68 130.89 L 427.81 130.34 L 434.57 127.36 Z "/>
<path transform="matrix(.7196819,0,0,.7196819,.35984097,.35984097)" stroke-width="1" stroke-linecap="butt" stroke-miterlimit="10" stroke-linejoin="miter" fill="none" stroke="#000000" d="M 434.57 127.36 L 430.95 133.79 L 430.68 130.89 L 427.81 130.34 L 434.57 127.36 Z "/>
<path transform="matrix(.7196819,0,0,.7196819,.35984097,.35984097)" d="M 331 236 C 330.99998 236.98491 330.9039 237.96035 330.71174 238.92633 C 330.5196 239.89232 330.23509 240.83029 329.85816 241.74022 C 329.48124 242.65015 329.0192 243.51459 328.47203 244.33351 C 327.92485 245.15244 327.30305 245.91013 326.6066 246.60659 C 325.91017 247.30303 325.15248 247.92484 324.33357 248.47202 C 323.51463 249.01921 322.65019 249.48126 321.74024 249.85817 C 320.8303 250.23508 319.8923 250.5196 318.92634 250.71176 C 317.96037 250.9039 316.9849 250.99999 316 251 C 315.0151 250.99999 314.03965 250.9039 313.07365 250.71175 C 312.10765 250.51959 311.16966 250.23506 310.2597 249.85816 C 309.34977 249.48125 308.48533 249.0192 307.66639 248.47202 C 306.84748 247.92484 306.0898 247.30303 305.39338 246.60659 C 304.69694 245.91013 304.0751 245.15245 303.52793 244.33353 C 302.9807 243.51459 302.51869 242.65015 302.14179 241.74022 C 301.76487 240.83029 301.48036 239.89232 301.2882 238.92633 C 301.09605 237.96035 300.99998 236.98491 301 236 C 300.99998 235.01508 301.09605 234.03961 301.2882 233.07361 C 301.48036 232.10762 301.76487 231.16967 302.14179 230.25972 C 302.51869 229.34978 302.9807 228.48535 303.52793 227.66643 C 304.0751 226.8475 304.69694 226.08982 305.39338 225.39339 C 306.0898 224.69695 306.84748 224.07514 307.66639 223.52794 C 308.48533 222.98075 309.34977 222.5187 310.2597 222.1418 C 311.16966 221.7649 312.10765 221.48036 313.07365 221.28823 C 314.03965 221.09607 315.0151 221 316 221 C 316.9849 221 317.96037 221.09607 318.92634 221.28821 C 319.8923 221.48035 320.8303 221.76486 321.74024 222.14177 C 322.65019 222.51868 323.51463 222.98073 324.33357 223.52793 C 325.15248 224.07512 325.91017 224.69695 326.6066 225.39339 C 327.30305 226.08982 327.92485 226.8475 328.47203 227.66643 C 329.0192 228.48535 329.48124 229.34978 329.85816 230.25972 C 330.23509 231.16967 330.5196 232.10764 330.71174 233.07363 C 330.9039 234.03961 330.99998 235.01508 331 236 Z " fill="#d5e8d4" fill-opacity=".702"/>
<path transform="matrix(.7196819,0,0,.7196819,.35984097,.35984097)" stroke-width="1" stroke-linecap="butt" stroke-miterlimit="4" stroke-linejoin="miter" fill="none" stroke="#82b366" stroke-opacity=".702" d="M 331 236 C 330.99998 236.98491 330.9039 237.96035 330.71174 238.92633 C 330.5196 239.89232 330.23509 240.83029 329.85816 241.74022 C 329.48124 242.65015 329.0192 243.51459 328.47203 244.33351 C 327.92485 245.15244 327.30305 245.91013 326.6066 246.60659 C 325.91017 247.30303 325.15248 247.92484 324.33357 248.47202 C 323.51463 249.01921 322.65019 249.48126 321.74024 249.85817 C 320.8303 250.23508 319.8923 250.5196 318.92634 250.71176 C 317.96037 250.9039 316.9849 250.99999 316 251 C 315.0151 250.99999 314.03965 250.9039 313.07365 250.71175 C 312.10765 250.51959 311.16966 250.23506 310.2597 249.85816 C 309.34977 249.48125 308.48533 249.0192 307.66639 248.47202 C 306.84748 247.92484 306.0898 247.30303 305.39338 246.60659 C 304.69694 245.91013 304.0751 245.15245 303.52793 244.33353 C 302.9807 243.51459 302.51869 242.65015 302.14179 241.74022 C 301.76487 240.83029 301.48036 239.89232 301.2882 238.92633 C 301.09605 237.96035 300.99998 236.98491 301 236 C 300.99998 235.01508 301.09605 234.03961 301.2882 233.07361 C 301.48036 232.10762 301.76487 231.16967 302.14179 230.25972 C 302.51869 229.34978 302.9807 228.48535 303.52793 227.66643 C 304.0751 226.8475 304.69694 226.08982 305.39338 225.39339 C 306.0898 224.69695 306.84748 224.07514 307.66639 223.52794 C 308.48533 222.98075 309.34977 222.5187 310.2597 222.1418 C 311.16966 221.7649 312.10765 221.48036 313.07365 221.28823 C 314.03965 221.09607 315.0151 221 316 221 C 316.9849 221 317.96037 221.09607 318.92634 221.28821 C 319.8923 221.48035 320.8303 221.76486 321.74024 222.14177 C 322.65019 222.51868 323.51463 222.98073 324.33357 223.52793 C 325.15248 224.07512 325.91017 224.69695 326.6066 225.39339 C 327.30305 226.08982 327.92485 226.8475 328.47203 227.66643 C 329.0192 228.48535 329.48124 229.34978 329.85816 230.25972 C 330.23509 231.16967 330.5196 232.10764 330.71174 233.07363 C 330.9039 234.03961 330.99998 235.01508 331 236 Z "/>
<path transform="matrix(.7196819,0,0,.7196819,.35984097,.35984097)" d="M 461 176 C 460.99998 176.98491 460.9039 177.96036 460.71174 178.92635 C 460.51957 179.8923 460.23506 180.83026 459.85813 181.7402 C 459.4812 182.65016 459.01918 183.51459 458.472 184.33351 C 457.9248 185.15245 457.303 185.91014 456.60658 186.60659 C 455.91014 187.30301 455.15245 187.92482 454.3335 188.47202 C 453.51457 189.0192 452.65013 189.48125 451.74018 189.85816 C 450.83024 190.23506 449.8923 190.51959 448.92634 190.71175 C 447.96037 190.9039 446.9849 190.99999 446 191 C 445.0151 190.99999 444.03965 190.9039 443.07365 190.71175 C 442.10765 190.51959 441.16969 190.23506 440.25975 189.85816 C 439.3498 189.48125 438.48536 189.0192 437.6664 188.472 C 436.8475 187.92482 436.08985 187.30301 435.3934 186.60659 C 434.69697 185.91014 434.0751 185.15245 433.5279 184.33353 C 432.98075 183.5146 432.5187 182.65016 432.14179 181.74022 C 431.76487 180.83028 431.48036 179.89232 431.28819 178.92633 C 431.09608 177.96035 431 176.98491 431 176 C 431 175.01508 431.09608 174.03963 431.28819 173.07364 C 431.48036 172.10765 431.76487 171.16968 432.14179 170.25974 C 432.5187 169.3498 432.98075 168.48535 433.52793 167.66643 C 434.07514 166.8475 434.69697 166.08983 435.3934 165.39339 C 436.08985 164.69695 436.8475 164.07514 437.6664 163.52794 C 438.48533 162.98076 439.34977 162.5187 440.2597 162.1418 C 441.16966 161.7649 442.1076 161.48036 443.0736 161.28821 C 444.03965 161.09607 445.0151 161 446 161 C 446.9849 161 447.96037 161.09607 448.92634 161.28821 C 449.8923 161.48036 450.83027 161.7649 451.7402 162.1418 C 452.65016 162.5187 453.5146 162.98076 454.3335 163.52794 C 455.15245 164.07514 455.91014 164.69695 456.60658 165.39339 C 457.303 166.08983 457.9248 166.8475 458.472 167.66643 C 459.01918 168.48535 459.4812 169.3498 459.85813 170.25974 C 460.23506 171.16968 460.51957 172.10765 460.71174 173.07364 C 460.9039 174.03963 460.99998 175.01508 461 176 Z " fill="#f8cecc" fill-opacity=".702"/>
<path transform="matrix(.7196819,0,0,.7196819,.35984097,.35984097)" stroke-width="1" stroke-linecap="butt" stroke-miterlimit="4" stroke-linejoin="miter" fill="none" stroke="#b85450" stroke-opacity=".702" d="M 461 176 C 460.99998 176.98491 460.9039 177.96036 460.71174 178.92635 C 460.51957 179.8923 460.23506 180.83026 459.85813 181.7402 C 459.4812 182.65016 459.01918 183.51459 458.472 184.33351 C 457.9248 185.15245 457.303 185.91014 456.60658 186.60659 C 455.91014 187.30301 455.15245 187.92482 454.3335 188.47202 C 453.51457 189.0192 452.65013 189.48125 451.74018 189.85816 C 450.83024 190.23506 449.8923 190.51959 448.92634 190.71175 C 447.96037 190.9039 446.9849 190.99999 446 191 C 445.0151 190.99999 444.03965 190.9039 443.07365 190.71175 C 442.10765 190.51959 441.16969 190.23506 440.25975 189.85816 C 439.3498 189.48125 438.48536 189.0192 437.6664 188.472 C 436.8475 187.92482 436.08985 187.30301 435.3934 186.60659 C 434.69697 185.91014 434.0751 185.15245 433.5279 184.33353 C 432.98075 183.5146 432.5187 182.65016 432.14179 181.74022 C 431.76487 180.83028 431.48036 179.89232 431.28819 178.92633 C 431.09608 177.96035 431 176.98491 431 176 C 431 175.01508 431.09608 174.03963 431.28819 173.07364 C 431.48036 172.10765 431.76487 171.16968 432.14179 170.25974 C 432.5187 169.3498 432.98075 168.48535 433.52793 167.66643 C 434.07514 166.8475 434.69697 166.08983 435.3934 165.39339 C 436.08985 164.69695 436.8475 164.07514 437.6664 163.52794 C 438.48533 162.98076 439.34977 162.5187 440.2597 162.1418 C 441.16966 161.7649 442.1076 161.48036 443.0736 161.28821 C 444.03965 161.09607 445.0151 161 446 161 C 446.9849 161 447.96037 161.09607 448.92634 161.28821 C 449.8923 161.48036 450.83027 161.7649 451.7402 162.1418 C 452.65016 162.5187 453.5146 162.98076 454.3335 163.52794 C 455.15245 164.07514 455.91014 164.69695 456.60658 165.39339 C 457.303 166.08983 457.9248 166.8475 458.472 167.66643 C 459.01918 168.48535 459.4812 169.3498 459.85813 170.25974 C 460.23506 171.16968 460.51957 172.10765 460.71174 173.07364 C 460.9039 174.03963 460.99998 175.01508 461 176 Z "/>
<path transform="matrix(.7196819,0,0,.7196819,.35984097,.35984097)" d="M 461 116 C 460.99998 116.98492 460.9039 117.960369 460.71174 118.926349 C 460.51957 119.892337 460.23506 120.8303 459.85813 121.74024 C 459.4812 122.650188 459.01918 123.51462 458.472 124.333538 C 457.9248 125.15246 457.303 125.91014 456.60658 126.60659 C 455.91014 127.303028 455.15245 127.924839 454.3335 128.47202 C 453.51457 129.01921 452.65013 129.48126 451.74018 129.85817 C 450.83024 130.23508 449.8923 130.51963 448.92634 130.71178 C 447.96037 130.90392 446.9849 130.99999 446 131 C 445.0151 130.99999 444.03965 130.90392 443.07365 130.71178 C 442.10765 130.51963 441.16969 130.23508 440.25975 129.85817 C 439.3498 129.48126 438.48536 129.01921 437.6664 128.47203 C 436.8475 127.92484 436.08985 127.303028 435.3934 126.60659 C 434.69697 125.91014 434.0751 125.15246 433.5279 124.333538 C 432.98075 123.51461 432.5187 122.65018 432.14179 121.740238 C 431.76487 120.8303 431.48036 119.892337 431.28819 118.926349 C 431.09608 117.960369 431 116.98492 431 116 C 431 115.01508 431.09608 114.03963 431.28819 113.07363 C 431.48036 112.10765 431.76487 111.169689 432.14179 110.25974 C 432.5187 109.34979 432.98075 108.48536 433.52793 107.666439 C 434.07514 106.8475 434.69697 106.08983 435.3934 105.393398 C 436.08985 104.69695 436.8475 104.07514 437.6664 103.527957 C 438.48533 102.98076 439.34977 102.51871 440.2597 102.1418 C 441.16966 101.764888 442.1076 101.48036 443.0736 101.28822 C 444.03965 101.09608 445.0151 101.00001 446 101 C 446.9849 101.00001 447.96037 101.09608 448.92634 101.28822 C 449.8923 101.48036 450.83027 101.764888 451.7402 102.1418 C 452.65016 102.51871 453.5146 102.98076 454.3335 103.52795 C 455.15245 104.075138 455.91014 104.69695 456.60658 105.393398 C 457.303 106.08983 457.9248 106.8475 458.472 107.66643 C 459.01918 108.48536 459.4812 109.34979 459.85813 110.259738 C 460.23506 111.16968 460.51957 112.10764 460.71174 113.07364 C 460.9039 114.03963 460.99998 115.01508 461 116 Z " fill="#f8cecc" fill-opacity=".702"/>
<path transform="matrix(.7196819,0,0,.7196819,.35984097,.35984097)" stroke-width="1" stroke-linecap="butt" stroke-miterlimit="4" stroke-linejoin="miter" fill="none" stroke="#b85450" stroke-opacity=".702" d="M 461 116 C 460.99998 116.98492 460.9039 117.960369 460.71174 118.926349 C 460.51957 119.892337 460.23506 120.8303 459.85813 121.74024 C 459.4812 122.650188 459.01918 123.51462 458.472 124.333538 C 457.9248 125.15246 457.303 125.91014 456.60658 126.60659 C 455.91014 127.303028 455.15245 127.924839 454.3335 128.47202 C 453.51457 129.01921 452.65013 129.48126 451.74018 129.85817 C 450.83024 130.23508 449.8923 130.51963 448.92634 130.71178 C 447.96037 130.90392 446.9849 130.99999 446 131 C 445.0151 130.99999 444.03965 130.90392 443.07365 130.71178 C 442.10765 130.51963 441.16969 130.23508 440.25975 129.85817 C 439.3498 129.48126 438.48536 129.01921 437.6664 128.47203 C 436.8475 127.92484 436.08985 127.303028 435.3934 126.60659 C 434.69697 125.91014 434.0751 125.15246 433.5279 124.333538 C 432.98075 123.51461 432.5187 122.65018 432.14179 121.740238 C 431.76487 120.8303 431.48036 119.892337 431.28819 118.926349 C 431.09608 117.960369 431 116.98492 431 116 C 431 115.01508 431.09608 114.03963 431.28819 113.07363 C 431.48036 112.10765 431.76487 111.169689 432.14179 110.25974 C 432.5187 109.34979 432.98075 108.48536 433.52793 107.666439 C 434.07514 106.8475 434.69697 106.08983 435.3934 105.393398 C 436.08985 104.69695 436.8475 104.07514 437.6664 103.527957 C 438.48533 102.98076 439.34977 102.51871 440.2597 102.1418 C 441.16966 101.764888 442.1076 101.48036 443.0736 101.28822 C 444.03965 101.09608 445.0151 101.00001 446 101 C 446.9849 101.00001 447.96037 101.09608 448.92634 101.28822 C 449.8923 101.48036 450.83027 101.764888 451.7402 102.1418 C 452.65016 102.51871 453.5146 102.98076 454.3335 103.52795 C 455.15245 104.075138 455.91014 104.69695 456.60658 105.393398 C 457.303 106.08983 457.9248 106.8475 458.472 107.66643 C 459.01918 108.48536 459.4812 109.34979 459.85813 110.259738 C 460.23506 111.16968 460.51957 112.10764 460.71174 113.07364 C 460.9039 114.03963 460.99998 115.01508 461 116 Z "/>
<symbol id="font_1_5c">
<path d="M 0 .7290039 L .1459961 .7290039 L .27001954 .36083985 L .39111329 .7290039 L .5332031 .7290039 L .35009767 .22998047 L .3173828 .13964844 C .30533854 .109375 .29378257 .08626302 .28271485 .0703125 C .27197267 .05436198 .2594401 .041503908 .24511719 .03173828 C .2311198 .021647135 .21370442 .013834636 .1928711 .008300781 C .17236328 .002766927 .14908855 0 .123046878 0 C .09667969 0 .07080078 .002766927 .045410158 .008300781 L .033203126 .115722659 C .0546875 .11149088 .07405599 .109375 .091308597 .109375 C .12320963 .109375 .14680989 .1188151 .16210938 .13769531 C .17740886 .15625 .18912761 .18001302 .19726563 .20898438 L 0 .7290039 Z "/>
</symbol>
<use xlink:href="#font_1_5c" transform="matrix(11.514911,0,0,-11.514911,344.3453,132.68573)"/>
<use xlink:href="#font_1_15" transform="matrix(9.59336,0,0,-9.59336,350.9039,133.14116)"/>
<use xlink:href="#font_1_5c" transform="matrix(11.514911,0,0,-11.514911,344.3453,89.504817)"/>
<use xlink:href="#font_1_14" transform="matrix(9.59336,0,0,-9.59336,351.42387,89.96024)"/>
</g>
</g>
</svg>
