<?xml version="1.0" encoding="UTF-8" standalone="no"?>
<!DOCTYPE svg PUBLIC "-//W3C//DTD SVG 1.1//EN" "http://www.w3.org/Graphics/SVG/1.1/DTD/svg11.dtd">
<svg xmlns="http://www.w3.org/2000/svg" xmlns:xlink="http://www.w3.org/1999/xlink" version="1.1" width="592.08pt" height="183.12pt" viewBox="0 0 592.08 183.12">
<g enable-background="new">
<clipPath id="cp0">
<path transform="matrix(.24,0,0,.24,0,0)" d="M 0 0 L 2466.6666 0 L 2466.6666 758.28268 L 0 758.28268 Z " fill-rule="evenodd"/>
</clipPath>
<g clip-path="url(#cp0)">
<path transform="matrix(.000000000000000044045618,.7193195,.7193195,-.000000000000000044045618,-30.21142,30.930739)" d="M -41.5 58.5 L 84.5 58.5 L 113.5 87.5 L 113.5 98.5 L -12.5 98.5 L -41.5 69.5 L -41.5 58.5 Z " fill="#bac8d3" fill-opacity=".8"/>
<path transform="matrix(.000000000000000044045618,.7193195,.7193195,-.000000000000000044045618,-30.21142,30.930739)" stroke-width="1" stroke-linecap="butt" stroke-miterlimit="10" stroke-linejoin="miter" fill="none" stroke="#23445d" stroke-opacity=".8" d="M -41.5 58.5 L 84.5 58.5 L 113.5 87.5 L 113.5 98.5 L -12.5 98.5 L -41.5 69.5 L -41.5 58.5 Z "/>
<path transform="matrix(.000000000000000044045618,.7193195,.7193195,-.000000000000000044045618,-30.21142,30.930739)" stroke-width="1" stroke-linecap="butt" stroke-miterlimit="10" stroke-linejoin="miter" fill="none" stroke="#23445d" stroke-opacity=".8" d="M -12.5 98.5 L -12.5 87.5 L -41.5 58.5 M -12.5 87.5 L 113.5 87.5 "/>
<path transform="matrix(.00000000000000013213685,.7193195,.7193195,-.00000000000000013213685,51.791009,-51.071687)" d="M 107.5 76 L 195.5 76 L 227.5 108 L 227.5 116 L 139.5 116 L 107.5 84 L 107.5 76 Z " fill="#dae8fc"/>
<path transform="matrix(.00000000000000013213685,.7193195,.7193195,-.00000000000000013213685,51.791009,-51.071687)" stroke-width="1" stroke-linecap="butt" stroke-miterlimit="10" stroke-linejoin="miter" fill="none" stroke="#6c8ebf" d="M 107.5 76 L 195.5 76 L 227.5 108 L 227.5 116 L 139.5 116 L 107.5 84 L 107.5 76 Z "/>
<path transform="matrix(.00000000000000013213685,.7193195,.7193195,-.00000000000000013213685,51.791009,-51.071687)" d="M 107.5 76 L 195.5 76 L 227.5 108 L 139.5 108 L 107.5 76 Z " fill-opacity=".051"/>
<path transform="matrix(.00000000000000013213685,.7193195,.7193195,-.00000000000000013213685,51.791009,-51.071687)" d="M 107.5 76 L 139.5 108 L 139.5 116 L 107.5 84 L 107.5 76 Z " fill-opacity=".102"/>
<path transform="matrix(.00000000000000013213685,.7193195,.7193195,-.00000000000000013213685,51.791009,-51.071687)" stroke-width="1" stroke-linecap="butt" stroke-miterlimit="10" stroke-linejoin="miter" fill="none" stroke="#6c8ebf" d="M 139.5 116 L 139.5 108 L 107.5 76 M 139.5 108 L 227.5 108 "/>
<path transform="matrix(.7193195,-.00000000000000017618247,.00000000000000017618247,.7193195,.35965977,.35965977)" d="M 271 36 L 279 36 L 311 68 L 311 156 L 303 156 L 271 124 L 271 36 Z " fill="#f8cecc"/>
<path transform="matrix(.7193195,-.00000000000000017618247,.00000000000000017618247,.7193195,.35965977,.35965977)" stroke-width="1" stroke-linecap="butt" stroke-miterlimit="10" stroke-linejoin="miter" fill="none" stroke="#b85450" d="M 271 36 L 279 36 L 311 68 L 311 156 L 303 156 L 271 124 L 271 36 Z "/>
<path transform="matrix(.7193195,-.00000000000000017618247,.00000000000000017618247,.7193195,.35965977,.35965977)" d="M 271 36 L 279 36 L 311 68 L 303 68 L 271 36 Z " fill-opacity=".051"/>
<path transform="matrix(.7193195,-.00000000000000017618247,.00000000000000017618247,.7193195,.35965977,.35965977)" d="M 271 36 L 303 68 L 303 156 L 271 124 L 271 36 Z " fill-opacity=".102"/>
<path transform="matrix(.7193195,-.00000000000000017618247,.00000000000000017618247,.7193195,.35965977,.35965977)" stroke-width="1" stroke-linecap="butt" stroke-miterlimit="10" stroke-linejoin="miter" fill="none" stroke="#b85450" d="M 303 156 L 303 68 L 271 36 M 303 68 L 311 68 "/>
<path transform="matrix(.7193195,-.00000000000000017618247,.00000000000000017618247,.7193195,.35965977,.35965977)" d="M 396 36 L 404 36 L 436 68 L 436 156 L 428 156 L 396 124 L 396 36 Z " fill="#d5e8d4"/>
<path transform="matrix(.7193195,-.00000000000000017618247,.00000000000000017618247,.7193195,.35965977,.35965977)" stroke-width="1" stroke-linecap="butt" stroke-miterlimit="10" stroke-linejoin="miter" fill="none" stroke="#82b366" d="M 396 36 L 404 36 L 436 68 L 436 156 L 428 156 L 396 124 L 396 36 Z "/>
<path transform="matrix(.7193195,-.00000000000000017618247,.00000000000000017618247,.7193195,.35965977,.35965977)" d="M 396 36 L 404 36 L 436 68 L 428 68 L 396 36 Z " fill-opacity=".051"/>
<path transform="matrix(.7193195,-.00000000000000017618247,.00000000000000017618247,.7193195,.35965977,.35965977)" d="M 396 36 L 428 68 L 428 156 L 396 124 L 396 36 Z " fill-opacity=".102"/>
<path transform="matrix(.7193195,-.00000000000000017618247,.00000000000000017618247,.7193195,.35965977,.35965977)" stroke-width="1" stroke-linecap="butt" stroke-miterlimit="10" stroke-linejoin="miter" fill="none" stroke="#82b366" d="M 428 156 L 428 68 L 396 36 M 428 68 L 436 68 "/>
<path transform="matrix(.00000000000000013213685,.7193195,.7193195,-.00000000000000013213685,485.90034,-485.18104)" d="M 736 86 L 794 86 L 826 118 L 826 126 L 768 126 L 736 94 L 736 86 Z " fill="#0050ef"/>
<path transform="matrix(.00000000000000013213685,.7193195,.7193195,-.00000000000000013213685,485.90034,-485.18104)" stroke-width="1" stroke-linecap="butt" stroke-miterlimit="10" stroke-linejoin="miter" fill="none" stroke="#001dbc" d="M 736 86 L 794 86 L 826 118 L 826 126 L 768 126 L 736 94 L 736 86 Z "/>
<path transform="matrix(.00000000000000013213685,.7193195,.7193195,-.00000000000000013213685,485.90034,-485.18104)" d="M 736 86 L 794 86 L 826 118 L 768 118 L 736 86 Z " fill-opacity=".051"/>
<path transform="matrix(.00000000000000013213685,.7193195,.7193195,-.00000000000000013213685,485.90034,-485.18104)" d="M 736 86 L 768 118 L 768 126 L 736 94 L 736 86 Z " fill-opacity=".102"/>
<path transform="matrix(.00000000000000013213685,.7193195,.7193195,-.00000000000000013213685,485.90034,-485.18104)" stroke-width="1" stroke-linecap="butt" stroke-miterlimit="10" stroke-linejoin="miter" fill="none" stroke="#001dbc" d="M 768 126 L 768 118 L 736 86 M 768 118 L 826 118 "/>
<path transform="matrix(.7193195,-.00000000000000017618247,.00000000000000017618247,.7193195,.35965977,.35965977)" d="M 521 36 L 529 36 L 561 68 L 561 156 L 553 156 L 521 124 L 521 36 Z " fill="#60a917"/>
<path transform="matrix(.7193195,-.00000000000000017618247,.00000000000000017618247,.7193195,.35965977,.35965977)" stroke-width="1" stroke-linecap="butt" stroke-miterlimit="10" stroke-linejoin="miter" fill="none" stroke="#2d7600" d="M 521 36 L 529 36 L 561 68 L 561 156 L 553 156 L 521 124 L 521 36 Z "/>
<path transform="matrix(.7193195,-.00000000000000017618247,.00000000000000017618247,.7193195,.35965977,.35965977)" d="M 521 36 L 529 36 L 561 68 L 553 68 L 521 36 Z " fill-opacity=".051"/>
<path transform="matrix(.7193195,-.00000000000000017618247,.00000000000000017618247,.7193195,.35965977,.35965977)" d="M 521 36 L 553 68 L 553 156 L 521 124 L 521 36 Z " fill-opacity=".102"/>
<path transform="matrix(.7193195,-.00000000000000017618247,.00000000000000017618247,.7193195,.35965977,.35965977)" stroke-width="1" stroke-linecap="butt" stroke-miterlimit="10" stroke-linejoin="miter" fill="none" stroke="#2d7600" d="M 553 156 L 553 68 L 521 36 M 553 68 L 561 68 "/>
<path transform="matrix(.7193195,-.00000000000000017618247,.00000000000000017618247,.7193195,.35965977,.35965977)" d="M 641 33.5 L 649 33.5 L 681 65.5 L 681 153.5 L 673 153.5 L 641 121.5 L 641 33.5 Z " fill="#e1d5e7"/>
<path transform="matrix(.7193195,-.00000000000000017618247,.00000000000000017618247,.7193195,.35965977,.35965977)" stroke-width="1" stroke-linecap="butt" stroke-miterlimit="10" stroke-linejoin="miter" fill="none" stroke="#9673a6" d="M 641 33.5 L 649 33.5 L 681 65.5 L 681 153.5 L 673 153.5 L 641 121.5 L 641 33.5 Z "/>
<path transform="matrix(.7193195,-.00000000000000017618247,.00000000000000017618247,.7193195,.35965977,.35965977)" d="M 641 33.5 L 649 33.5 L 681 65.5 L 673 65.5 L 641 33.5 Z " fill-opacity=".051"/>
<path transform="matrix(.7193195,-.00000000000000017618247,.00000000000000017618247,.7193195,.35965977,.35965977)" d="M 641 33.5 L 673 65.5 L 673 153.5 L 641 121.5 L 641 33.5 Z " fill-opacity=".102"/>
<path transform="matrix(.7193195,-.00000000000000017618247,.00000000000000017618247,.7193195,.35965977,.35965977)" stroke-width="1" stroke-linecap="butt" stroke-miterlimit="10" stroke-linejoin="miter" fill="none" stroke="#9673a6" d="M 673 153.5 L 673 65.5 L 641 33.5 M 673 65.5 L 681 65.5 "/>
<g id="Layer-1" data-name="Span">
</g>
<symbol id="font_1_3e">
<path d="M 0 0 L 0 .91748049 L .24316406 .91748049 L .24316406 .8095703 L .1303711 .8095703 L .1303711 .107910159 L .24316406 .107910159 L .24316406 0 L 0 0 Z "/>
</symbol>
<symbol id="font_1_14">
<path d="M .31445313 0 L .1772461 0 L .1772461 .51708987 C .12711589 .47021485 .06803385 .43554688 0 .41308595 L 0 .53759768 C .035807294 .5493164 .07470703 .57145187 .11669922 .6040039 C .1586914 .63688156 .1875 .6751302 .203125 .71875 L .31445313 .71875 L .31445313 0 Z "/>
</symbol>
<symbol id="font_1_3">
<path d="M -2147483500 -2147483500 Z "/>
</symbol>
<use xlink:href="#font_1_3e" transform="matrix(13.667071,0,0,-13.667071,7.493146,177.55075)"/>
<use xlink:href="#font_1_14" transform="matrix(13.667071,0,0,-13.667071,12.151054,174.79465)"/>
<use xlink:href="#font_1_3" transform="matrix(13.667071,0,0,-13.667071,29349810000,-29349810000)"/>
<symbol id="font_2_5b">
<path d="M 0 0 L .18945313 .26953126 L .014160156 .5185547 L .12402344 .5185547 L .20361328 .39697267 C .21858724 .3738607 .23063152 .3544922 .2397461 .3388672 C .254069 .36035157 .2672526 .37939454 .27929688 .3959961 L .36669923 .5185547 L .4716797 .5185547 L .29248048 .27441407 L .48535157 0 L .3774414 0 L .2709961 .16113281 L .24267578 .20458985 L .10644531 0 L 0 0 Z "/>
</symbol>
<symbol id="font_2_3">
<path d="M -2147483500 -2147483500 Z "/>
</symbol>
<use xlink:href="#font_2_5b" transform="matrix(13.667071,0,0,-13.667071,22.567597,174.79465)"/>
<use xlink:href="#font_2_3" transform="matrix(13.667071,0,0,-13.667071,29349810000,-29349810000)"/>
<symbol id="font_1_47">
<path d="M .50634768 .01171875 L .37890626 .01171875 L .37890626 .087890628 C .3577474 .05826823 .33268229 .036132814 .30371095 .021484375 C .2750651 .0071614587 .24609375 0 .21679688 0 C .15722656 0 .10611979 .023925782 .06347656 .071777347 C .021158854 .11995443 0 .18701172 0 .27294923 C 0 .36083985 .020670573 .42757163 .06201172 .47314454 C .10335287 .51904299 .15559896 .5419922 .21875 .5419922 C .27669273 .5419922 .3268229 .5179036 .36914063 .46972657 L .36914063 .72753909 L .50634768 .72753909 L .50634768 .01171875 M .14013672 .28222657 C .14013672 .22688802 .14778646 .18684896 .16308594 .16210938 C .18522136 .12630208 .21614583 .10839844 .25585938 .10839844 C .2874349 .10839844 .31429038 .12174479 .33642579 .1484375 C .3585612 .17545574 .3696289 .21565755 .3696289 .26904298 C .3696289 .32861329 .35888673 .37141929 .33740235 .39746095 C .31591798 .42382813 .28841148 .43701173 .2548828 .43701173 C .22233074 .43701173 .19498699 .42399089 .17285156 .39794923 C .15104167 .37223307 .14013672 .33365885 .14013672 .28222657 Z "/>
</symbol>
<symbol id="font_1_40">
<path d="M .24316406 .91748049 L .24316406 0 L 0 0 L 0 .107910159 L .11279297 .107910159 L .11279297 .8105469 L 0 .8105469 L 0 .91748049 L .24316406 .91748049 Z "/>
</symbol>
<use xlink:href="#font_1_47" transform="matrix(13.667071,0,0,-13.667071,33.64926,174.9548)"/>
<use xlink:href="#font_1_40" transform="matrix(13.667071,0,0,-13.667071,41.692869,177.55075)"/>
<g id="Layer-1" data-name="Span">
</g>
<use xlink:href="#font_1_3e" transform="matrix(13.667071,0,0,-13.667071,99.28506,176.1121)"/>
<use xlink:href="#font_1_14" transform="matrix(13.667071,0,0,-13.667071,103.94296,173.356)"/>
<use xlink:href="#font_1_3" transform="matrix(13.667071,0,0,-13.667071,29349810000,-29349810000)"/>
<use xlink:href="#font_2_5b" transform="matrix(13.667071,0,0,-13.667071,114.359508,173.356)"/>
<use xlink:href="#font_2_3" transform="matrix(13.667071,0,0,-13.667071,29349810000,-29349810000)"/>
<use xlink:href="#font_1_47" transform="matrix(13.667071,0,0,-13.667071,125.44118,173.51616)"/>
<symbol id="font_1_4e">
<path d="M 0 0 L 0 .7158203 L .13720703 .7158203 L .13720703 .3359375 L .29785157 .5185547 L .46679688 .5185547 L .28955079 .32910157 L .4794922 0 L .33154298 0 L .20117188 .23291016 L .13720703 .16601563 L .13720703 0 L 0 0 Z "/>
</symbol>
<use xlink:href="#font_1_4e" transform="matrix(11.386828,0,0,-11.386828,133.98195,176.23328)"/>
<use xlink:href="#font_1_40" transform="matrix(13.667071,0,0,-13.667071,139.80158,176.1121)"/>
<g id="Layer-1" data-name="Span">
</g>
<use xlink:href="#font_1_3e" transform="matrix(13.667071,0,0,-13.667071,543.7571,177.55075)"/>
<use xlink:href="#font_1_14" transform="matrix(13.667071,0,0,-13.667071,548.41506,174.79465)"/>
<use xlink:href="#font_1_3" transform="matrix(13.667071,0,0,-13.667071,29349810000,-29349810000)"/>
<use xlink:href="#font_2_5b" transform="matrix(13.667071,0,0,-13.667071,558.83157,174.79465)"/>
<use xlink:href="#font_1_3" transform="matrix(13.667071,0,0,-13.667071,29349810000,-29349810000)"/>
<use xlink:href="#font_1_14" transform="matrix(13.667071,0,0,-13.667071,570.4455,174.79465)"/>
<use xlink:href="#font_1_40" transform="matrix(13.667071,0,0,-13.667071,577.2169,177.55075)"/>
<symbol id="font_1_5b">
<path d="M 0 0 L .18701172 .26708985 L .0078125 .5185547 L .17529297 .5185547 L .26708985 .37597657 L .36376954 .5185547 L .52490237 .5185547 L .3491211 .27294923 L .5410156 0 L .3725586 0 L .26708985 .16064453 L .16064453 0 L 0 0 Z "/>
</symbol>
<use xlink:href="#font_1_5b" transform="matrix(13.667071,0,0,-13.667071,20.962826,137.39003)"/>
<symbol id="font_1_4c">
<path d="M 0 .5888672 L 0 .7158203 L .13720703 .7158203 L .13720703 .5888672 L 0 .5888672 M 0 0 L 0 .5185547 L .13720703 .5185547 L .13720703 0 L 0 0 Z "/>
</symbol>
<use xlink:href="#font_1_4c" transform="matrix(11.386828,0,0,-11.386828,29.297873,140.2673)"/>
<symbol id="font_1_2e">
<path d="M 0 0 L 0 .7158203 L .14453125 .7158203 L .14453125 .39794923 L .43652345 .7158203 L .6308594 .7158203 L .36132813 .43701173 L .6455078 0 L .4584961 0 L .26171876 .3359375 L .14453125 .2163086 L .14453125 0 L 0 0 Z "/>
</symbol>
<use xlink:href="#font_1_2e" transform="matrix(13.667071,0,0,-13.667071,119.31537,137.39003)"/>
<use xlink:href="#font_1_4c" transform="matrix(11.386828,0,0,-11.386828,128.97983,140.2673)"/>
<symbol id="font_1_34">
<path d="M .60546877 .16259766 C .6409505 .13720703 .6795247 .11702474 .7211914 .10205078 L .66796877 0 C .6461589 .0065104167 .6248372 .015462239 .6040039 .026855469 C .5994466 .029134116 .5673828 .05029297 .5078125 .09033203 C .4609375 .06982422 .40901695 .059570314 .35205079 .059570314 C .24202474 .059570314 .15576172 .09195963 .09326172 .15673828 C .03108724 .22151692 0 .3125 0 .4296875 C 0 .5465495 .03125 .6373698 .09375 .70214846 C .15625 .7672526 .24104817 .7998047 .34814454 .7998047 C .4542643 .7998047 .53841146 .7672526 .60058596 .70214846 C .66276046 .6373698 .69384768 .5465495 .69384768 .4296875 C .69384768 .36783854 .6852214 .31347657 .66796877 .26660157 C .65494796 .23079427 .63411459 .1961263 .60546877 .16259766 M .4892578 .24414063 C .5078125 .26595054 .52164718 .29231773 .5307617 .3232422 C .54020187 .35416667 .5449219 .38964845 .5449219 .4296875 C .5449219 .5123698 .5266927 .57405599 .49023438 .6147461 C .45377604 .6557617 .40608726 .67626956 .34716798 .67626956 C .2882487 .67626956 .24039714 .6557617 .20361328 .6147461 C .16715496 .57373049 .14892578 .51204428 .14892578 .4296875 C .14892578 .34602867 .16715496 .28336589 .20361328 .24169922 C .24039714 .20035808 .28678385 .1796875 .34277345 .1796875 C .36360679 .1796875 .38330079 .18310547 .40185548 .1899414 C .3725586 .20914714 .34277345 .2241211 .3125 .23486328 L .35302735 .3173828 C .40055339 .30110679 .44596354 .27669273 .4892578 .24414063 Z "/>
</symbol>
<use xlink:href="#font_1_34" transform="matrix(13.667071,0,0,-13.667071,206.98244,138.37102)"/>
<use xlink:href="#font_1_4c" transform="matrix(11.386828,0,0,-11.386828,217.82703,140.2673)"/>
<symbol id="font_1_39">
<path d="M .25585938 0 L 0 .7158203 L .15673828 .7158203 L .33789063 .18603516 L .5131836 .7158203 L .6665039 .7158203 L .41015626 0 L .25585938 0 Z "/>
</symbol>
<use xlink:href="#font_1_39" transform="matrix(13.667071,0,0,-13.667071,297.0498,137.39003)"/>
<use xlink:href="#font_1_4c" transform="matrix(11.386828,0,0,-11.386828,306.98893,140.2673)"/>
<symbol id="font_1_56">
<path d="M 0 .15966797 L .13769531 .18066406 C .14355469 .15397136 .1554362 .1336263 .17333985 .119628909 C .19124349 .10595703 .2163086 .099121097 .24853516 .099121097 C .28401695 .099121097 .31070964 .10563151 .32861329 .118652347 C .34065757 .12776692 .3466797 .13997396 .3466797 .15527344 C .3466797 .16569011 .34342448 .1743164 .33691407 .18115235 C .33007813 .18766277 .31477867 .19368489 .29101563 .19921875 C .18033855 .22363281 .110188808 .24593099 .080566409 .26611329 C .03955078 .29410807 .019042969 .3330078 .019042969 .3828125 C .019042969 .42773438 .036783857 .46549479 .072265628 .49609376 C .1077474 .5266927 .16276042 .5419922 .23730469 .5419922 C .30826823 .5419922 .3610026 .5304362 .3955078 .5073242 C .43001304 .48421226 .45377604 .45003257 .46679688 .40478517 L .33740235 .38085938 C .3318685 .40104167 .32128907 .4165039 .30566407 .4272461 C .2903646 .43798829 .26839195 .44335938 .2397461 .44335938 C .20361328 .44335938 .17773438 .4383138 .16210938 .42822267 C .1516927 .4210612 .14648438 .41178385 .14648438 .40039063 C .14648438 .390625 .15104167 .38232423 .16015625 .37548829 C .17252605 .3663737 .21516927 .35351563 .28808595 .33691407 C .36132813 .3203125 .4124349 .29996745 .44140626 .2758789 C .4700521 .25146485 .484375 .21744792 .484375 .17382813 C .484375 .12630208 .46451823 .08544922 .4248047 .05126953 C .38509117 .017089844 .32633464 0 .24853516 0 C .17789714 0 .121907558 .014322917 .080566409 .04296875 C .03955078 .071614589 .0126953129 .11051432 0 .15966797 Z "/>
</symbol>
<symbol id="font_1_46">
<path d="M .48242188 .37695313 L .34716798 .35253907 C .3426107 .37955729 .332194 .39990235 .31591798 .41357423 C .29996745 .4272461 .27913413 .43408204 .25341798 .43408204 C .21923828 .43408204 .19189453 .42220054 .17138672 .3984375 C .15120442 .375 .14111328 .33561198 .14111328 .28027345 C .14111328 .21875 .15136719 .17529297 .171875 .14990235 C .19270833 .12451172 .22054036 .111816409 .2553711 .111816409 C .28141276 .111816409 .30273438 .119140628 .31933595 .13378906 C .3359375 .14876302 .34765626 .1743164 .3544922 .21044922 L .4892578 .1875 C .4752604 .12565105 .44840495 .078938808 .4086914 .04736328 C .36897788 .01578776 .31575523 0 .24902344 0 C .17317708 0 .11263021 .023925782 .06738281 .071777347 C .022460938 .119628909 0 .18587239 0 .2705078 C 0 .35611979 .022623698 .4226888 .067871097 .47021485 C .11311849 .5180664 .1743164 .5419922 .25146485 .5419922 C .31461589 .5419922 .3647461 .5283203 .40185548 .50097659 C .43929038 .47395835 .46614585 .4326172 .48242188 .37695313 Z "/>
</symbol>
<symbol id="font_1_52">
<path d="M 0 .2783203 C 0 .32389323 .011230469 .3680013 .033691408 .41064454 C .056152345 .45328776 .087890628 .48583985 .12890625 .5083008 C .17024739 .5307617 .2163086 .5419922 .26708985 .5419922 C .34554038 .5419922 .40983073 .5164388 .45996095 .46533204 C .5100911 .41455079 .53515627 .3502604 .53515627 .27246095 C .53515627 .19401042 .5097656 .12890625 .45898438 .07714844 C .40852867 .025716147 .3448893 0 .2680664 0 C .22054036 0 .1751302 .0107421879 .13183594 .032226564 C .08886719 .053710939 .056152345 .085123699 .033691408 .12646485 C .011230469 .16813152 0 .21875 0 .2783203 M .140625 .2709961 C .140625 .2195638 .15283203 .18017578 .1772461 .15283203 C .20166016 .12548828 .23177083 .111816409 .26757813 .111816409 C .3033854 .111816409 .33333335 .12548828 .35742188 .15283203 C .38183595 .18017578 .39404298 .21988933 .39404298 .27197267 C .39404298 .3227539 .38183595 .3618164 .35742188 .38916017 C .33333335 .4165039 .3033854 .43017579 .26757813 .43017579 C .23177083 .43017579 .20166016 .4165039 .1772461 .38916017 C .15283203 .3618164 .140625 .32242839 .140625 .2709961 Z "/>
</symbol>
<symbol id="font_1_55">
<path d="M .13720703 0 L 0 0 L 0 .5185547 L .1274414 .5185547 L .1274414 .44482423 C .1492513 .47965495 .16878255 .5026042 .18603516 .5136719 C .20361328 .52473959 .22347005 .53027346 .24560547 .53027346 C .27685548 .53027346 .30696617 .52164718 .3359375 .50439456 L .29345704 .38476563 C .27034507 .3997396 .24886067 .40722657 .2290039 .40722657 C .20979817 .40722657 .19352214 .40185548 .18017578 .39111329 C .16682942 .38069663 .15625 .36165367 .1484375 .33398438 C .14095052 .3063151 .13720703 .24837239 .13720703 .16015625 L .13720703 0 Z "/>
</symbol>
<symbol id="font_1_48">
<path d="M .34033204 .17675781 L .47705079 .1538086 C .45947267 .10367838 .43164063 .06542969 .3935547 .0390625 C .35579429 .013020833 .308431 0 .25146485 0 C .16129558 0 .094563808 .029459635 .05126953 .088378909 C .017089844 .13557942 0 .19514974 0 .26708985 C 0 .35302735 .022460938 .4202474 .06738281 .46875 C .11230469 .5175781 .16910808 .5419922 .23779297 .5419922 C .3149414 .5419922 .3758138 .5164388 .42041017 .46533204 C .4650065 .41455079 .48632813 .33658854 .484375 .23144531 L .140625 .23144531 C .14160156 .1907552 .15266927 .15901692 .17382813 .13623047 C .19498699 .11376953 .22135417 .10253906 .2529297 .10253906 C .27441407 .10253906 .29248048 .10839844 .3071289 .12011719 C .32177735 .13183594 .33284507 .15071614 .34033204 .17675781 M .34814454 .3154297 C .34716798 .35514323 .33691407 .3852539 .3173828 .40576173 C .29785157 .42659507 .27408854 .43701173 .24609375 .43701173 C .21614583 .43701173 .19140625 .42610679 .171875 .40429688 C .15234375 .38248698 .14274089 .3528646 .1430664 .3154297 L .34814454 .3154297 Z "/>
</symbol>
<use xlink:href="#font_1_56" transform="matrix(13.667071,0,0,-13.667071,547.83486,138.98883)"/>
<use xlink:href="#font_1_46" transform="matrix(13.667071,0,0,-13.667071,555.6807,138.98883)"/>
<use xlink:href="#font_1_52" transform="matrix(13.667071,0,0,-13.667071,563.2596,138.98883)"/>
<use xlink:href="#font_1_55" transform="matrix(13.667071,0,0,-13.667071,571.9638,138.82868)"/>
<use xlink:href="#font_1_48" transform="matrix(13.667071,0,0,-13.667071,576.81326,138.98883)"/>
<symbol id="font_1_5c">
<path d="M 0 .7290039 L .1459961 .7290039 L .27001954 .36083985 L .39111329 .7290039 L .5332031 .7290039 L .35009767 .22998047 L .3173828 .13964844 C .30533854 .109375 .29378257 .08626302 .28271485 .0703125 C .27197267 .05436198 .2594401 .041503908 .24511719 .03173828 C .2311198 .021647135 .21370442 .013834636 .1928711 .008300781 C .17236328 .002766927 .14908855 0 .123046878 0 C .09667969 0 .07080078 .002766927 .045410158 .008300781 L .033203126 .115722659 C .0546875 .11149088 .07405599 .109375 .091308597 .109375 C .12320963 .109375 .14680989 .1188151 .16210938 .13769531 C .17740886 .15625 .18912761 .18001302 .19726563 .20898438 L 0 .7290039 Z "/>
</symbol>
<use xlink:href="#font_1_5c" transform="matrix(13.667071,0,0,-13.667071,474.14747,140.26625)"/>
<use xlink:href="#font_1_4c" transform="matrix(11.386828,0,0,-11.386828,482.46919,140.2673)"/>
<symbol id="font_1_53">
<path d="M 0 .7158203 L .12792969 .7158203 L .12792969 .63964846 C .14453125 .6656901 .16699219 .68684896 .1953125 .703125 C .22363281 .71940109 .25504557 .72753909 .28955079 .72753909 C .34977214 .72753909 .4008789 .7039388 .4428711 .6567383 C .48486329 .6095378 .5058594 .54378256 .5058594 .45947267 C .5058594 .37288413 .48470054 .3055013 .4423828 .25732423 C .4000651 .20947266 .34879557 .18554688 .28857423 .18554688 C .25992839 .18554688 .23388672 .19124349 .21044922 .20263672 C .18733724 .21402996 .16292317 .2335612 .13720703 .26123048 L .13720703 0 L 0 0 L 0 .7158203 M .13574219 .46533204 C .13574219 .4070638 .14729817 .36393229 .17041016 .3359375 C .19352214 .30826823 .22167969 .2944336 .2548828 .2944336 C .28678385 .2944336 .3133138 .3071289 .33447267 .33251954 C .3556315 .3582357 .36621095 .40022788 .36621095 .4584961 C .36621095 .5128581 .355306 .55322268 .3334961 .57958987 C .3116862 .60595706 .28466798 .6191406 .2524414 .6191406 C .21891277 .6191406 .19108074 .6061198 .16894531 .5800781 C .14680989 .554362 .13574219 .5161133 .13574219 .46533204 Z "/>
</symbol>
<symbol id="font_1_58">
<path d="M .34423829 .01171875 L .34423829 .08935547 C .32535807 .0616862 .30045573 .0398763 .26953126 .023925782 C .2389323 .007975261 .20654297 0 .17236328 0 C .13753255 0 .106282558 .0076497399 .07861328 .022949219 C .05094401 .0382487 .030924479 .059733076 .018554688 .087402347 C .006184896 .11507162 0 .15332031 0 .20214844 L 0 .53027346 L .13720703 .53027346 L .13720703 .2919922 C .13720703 .21907552 .13964844 .1743164 .14453125 .15771485 C .14973958 .1414388 .15901692 .12841797 .17236328 .118652347 C .18570964 .10921224 .20263672 .10449219 .22314453 .10449219 C .24658203 .10449219 .26757813 .110839847 .2861328 .123535159 C .3046875 .13655599 .3173828 .15250652 .32421876 .17138672 C .3310547 .19059246 .33447267 .23730469 .33447267 .31152345 L .33447267 .53027346 L .4716797 .53027346 L .4716797 .01171875 L .34423829 .01171875 Z "/>
</symbol>
<symbol id="font_1_57">
<path d="M .2944336 .53027346 L .2944336 .42089845 L .2006836 .42089845 L .2006836 .21191406 C .2006836 .16959636 .20149739 .14485677 .203125 .13769531 C .20507813 .13085938 .20914714 .12516277 .21533203 .12060547 C .22184246 .11604818 .22965496 .11376953 .23876953 .11376953 C .25146485 .11376953 .26985679 .11816406 .2939453 .12695313 L .30566407 .020507813 C .27376304 .0068359377 .2376302 0 .19726563 0 C .17252605 0 .15022786 .0040690104 .1303711 .012207031 C .11051432 .020670573 .09586588 .03141276 .08642578 .044433595 C .077311199 .05777995 .07096354 .075683597 .06738281 .09814453 C .064453128 .114095058 .06298828 .14632161 .06298828 .19482422 L .06298828 .42089845 L 0 .42089845 L 0 .53027346 L .06298828 .53027346 L .06298828 .6333008 L .2006836 .7133789 L .2006836 .53027346 L .2944336 .53027346 Z "/>
</symbol>
<use xlink:href="#font_1_53" transform="matrix(13.667071,0,0,-13.667071,368.60105,141.52472)"/>
<use xlink:href="#font_1_55" transform="matrix(13.667071,0,0,-13.667071,376.92494,138.82868)"/>
<use xlink:href="#font_1_52" transform="matrix(13.667071,0,0,-13.667071,381.88774,138.98883)"/>
<use xlink:href="#font_1_47" transform="matrix(13.667071,0,0,-13.667071,390.25169,138.98883)"/>
<use xlink:href="#font_1_58" transform="matrix(13.667071,0,0,-13.667071,398.98265,138.98883)"/>
<use xlink:href="#font_1_46" transform="matrix(13.667071,0,0,-13.667071,406.9595,138.98883)"/>
<use xlink:href="#font_1_57" transform="matrix(13.667071,0,0,-13.667071,414.19807,138.98883)"/>
<g id="Layer-1" data-name="Span">
</g>
<use xlink:href="#font_1_3e" transform="matrix(13.667071,0,0,-13.667071,187.76137,176.1121)"/>
<use xlink:href="#font_1_14" transform="matrix(13.667071,0,0,-13.667071,192.41927,173.356)"/>
<use xlink:href="#font_1_3" transform="matrix(13.667071,0,0,-13.667071,29349810000,-29349810000)"/>
<use xlink:href="#font_2_5b" transform="matrix(13.667071,0,0,-13.667071,202.83582,173.356)"/>
<use xlink:href="#font_2_3" transform="matrix(13.667071,0,0,-13.667071,29349810000,-29349810000)"/>
<use xlink:href="#font_1_47" transform="matrix(13.667071,0,0,-13.667071,213.91748,173.51616)"/>
<use xlink:href="#font_1_4e" transform="matrix(11.386828,0,0,-11.386828,222.45824,176.23328)"/>
<use xlink:href="#font_1_40" transform="matrix(13.667071,0,0,-13.667071,228.27788,176.1121)"/>
<g id="Layer-1" data-name="Span">
</g>
<use xlink:href="#font_1_3e" transform="matrix(13.667071,0,0,-13.667071,277.6763,176.1121)"/>
<use xlink:href="#font_1_14" transform="matrix(13.667071,0,0,-13.667071,282.3342,173.356)"/>
<use xlink:href="#font_1_3" transform="matrix(13.667071,0,0,-13.667071,29349810000,-29349810000)"/>
<use xlink:href="#font_2_5b" transform="matrix(13.667071,0,0,-13.667071,292.75077,173.356)"/>
<use xlink:href="#font_1_3" transform="matrix(13.667071,0,0,-13.667071,29349810000,-29349810000)"/>
<use xlink:href="#font_1_47" transform="matrix(13.667071,0,0,-13.667071,303.8442,173.51616)"/>
<symbol id="font_1_59">
<path d="M .20898438 0 L 0 .5185547 L .14404297 .5185547 L .24169922 .25390626 L .27001954 .16552735 C .2775065 .18798828 .28222657 .20279949 .2841797 .20996094 C .28873698 .22460938 .29361979 .23925781 .29882813 .25390626 L .39746095 .5185547 L .5385742 .5185547 L .33251954 0 L .20898438 0 Z "/>
</symbol>
<use xlink:href="#font_1_59" transform="matrix(11.386828,0,0,-11.386828,311.68388,176.23328)"/>
<use xlink:href="#font_1_40" transform="matrix(13.667071,0,0,-13.667071,318.20408,176.1121)"/>
<g id="Layer-1" data-name="Span">
</g>
<use xlink:href="#font_1_3e" transform="matrix(13.667071,0,0,-13.667071,367.59126,176.1121)"/>
<use xlink:href="#font_1_14" transform="matrix(13.667071,0,0,-13.667071,372.24919,173.356)"/>
<use xlink:href="#font_1_3" transform="matrix(13.667071,0,0,-13.667071,29349810000,-29349810000)"/>
<use xlink:href="#font_2_5b" transform="matrix(13.667071,0,0,-13.667071,382.66569,173.356)"/>
<use xlink:href="#font_1_3" transform="matrix(13.667071,0,0,-13.667071,29349810000,-29349810000)"/>
<use xlink:href="#font_1_47" transform="matrix(13.667071,0,0,-13.667071,393.75914,173.51616)"/>
<use xlink:href="#font_1_59" transform="matrix(11.386828,0,0,-11.386828,401.59883,176.23328)"/>
<use xlink:href="#font_1_40" transform="matrix(13.667071,0,0,-13.667071,408.11903,176.1121)"/>
<g id="Layer-1" data-name="Span">
</g>
<use xlink:href="#font_1_3e" transform="matrix(13.667071,0,0,-13.667071,453.90959,176.1121)"/>
<use xlink:href="#font_1_14" transform="matrix(13.667071,0,0,-13.667071,458.5675,173.356)"/>
<use xlink:href="#font_1_3" transform="matrix(13.667071,0,0,-13.667071,29349810000,-29349810000)"/>
<use xlink:href="#font_2_5b" transform="matrix(13.667071,0,0,-13.667071,468.98405,173.356)"/>
<use xlink:href="#font_2_3" transform="matrix(13.667071,0,0,-13.667071,29349810000,-29349810000)"/>
<use xlink:href="#font_1_47" transform="matrix(13.667071,0,0,-13.667071,480.0657,173.51616)"/>
<use xlink:href="#font_1_59" transform="matrix(11.386828,0,0,-11.386828,487.9059,176.23328)"/>
<use xlink:href="#font_1_40" transform="matrix(13.667071,0,0,-13.667071,494.42613,176.1121)"/>
</g>
</g>
</svg>
