<?xml version="1.0" encoding="UTF-8" standalone="no"?>
<!DOCTYPE svg PUBLIC "-//W3C//DTD SVG 1.1//EN" "http://www.w3.org/Graphics/SVG/1.1/DTD/svg11.dtd">
<svg xmlns="http://www.w3.org/2000/svg" xmlns:xlink="http://www.w3.org/1999/xlink" version="1.1" width="678pt" height="291.12pt" viewBox="0 0 678 291.12">
<g enable-background="new">
<clipPath id="cp0">
<path transform="matrix(.24,0,0,.24,0,0)" d="M 0 0 L 2824.9998 0 L 2824.9998 1207.2905 L 0 1207.2905 Z " fill-rule="evenodd"/>
</clipPath>
<g clip-path="url(#cp0)">
<path transform="matrix(.7189819,0,0,.7189819,.35949097,.35949097)" d="M 1 271 L 251 271 L 251 321 L 1 321 Z " fill="#e1d5e7"/>
<path transform="matrix(.7189819,0,0,.7189819,.35949097,.35949097)" stroke-width="1" stroke-linecap="butt" stroke-miterlimit="4" stroke-linejoin="miter" fill="none" stroke="#9673a6" d="M 1 271 L 251 271 L 251 321 L 1 321 Z "/>
<path transform="matrix(.7189819,0,0,.7189819,.35949097,.35949097)" d="M 11 281 L 31 281 L 31 311 L 11 311 Z " fill="#f5f5f5"/>
<path transform="matrix(.7189819,0,0,.7189819,.35949097,.35949097)" stroke-width="1" stroke-linecap="butt" stroke-miterlimit="4" stroke-linejoin="miter" fill="none" stroke="#666666" d="M 11 281 L 31 281 L 31 311 L 11 311 Z "/>
<path transform="matrix(.7189819,0,0,.7189819,.35949097,.35949097)" d="M 41 281 L 61 281 L 61 311 L 41 311 Z " fill="#f5f5f5"/>
<path transform="matrix(.7189819,0,0,.7189819,.35949097,.35949097)" stroke-width="1" stroke-linecap="butt" stroke-miterlimit="4" stroke-linejoin="miter" fill="none" stroke="#666666" d="M 41 281 L 61 281 L 61 311 L 41 311 Z "/>
<path transform="matrix(.7189819,0,0,.7189819,.35949097,.35949097)" d="M 71 281 L 91 281 L 91 311 L 71 311 Z " fill="#f5f5f5"/>
<path transform="matrix(.7189819,0,0,.7189819,.35949097,.35949097)" stroke-width="1" stroke-linecap="butt" stroke-miterlimit="4" stroke-linejoin="miter" fill="none" stroke="#666666" d="M 71 281 L 91 281 L 91 311 L 71 311 Z "/>
<path transform="matrix(.7189819,0,0,.7189819,.35949097,.35949097)" d="M 221 281 L 241 281 L 241 311 L 221 311 Z " fill="#f5f5f5"/>
<path transform="matrix(.7189819,0,0,.7189819,.35949097,.35949097)" stroke-width="1" stroke-linecap="butt" stroke-miterlimit="4" stroke-linejoin="miter" fill="none" stroke="#666666" d="M 221 281 L 241 281 L 241 311 L 221 311 Z "/>
<path transform="matrix(.7189819,0,0,.7189819,.35949097,.35949097)" d="M 101 281 L 121 281 L 121 311 L 101 311 Z " fill="#f5f5f5"/>
<path transform="matrix(.7189819,0,0,.7189819,.35949097,.35949097)" stroke-width="1" stroke-linecap="butt" stroke-miterlimit="4" stroke-linejoin="miter" fill="none" stroke="#666666" d="M 101 281 L 121 281 L 121 311 L 101 311 Z "/>
<path transform="matrix(.7189819,0,0,.7189819,.35949097,.35949097)" d="M 141.01476 293.91007 L 144.0146 293.93959 L 143.98509 296.93946 L 140.98525 296.90995 M 147.01447 293.96907 L 150.01433 293.99858 L 149.98482 296.99845 L 146.98496 296.96894 M 153.01418 294.02806 L 156.01403 294.05757 L 155.98451 297.05744 L 152.98467 297.02793 M 159.01389 294.08708 L 162.01375 294.11656 L 161.98424 297.11643 L 158.98438 297.08695 M 165.0136 294.14607 L 168.01345 294.17555 L 167.98394 297.1754 L 164.98409 297.14595 M 171.0133 294.20506 L 174.01317 294.23457 L 173.98366 297.23445 L 170.9838 297.20494 M 177.01302 294.26405 L 180.01287 294.29356 L 179.98336 297.29344 L 176.9835 297.26393 M 183.01273 294.32304 L 186.01259 294.35255 L 185.98308 297.35243 L 182.98322 297.3229 M 189.01244 294.38206 L 192.01229 294.41154 L 191.98278 297.4114 L 188.98293 297.38194 M 195.01215 294.44105 L 198.01201 294.47053 L 197.9825 297.4704 L 194.98264 297.44093 M 201.01186 294.50004 L 201.01476 294.50007 L 200.98525 297.49995 L 200.98235 297.4999 "/>
<path transform="matrix(.7189819,0,0,.7189819,.35949097,.35949097)" d="M 1 181 L 361 181 L 361 231 L 1 231 Z " fill="#f8cecc"/>
<path transform="matrix(.7189819,0,0,.7189819,.35949097,.35949097)" stroke-width="1" stroke-linecap="butt" stroke-miterlimit="4" stroke-linejoin="miter" fill="none" stroke="#b85450" d="M 1 181 L 361 181 L 361 231 L 1 231 Z "/>
<path transform="matrix(.7189819,0,0,.7189819,.35949097,.35949097)" d="M 11 191 L 31 191 L 31 221 L 11 221 Z " fill="#e1d5e7"/>
<path transform="matrix(.7189819,0,0,.7189819,.35949097,.35949097)" stroke-width="1" stroke-linecap="butt" stroke-miterlimit="4" stroke-linejoin="miter" fill="none" stroke="#9673a6" d="M 11 191 L 31 191 L 31 221 L 11 221 Z "/>
<path transform="matrix(.7189819,0,0,.7189819,.35949097,.35949097)" d="M 41 191 L 61 191 L 61 221 L 41 221 Z " fill="#e1d5e7"/>
<path transform="matrix(.7189819,0,0,.7189819,.35949097,.35949097)" stroke-width="1" stroke-linecap="butt" stroke-miterlimit="4" stroke-linejoin="miter" fill="none" stroke="#9673a6" d="M 41 191 L 61 191 L 61 221 L 41 221 Z "/>
<path transform="matrix(.7189819,0,0,.7189819,.35949097,.35949097)" d="M 71 191 L 91 191 L 91 221 L 71 221 Z " fill="#e1d5e7"/>
<path transform="matrix(.7189819,0,0,.7189819,.35949097,.35949097)" stroke-width="1" stroke-linecap="butt" stroke-miterlimit="4" stroke-linejoin="miter" fill="none" stroke="#9673a6" d="M 71 191 L 91 191 L 91 221 L 71 221 Z "/>
<path transform="matrix(.7189819,0,0,.7189819,.35949097,.35949097)" d="M 101 191 L 121 191 L 121 221 L 101 221 Z " fill="#e1d5e7"/>
<path transform="matrix(.7189819,0,0,.7189819,.35949097,.35949097)" stroke-width="1" stroke-linecap="butt" stroke-miterlimit="4" stroke-linejoin="miter" fill="none" stroke="#9673a6" d="M 101 191 L 121 191 L 121 221 L 101 221 Z "/>
<path transform="matrix(.7189819,0,0,.7189819,.35949097,.35949097)" d="M 131 191 L 151 191 L 151 221 L 131 221 Z " fill="#e1d5e7"/>
<path transform="matrix(.7189819,0,0,.7189819,.35949097,.35949097)" stroke-width="1" stroke-linecap="butt" stroke-miterlimit="4" stroke-linejoin="miter" fill="none" stroke="#9673a6" d="M 131 191 L 151 191 L 151 221 L 131 221 Z "/>
<path transform="matrix(.7189819,0,0,.7189819,.35949097,.35949097)" d="M 161 191 L 181 191 L 181 221 L 161 221 Z " fill="#e1d5e7"/>
<path transform="matrix(.7189819,0,0,.7189819,.35949097,.35949097)" stroke-width="1" stroke-linecap="butt" stroke-miterlimit="4" stroke-linejoin="miter" fill="none" stroke="#9673a6" d="M 161 191 L 181 191 L 181 221 L 161 221 Z "/>
<path transform="matrix(.7189819,0,0,.7189819,.35949097,.35949097)" d="M 331 191 L 351 191 L 351 221 L 331 221 Z " fill="#e1d5e7"/>
<path transform="matrix(.7189819,0,0,.7189819,.35949097,.35949097)" stroke-width="1" stroke-linecap="butt" stroke-miterlimit="4" stroke-linejoin="miter" fill="none" stroke="#9673a6" d="M 331 191 L 351 191 L 351 221 L 331 221 Z "/>
<path transform="matrix(.7189819,0,0,.7189819,.35949097,.35949097)" d="M 301 191 L 321 191 L 321 221 L 301 221 Z " fill="#e1d5e7"/>
<path transform="matrix(.7189819,0,0,.7189819,.35949097,.35949097)" stroke-width="1" stroke-linecap="butt" stroke-miterlimit="4" stroke-linejoin="miter" fill="none" stroke="#9673a6" d="M 301 191 L 321 191 L 321 221 L 301 221 Z "/>
<path transform="matrix(.7189819,0,0,.7189819,.35949097,.35949097)" d="M 201.00983 203.91004 L 204.00977 203.9297 L 203.99011 206.92964 L 200.99018 206.90998 M 207.0097 203.94937 L 210.00963 203.96904 L 209.98998 206.96898 L 206.99005 206.94931 M 213.00957 203.9887 L 216.0095 204.00836 L 215.98986 207.0083 L 212.98992 206.98863 M 219.00945 204.02803 L 222.00937 204.0477 L 221.98972 207.04764 L 218.98979 207.02797 M 225.00931 204.06737 L 228.00925 204.08704 L 227.9896 207.08698 L 224.98966 207.0673 M 231.00919 204.10669 L 234.00913 204.12636 L 233.98947 207.1263 L 230.98954 207.10663 M 237.00905 204.14603 L 240.00899 204.1657 L 239.98934 207.16564 L 236.9894 207.14597 M 243.00893 204.18537 L 246.00885 204.20503 L 245.9892 207.20497 L 242.98928 207.1853 M 249.00879 204.22469 L 252.00873 204.24436 L 251.98908 207.2443 L 248.98914 207.22463 M 255.00867 204.26403 L 258.0086 204.28369 L 257.98896 207.28363 L 254.98902 207.26396 M 261.00856 204.30336 L 264.00849 204.32303 L 263.98884 207.32297 L 260.9889 207.3033 M 267.00843 204.34268 L 270.00834 204.36235 L 269.98869 207.36229 L 266.98878 207.34262 M 273.00828 204.38202 L 276.0082 204.40169 L 275.98857 207.40163 L 272.98863 207.38196 M 279.00816 204.42136 L 282.0081 204.44103 L 281.98844 207.44097 L 278.9885 207.4213 M 285.00804 204.46068 L 288.00798 204.48035 L 287.9883 207.48029 L 284.98838 207.46062 M 291.00788 204.50002 L 291.00984 204.50003 L 290.99018 207.49997 L 290.98823 207.49996 "/>
<path transform="matrix(.7189819,0,0,.7189819,.35949097,.35949097)" d="M 1 91 L 521 91 L 521 141 L 1 141 Z " fill="#dae8fc"/>
<path transform="matrix(.7189819,0,0,.7189819,.35949097,.35949097)" stroke-width="1" stroke-linecap="butt" stroke-miterlimit="4" stroke-linejoin="miter" fill="none" stroke="#6c8ebf" d="M 1 91 L 521 91 L 521 141 L 1 141 Z "/>
<path transform="matrix(.7189819,0,0,.7189819,.35949097,.35949097)" d="M 11 101 L 31 101 L 31 131 L 11 131 Z " fill="#f8cecc"/>
<path transform="matrix(.7189819,0,0,.7189819,.35949097,.35949097)" stroke-width="1" stroke-linecap="butt" stroke-miterlimit="4" stroke-linejoin="miter" fill="none" stroke="#b85450" d="M 11 101 L 31 101 L 31 131 L 11 131 Z "/>
<path transform="matrix(.7189819,0,0,.7189819,.35949097,.35949097)" d="M 41 101 L 61 101 L 61 131 L 41 131 Z " fill="#f8cecc"/>
<path transform="matrix(.7189819,0,0,.7189819,.35949097,.35949097)" stroke-width="1" stroke-linecap="butt" stroke-miterlimit="4" stroke-linejoin="miter" fill="none" stroke="#b85450" d="M 41 101 L 61 101 L 61 131 L 41 131 Z "/>
<path transform="matrix(.7189819,0,0,.7189819,.35949097,.35949097)" d="M 71 101 L 91 101 L 91 131 L 71 131 Z " fill="#f8cecc"/>
<path transform="matrix(.7189819,0,0,.7189819,.35949097,.35949097)" stroke-width="1" stroke-linecap="butt" stroke-miterlimit="4" stroke-linejoin="miter" fill="none" stroke="#b85450" d="M 71 101 L 91 101 L 91 131 L 71 131 Z "/>
<path transform="matrix(.7189819,0,0,.7189819,.35949097,.35949097)" d="M 101 101 L 121 101 L 121 131 L 101 131 Z " fill="#f8cecc"/>
<path transform="matrix(.7189819,0,0,.7189819,.35949097,.35949097)" stroke-width="1" stroke-linecap="butt" stroke-miterlimit="4" stroke-linejoin="miter" fill="none" stroke="#b85450" d="M 101 101 L 121 101 L 121 131 L 101 131 Z "/>
<path transform="matrix(.7189819,0,0,.7189819,.35949097,.35949097)" d="M 131 101 L 151 101 L 151 131 L 131 131 Z " fill="#f8cecc"/>
<path transform="matrix(.7189819,0,0,.7189819,.35949097,.35949097)" stroke-width="1" stroke-linecap="butt" stroke-miterlimit="4" stroke-linejoin="miter" fill="none" stroke="#b85450" d="M 131 101 L 151 101 L 151 131 L 131 131 Z "/>
<path transform="matrix(.7189819,0,0,.7189819,.35949097,.35949097)" d="M 161 101 L 181 101 L 181 131 L 161 131 Z " fill="#f8cecc"/>
<path transform="matrix(.7189819,0,0,.7189819,.35949097,.35949097)" stroke-width="1" stroke-linecap="butt" stroke-miterlimit="4" stroke-linejoin="miter" fill="none" stroke="#b85450" d="M 161 101 L 181 101 L 181 131 L 161 131 Z "/>
<path transform="matrix(.7189819,0,0,.7189819,.35949097,.35949097)" d="M 431 101 L 451 101 L 451 131 L 431 131 Z " fill="#f8cecc"/>
<path transform="matrix(.7189819,0,0,.7189819,.35949097,.35949097)" stroke-width="1" stroke-linecap="butt" stroke-miterlimit="4" stroke-linejoin="miter" fill="none" stroke="#b85450" d="M 431 101 L 451 101 L 451 131 L 431 131 Z "/>
<path transform="matrix(.7189819,0,0,.7189819,.35949097,.35949097)" d="M 461 101 L 481 101 L 481 131 L 461 131 Z " fill="#f8cecc"/>
<path transform="matrix(.7189819,0,0,.7189819,.35949097,.35949097)" stroke-width="1" stroke-linecap="butt" stroke-miterlimit="4" stroke-linejoin="miter" fill="none" stroke="#b85450" d="M 461 101 L 481 101 L 481 131 L 461 131 Z "/>
<path transform="matrix(.7189819,0,0,.7189819,.35949097,.35949097)" d="M 491 101 L 511 101 L 511 131 L 491 131 Z " fill="#f8cecc"/>
<path transform="matrix(.7189819,0,0,.7189819,.35949097,.35949097)" stroke-width="1" stroke-linecap="butt" stroke-miterlimit="4" stroke-linejoin="miter" fill="none" stroke="#b85450" d="M 491 101 L 511 101 L 511 131 L 491 131 Z "/>
<path transform="matrix(.7189819,0,0,.7189819,.35949097,.35949097)" d="M 191 101 L 211 101 L 211 131 L 191 131 Z " fill="#f8cecc"/>
<path transform="matrix(.7189819,0,0,.7189819,.35949097,.35949097)" stroke-width="1" stroke-linecap="butt" stroke-miterlimit="4" stroke-linejoin="miter" fill="none" stroke="#b85450" d="M 191 101 L 211 101 L 211 131 L 191 131 Z "/>
<path transform="matrix(.7189819,0,0,.7189819,.35949097,.35949097)" d="M 221 101 L 241 101 L 241 131 L 221 131 Z " fill="#f8cecc"/>
<path transform="matrix(.7189819,0,0,.7189819,.35949097,.35949097)" stroke-width="1" stroke-linecap="butt" stroke-miterlimit="4" stroke-linejoin="miter" fill="none" stroke="#b85450" d="M 221 101 L 241 101 L 241 131 L 221 131 Z "/>
<path transform="matrix(.7189819,0,0,.7189819,.35949097,.35949097)" d="M 401 101 L 421 101 L 421 131 L 401 131 Z " fill="#f8cecc"/>
<path transform="matrix(.7189819,0,0,.7189819,.35949097,.35949097)" stroke-width="1" stroke-linecap="butt" stroke-miterlimit="4" stroke-linejoin="miter" fill="none" stroke="#b85450" d="M 401 101 L 421 101 L 421 131 L 401 131 Z "/>
<path transform="matrix(.7189819,0,0,.7189819,.35949097,.35949097)" d="M 266 114 L 269 114 L 269 117 L 266 117 M 272 114 L 275 114 L 275 117 L 272 117 M 278 114 L 281 114 L 281 117 L 278 117 M 284 114 L 287 114 L 287 117 L 284 117 M 290 114 L 293 114 L 293 117 L 290 117 M 296 114 L 299 114 L 299 117 L 296 117 M 302 114 L 305 114 L 305 117 L 302 117 M 308 114 L 311 114 L 311 117 L 308 117 M 314 114 L 317 114 L 317 117 L 314 117 M 320 114 L 323 114 L 323 117 L 320 117 M 326 114 L 329 114 L 329 117 L 326 117 M 332 114 L 335 114 L 335 117 L 332 117 M 338 114 L 341 114 L 341 117 L 338 117 M 344 114 L 347 114 L 347 117 L 344 117 M 350 114 L 353 114 L 353 117 L 350 117 M 356 114 L 359 114 L 359 117 L 356 117 M 362 114 L 365 114 L 365 117 L 362 117 M 368 114 L 371 114 L 371 117 L 368 117 M 374 114 L 377 114 L 377 117 L 374 117 M 380 114 L 381 114 L 381 117 L 380 117 "/>
<path transform="matrix(.7189819,0,0,.7189819,.35949097,.35949097)" d="M 1 1 L 771 1 L 771 51 L 1 51 Z " fill="#d5e8d4"/>
<path transform="matrix(.7189819,0,0,.7189819,.35949097,.35949097)" stroke-width="1" stroke-linecap="butt" stroke-miterlimit="4" stroke-linejoin="miter" fill="none" stroke="#82b366" d="M 1 1 L 771 1 L 771 51 L 1 51 Z "/>
<path transform="matrix(.7189819,0,0,.7189819,.35949097,.35949097)" d="M 11 11 L 31 11 L 31 41 L 11 41 Z " fill="#dae8fc"/>
<path transform="matrix(.7189819,0,0,.7189819,.35949097,.35949097)" stroke-width="1" stroke-linecap="butt" stroke-miterlimit="4" stroke-linejoin="miter" fill="none" stroke="#6c8ebf" d="M 11 11 L 31 11 L 31 41 L 11 41 Z "/>
<path transform="matrix(.7189819,0,0,.7189819,.35949097,.35949097)" d="M 41 11 L 61 11 L 61 41 L 41 41 Z " fill="#dae8fc"/>
<path transform="matrix(.7189819,0,0,.7189819,.35949097,.35949097)" stroke-width="1" stroke-linecap="butt" stroke-miterlimit="4" stroke-linejoin="miter" fill="none" stroke="#6c8ebf" d="M 41 11 L 61 11 L 61 41 L 41 41 Z "/>
<path transform="matrix(.7189819,0,0,.7189819,.35949097,.35949097)" d="M 71 11 L 91 11 L 91 41 L 71 41 Z " fill="#dae8fc"/>
<path transform="matrix(.7189819,0,0,.7189819,.35949097,.35949097)" stroke-width="1" stroke-linecap="butt" stroke-miterlimit="4" stroke-linejoin="miter" fill="none" stroke="#6c8ebf" d="M 71 11 L 91 11 L 91 41 L 71 41 Z "/>
<path transform="matrix(.7189819,0,0,.7189819,.35949097,.35949097)" d="M 101 11 L 121 11 L 121 41 L 101 41 Z " fill="#dae8fc"/>
<path transform="matrix(.7189819,0,0,.7189819,.35949097,.35949097)" stroke-width="1" stroke-linecap="butt" stroke-miterlimit="4" stroke-linejoin="miter" fill="none" stroke="#6c8ebf" d="M 101 11 L 121 11 L 121 41 L 101 41 Z "/>
<path transform="matrix(.7189819,0,0,.7189819,.35949097,.35949097)" d="M 131 11 L 151 11 L 151 41 L 131 41 Z " fill="#dae8fc"/>
<path transform="matrix(.7189819,0,0,.7189819,.35949097,.35949097)" stroke-width="1" stroke-linecap="butt" stroke-miterlimit="4" stroke-linejoin="miter" fill="none" stroke="#6c8ebf" d="M 131 11 L 151 11 L 151 41 L 131 41 Z "/>
<path transform="matrix(.7189819,0,0,.7189819,.35949097,.35949097)" d="M 161 11 L 181 11 L 181 41 L 161 41 Z " fill="#dae8fc"/>
<path transform="matrix(.7189819,0,0,.7189819,.35949097,.35949097)" stroke-width="1" stroke-linecap="butt" stroke-miterlimit="4" stroke-linejoin="miter" fill="none" stroke="#6c8ebf" d="M 161 11 L 181 11 L 181 41 L 161 41 Z "/>
<path transform="matrix(.7189819,0,0,.7189819,.35949097,.35949097)" d="M 191 11 L 211 11 L 211 41 L 191 41 Z " fill="#dae8fc"/>
<path transform="matrix(.7189819,0,0,.7189819,.35949097,.35949097)" stroke-width="1" stroke-linecap="butt" stroke-miterlimit="4" stroke-linejoin="miter" fill="none" stroke="#6c8ebf" d="M 191 11 L 211 11 L 211 41 L 191 41 Z "/>
<path transform="matrix(.7189819,0,0,.7189819,.35949097,.35949097)" d="M 221 11 L 241 11 L 241 41 L 221 41 Z " fill="#dae8fc"/>
<path transform="matrix(.7189819,0,0,.7189819,.35949097,.35949097)" stroke-width="1" stroke-linecap="butt" stroke-miterlimit="4" stroke-linejoin="miter" fill="none" stroke="#6c8ebf" d="M 221 11 L 241 11 L 241 41 L 221 41 Z "/>
<path transform="matrix(.7189819,0,0,.7189819,.35949097,.35949097)" d="M 251 11 L 271 11 L 271 41 L 251 41 Z " fill="#dae8fc"/>
<path transform="matrix(.7189819,0,0,.7189819,.35949097,.35949097)" stroke-width="1" stroke-linecap="butt" stroke-miterlimit="4" stroke-linejoin="miter" fill="none" stroke="#6c8ebf" d="M 251 11 L 271 11 L 271 41 L 251 41 Z "/>
<path transform="matrix(.7189819,0,0,.7189819,.35949097,.35949097)" d="M 281 11 L 301 11 L 301 41 L 281 41 Z " fill="#dae8fc"/>
<path transform="matrix(.7189819,0,0,.7189819,.35949097,.35949097)" stroke-width="1" stroke-linecap="butt" stroke-miterlimit="4" stroke-linejoin="miter" fill="none" stroke="#6c8ebf" d="M 281 11 L 301 11 L 301 41 L 281 41 Z "/>
<path transform="matrix(.7189819,0,0,.7189819,.35949097,.35949097)" d="M 311 11 L 331 11 L 331 41 L 311 41 Z " fill="#dae8fc"/>
<path transform="matrix(.7189819,0,0,.7189819,.35949097,.35949097)" stroke-width="1" stroke-linecap="butt" stroke-miterlimit="4" stroke-linejoin="miter" fill="none" stroke="#6c8ebf" d="M 311 11 L 331 11 L 331 41 L 311 41 Z "/>
<path transform="matrix(.7189819,0,0,.7189819,.35949097,.35949097)" d="M 341 11 L 361 11 L 361 41 L 341 41 Z " fill="#dae8fc"/>
<path transform="matrix(.7189819,0,0,.7189819,.35949097,.35949097)" stroke-width="1" stroke-linecap="butt" stroke-miterlimit="4" stroke-linejoin="miter" fill="none" stroke="#6c8ebf" d="M 341 11 L 361 11 L 361 41 L 341 41 Z "/>
<path transform="matrix(.7189819,0,0,.7189819,.35949097,.35949097)" d="M 591 11 L 611 11 L 611 41 L 591 41 Z " fill="#dae8fc"/>
<path transform="matrix(.7189819,0,0,.7189819,.35949097,.35949097)" stroke-width="1" stroke-linecap="butt" stroke-miterlimit="4" stroke-linejoin="miter" fill="none" stroke="#6c8ebf" d="M 591 11 L 611 11 L 611 41 L 591 41 Z "/>
<path transform="matrix(.7189819,0,0,.7189819,.35949097,.35949097)" d="M 621 11 L 641 11 L 641 41 L 621 41 Z " fill="#dae8fc"/>
<path transform="matrix(.7189819,0,0,.7189819,.35949097,.35949097)" stroke-width="1" stroke-linecap="butt" stroke-miterlimit="4" stroke-linejoin="miter" fill="none" stroke="#6c8ebf" d="M 621 11 L 641 11 L 641 41 L 621 41 Z "/>
<path transform="matrix(.7189819,0,0,.7189819,.35949097,.35949097)" d="M 651 11 L 671 11 L 671 41 L 651 41 Z " fill="#dae8fc"/>
<path transform="matrix(.7189819,0,0,.7189819,.35949097,.35949097)" stroke-width="1" stroke-linecap="butt" stroke-miterlimit="4" stroke-linejoin="miter" fill="none" stroke="#6c8ebf" d="M 651 11 L 671 11 L 671 41 L 651 41 Z "/>
<path transform="matrix(.7189819,0,0,.7189819,.35949097,.35949097)" d="M 681 11 L 701 11 L 701 41 L 681 41 Z " fill="#dae8fc"/>
<path transform="matrix(.7189819,0,0,.7189819,.35949097,.35949097)" stroke-width="1" stroke-linecap="butt" stroke-miterlimit="4" stroke-linejoin="miter" fill="none" stroke="#6c8ebf" d="M 681 11 L 701 11 L 701 41 L 681 41 Z "/>
<path transform="matrix(.7189819,0,0,.7189819,.35949097,.35949097)" d="M 711 11 L 731 11 L 731 41 L 711 41 Z " fill="#dae8fc"/>
<path transform="matrix(.7189819,0,0,.7189819,.35949097,.35949097)" stroke-width="1" stroke-linecap="butt" stroke-miterlimit="4" stroke-linejoin="miter" fill="none" stroke="#6c8ebf" d="M 711 11 L 731 11 L 731 41 L 711 41 Z "/>
<path transform="matrix(.7189819,0,0,.7189819,.35949097,.35949097)" d="M 741 11 L 761 11 L 761 41 L 741 41 Z " fill="#dae8fc"/>
<path transform="matrix(.7189819,0,0,.7189819,.35949097,.35949097)" stroke-width="1" stroke-linecap="butt" stroke-miterlimit="4" stroke-linejoin="miter" fill="none" stroke="#6c8ebf" d="M 741 11 L 761 11 L 761 41 L 741 41 Z "/>
<path transform="matrix(.7189819,0,0,.7189819,.35949097,.35949097)" d="M 381 24.5 L 384 24.5 L 384 27.5 L 381 27.5 M 387 24.5 L 390 24.5 L 390 27.5 L 387 27.5 M 393 24.5 L 396 24.5 L 396 27.5 L 393 27.5 M 399 24.5 L 402 24.5 L 402 27.5 L 399 27.5 M 405 24.5 L 408 24.5 L 408 27.5 L 405 27.5 M 411 24.5 L 414 24.5 L 414 27.5 L 411 27.5 M 417 24.5 L 420 24.5 L 420 27.5 L 417 27.5 M 423 24.5 L 426 24.5 L 426 27.5 L 423 27.5 M 429 24.5 L 432 24.5 L 432 27.5 L 429 27.5 M 435 24.5 L 438 24.5 L 438 27.5 L 435 27.5 M 441 24.5 L 444 24.5 L 444 27.5 L 441 27.5 M 447 24.5 L 450 24.5 L 450 27.5 L 447 27.5 M 453 24.5 L 456 24.5 L 456 27.5 L 453 27.5 M 459 24.5 L 462 24.5 L 462 27.5 L 459 27.5 M 465 24.5 L 468 24.5 L 468 27.5 L 465 27.5 M 471 24.5 L 474 24.5 L 474 27.5 L 471 27.5 M 477 24.5 L 480 24.5 L 480 27.5 L 477 27.5 M 483 24.5 L 486 24.5 L 486 27.5 L 483 27.5 M 489 24.5 L 492 24.5 L 492 27.5 L 489 27.5 M 495 24.5 L 498 24.5 L 498 27.5 L 495 27.5 M 501 24.5 L 504 24.5 L 504 27.5 L 501 27.5 M 507 24.5 L 510 24.5 L 510 27.5 L 507 27.5 M 513 24.5 L 516 24.5 L 516 27.5 L 513 27.5 M 519 24.5 L 522 24.5 L 522 27.5 L 519 27.5 M 525 24.5 L 528 24.5 L 528 27.5 L 525 27.5 M 531 24.5 L 534 24.5 L 534 27.5 L 531 27.5 M 537 24.5 L 540 24.5 L 540 27.5 L 537 27.5 M 543 24.5 L 546 24.5 L 546 27.5 L 543 27.5 M 549 24.5 L 552 24.5 L 552 27.5 L 549 27.5 M 555 24.5 L 558 24.5 L 558 27.5 L 555 27.5 M 561 24.5 L 564 24.5 L 564 27.5 L 561 27.5 "/>
<path transform="matrix(.7189819,0,0,.7189819,0,0)" stroke-width="2" stroke-linecap="butt" stroke-miterlimit="10" stroke-linejoin="miter" fill="none" stroke="#000000" d="M 21 41 L 21 56 C 21 62.666669 24.333333 66 31 66 L 251 66 C 257.66667 66 261 68.793338 261 74.38 L 261 82.76 "/>
<path transform="matrix(.7189819,0,0,.7189819,0,0)" d="M 261 88.76 L 257 80.76 L 261 82.76 L 265 80.76 L 261 88.76 Z "/>
<path transform="matrix(.7189819,0,0,.7189819,0,0)" stroke-width="2" stroke-linecap="butt" stroke-miterlimit="10" stroke-linejoin="miter" fill="none" stroke="#000000" d="M 261 88.76 L 257 80.76 L 261 82.76 L 265 80.76 L 261 88.76 Z "/>
<path transform="matrix(.7189819,0,0,.7189819,0,0)" stroke-width="2" stroke-linecap="butt" stroke-miterlimit="10" stroke-linejoin="miter" fill="none" stroke="#000000" d="M 21 131 L 21 151 C 21 157.66667 24.333333 161 31 161 L 171 161 C 177.66667 161 181 162.96 181 166.88 L 181 172.76 "/>
<path transform="matrix(.7189819,0,0,.7189819,0,0)" d="M 181 178.76 L 177 170.76 L 181 172.76 L 185 170.76 L 181 178.76 Z "/>
<path transform="matrix(.7189819,0,0,.7189819,0,0)" stroke-width="2" stroke-linecap="butt" stroke-miterlimit="10" stroke-linejoin="miter" fill="none" stroke="#000000" d="M 181 178.76 L 177 170.76 L 181 172.76 L 185 170.76 L 181 178.76 Z "/>
<path transform="matrix(.7189819,0,0,.7189819,0,0)" stroke-width="2" stroke-linecap="butt" stroke-miterlimit="10" stroke-linejoin="miter" fill="none" stroke="#000000" d="M 21 221 L 21 241 C 21 247.66667 24.333333 251 31 251 L 116 251 C 122.666667 251 126 252.96 126 256.88 L 126 262.76 "/>
<path transform="matrix(.7189819,0,0,.7189819,0,0)" d="M 126 268.76 L 122 260.76 L 126 262.76 L 130 260.76 L 126 268.76 Z "/>
<path transform="matrix(.7189819,0,0,.7189819,0,0)" stroke-width="2" stroke-linecap="butt" stroke-miterlimit="10" stroke-linejoin="miter" fill="none" stroke="#000000" d="M 126 268.76 L 122 260.76 L 126 262.76 L 130 260.76 L 126 268.76 Z "/>
<path transform="matrix(.7189819,0,0,.7189819,0,0)" stroke-width="2" stroke-linecap="butt" stroke-miterlimit="10" stroke-linejoin="miter" fill="none" stroke="#000000" d="M 21 311 L 21 331 C 21 337.66667 24.333333 341 31 341 L 46 341 C 52.666669 341 56 342.96 56 346.88 L 56 352.76 "/>
<path transform="matrix(.7189819,0,0,.7189819,0,0)" d="M 56 358.76 L 52 350.76 L 56 352.76 L 60 350.76 L 56 358.76 Z "/>
<path transform="matrix(.7189819,0,0,.7189819,0,0)" stroke-width="2" stroke-linecap="butt" stroke-miterlimit="10" stroke-linejoin="miter" fill="none" stroke="#000000" d="M 56 358.76 L 52 350.76 L 56 352.76 L 60 350.76 L 56 358.76 Z "/>
<symbol id="font_1_37">
<path d="M .21240235 0 L .21240235 .59472659 L 0 .59472659 L 0 .7158203 L .56884768 .7158203 L .56884768 .59472659 L .3569336 .59472659 L .3569336 0 L .21240235 0 Z "/>
</symbol>
<symbol id="font_1_55">
<path d="M .13720703 0 L 0 0 L 0 .5185547 L .1274414 .5185547 L .1274414 .44482423 C .1492513 .47965495 .16878255 .5026042 .18603516 .5136719 C .20361328 .52473959 .22347005 .53027346 .24560547 .53027346 C .27685548 .53027346 .30696617 .52164718 .3359375 .50439456 L .29345704 .38476563 C .27034507 .3997396 .24886067 .40722657 .2290039 .40722657 C .20979817 .40722657 .19352214 .40185548 .18017578 .39111329 C .16682942 .38069663 .15625 .36165367 .1484375 .33398438 C .14095052 .3063151 .13720703 .24837239 .13720703 .16015625 L .13720703 0 Z "/>
</symbol>
<symbol id="font_1_44">
<path d="M .13867188 .3720703 L .014160156 .39453126 C .028157553 .44466148 .052246095 .48177085 .08642578 .5058594 C .12060547 .52994796 .17138672 .5419922 .23876953 .5419922 C .29996745 .5419922 .34554038 .53466799 .37548829 .52001956 C .4054362 .5056966 .42643229 .4873047 .43847657 .46484376 C .45084635 .44270835 .45703126 .40185548 .45703126 .34228517 L .4555664 .1821289 C .4555664 .13655599 .45768229 .102864589 .46191407 .08105469 C .46647135 .059570314 .47477214 .036458333 .4868164 .01171875 L .35107423 .01171875 C .3474935 .020833334 .34309898 .03434245 .33789063 .052246095 C .33561198 .060384115 .33398438 .06575521 .3330078 .068359378 C .3095703 .045572919 .28450523 .028483073 .2578125 .017089844 C .2311198 .0056966149 .20263672 0 .17236328 0 C .11897787 0 .076822917 .014485677 .045898439 .04345703 C .0152994799 .07242838 0 .10904948 0 .15332031 C 0 .18261719 .0069986979 .20865886 .020996094 .23144531 C .03499349 .25455729 .05452474 .2721354 .079589847 .2841797 C .10498047 .29654948 .1414388 .30729167 .18896485 .31640626 C .25309245 .32845054 .29752604 .339681 .32226563 .35009767 L .32226563 .36376954 C .32226563 .39013673 .31575523 .40885417 .30273438 .41992188 C .28971354 .4313151 .26513673 .43701173 .2290039 .43701173 C .20458985 .43701173 .18554688 .4321289 .171875 .42236329 C .15820313 .4129232 .14713542 .39615885 .13867188 .3720703 M .32226563 .2607422 C .3046875 .2548828 .27685548 .24788411 .23876953 .2397461 C .2006836 .23160808 .17578125 .22363281 .1640625 .21582031 C .14615886 .203125 .13720703 .18701172 .13720703 .16748047 C .13720703 .14827474 .14436849 .13167317 .1586914 .11767578 C .17301433 .10367838 .19124349 .09667969 .2133789 .09667969 C .23811849 .09667969 .26171876 .10481771 .2841797 .12109375 C .30078126 .13346355 .3116862 .14860027 .31689454 .1665039 C .32047526 .17822266 .32226563 .20052083 .32226563 .23339844 L .32226563 .2607422 Z "/>
</symbol>
<symbol id="font_1_4c">
<path d="M 0 .5888672 L 0 .7158203 L .13720703 .7158203 L .13720703 .5888672 L 0 .5888672 M 0 0 L 0 .5185547 L .13720703 .5185547 L .13720703 0 L 0 0 Z "/>
</symbol>
<symbol id="font_1_51">
<path d="M .47265626 0 L .33544923 0 L .33544923 .26464845 C .33544923 .32063804 .33251954 .35677085 .32666017 .37304688 C .32080079 .38964845 .3111979 .4025065 .29785157 .4116211 C .28483073 .4207357 .26904298 .42529298 .25048829 .42529298 C .22672527 .42529298 .20540364 .41878257 .18652344 .40576173 C .16764324 .39274089 .15462239 .37548829 .14746094 .3540039 C .140625 .33251954 .13720703 .292806 .13720703 .23486328 L .13720703 0 L 0 0 L 0 .5185547 L .1274414 .5185547 L .1274414 .4423828 C .1726888 .50097659 .22965496 .53027346 .29833985 .53027346 C .32861329 .53027346 .35628257 .52473959 .38134767 .5136719 C .40641276 .5029297 .42529298 .48909507 .43798829 .47216798 C .45100913 .45524089 .45996095 .43603517 .46484376 .41455079 C .4700521 .3930664 .47265626 .3623047 .47265626 .32226563 L .47265626 0 Z "/>
</symbol>
<symbol id="font_1_4a">
<path d="M .018066407 .17626953 L .17480469 .15722656 C .17740886 .13899739 .18343099 .12646485 .1928711 .119628909 C .20589192 .10986328 .22639974 .10498047 .25439454 .10498047 C .2902018 .10498047 .31705729 .11035156 .33496095 .12109375 C .34700523 .1282552 .35611979 .1398112 .3623047 .15576172 C .36653648 .16715496 .36865235 .18815105 .36865235 .21875 L .36865235 .2944336 C .32763673 .23844402 .2758789 .21044922 .2133789 .21044922 C .14371746 .21044922 .088541667 .23990886 .047851564 .29882813 C .015950522 .3453776 0 .4033203 0 .47265626 C 0 .5595703 .020833334 .62597659 .0625 .671875 C .10449219 .71777346 .15657552 .74072268 .21875 .74072268 C .2828776 .74072268 .33577476 .7125651 .3774414 .65625 L .3774414 .7290039 L .5058594 .7290039 L .5058594 .26367188 C .5058594 .20247396 .5008138 .15673828 .49072267 .12646485 C .4806315 .096191409 .46647135 .07242838 .4482422 .05517578 C .43001304 .037923177 .40559898 .024414063 .375 .0146484379 C .34472657 .0048828127 .3063151 0 .25976563 0 C .171875 0 .10953776 .015136719 .072753909 .045410158 C .03597005 .07535807 .017578125 .11344401 .017578125 .15966797 C .017578125 .16422527 .017740885 .16975911 .018066407 .17626953 M .140625 .48046876 C .140625 .42545573 .15120442 .38509117 .17236328 .359375 C .19384766 .33398438 .22021485 .32128907 .25146485 .32128907 C .2849935 .32128907 .3133138 .3343099 .33642579 .36035157 C .35953776 .38671876 .37109376 .4256185 .37109376 .47705079 C .37109376 .5307617 .36002604 .570638 .33789063 .5966797 C .31575523 .6227214 .2877604 .6357422 .25390626 .6357422 C .22102864 .6357422 .19384766 .6228841 .17236328 .59716799 C .15120442 .57177737 .140625 .5328776 .140625 .48046876 Z "/>
</symbol>
<use xlink:href="#font_1_37" transform="matrix(21.569458,0,0,-21.569458,559.58419,26.602332)"/>
<use xlink:href="#font_1_55" transform="matrix(21.569458,0,0,-21.569458,572.52798,26.602332)"/>
<use xlink:href="#font_1_44" transform="matrix(21.569458,0,0,-21.569458,580.2655,26.855099)"/>
<use xlink:href="#font_1_4c" transform="matrix(21.569458,0,0,-21.569458,593.0375,26.602332)"/>
<use xlink:href="#font_1_51" transform="matrix(21.569458,0,0,-21.569458,599.01278,26.602332)"/>
<use xlink:href="#font_1_4c" transform="matrix(21.569458,0,0,-21.569458,612.21279,26.602332)"/>
<use xlink:href="#font_1_51" transform="matrix(21.569458,0,0,-21.569458,618.18807,26.602332)"/>
<use xlink:href="#font_1_4a" transform="matrix(21.569458,0,0,-21.569458,630.72457,31.141608)"/>
<symbol id="font_1_28">
<path d="M 0 0 L 0 .7158203 L .5307617 .7158203 L .5307617 .59472659 L .14453125 .59472659 L .14453125 .43603517 L .50390627 .43603517 L .50390627 .3154297 L .14453125 .3154297 L .14453125 .12060547 L .5444336 .12060547 L .5444336 0 L 0 0 Z "/>
</symbol>
<symbol id="font_1_53">
<path d="M 0 .7158203 L .12792969 .7158203 L .12792969 .63964846 C .14453125 .6656901 .16699219 .68684896 .1953125 .703125 C .22363281 .71940109 .25504557 .72753909 .28955079 .72753909 C .34977214 .72753909 .4008789 .7039388 .4428711 .6567383 C .48486329 .6095378 .5058594 .54378256 .5058594 .45947267 C .5058594 .37288413 .48470054 .3055013 .4423828 .25732423 C .4000651 .20947266 .34879557 .18554688 .28857423 .18554688 C .25992839 .18554688 .23388672 .19124349 .21044922 .20263672 C .18733724 .21402996 .16292317 .2335612 .13720703 .26123048 L .13720703 0 L 0 0 L 0 .7158203 M .13574219 .46533204 C .13574219 .4070638 .14729817 .36393229 .17041016 .3359375 C .19352214 .30826823 .22167969 .2944336 .2548828 .2944336 C .28678385 .2944336 .3133138 .3071289 .33447267 .33251954 C .3556315 .3582357 .36621095 .40022788 .36621095 .4584961 C .36621095 .5128581 .355306 .55322268 .3334961 .57958987 C .3116862 .60595706 .28466798 .6191406 .2524414 .6191406 C .21891277 .6191406 .19108074 .6061198 .16894531 .5800781 C .14680989 .554362 .13574219 .5161133 .13574219 .46533204 Z "/>
</symbol>
<symbol id="font_1_56">
<path d="M 0 .15966797 L .13769531 .18066406 C .14355469 .15397136 .1554362 .1336263 .17333985 .119628909 C .19124349 .10595703 .2163086 .099121097 .24853516 .099121097 C .28401695 .099121097 .31070964 .10563151 .32861329 .118652347 C .34065757 .12776692 .3466797 .13997396 .3466797 .15527344 C .3466797 .16569011 .34342448 .1743164 .33691407 .18115235 C .33007813 .18766277 .31477867 .19368489 .29101563 .19921875 C .18033855 .22363281 .110188808 .24593099 .080566409 .26611329 C .03955078 .29410807 .019042969 .3330078 .019042969 .3828125 C .019042969 .42773438 .036783857 .46549479 .072265628 .49609376 C .1077474 .5266927 .16276042 .5419922 .23730469 .5419922 C .30826823 .5419922 .3610026 .5304362 .3955078 .5073242 C .43001304 .48421226 .45377604 .45003257 .46679688 .40478517 L .33740235 .38085938 C .3318685 .40104167 .32128907 .4165039 .30566407 .4272461 C .2903646 .43798829 .26839195 .44335938 .2397461 .44335938 C .20361328 .44335938 .17773438 .4383138 .16210938 .42822267 C .1516927 .4210612 .14648438 .41178385 .14648438 .40039063 C .14648438 .390625 .15104167 .38232423 .16015625 .37548829 C .17252605 .3663737 .21516927 .35351563 .28808595 .33691407 C .36132813 .3203125 .4124349 .29996745 .44140626 .2758789 C .4700521 .25146485 .484375 .21744792 .484375 .17382813 C .484375 .12630208 .46451823 .08544922 .4248047 .05126953 C .38509117 .017089844 .32633464 0 .24853516 0 C .17789714 0 .121907558 .014322917 .080566409 .04296875 C .03955078 .071614589 .0126953129 .11051432 0 .15966797 Z "/>
</symbol>
<symbol id="font_1_52">
<path d="M 0 .2783203 C 0 .32389323 .011230469 .3680013 .033691408 .41064454 C .056152345 .45328776 .087890628 .48583985 .12890625 .5083008 C .17024739 .5307617 .2163086 .5419922 .26708985 .5419922 C .34554038 .5419922 .40983073 .5164388 .45996095 .46533204 C .5100911 .41455079 .53515627 .3502604 .53515627 .27246095 C .53515627 .19401042 .5097656 .12890625 .45898438 .07714844 C .40852867 .025716147 .3448893 0 .2680664 0 C .22054036 0 .1751302 .0107421879 .13183594 .032226564 C .08886719 .053710939 .056152345 .085123699 .033691408 .12646485 C .011230469 .16813152 0 .21875 0 .2783203 M .140625 .2709961 C .140625 .2195638 .15283203 .18017578 .1772461 .15283203 C .20166016 .12548828 .23177083 .111816409 .26757813 .111816409 C .3033854 .111816409 .33333335 .12548828 .35742188 .15283203 C .38183595 .18017578 .39404298 .21988933 .39404298 .27197267 C .39404298 .3227539 .38183595 .3618164 .35742188 .38916017 C .33333335 .4165039 .3033854 .43017579 .26757813 .43017579 C .23177083 .43017579 .20166016 .4165039 .1772461 .38916017 C .15283203 .3618164 .140625 .32242839 .140625 .2709961 Z "/>
</symbol>
<symbol id="font_1_47">
<path d="M .50634768 .01171875 L .37890626 .01171875 L .37890626 .087890628 C .3577474 .05826823 .33268229 .036132814 .30371095 .021484375 C .2750651 .0071614587 .24609375 0 .21679688 0 C .15722656 0 .10611979 .023925782 .06347656 .071777347 C .021158854 .11995443 0 .18701172 0 .27294923 C 0 .36083985 .020670573 .42757163 .06201172 .47314454 C .10335287 .51904299 .15559896 .5419922 .21875 .5419922 C .27669273 .5419922 .3268229 .5179036 .36914063 .46972657 L .36914063 .72753909 L .50634768 .72753909 L .50634768 .01171875 M .14013672 .28222657 C .14013672 .22688802 .14778646 .18684896 .16308594 .16210938 C .18522136 .12630208 .21614583 .10839844 .25585938 .10839844 C .2874349 .10839844 .31429038 .12174479 .33642579 .1484375 C .3585612 .17545574 .3696289 .21565755 .3696289 .26904298 C .3696289 .32861329 .35888673 .37141929 .33740235 .39746095 C .31591798 .42382813 .28841148 .43701173 .2548828 .43701173 C .22233074 .43701173 .19498699 .42399089 .17285156 .39794923 C .15104167 .37223307 .14013672 .33365885 .14013672 .28222657 Z "/>
</symbol>
<symbol id="font_1_48">
<path d="M .34033204 .17675781 L .47705079 .1538086 C .45947267 .10367838 .43164063 .06542969 .3935547 .0390625 C .35579429 .013020833 .308431 0 .25146485 0 C .16129558 0 .094563808 .029459635 .05126953 .088378909 C .017089844 .13557942 0 .19514974 0 .26708985 C 0 .35302735 .022460938 .4202474 .06738281 .46875 C .11230469 .5175781 .16910808 .5419922 .23779297 .5419922 C .3149414 .5419922 .3758138 .5164388 .42041017 .46533204 C .4650065 .41455079 .48632813 .33658854 .484375 .23144531 L .140625 .23144531 C .14160156 .1907552 .15266927 .15901692 .17382813 .13623047 C .19498699 .11376953 .22135417 .10253906 .2529297 .10253906 C .27441407 .10253906 .29248048 .10839844 .3071289 .12011719 C .32177735 .13183594 .33284507 .15071614 .34033204 .17675781 M .34814454 .3154297 C .34716798 .35514323 .33691407 .3852539 .3173828 .40576173 C .29785157 .42659507 .27408854 .43701173 .24609375 .43701173 C .21614583 .43701173 .19140625 .42610679 .171875 .40429688 C .15234375 .38248698 .14274089 .3528646 .1430664 .3154297 L .34814454 .3154297 Z "/>
</symbol>
<use xlink:href="#font_1_28" transform="matrix(21.569458,0,0,-21.569458,380.94459,91.31071)"/>
<use xlink:href="#font_1_53" transform="matrix(21.569458,0,0,-21.569458,395.22608,95.56562)"/>
<use xlink:href="#font_1_4c" transform="matrix(21.569458,0,0,-21.569458,408.4893,91.31071)"/>
<use xlink:href="#font_1_56" transform="matrix(21.569458,0,0,-21.569458,413.44294,91.56348)"/>
<use xlink:href="#font_1_52" transform="matrix(21.569458,0,0,-21.569458,425.79365,91.56348)"/>
<use xlink:href="#font_1_47" transform="matrix(21.569458,0,0,-21.569458,438.99366,91.56348)"/>
<use xlink:href="#font_1_48" transform="matrix(21.569458,0,0,-21.569458,451.9725,91.56348)"/>
<symbol id="font_1_35">
<path d="M 0 0 L 0 .7158203 L .30419923 .7158203 C .38069663 .7158203 .4361979 .7093099 .47070313 .69628909 C .5055339 .68359377 .5333659 .6608073 .5541992 .6279297 C .57503256 .59505209 .5854492 .5574544 .5854492 .5151367 C .5854492 .46142579 .56966146 .4169922 .53808596 .38183595 C .50651046 .34700523 .4593099 .32503257 .39648438 .31591798 C .42773438 .2976888 .45345054 .27766929 .4736328 .25585938 C .49414063 .23404949 .52164718 .1953125 .55615237 .13964844 L .6435547 0 L .47070313 0 L .36621095 .15576172 C .32910157 .21142578 .30371095 .24641927 .29003907 .2607422 C .2763672 .27539063 .2618815 .285319 .24658203 .29052735 C .23128255 .2960612 .20703125 .29882813 .17382813 .29882813 L .14453125 .29882813 L .14453125 0 L 0 0 M .14453125 .41308595 L .25146485 .41308595 C .32080079 .41308595 .36409507 .41601563 .38134767 .421875 C .39860026 .42773438 .41210938 .43782554 .421875 .45214845 C .43164063 .46647135 .43652345 .484375 .43652345 .5058594 C .43652345 .52994796 .43001304 .5493164 .4169922 .56396487 C .40429688 .5789388 .38623048 .5883789 .36279298 .59228518 C .35107423 .5939128 .31591798 .59472659 .25732423 .59472659 L .14453125 .59472659 L .14453125 .41308595 Z "/>
</symbol>
<symbol id="font_1_4f">
<path d="M 0 0 L 0 .7158203 L .13720703 .7158203 L .13720703 0 L 0 0 Z "/>
</symbol>
<symbol id="font_1_58">
<path d="M .34423829 .01171875 L .34423829 .08935547 C .32535807 .0616862 .30045573 .0398763 .26953126 .023925782 C .2389323 .007975261 .20654297 0 .17236328 0 C .13753255 0 .106282558 .0076497399 .07861328 .022949219 C .05094401 .0382487 .030924479 .059733076 .018554688 .087402347 C .006184896 .11507162 0 .15332031 0 .20214844 L 0 .53027346 L .13720703 .53027346 L .13720703 .2919922 C .13720703 .21907552 .13964844 .1743164 .14453125 .15771485 C .14973958 .1414388 .15901692 .12841797 .17236328 .118652347 C .18570964 .10921224 .20263672 .10449219 .22314453 .10449219 C .24658203 .10449219 .26757813 .110839847 .2861328 .123535159 C .3046875 .13655599 .3173828 .15250652 .32421876 .17138672 C .3310547 .19059246 .33447267 .23730469 .33447267 .31152345 L .33447267 .53027346 L .4716797 .53027346 L .4716797 .01171875 L .34423829 .01171875 Z "/>
</symbol>
<symbol id="font_1_57">
<path d="M .2944336 .53027346 L .2944336 .42089845 L .2006836 .42089845 L .2006836 .21191406 C .2006836 .16959636 .20149739 .14485677 .203125 .13769531 C .20507813 .13085938 .20914714 .12516277 .21533203 .12060547 C .22184246 .11604818 .22965496 .11376953 .23876953 .11376953 C .25146485 .11376953 .26985679 .11816406 .2939453 .12695313 L .30566407 .020507813 C .27376304 .0068359377 .2376302 0 .19726563 0 C .17252605 0 .15022786 .0040690104 .1303711 .012207031 C .11051432 .020670573 .09586588 .03141276 .08642578 .044433595 C .077311199 .05777995 .07096354 .075683597 .06738281 .09814453 C .064453128 .114095058 .06298828 .14632161 .06298828 .19482422 L .06298828 .42089845 L 0 .42089845 L 0 .53027346 L .06298828 .53027346 L .06298828 .6333008 L .2006836 .7133789 L .2006836 .53027346 L .2944336 .53027346 Z "/>
</symbol>
<use xlink:href="#font_1_35" transform="matrix(21.569458,0,0,-21.569458,267.1313,156.01908)"/>
<use xlink:href="#font_1_52" transform="matrix(21.569458,0,0,-21.569458,281.98826,156.27184)"/>
<use xlink:href="#font_1_4f" transform="matrix(21.569458,0,0,-21.569458,295.85176,156.01908)"/>
<use xlink:href="#font_1_4f" transform="matrix(21.569458,0,0,-21.569458,301.84806,156.01908)"/>
<use xlink:href="#font_1_52" transform="matrix(21.569458,0,0,-21.569458,307.1598,156.27184)"/>
<use xlink:href="#font_1_58" transform="matrix(21.569458,0,0,-21.569458,320.9601,156.27184)"/>
<use xlink:href="#font_1_57" transform="matrix(21.569458,0,0,-21.569458,332.9805,156.27184)"/>
<symbol id="font_1_24">
<path d="M .7182617 0 L .56103518 0 L .49853517 .16259766 L .21240235 .16259766 L .15332031 0 L 0 0 L .2788086 .7158203 L .43164063 .7158203 L .7182617 0 M .45214845 .28320313 L .35351563 .5488281 L .25683595 .28320313 L .45214845 .28320313 Z "/>
</symbol>
<symbol id="font_1_46">
<path d="M .48242188 .37695313 L .34716798 .35253907 C .3426107 .37955729 .332194 .39990235 .31591798 .41357423 C .29996745 .4272461 .27913413 .43408204 .25341798 .43408204 C .21923828 .43408204 .19189453 .42220054 .17138672 .3984375 C .15120442 .375 .14111328 .33561198 .14111328 .28027345 C .14111328 .21875 .15136719 .17529297 .171875 .14990235 C .19270833 .12451172 .22054036 .111816409 .2553711 .111816409 C .28141276 .111816409 .30273438 .119140628 .31933595 .13378906 C .3359375 .14876302 .34765626 .1743164 .3544922 .21044922 L .4892578 .1875 C .4752604 .12565105 .44840495 .078938808 .4086914 .04736328 C .36897788 .01578776 .31575523 0 .24902344 0 C .17317708 0 .11263021 .023925782 .06738281 .071777347 C .022460938 .119628909 0 .18587239 0 .2705078 C 0 .35611979 .022623698 .4226888 .067871097 .47021485 C .11311849 .5180664 .1743164 .5419922 .25146485 .5419922 C .31461589 .5419922 .3647461 .5283203 .40185548 .50097659 C .43929038 .47395835 .46614585 .4326172 .48242188 .37695313 Z "/>
</symbol>
<symbol id="font_1_10">
<path d="M 0 0 L 0 .13720703 L .26953126 .13720703 L .26953126 0 L 0 0 Z "/>
</symbol>
<use xlink:href="#font_1_24" transform="matrix(21.569458,0,0,-21.569458,187.65428,220.72745)"/>
<use xlink:href="#font_1_46" transform="matrix(21.569458,0,0,-21.569458,204.12265,220.98021)"/>
<use xlink:href="#font_1_57" transform="matrix(21.569458,0,0,-21.569458,215.54654,220.98021)"/>
<use xlink:href="#font_1_4c" transform="matrix(21.569458,0,0,-21.569458,223.95087,220.72745)"/>
<use xlink:href="#font_1_52" transform="matrix(21.569458,0,0,-21.569458,229.26259,220.98021)"/>
<use xlink:href="#font_1_51" transform="matrix(21.569458,0,0,-21.569458,243.10503,220.72745)"/>
<use xlink:href="#font_1_10" transform="matrix(21.569458,0,0,-21.569458,255.96802,216.60945)"/>
<use xlink:href="#font_1_55" transform="matrix(21.569458,0,0,-21.569458,263.36128,220.72745)"/>
<use xlink:href="#font_1_48" transform="matrix(21.569458,0,0,-21.569458,271.01457,220.98021)"/>
<use xlink:href="#font_1_53" transform="matrix(21.569458,0,0,-21.569458,283.78654,224.98236)"/>
<use xlink:href="#font_1_48" transform="matrix(21.569458,0,0,-21.569458,296.1861,220.98021)"/>
<use xlink:href="#font_1_57" transform="matrix(21.569458,0,0,-21.569458,307.82063,220.98021)"/>
<use xlink:href="#font_1_4c" transform="matrix(21.569458,0,0,-21.569458,316.22496,220.72745)"/>
<use xlink:href="#font_1_57" transform="matrix(21.569458,0,0,-21.569458,320.99955,220.98021)"/>
<use xlink:href="#font_1_4c" transform="matrix(21.569458,0,0,-21.569458,329.40388,220.72745)"/>
<use xlink:href="#font_1_52" transform="matrix(21.569458,0,0,-21.569458,334.7156,220.98021)"/>
<use xlink:href="#font_1_51" transform="matrix(21.569458,0,0,-21.569458,348.55805,220.72745)"/>
<use xlink:href="#font_1_24" transform="matrix(21.569458,0,0,-21.569458,6.7179877,281.8409)"/>
<use xlink:href="#font_1_46" transform="matrix(21.569458,0,0,-21.569458,23.186354,282.0937)"/>
<use xlink:href="#font_1_57" transform="matrix(21.569458,0,0,-21.569458,34.61025,282.0937)"/>
<use xlink:href="#font_1_4c" transform="matrix(21.569458,0,0,-21.569458,43.014585,281.8409)"/>
<use xlink:href="#font_1_52" transform="matrix(21.569458,0,0,-21.569458,48.326318,282.0937)"/>
<use xlink:href="#font_1_51" transform="matrix(21.569458,0,0,-21.569458,62.16877,281.8409)"/>
<path transform="matrix(.7189819,0,0,.7189819,.35949097,.35949097)" d="M 671.5 120.5 L 671.5 110.5 L 731.5 110.5 L 731.5 100 L 750.5 115.5 L 731.5 131 L 731.5 120.5 L 671.5 120.5 Z " fill="#dae8fc"/>
<path transform="matrix(.7189819,0,0,.7189819,.35949097,.35949097)" stroke-width="1" stroke-linecap="butt" stroke-miterlimit="10" stroke-linejoin="miter" fill="none" stroke="#6c8ebf" d="M 671.5 120.5 L 671.5 110.5 L 731.5 110.5 L 731.5 100 L 750.5 115.5 L 731.5 131 L 731.5 120.5 L 671.5 120.5 Z "/>
<symbol id="font_2_35">
<path d="M 0 0 L 0 .7158203 L .3173828 .7158203 C .3811849 .7158203 .4296875 .7093099 .46289063 .69628909 C .49609376 .68359377 .5226237 .66097006 .54248049 .62841799 C .5623372 .5958659 .5722656 .5598958 .5722656 .5205078 C .5722656 .46972657 .55582687 .42692057 .5229492 .39208985 C .49007163 .35725913 .43929038 .3351237 .37060548 .3256836 C .39567057 .3136393 .41471354 .3017578 .42773438 .29003907 C .45540367 .26464845 .48160807 .23291016 .50634768 .19482422 L .6308594 0 L .51171877 0 L .4169922 .14892578 C .3893229 .19189453 .36653648 .22477214 .3486328 .2475586 C .33072917 .27034507 .31461589 .28629557 .30029298 .29541017 C .28629557 .30452476 .27197267 .3108724 .25732423 .31445313 C .24658203 .31673179 .2290039 .3178711 .20458985 .3178711 L .09472656 .3178711 L .09472656 0 L 0 0 M .09472656 .39990235 L .29833985 .39990235 C .34163413 .39990235 .37548829 .40429688 .39990235 .41308595 C .4243164 .42220054 .4428711 .43652345 .4555664 .4560547 C .46826173 .47591148 .47460938 .49739585 .47460938 .5205078 C .47460938 .554362 .4622396 .58219406 .4375 .6040039 C .41308595 .6258138 .37434898 .63671877 .32128907 .63671877 L .09472656 .63671877 L .09472656 .39990235 Z "/>
</symbol>
<symbol id="font_2_48">
<path d="M .38427735 .17871094 L .47509767 .16748047 C .46077476 .11442057 .43424479 .07324219 .3955078 .043945314 C .35677085 .0146484379 .30729167 0 .24707031 0 C .17122396 0 .1110026 .02327474 .06640625 .06982422 C .022135416 .11669922 0 .18229167 0 .26660157 C 0 .35384117 .022460938 .42154948 .06738281 .46972657 C .11230469 .5179036 .17057292 .5419922 .2421875 .5419922 C .31152345 .5419922 .36816407 .5183919 .41210938 .4711914 C .4560547 .42399089 .47802735 .35758464 .47802735 .27197267 C .47802735 .2667643 .4778646 .2589518 .47753907 .24853516 L .09082031 .24853516 C .09407552 .19156902 .110188808 .14794922 .13916016 .11767578 C .16813152 .087402347 .20426433 .072265628 .2475586 .072265628 C .27978517 .072265628 .30729167 .080729167 .33007813 .09765625 C .3528646 .114583339 .370931 .14160156 .38427735 .17871094 M .095703128 .32080079 L .3852539 .32080079 C .38134767 .36442057 .37027995 .3971354 .35205079 .4189453 C .324056 .45279948 .2877604 .46972657 .24316406 .46972657 C .20279949 .46972657 .16878255 .45621745 .14111328 .42919923 C .11376953 .402181 .09863281 .3660482 .095703128 .32080079 Z "/>
</symbol>
<symbol id="font_2_56">
<path d="M 0 .1665039 L .08691406 .18017578 C .091796878 .14534505 .10530599 .118652347 .1274414 .100097659 C .14990235 .08154297 .18115235 .072265628 .2211914 .072265628 C .261556 .072265628 .2915039 .08040365 .31103517 .09667969 C .3305664 .11328125 .34033204 .13264974 .34033204 .15478516 C .34033204 .17464192 .33170573 .19026692 .31445313 .20166016 C .30240885 .20947266 .27246095 .21940105 .22460938 .23144531 C .16015625 .24772136 .11539713 .26171876 .09033203 .2734375 C .065592449 .28548179 .04671224 .30192057 .033691408 .3227539 C .020996094 .34391276 .0146484379 .3671875 .0146484379 .39257813 C .0146484379 .4156901 .019856772 .43701173 .030273438 .45654298 C .041015626 .47639976 .0555013 .49283854 .07373047 .5058594 C .087402347 .5159505 .10595703 .52441409 .12939453 .53125 C .15315755 .53841146 .17854817 .5419922 .2055664 .5419922 C .24625652 .5419922 .28190104 .5361328 .3125 .52441409 C .34342448 .5126953 .36621095 .49674479 .38085938 .4765625 C .3955078 .45670573 .40559898 .43001304 .4111328 .39648438 L .3251953 .38476563 C .32128907 .41145835 .30989585 .43229167 .29101563 .44726563 C .27246095 .4622396 .24609375 .46972657 .21191406 .46972657 C .17154949 .46972657 .14274089 .46305339 .12548828 .44970704 C .10823568 .4363607 .099609378 .4207357 .099609378 .40283204 C .099609378 .3914388 .1031901 .3811849 .11035156 .3720703 C .11751302 .36263023 .12874349 .35481773 .14404297 .3486328 C .15283203 .3453776 .17871094 .33789063 .22167969 .32617188 C .28385417 .3095703 .32714845 .29589845 .3515625 .28515626 C .3763021 .2747396 .39567057 .2594401 .40966798 .23925781 C .42366538 .21907552 .43066407 .19401042 .43066407 .1640625 C .43066407 .13476563 .42203776 .10709635 .40478517 .08105469 C .38785807 .055338544 .36328126 .03531901 .3310547 .020996094 C .29882813 .0069986979 .26236979 0 .22167969 0 C .15429688 0 .102864589 .0139973959 .06738281 .041992189 C .032226564 .06998698 .009765625 .11149088 0 .1665039 Z "/>
</symbol>
<symbol id="font_2_57">
<path d="M .24023438 .08544922 L .2529297 .0078125 C .22819011 .0026041668 .20605469 0 .18652344 0 C .15462239 0 .12988281 .0050455729 .11230469 .015136719 C .09472656 .025227866 .08235677 .038411458 .07519531 .0546875 C .06803385 .07128906 .064453128 .10595703 .064453128 .1586914 L .064453128 .45703126 L 0 .45703126 L 0 .5253906 L .064453128 .5253906 L .064453128 .6538086 L .15185547 .70654299 L .15185547 .5253906 L .24023438 .5253906 L .24023438 .45703126 L .15185547 .45703126 L .15185547 .1538086 C .15185547 .12874349 .15332031 .11263021 .15625 .10546875 C .1595052 .09830729 .16455078 .09261068 .17138672 .088378909 C .17854817 .08414713 .18863933 .08203125 .20166016 .08203125 C .21142578 .08203125 .22428386 .08317057 .24023438 .08544922 Z "/>
</symbol>
<symbol id="font_2_3">
<path d="M -2147483500 -2147483500 Z "/>
</symbol>
<symbol id="font_2_51">
<path d="M 0 0 L 0 .5185547 L .07910156 .5185547 L .07910156 .44482423 C .1171875 .50179037 .17220052 .53027346 .24414063 .53027346 C .27539063 .53027346 .30403648 .52457687 .33007813 .5131836 C .3564453 .5021159 .3761393 .48746745 .38916017 .46923829 C .402181 .45100913 .41129557 .42936198 .4165039 .40429688 C .41975913 .38802085 .42138673 .35953776 .42138673 .31884767 L .42138673 0 L .3334961 0 L .3334961 .3154297 C .3334961 .35123698 .33007813 .3779297 .3232422 .3955078 C .31640626 .41341148 .30419923 .42757163 .2866211 .43798829 C .2693685 .44873048 .24902344 .45410157 .22558594 .45410157 C .18815105 .45410157 .15576172 .44222007 .12841797 .41845704 C .10139974 .394694 .087890628 .34960938 .087890628 .28320313 L .087890628 0 L 0 0 Z "/>
</symbol>
<symbol id="font_2_59">
<path d="M .19726563 0 L 0 .5185547 L .09277344 .5185547 L .20410156 .20800781 C .21614583 .17447917 .22721355 .13964844 .23730469 .103515628 C .24511719 .13085938 .25602214 .16373699 .27001954 .20214844 L .3852539 .5185547 L .47558595 .5185547 L .27929688 0 L .19726563 0 Z "/>
</symbol>
<use xlink:href="#font_2_35" transform="matrix(14.379639,0,0,-14.379639,556.90347,89.153759)"/>
<use xlink:href="#font_2_48" transform="matrix(14.379639,0,0,-14.379639,566.68179,89.322269)"/>
<use xlink:href="#font_2_56" transform="matrix(14.379639,0,0,-14.379639,574.5925,89.322269)"/>
<use xlink:href="#font_2_48" transform="matrix(14.379639,0,0,-14.379639,581.86666,89.322269)"/>
<use xlink:href="#font_2_57" transform="matrix(14.379639,0,0,-14.379639,589.5878,89.25205)"/>
<use xlink:href="#font_2_3" transform="matrix(14.379639,0,0,-14.379639,30880037000,-30880037000)"/>
<use xlink:href="#font_2_48" transform="matrix(14.379639,0,0,-14.379639,597.8568,89.322269)"/>
<use xlink:href="#font_2_51" transform="matrix(14.379639,0,0,-14.379639,606.27316,89.153759)"/>
<use xlink:href="#font_2_59" transform="matrix(14.379639,0,0,-14.379639,613.50289,89.153759)"/>
<path transform="matrix(.7189819,0,0,.7189819,.35949097,.35949097)" d="M 671.5 210.5 L 671.5 200.5 L 731.5 200.5 L 731.5 190 L 750.5 205.5 L 731.5 221 L 731.5 210.5 L 671.5 210.5 Z " fill="#f8cecc"/>
<path transform="matrix(.7189819,0,0,.7189819,.35949097,.35949097)" stroke-width="1" stroke-linecap="butt" stroke-miterlimit="10" stroke-linejoin="miter" fill="none" stroke="#b85450" d="M 671.5 210.5 L 671.5 200.5 L 731.5 200.5 L 731.5 190 L 750.5 205.5 L 731.5 221 L 731.5 210.5 L 671.5 210.5 Z "/>
<symbol id="font_2_26">
<path d="M .53808596 .2631836 L .6328125 .23925781 C .61295577 .16145833 .57714846 .10205078 .5253906 .061035158 C .47395835 .020345053 .41097007 0 .33642579 0 C .25927735 0 .19645183 .015625 .14794922 .046875 C .09977213 .07845052 .06298828 .12402344 .037597658 .18359375 C .012532552 .24316406 0 .3071289 0 .37548829 C 0 .45003257 .014160156 .51497396 .04248047 .5703125 C .071126308 .62597659 .11165365 .66813156 .1640625 .69677737 C .21679688 .7257487 .2747396 .7402344 .33789063 .7402344 C .40950523 .7402344 .46972657 .7220052 .5185547 .6855469 C .5673828 .64908859 .6013997 .59781906 .62060549 .5317383 L .52734377 .5097656 C .5107422 .56184896 .48665367 .59977218 .45507813 .62353518 C .4235026 .64729818 .38378907 .6591797 .3359375 .6591797 C .28092448 .6591797 .23486328 .6459961 .1977539 .6196289 C .16097005 .5932617 .13509114 .55777999 .12011719 .5131836 C .10514323 .46891276 .09765625 .4231771 .09765625 .37597657 C .09765625 .31510417 .10644531 .2618815 .12402344 .2163086 C .14192708 .1710612 .16959636 .13720703 .20703125 .114746097 C .24446614 .092285159 .2849935 .08105469 .32861329 .08105469 C .3816732 .08105469 .42659507 .096354167 .4633789 .12695313 C .5001628 .15755208 .5250651 .20296224 .53808596 .2631836 Z "/>
</symbol>
<symbol id="font_2_44">
<path d="M .36816407 .075683597 C .33561198 .048014326 .30419923 .028483073 .27392579 .017089844 C .24397786 .0056966149 .2117513 0 .1772461 0 C .120279949 0 .0764974 .013834636 .045898439 .041503908 C .0152994799 .069498699 0 .10514323 0 .1484375 C 0 .17382813 .0056966149 .19694011 .017089844 .21777344 C .028808594 .2389323 .043945314 .25585938 .0625 .2685547 C .08138021 .28125 .10253906 .29085288 .12597656 .29736329 C .14322917 .30192057 .16927083 .3063151 .20410156 .31054688 C .2750651 .3190104 .3273112 .32910157 .36083985 .3408203 C .36116538 .3528646 .36132813 .3605143 .36132813 .36376954 C .36132813 .3995768 .35302735 .4248047 .33642579 .43945313 C .31396485 .4593099 .28059898 .46923829 .23632813 .46923829 C .19498699 .46923829 .16438802 .46191407 .14453125 .44726563 C .125 .43294273 .11051432 .4073893 .10107422 .37060548 L .015136719 .38232423 C .022949219 .41910807 .035807294 .44873048 .053710939 .4711914 C .071614589 .49397788 .09749349 .51139327 .13134766 .5234375 C .16520183 .5358073 .20442708 .5419922 .24902344 .5419922 C .29329429 .5419922 .3292643 .5367839 .3569336 .5263672 C .38460288 .5159505 .4049479 .5027669 .41796876 .4868164 C .4309896 .4711914 .44010417 .45133464 .4453125 .4272461 C .4482422 .41227214 .44970704 .3852539 .44970704 .3461914 L .44970704 .2290039 C .44970704 .14729817 .4514974 .09554037 .45507813 .07373047 C .45898438 .052246095 .46647135 .03157552 .47753907 .01171875 L .3857422 .01171875 C .3766276 .029947916 .37076823 .05126953 .36816407 .075683597 M .36083985 .27197267 C .3289388 .2589518 .28108726 .24788411 .21728516 .23876953 C .18115235 .2335612 .15559896 .22770183 .140625 .2211914 C .12565105 .21468099 .114095058 .20507813 .10595703 .19238281 C .09781901 .18001302 .09375 .16617839 .09375 .1508789 C .09375 .1274414 .10253906 .107910159 .12011719 .092285159 C .13802083 .076660159 .1640625 .068847659 .19824219 .068847659 C .23209636 .068847659 .26220704 .076171878 .28857423 .09082031 C .3149414 .10579427 .3343099 .12613933 .3466797 .15185547 C .35611979 .17171224 .36083985 .20100911 .36083985 .2397461 L .36083985 .27197267 Z "/>
</symbol>
<symbol id="font_2_4f">
<path d="M 0 0 L 0 .7158203 L .087890628 .7158203 L .087890628 0 L 0 0 Z "/>
</symbol>
<symbol id="font_2_46">
<path d="M .36523438 .20166016 L .45166017 .19042969 C .44222007 .13085938 .41796876 .08414713 .37890626 .05029297 C .34016929 .016764323 .29248048 0 .23583985 0 C .1648763 0 .1077474 .023111979 .064453128 .06933594 C .021484375 .115885417 0 .18245442 0 .26904298 C 0 .32503257 .009277344 .37402345 .027832032 .41601563 C .04638672 .4580078 .07454427 .48942057 .11230469 .5102539 C .15039063 .5314128 .19173177 .5419922 .23632813 .5419922 C .29264323 .5419922 .33870445 .52766928 .37451173 .49902345 C .410319 .47070313 .43326823 .43033854 .44335938 .3779297 L .35791017 .3647461 C .34977214 .3995768 .33528648 .42578126 .31445313 .44335938 C .2939453 .4609375 .26904298 .46972657 .2397461 .46972657 C .19547527 .46972657 .1595052 .45377604 .13183594 .421875 C .104166667 .39029948 .09033203 .34016929 .09033203 .27148438 C .09033203 .20182292 .10367838 .15120442 .1303711 .119628909 C .1570638 .08805338 .19189453 .072265628 .23486328 .072265628 C .2693685 .072265628 .2981771 .082845058 .32128907 .104003909 C .34440104 .12516277 .35904948 .15771485 .36523438 .20166016 Z "/>
</symbol>
<symbol id="font_2_58">
<path d="M .34179688 .01171875 L .34179688 .087890628 C .30143229 .029296875 .24658203 0 .1772461 0 C .14664714 0 .118001308 .005859375 .091308597 .017578125 C .064941409 .029296875 .045247396 .043945314 .032226564 .061523439 C .01953125 .079427089 .010579427 .10123698 .0053710939 .12695313 C .0017903646 .14420574 0 .17154949 0 .20898438 L 0 .53027346 L .087890628 .53027346 L .087890628 .24267578 C .087890628 .19677735 .08968099 .16585286 .09326172 .14990235 C .09879557 .12679036 .11051432 .108561199 .12841797 .095214847 C .14632161 .08219401 .16845703 .075683597 .19482422 .075683597 C .2211914 .075683597 .24593099 .08235677 .26904298 .095703128 C .29215495 .109375 .308431 .12776692 .3178711 .1508789 C .32763673 .1743164 .33251954 .20817058 .33251954 .2524414 L .33251954 .53027346 L .42041017 .53027346 L .42041017 .01171875 L .34179688 .01171875 Z "/>
</symbol>
<symbol id="font_2_52">
<path d="M 0 .2709961 C 0 .36702476 .026692709 .43815104 .080078128 .484375 C .12467448 .52278646 .17903646 .5419922 .24316406 .5419922 C .31445313 .5419922 .37272135 .5185547 .41796876 .4716797 C .46321617 .42513023 .48583985 .3606771 .48583985 .2783203 C .48583985 .21158855 .4757487 .15901692 .4555664 .12060547 C .43570964 .08251953 .40657554 .052897138 .36816407 .03173828 C .33007813 .010579427 .28841148 0 .24316406 0 C .17057292 0 .111816409 .02327474 .06689453 .06982422 C .022298178 .116373699 0 .18343099 0 .2709961 M .09033203 .2709961 C .09033203 .20458985 .10481771 .15478516 .13378906 .12158203 C .16276042 .08870443 .19921875 .072265628 .24316406 .072265628 C .28678385 .072265628 .32307945 .08886719 .35205079 .12207031 C .38102214 .15527344 .3955078 .20589192 .3955078 .27392579 C .3955078 .33805339 .38085938 .386556 .3515625 .4194336 C .32259117 .45263673 .28645835 .46923829 .24316406 .46923829 C .19921875 .46923829 .16276042 .45279948 .13378906 .41992188 C .10481771 .38704429 .09033203 .33740235 .09033203 .2709961 Z "/>
</symbol>
<symbol id="font_2_f">
<path d="M .005859375 .14160156 L .005859375 .24169922 L .10595703 .24169922 L .10595703 .14160156 C .10595703 .10481771 .09944662 .07519531 .08642578 .052734376 C .073404949 .029947916 .052734376 .012369792 .024414063 0 L 0 .037597658 C .018554688 .045735677 .032226564 .05777995 .041015626 .07373047 C .049804689 .08935547 .0546875 .111979167 .055664064 .14160156 L .005859375 .14160156 Z "/>
</symbol>
<use xlink:href="#font_2_26" transform="matrix(14.379639,0,0,-14.379639,556.4892,145.40988)"/>
<use xlink:href="#font_2_44" transform="matrix(14.379639,0,0,-14.379639,566.67477,145.40287)"/>
<use xlink:href="#font_2_4f" transform="matrix(14.379639,0,0,-14.379639,575.07,145.23435)"/>
<use xlink:href="#font_2_46" transform="matrix(14.379639,0,0,-14.379639,577.9042,145.40287)"/>
<use xlink:href="#font_2_58" transform="matrix(14.379639,0,0,-14.379639,585.4521,145.40287)"/>
<use xlink:href="#font_2_4f" transform="matrix(14.379639,0,0,-14.379639,593.4472,145.23435)"/>
<use xlink:href="#font_2_44" transform="matrix(14.379639,0,0,-14.379639,596.23928,145.40287)"/>
<use xlink:href="#font_2_57" transform="matrix(14.379639,0,0,-14.379639,603.96749,145.33264)"/>
<use xlink:href="#font_2_48" transform="matrix(14.379639,0,0,-14.379639,608.2389,145.40287)"/>
<use xlink:href="#font_2_3" transform="matrix(14.379639,0,0,-14.379639,30880037000,-30880037000)"/>
<use xlink:href="#font_2_4f" transform="matrix(14.379639,0,0,-14.379639,620.6247,145.23435)"/>
<use xlink:href="#font_2_52" transform="matrix(14.379639,0,0,-14.379639,623.37466,145.40287)"/>
<use xlink:href="#font_2_56" transform="matrix(14.379639,0,0,-14.379639,631.3346,145.40287)"/>
<use xlink:href="#font_2_56" transform="matrix(14.379639,0,0,-14.379639,638.5244,145.40287)"/>
<use xlink:href="#font_2_f" transform="matrix(14.379639,0,0,-14.379639,646.46548,147.27053)"/>
<g id="Layer-1" data-name="Span">
</g>
<use xlink:href="#font_2_3" transform="matrix(14.379639,0,0,-14.379639,30880037000,-30880037000)"/>
<symbol id="font_2_53">
<path d="M 0 0 L 0 .71728518 L .080078128 .71728518 L .080078128 .64990237 C .098958339 .67626956 .120279949 .69596359 .14404297 .7089844 C .16780599 .72233077 .19661458 .7290039 .23046875 .7290039 C .2747396 .7290039 .3138021 .71761068 .34765626 .6948242 C .3815104 .6720378 .4070638 .6398112 .4243164 .59814456 C .441569 .5568034 .4501953 .51139327 .4501953 .46191407 C .4501953 .40885417 .44059245 .3610026 .42138673 .31835938 C .4025065 .27604167 .37483726 .24348958 .3383789 .22070313 C .3022461 .19824219 .26416017 .18701172 .2241211 .18701172 C .19482422 .18701172 .16845703 .19319661 .14501953 .2055664 C .121907558 .2179362 .102864589 .2335612 .087890628 .2524414 L .087890628 0 L 0 0 M .079589847 .45507813 C .079589847 .38834635 .09309896 .33902995 .12011719 .3071289 C .14713542 .27522788 .17985027 .25927735 .21826172 .25927735 C .25732423 .25927735 .2906901 .27571617 .31835938 .30859376 C .34635417 .34179688 .36035157 .3930664 .36035157 .46240235 C .36035157 .5284831 .3466797 .5779622 .31933595 .61083987 C .29231773 .64371749 .25992839 .66015627 .22216797 .66015627 C .18473308 .66015627 .15152996 .6425781 .122558597 .6074219 C .09391276 .5725911 .079589847 .5218099 .079589847 .45507813 Z "/>
</symbol>
<symbol id="font_2_4c">
<path d="M 0 .6147461 L 0 .7158203 L .087890628 .7158203 L .087890628 .6147461 L 0 .6147461 M 0 0 L 0 .5185547 L .087890628 .5185547 L .087890628 0 L 0 0 Z "/>
</symbol>
<symbol id="font_2_50">
<path d="M 0 0 L 0 .5185547 L .07861328 .5185547 L .07861328 .44580079 C .09488932 .4711914 .11653646 .49153648 .14355469 .50683596 C .17057292 .52246096 .20133464 .53027346 .23583985 .53027346 C .2742513 .53027346 .30566407 .52229818 .33007813 .50634768 C .35481773 .49039714 .37223307 .46809898 .38232423 .43945313 C .42333985 .5 .47672526 .53027346 .54248049 .53027346 C .5939128 .53027346 .63346359 .5159505 .6611328 .4873047 C .68880209 .45898438 .7026367 .4152018 .7026367 .35595704 L .7026367 0 L .6152344 0 L .6152344 .32666017 C .6152344 .3618164 .6123047 .38704429 .6064453 .40234376 C .60091146 .41796876 .59065756 .4305013 .5756836 .4399414 C .56070968 .4493815 .54313156 .45410157 .5229492 .45410157 C .48649089 .45410157 .45621745 .44189454 .4321289 .41748048 C .40804038 .39339195 .3959961 .35465495 .3959961 .30126954 L .3959961 0 L .30810548 0 L .30810548 .33691407 C .30810548 .37597657 .300944 .40527345 .2866211 .4248047 C .2722982 .44433595 .24886067 .45410157 .2163086 .45410157 C .19156902 .45410157 .1686198 .44759117 .14746094 .4345703 C .12662761 .42154948 .11149088 .4025065 .10205078 .3774414 C .09261068 .3523763 .087890628 .3162435 .087890628 .26904298 L .087890628 0 L 0 0 Z "/>
</symbol>
<symbol id="font_2_5d">
<path d="M 0 0 L 0 .07128906 L .33007813 .4501953 C .29264323 .4482422 .25960288 .44726563 .23095703 .44726563 L .01953125 .44726563 L .01953125 .5185547 L .44335938 .5185547 L .44335938 .46044923 L .16259766 .13134766 L .10839844 .07128906 C .14778646 .07421875 .18473308 .075683597 .21923828 .075683597 L .45898438 .075683597 L .45898438 0 L 0 0 Z "/>
</symbol>
<symbol id="font_2_55">
<path d="M 0 0 L 0 .5185547 L .07910156 .5185547 L .07910156 .4399414 C .09928385 .47672526 .11783854 .50097659 .13476563 .5126953 C .15201824 .52441409 .17089844 .53027346 .19140625 .53027346 C .22102864 .53027346 .2511393 .5208333 .28173829 .5019531 L .25146485 .42041017 C .22998047 .43310548 .2084961 .43945313 .18701172 .43945313 C .16780599 .43945313 .15055339 .43359376 .1352539 .421875 C .11995443 .41048179 .10904948 .39453126 .10253906 .37402345 C .09277344 .34277345 .087890628 .30859376 .087890628 .27148438 L .087890628 0 L 0 0 Z "/>
</symbol>
<use xlink:href="#font_2_56" transform="matrix(14.379639,0,0,-14.379639,556.21536,162.65843)"/>
<use xlink:href="#font_2_57" transform="matrix(14.379639,0,0,-14.379639,563.2156,162.58821)"/>
<use xlink:href="#font_2_48" transform="matrix(14.379639,0,0,-14.379639,567.487,162.65843)"/>
<use xlink:href="#font_2_53" transform="matrix(14.379639,0,0,-14.379639,575.9033,165.34758)"/>
<use xlink:href="#font_2_3" transform="matrix(14.379639,0,0,-14.379639,30880037000,-30880037000)"/>
<use xlink:href="#font_2_52" transform="matrix(14.379639,0,0,-14.379639,587.42556,162.65843)"/>
<use xlink:href="#font_2_53" transform="matrix(14.379639,0,0,-14.379639,595.89108,165.34758)"/>
<use xlink:href="#font_2_57" transform="matrix(14.379639,0,0,-14.379639,603.191,162.58821)"/>
<use xlink:href="#font_2_4c" transform="matrix(14.379639,0,0,-14.379639,607.8906,162.48992)"/>
<use xlink:href="#font_2_50" transform="matrix(14.379639,0,0,-14.379639,611.0759,162.48992)"/>
<use xlink:href="#font_2_4c" transform="matrix(14.379639,0,0,-14.379639,623.06118,162.48992)"/>
<use xlink:href="#font_2_5d" transform="matrix(14.379639,0,0,-14.379639,625.57937,162.48992)"/>
<use xlink:href="#font_2_48" transform="matrix(14.379639,0,0,-14.379639,633.01498,162.65843)"/>
<use xlink:href="#font_2_55" transform="matrix(14.379639,0,0,-14.379639,641.4173,162.48992)"/>
<path transform="matrix(.7189819,0,0,.7189819,.35949097,.35949097)" stroke-width="1" stroke-linecap="butt" stroke-miterlimit="10" stroke-linejoin="miter" fill="none" stroke="#000000" d="M 671.5 375.5 L 671.5 365.5 L 731.5 365.5 L 731.5 355 L 750.5 370.5 L 731.5 386 L 731.5 375.5 L 671.5 375.5 Z "/>
<symbol id="font_2_36">
<path d="M 0 .2421875 L .08935547 .25 C .09358724 .2141927 .10335287 .18473308 .118652347 .1616211 C .13427735 .13883464 .15836589 .120279949 .19091797 .10595703 C .22347005 .09195963 .26009117 .08496094 .30078126 .08496094 C .33691407 .08496094 .3688151 .09033203 .39648438 .10107422 C .42415367 .111816409 .44466148 .12646485 .4580078 .14501953 C .4716797 .16389974 .47851563 .18440755 .47851563 .20654297 C .47851563 .2290039 .47200523 .24853516 .45898438 .26513673 C .44596354 .2820638 .42447917 .29622398 .39453126 .3076172 C .37532554 .31510417 .33284507 .32666017 .26708985 .34228517 C .20133464 .3582357 .15527344 .37320964 .12890625 .38720704 C .09472656 .4051107 .06917318 .4272461 .052246095 .45361329 C .03564453 .480306 .02734375 .5100911 .02734375 .54296877 C .02734375 .57910159 .037597658 .61279299 .05810547 .64404299 C .07861328 .67561849 .108561199 .69954428 .14794922 .7158203 C .18733724 .7320964 .2311198 .7402344 .27929688 .7402344 C .33235679 .7402344 .379069 .7316081 .4194336 .71435549 C .4601237 .6974284 .4913737 .6723633 .5131836 .63916018 C .53499349 .60595706 .5467122 .5683594 .54833987 .5263672 L .45751954 .51953127 C .45263673 .5647786 .43603517 .5989583 .40771485 .6220703 C .37972007 .6451823 .33821617 .6567383 .28320313 .6567383 C .22591146 .6567383 .18408203 .6461589 .15771485 .625 C .13167317 .6041667 .118652347 .5789388 .118652347 .5493164 C .118652347 .5236003 .12792969 .5024414 .14648438 .48583985 C .16471355 .46923829 .21223958 .45214845 .2890625 .4345703 C .36621095 .41731773 .41910807 .402181 .4477539 .38916017 C .48942057 .36995445 .5201823 .34554038 .54003909 .31591798 C .5598958 .2866211 .5698242 .25276695 .5698242 .21435547 C .5698242 .17626953 .55891928 .14029949 .5371094 .10644531 C .5152995 .072916667 .48388673 .04671224 .4428711 .027832032 C .402181 .009277344 .35628257 0 .30517579 0 C .24039714 0 .18603516 .0094401049 .14208985 .028320313 C .098470058 .04720052 .0641276 .075520839 .0390625 .11328125 C .014322917 .15136719 .0013020834 .19433594 0 .2421875 Z "/>
</symbol>
<use xlink:href="#font_2_36" transform="matrix(14.379639,0,0,-14.379639,556.41897,264.0419)"/>
<use xlink:href="#font_2_57" transform="matrix(14.379639,0,0,-14.379639,565.617,263.96467)"/>
<use xlink:href="#font_2_48" transform="matrix(14.379639,0,0,-14.379639,569.8884,264.03489)"/>
<use xlink:href="#font_2_53" transform="matrix(14.379639,0,0,-14.379639,578.30477,266.72404)"/>
<use xlink:href="#font_2_3" transform="matrix(14.379639,0,0,-14.379639,30880037000,-30880037000)"/>
<use xlink:href="#font_2_48" transform="matrix(14.379639,0,0,-14.379639,589.8761,264.03489)"/>
<use xlink:href="#font_2_51" transform="matrix(14.379639,0,0,-14.379639,598.2924,263.86637)"/>
<use xlink:href="#font_2_59" transform="matrix(14.379639,0,0,-14.379639,605.5222,263.86637)"/>
<use xlink:href="#font_2_f" transform="matrix(14.379639,0,0,-14.379639,612.65969,265.90257)"/>
<use xlink:href="#font_2_3" transform="matrix(14.379639,0,0,-14.379639,30880037000,-30880037000)"/>
<g id="Layer-1" data-name="Span">
</g>
<use xlink:href="#font_2_3" transform="matrix(14.379639,0,0,-14.379639,30880037000,-30880037000)"/>
<symbol id="font_2_4a">
<path d="M .017578125 .16748047 L .103027347 .15478516 C .10660807 .12841797 .11653646 .10921224 .1328125 .09716797 C .15462239 .08089193 .18440755 .072753909 .22216797 .072753909 C .26285807 .072753909 .29427085 .08089193 .31640626 .09716797 C .33854167 .11344401 .35351563 .13623047 .36132813 .16552735 C .3658854 .18343099 .3680013 .22102864 .36767579 .2783203 C .3292643 .23307292 .28141276 .21044922 .2241211 .21044922 C .15283203 .21044922 .09765625 .23616536 .05859375 .28759767 C .01953125 .33902995 0 .40071617 0 .47265626 C 0 .52213546 .008951823 .5677083 .026855469 .609375 C .044759115 .6513672 .07063802 .68375656 .10449219 .70654299 C .13867188 .7293294 .17871094 .74072268 .22460938 .74072268 C .28580729 .74072268 .33626304 .7159831 .37597657 .6665039 L .37597657 .7290039 L .45703126 .7290039 L .45703126 .28076173 C .45703126 .20003255 .44873048 .14290364 .4321289 .109375 C .41585288 .075520839 .3898112 .048828126 .3540039 .029296875 C .31852214 .009765625 .2747396 0 .22265625 0 C .1608073 0 .110839847 .0139973959 .072753909 .041992189 C .03466797 .06966146 .016276041 .11149088 .017578125 .16748047 M .09033203 .4790039 C .09033203 .41097007 .10384115 .36132813 .13085938 .33007813 C .15787761 .29882813 .19173177 .28320313 .23242188 .28320313 C .27278648 .28320313 .30664063 .29866538 .33398438 .32958985 C .36132813 .36083985 .375 .40966798 .375 .47607423 C .375 .5395508 .36083985 .58740237 .33251954 .6196289 C .30452476 .65185549 .27067057 .66796877 .23095703 .66796877 C .19189453 .66796877 .1586914 .65201827 .13134766 .6201172 C .104003909 .5885417 .09033203 .5415039 .09033203 .4790039 Z "/>
</symbol>
<symbol id="font_2_45">
<path d="M .08154297 .01171875 L 0 .01171875 L 0 .72753909 L .087890628 .72753909 L .087890628 .47216798 C .125 .51871749 .17236328 .5419922 .22998047 .5419922 C .2618815 .5419922 .2919922 .53548178 .3203125 .52246096 C .34895835 .5097656 .37239585 .49169923 .390625 .46826173 C .4091797 .44514976 .42366538 .41715495 .43408204 .38427735 C .4444987 .35139976 .44970704 .3162435 .44970704 .2788086 C .44970704 .1899414 .42773438 .12125651 .38378907 .072753909 C .33984376 .024251303 .28710938 0 .22558594 0 C .16438802 0 .116373699 .025553385 .08154297 .076660159 L .08154297 .01171875 M .080566409 .27490235 C .080566409 .21272786 .089029949 .16780599 .10595703 .14013672 C .1336263 .09488932 .1710612 .072265628 .21826172 .072265628 C .2566732 .072265628 .2898763 .08886719 .3178711 .12207031 C .34586589 .15559896 .35986329 .20540364 .35986329 .27148438 C .35986329 .33919273 .34635417 .38916017 .31933595 .42138673 C .29264323 .45361329 .2602539 .46972657 .22216797 .46972657 C .18375652 .46972657 .15055339 .45296226 .122558597 .4194336 C .094563808 .38623048 .080566409 .33805339 .080566409 .27490235 Z "/>
</symbol>
<use xlink:href="#font_2_4a" transform="matrix(14.379639,0,0,-14.379639,556.2364,284.1481)"/>
<use xlink:href="#font_2_48" transform="matrix(14.379639,0,0,-14.379639,564.29476,281.29045)"/>
<use xlink:href="#font_2_57" transform="matrix(14.379639,0,0,-14.379639,572.0159,281.2202)"/>
<use xlink:href="#font_2_3" transform="matrix(14.379639,0,0,-14.379639,30880037000,-30880037000)"/>
<use xlink:href="#font_2_52" transform="matrix(14.379639,0,0,-14.379639,580.2357,281.29045)"/>
<use xlink:href="#font_2_45" transform="matrix(14.379639,0,0,-14.379639,588.6942,281.29045)"/>
<use xlink:href="#font_2_56" transform="matrix(14.379639,0,0,-14.379639,596.19076,281.29045)"/>
<use xlink:href="#font_2_48" transform="matrix(14.379639,0,0,-14.379639,603.46487,281.29045)"/>
<use xlink:href="#font_2_55" transform="matrix(14.379639,0,0,-14.379639,611.8671,281.12193)"/>
<use xlink:href="#font_2_59" transform="matrix(14.379639,0,0,-14.379639,615.90426,281.12193)"/>
<use xlink:href="#font_2_44" transform="matrix(14.379639,0,0,-14.379639,623.4311,281.29045)"/>
<use xlink:href="#font_2_57" transform="matrix(14.379639,0,0,-14.379639,631.15939,281.2202)"/>
<use xlink:href="#font_2_4c" transform="matrix(14.379639,0,0,-14.379639,635.859,281.12193)"/>
<use xlink:href="#font_2_52" transform="matrix(14.379639,0,0,-14.379639,638.5739,281.29045)"/>
<use xlink:href="#font_2_51" transform="matrix(14.379639,0,0,-14.379639,647.03939,281.12193)"/>
<use xlink:href="#font_2_56" transform="matrix(14.379639,0,0,-14.379639,654.5289,281.29045)"/>
<path transform="matrix(.7189819,0,0,.7189819,.35949097,.35949097)" d="M 671.5 300.5 L 671.5 290.5 L 731.5 290.5 L 731.5 280 L 750.5 295.5 L 731.5 311 L 731.5 300.5 L 671.5 300.5 Z " fill="#e1d5e7"/>
<path transform="matrix(.7189819,0,0,.7189819,.35949097,.35949097)" stroke-width="1" stroke-linecap="butt" stroke-miterlimit="10" stroke-linejoin="miter" fill="none" stroke="#9673a6" d="M 671.5 300.5 L 671.5 290.5 L 731.5 290.5 L 731.5 280 L 750.5 295.5 L 731.5 311 L 731.5 300.5 L 671.5 300.5 Z "/>
<symbol id="font_2_5a">
<path d="M .1586914 0 L 0 .5185547 L .09082031 .5185547 L .17333985 .21923828 L .20410156 .107910159 C .20540364 .11344401 .21435547 .14908855 .23095703 .21484375 L .31347657 .5185547 L .4038086 .5185547 L .4814453 .21777344 L .5073242 .118652347 L .5371094 .21875 L .62597659 .5185547 L .7114258 .5185547 L .5493164 0 L .4580078 0 L .37548829 .31054688 L .35546876 .39892579 L .25048829 0 L .1586914 0 Z "/>
</symbol>
<symbol id="font_2_47">
<path d="M .36816407 .01171875 L .36816407 .07714844 C .33528648 .025716147 .28694663 0 .22314453 0 C .18180339 0 .14371746 .0113932299 .10888672 .034179689 C .07438151 .056966146 .047526044 .08870443 .028320313 .12939453 C .0094401049 .17041016 0 .21744792 0 .2705078 C 0 .32226563 .008626302 .36914063 .025878907 .4111328 C .04313151 .45345054 .069010417 .48583985 .103515628 .5083008 C .13802083 .5307617 .17659505 .5419922 .21923828 .5419922 C .25048829 .5419922 .2783203 .53531906 .30273438 .52197268 C .32714845 .50895187 .34700523 .49186198 .3623047 .47070313 L .3623047 .72753909 L .44970704 .72753909 L .44970704 .01171875 L .36816407 .01171875 M .09033203 .2705078 C .09033203 .20410156 .10432943 .15445964 .13232422 .12158203 C .16031902 .08870443 .19335938 .072265628 .23144531 .072265628 C .26985679 .072265628 .30240885 .087890628 .32910157 .119140628 C .35611979 .15071614 .3696289 .19873047 .3696289 .2631836 C .3696289 .33414714 .35595704 .38623048 .32861329 .4194336 C .30126954 .45263673 .26757813 .46923829 .22753906 .46923829 C .18847656 .46923829 .15576172 .45328776 .12939453 .42138673 C .10335287 .3894857 .09033203 .33919273 .09033203 .2705078 Z "/>
</symbol>
<use xlink:href="#font_2_26" transform="matrix(14.379639,0,0,-14.379639,556.4892,218.74605)"/>
<use xlink:href="#font_2_44" transform="matrix(14.379639,0,0,-14.379639,566.67477,218.73903)"/>
<use xlink:href="#font_2_4f" transform="matrix(14.379639,0,0,-14.379639,575.07,218.57051)"/>
<use xlink:href="#font_2_46" transform="matrix(14.379639,0,0,-14.379639,577.9042,218.73903)"/>
<use xlink:href="#font_2_58" transform="matrix(14.379639,0,0,-14.379639,585.4521,218.73903)"/>
<use xlink:href="#font_2_4f" transform="matrix(14.379639,0,0,-14.379639,593.4472,218.57051)"/>
<use xlink:href="#font_2_44" transform="matrix(14.379639,0,0,-14.379639,596.23928,218.73903)"/>
<use xlink:href="#font_2_57" transform="matrix(14.379639,0,0,-14.379639,603.96749,218.66881)"/>
<use xlink:href="#font_2_48" transform="matrix(14.379639,0,0,-14.379639,608.2389,218.73903)"/>
<use xlink:href="#font_2_3" transform="matrix(14.379639,0,0,-14.379639,30880037000,-30880037000)"/>
<use xlink:href="#font_2_55" transform="matrix(14.379639,0,0,-14.379639,620.63876,218.57051)"/>
<use xlink:href="#font_2_48" transform="matrix(14.379639,0,0,-14.379639,625.0199,218.73903)"/>
<use xlink:href="#font_2_5a" transform="matrix(14.379639,0,0,-14.379639,632.53048,218.57051)"/>
<use xlink:href="#font_2_44" transform="matrix(14.379639,0,0,-14.379639,643.3901,218.73903)"/>
<use xlink:href="#font_2_55" transform="matrix(14.379639,0,0,-14.379639,651.7994,218.57051)"/>
<use xlink:href="#font_2_47" transform="matrix(14.379639,0,0,-14.379639,656.14547,218.73903)"/>
</g>
</g>
</svg>
