<?xml version="1.0" encoding="UTF-8" standalone="no"?>
<!DOCTYPE svg PUBLIC "-//W3C//DTD SVG 1.1//EN" "http://www.w3.org/Graphics/SVG/1.1/DTD/svg11.dtd">
<svg xmlns="http://www.w3.org/2000/svg" xmlns:xlink="http://www.w3.org/1999/xlink" version="1.1" width="333.12pt" height="262.08pt" viewBox="0 0 333.12 262.08">
<g enable-background="new">
<clipPath id="cp0">
<path transform="matrix(.24,0,0,.24,0,0)" d="M 0 0 L 1387.5 0 L 1387.5 1085.4795 L 0 1085.4795 Z " fill-rule="evenodd"/>
</clipPath>
<g clip-path="url(#cp0)">
<path transform="matrix(.71767237,0,0,.71767237,.35883618,.35883618)" stroke-width=".99" stroke-linecap="butt" stroke-miterlimit="10" stroke-linejoin="miter" fill="none" stroke="#009900" stroke-opacity=".4" d="M 283.5 202.6 L 316.05 213.49 "/>
<path transform="matrix(-.00000000000000004394476,-.71767237,-.71767237,.00000000000000004394476,161.383,161.383)" d="M -20.85 222.84 L 26.4 23.91 L 223.82 23.91 L 176.57 222.84 L -20.85 222.84 Z " fill="#afbdc7"/>
<path transform="matrix(-.00000000000000004394476,-.71767237,-.71767237,.00000000000000004394476,161.383,161.383)" stroke-width="1.99" stroke-linecap="butt" stroke-miterlimit="10" stroke-linejoin="miter" fill="none" stroke="#000000" d="M -20.85 222.84 L 26.4 23.91 L 223.82 23.91 L 176.57 222.84 L -20.85 222.84 Z "/>
<path transform="matrix(-.00000000000000004394476,-.71767237,-.71767237,.00000000000000004394476,164.59099,164.59099)" d="M 4.99 204.95 L 42.67 45.8 L 201.94 45.8 L 164.26 204.95 L 4.99 204.95 Z " fill="#dae8fc" fill-opacity=".702"/>
<path transform="matrix(.71767237,0,0,.71767237,.35883618,.35883618)" stroke-width=".99" stroke-linecap="butt" stroke-miterlimit="10" stroke-linejoin="miter" fill="none" stroke="#000000" d="M 63.66 33.82 L 63.66 230.76 "/>
<path transform="matrix(.71767237,0,0,.71767237,.35883618,.35883618)" stroke-width=".99" stroke-linecap="butt" stroke-miterlimit="10" stroke-linejoin="miter" fill="none" stroke="#000000" d="M 183.02 5.9700005 L 183.02 202.91 "/>
<path transform="matrix(.71767237,0,0,.71767237,.35883618,.35883618)" stroke-width=".99" stroke-linecap="butt" stroke-miterlimit="10" stroke-linejoin="miter" fill="none" stroke="#000000" d="M 163.12 9.95 L 163.12 207.49 "/>
<path transform="matrix(.71767237,0,0,.71767237,.35883618,.35883618)" stroke-width=".99" stroke-linecap="butt" stroke-miterlimit="10" stroke-linejoin="miter" fill="none" stroke="#000000" d="M 123.34 19.89 L 123.34 216.84 "/>
<path transform="matrix(.71767237,0,0,.71767237,.35883618,.35883618)" stroke-width=".99" stroke-linecap="butt" stroke-miterlimit="10" stroke-linejoin="miter" fill="none" stroke="#000000" d="M 103.44 23.87 L 103.44 221.81 "/>
<path transform="matrix(.71767237,0,0,.71767237,.35883618,.35883618)" stroke-width=".99" stroke-linecap="butt" stroke-miterlimit="10" stroke-linejoin="miter" fill="none" stroke="#000000" d="M 83.55 27.85 L 83.55 225.79 "/>
<path transform="matrix(.71767237,0,0,.71767237,.35883618,.35883618)" stroke-width=".99" stroke-linecap="butt" stroke-miterlimit="10" stroke-linejoin="miter" fill="none" stroke="#000000" d="M 143.23 14.92 L 143.23 211.86 "/>
<path transform="matrix(.71767237,0,0,.71767237,.35883618,.35883618)" stroke-width=".99" stroke-linecap="butt" stroke-miterlimit="10" stroke-linejoin="miter" fill="none" stroke="#000000" d="M 43.77 38.79 L 43.77 235.73 "/>
<path transform="matrix(.71767237,0,0,.71767237,.35883618,.35883618)" stroke-width=".99" stroke-linecap="butt" stroke-miterlimit="10" stroke-linejoin="miter" fill="none" stroke="#000000" d="M 23.87 41.78 L 23.87 240.71 "/>
<path transform="matrix(.71767237,0,0,.71767237,.35883618,.35883618)" stroke-width=".99" stroke-linecap="butt" stroke-miterlimit="10" stroke-linejoin="miter" fill="none" stroke="#000000" d="M 1.01 69.63 L 201.94 21.88 "/>
<path transform="matrix(.71767237,0,0,.71767237,.35883618,.35883618)" stroke-width=".99" stroke-linecap="butt" stroke-miterlimit="10" stroke-linejoin="miter" fill="none" stroke="#000000" d="M 1.01 89.52 L 201.94 41.78 "/>
<path transform="matrix(.71767237,0,0,.71767237,.35883618,.35883618)" stroke-width=".99" stroke-linecap="butt" stroke-miterlimit="10" stroke-linejoin="miter" fill="none" stroke="#000000" d="M 1.01 109.41 L 201.94 61.67 "/>
<path transform="matrix(.71767237,0,0,.71767237,.35883618,.35883618)" stroke-width=".99" stroke-linecap="butt" stroke-miterlimit="10" stroke-linejoin="miter" fill="none" stroke="#000000" d="M 1.01 129.31 L 201.94 81.56 "/>
<path transform="matrix(.71767237,0,0,.71767237,.35883618,.35883618)" stroke-width=".99" stroke-linecap="butt" stroke-miterlimit="10" stroke-linejoin="miter" fill="none" stroke="#000000" d="M 1.01 149.2 L 201.94 101.46 "/>
<path transform="matrix(.71767237,0,0,.71767237,.35883618,.35883618)" stroke-width=".99" stroke-linecap="butt" stroke-miterlimit="10" stroke-linejoin="miter" fill="none" stroke="#000000" d="M 1.01 169.09 L 201.94 121.35 "/>
<path transform="matrix(.71767237,0,0,.71767237,.35883618,.35883618)" stroke-width=".99" stroke-linecap="butt" stroke-miterlimit="10" stroke-linejoin="miter" fill="none" stroke="#000000" d="M 1.01 188.99 L 201.94 141.24 "/>
<path transform="matrix(.71767237,0,0,.71767237,.35883618,.35883618)" stroke-width=".99" stroke-linecap="butt" stroke-miterlimit="10" stroke-linejoin="miter" fill="none" stroke="#000000" d="M 1.01 208.88 L 201.94 161.14 "/>
<path transform="matrix(.71767237,0,0,.71767237,.35883618,.35883618)" stroke-width=".99" stroke-linecap="butt" stroke-miterlimit="10" stroke-linejoin="miter" fill="none" stroke="#000000" d="M 1.01 228.77 L 201.94 181.03 "/>
<symbol id="font_1_13">
<path d="M 0 .36523438 C 0 .44986979 .008626302 .5179036 .025878907 .56933596 C .04345703 .62109377 .06933594 .66097006 .103515628 .68896487 C .13802083 .71695968 .18131511 .73095706 .23339844 .73095706 C .2718099 .73095706 .3055013 .72314456 .33447267 .70751956 C .363444 .69222006 .38736979 .6699219 .40625 .640625 C .42513023 .6116536 .4399414 .5761719 .4506836 .5341797 C .46142579 .49251304 .46679688 .4361979 .46679688 .36523438 C .46679688 .28125 .45817057 .2133789 .44091798 .1616211 C .42366538 .110188808 .39778648 .0703125 .36328126 .041992189 C .32910157 .0139973959 .28580729 0 .23339844 0 C .16438802 0 .110188808 .024739584 .07080078 .07421875 C .02360026 .13378906 0 .23079427 0 .36523438 M .09033203 .36523438 C .09033203 .24772136 .104003909 .1694336 .13134766 .1303711 C .15901692 .09163412 .19303386 .072265628 .23339844 .072265628 C .27376304 .072265628 .3076172 .091796878 .33496095 .13085938 C .36263023 .16992188 .37646485 .24804688 .37646485 .36523438 C .37646485 .4830729 .36263023 .56136068 .33496095 .60009768 C .3076172 .63883468 .2734375 .6582031 .23242188 .6582031 C .1920573 .6582031 .15983074 .6411133 .13574219 .6069336 C .10546875 .5633138 .09033203 .4827474 .09033203 .36523438 Z "/>
</symbol>
<use xlink:href="#font_1_13" transform="matrix(9.993768,0,0,-9.993768,22.61076,142.8901)"/>
<symbol id="font_1_1b">
<path d="M .13623047 .40039063 C .09977213 .41373698 .072753909 .43277995 .05517578 .45751954 C .037597658 .48225913 .028808594 .51188156 .028808594 .5463867 C .028808594 .59847006 .047526044 .6422526 .08496094 .6777344 C .122395839 .7132161 .17220052 .73095706 .234375 .73095706 C .296875 .73095706 .34716798 .71272787 .3852539 .67626956 C .42333985 .6401367 .4423828 .5960286 .4423828 .5439453 C .4423828 .5107422 .43359376 .48177085 .41601563 .45703126 C .39876304 .4326172 .37239585 .41373698 .33691407 .40039063 C .38085938 .38606773 .41422526 .36295573 .43701173 .3310547 C .4601237 .29915367 .4716797 .26106773 .4716797 .21679688 C .4716797 .15559896 .45003257 .104166667 .40673829 .0625 C .363444 .020833334 .30647788 0 .23583985 0 C .16520183 0 .10823568 .020833334 .064941409 .0625 C .021647135 .10449219 0 .15673828 0 .21923828 C 0 .26578776 .01171875 .3046875 .03515625 .3359375 C .05891927 .36751304 .09261068 .3889974 .13623047 .40039063 M .118652347 .5493164 C .118652347 .5154622 .1295573 .48779298 .15136719 .4663086 C .17317708 .44482423 .20149739 .43408204 .23632813 .43408204 C .27018229 .43408204 .29785157 .44466148 .31933595 .4658203 C .34114585 .4873047 .35205079 .5135091 .35205079 .5444336 C .35205079 .57666018 .3408203 .6036784 .31835938 .6254883 C .29622398 .6476237 .2685547 .6586914 .23535156 .6586914 C .20182292 .6586914 .17399089 .6479492 .15185547 .62646487 C .12972005 .60498049 .118652347 .57926437 .118652347 .5493164 M .09033203 .21875 C .09033203 .19368489 .096191409 .1694336 .107910159 .1459961 C .11995443 .122558597 .13769531 .10432943 .16113281 .091308597 C .18457031 .07861328 .20979817 .072265628 .2368164 .072265628 C .2788086 .072265628 .31347657 .08577474 .3408203 .11279297 C .36816407 .1398112 .38183595 .17415364 .38183595 .21582031 C .38183595 .25813804 .36767579 .2931315 .33935548 .32080079 C .3113607 .34847007 .27620445 .3623047 .23388672 .3623047 C .19254558 .3623047 .15820313 .3486328 .13085938 .32128907 C .10384115 .2939453 .09033203 .25976563 .09033203 .21875 Z "/>
</symbol>
<use xlink:href="#font_1_1b" transform="matrix(9.993768,0,0,-9.993768,122.53868,90.0659)"/>
<use xlink:href="#font_1_1b" transform="matrix(9.993768,0,0,-9.993768,122.53868,104.34271)"/>
<symbol id="font_1_1a">
<path d="M 0 .6220703 L 0 .70654299 L .4633789 .70654299 L .4633789 .6381836 C .417806 .58968099 .3725586 .52522787 .32763673 .44482423 C .28304038 .36442057 .24853516 .28173829 .2241211 .19677735 C .20654297 .13688152 .1953125 .07128906 .19042969 0 L .100097659 0 C .10107422 .056315107 .11214193 .12434896 .13330078 .20410156 C .15445964 .28385417 .18473308 .3606771 .2241211 .4345703 C .26383464 .50878909 .3059896 .57128909 .35058595 .6220703 L 0 .6220703 Z "/>
</symbol>
<use xlink:href="#font_1_1a" transform="matrix(9.993768,0,0,-9.993768,122.606998,75.6671)"/>
<g id="Layer-1" data-name="Span">
</g>
<symbol id="font_1_3">
<path d="M -2147483500 -2147483500 Z "/>
</symbol>
<use xlink:href="#font_1_3" transform="matrix(9.993768,0,0,-9.993768,21461450000,-21461450000)"/>
<symbol id="font_1_18">
<path d="M 0 .19970703 L .092285159 .20751953 C .099121097 .16259766 .11490885 .12874349 .13964844 .10595703 C .16471355 .083496097 .19482422 .072265628 .22998047 .072265628 C .2722982 .072265628 .30810548 .08821615 .33740235 .12011719 C .36669923 .15201824 .38134767 .19433594 .38134767 .24707031 C .38134767 .29720054 .3671875 .3367513 .3388672 .36572267 C .3108724 .394694 .27408854 .4091797 .22851563 .4091797 C .20019531 .4091797 .17464192 .40266929 .15185547 .38964845 C .12906902 .37695313 .11116537 .36035157 .09814453 .33984376 L .015625 .35058595 L .08496094 .7182617 L .44091798 .7182617 L .44091798 .63427737 L .15527344 .63427737 L .11669922 .44189454 C .15966797 .47184245 .20475261 .4868164 .25195313 .4868164 C .31445313 .4868164 .3671875 .46516929 .41015626 .421875 C .453125 .37858073 .47460938 .32291667 .47460938 .2548828 C .47460938 .19010417 .45572917 .13411458 .41796876 .08691406 C .3720703 .028971354 .30940757 0 .22998047 0 C .1648763 0 .11165365 .018229166 .0703125 .0546875 C .029296875 .091145839 .005859375 .13948567 0 .19970703 Z "/>
</symbol>
<use xlink:href="#font_1_18" transform="matrix(9.993768,0,0,-9.993768,108.27162,94.348949)"/>
<symbol id="font_1_14">
<path d="M .26367188 0 L .17578125 0 L .17578125 .5600586 C .15462239 .5398763 .12679036 .51969406 .092285159 .49951173 C .05810547 .47932945 .02734375 .46419273 0 .45410157 L 0 .5390625 C .049153646 .5621745 .0921224 .59016928 .12890625 .6230469 C .16569011 .6559245 .19173177 .6878255 .20703125 .71875 L .26367188 .71875 L .26367188 0 Z "/>
</symbol>
<use xlink:href="#font_1_14" transform="matrix(9.993768,0,0,-9.993768,37.560979,152.76187)"/>
<use xlink:href="#font_1_13" transform="matrix(9.993768,0,0,-9.993768,36.88757,140.03475)"/>
<use xlink:href="#font_1_14" transform="matrix(9.993768,0,0,-9.993768,51.837789,149.90651)"/>
<use xlink:href="#font_1_13" transform="matrix(9.993768,0,0,-9.993768,22.61076,157.16692)"/>
<use xlink:href="#font_1_13" transform="matrix(9.993768,0,0,-9.993768,6.906268,145.74547)"/>
<use xlink:href="#font_1_13" transform="matrix(9.993768,0,0,-9.993768,6.906268,160.02228)"/>
<symbol id="font_1_16">
<path d="M 0 .20166016 L .087890628 .2133789 C .09798177 .16357422 .11507162 .12760417 .13916016 .10546875 C .16357422 .08365885 .19319661 .072753909 .22802735 .072753909 C .2693685 .072753909 .30419923 .08707682 .33251954 .115722659 C .36116538 .14436849 .37548829 .17985027 .37548829 .22216797 C .37548829 .26253257 .3623047 .2957357 .3359375 .32177735 C .3095703 .34814454 .27604167 .36132813 .23535156 .36132813 C .21875 .36132813 .19807942 .3580729 .17333985 .3515625 L .18310547 .42871095 C .18896485 .4280599 .19368489 .42773438 .19726563 .42773438 C .23470052 .42773438 .26839195 .4375 .29833985 .45703126 C .32828776 .4765625 .34326173 .50667318 .34326173 .5473633 C .34326173 .57958987 .33235679 .60628256 .31054688 .6274414 C .28873698 .6486003 .26057945 .6591797 .22607422 .6591797 C .19189453 .6591797 .16341146 .6484375 .140625 .6269531 C .11783854 .60546877 .1031901 .5732422 .09667969 .53027346 L .0087890629 .54589846 C .01953125 .6048177 .043945314 .6503906 .08203125 .6826172 C .12011719 .71516928 .16748047 .7314453 .2241211 .7314453 C .2631836 .7314453 .29915367 .72298178 .33203126 .7060547 C .36490885 .6894531 .38997398 .6666667 .40722657 .6376953 C .4248047 .60872396 .43359376 .5779622 .43359376 .54541018 C .43359376 .51448568 .42529298 .48632813 .4086914 .4609375 C .39208985 .43554688 .36751304 .4153646 .33496095 .40039063 C .37727867 .390625 .41015626 .37027995 .43359376 .33935548 C .45703126 .3087565 .46875 .27034507 .46875 .2241211 C .46875 .1616211 .44596354 .108561199 .40039063 .064941409 C .35481773 .021647135 .29720054 0 .22753906 0 C .16471355 0 .112467449 .018717448 .07080078 .056152345 C .029459635 .09358724 .005859375 .14208985 0 .20166016 Z "/>
</symbol>
<use xlink:href="#font_1_16" transform="matrix(9.993768,0,0,-9.993768,65.446079,104.347599)"/>
<symbol id="font_1_15">
<path d="M .47379557 .084472659 L .47379557 0 L .00065104107 0 C -.00000000062088176 .021158854 .003417968 .041503908 .010904947 .061035158 C .022949219 .09326172 .04215495 .125 .06852213 .15625 C .095214847 .1875 .1336263 .22363281 .18375652 .26464845 C .261556 .32845054 .3141276 .37890626 .34147135 .41601563 C .3688151 .45345054 .38248698 .48876954 .38248698 .52197268 C .38248698 .5568034 .36995445 .5861003 .3448893 .6098633 C .32014976 .63395187 .2877604 .6459961 .24772136 .6459961 C .20540364 .6459961 .17154949 .6333008 .14615886 .60791018 C .12076823 .58251956 .107910159 .5473633 .10758463 .5024414 L .017252604 .51171877 C .0234375 .57910159 .04671224 .6303711 .08707682 .66552737 C .1274414 .7010091 .18164063 .71875 .24967449 .71875 C .31835938 .71875 .37272135 .69970706 .4127604 .6616211 C .45279948 .62353518 .472819 .57633468 .472819 .52001956 C .472819 .4913737 .46695964 .46321617 .45524089 .43554688 C .44352214 .4078776 .42399089 .3787435 .39664714 .34814454 C .3696289 .31754557 .32454429 .27555339 .26139323 .22216797 C .20865886 .17789714 .17480469 .14778646 .15983074 .13183594 C .14485677 .11621094 .13248699 .10042318 .12272135 .084472659 L .47379557 .084472659 Z "/>
</symbol>
<use xlink:href="#font_1_15" transform="matrix(9.993768,0,0,-9.993768,79.59926,99.937679)"/>
<use xlink:href="#font_1_15" transform="matrix(9.993768,0,0,-9.993768,65.32245,118.49753)"/>
<symbol id="font_1_17">
<path d="M .31054688 0 L .31054688 .17138672 L 0 .17138672 L 0 .25195313 L .32666017 .7158203 L .3984375 .7158203 L .3984375 .25195313 L .4951172 .25195313 L .4951172 .17138672 L .3984375 .17138672 L .3984375 0 L .31054688 0 M .31054688 .25195313 L .31054688 .57470706 L .08642578 .25195313 L .31054688 .25195313 Z "/>
</symbol>
<use xlink:href="#font_1_17" transform="matrix(9.993768,0,0,-9.993768,79.4301,71.384059)"/>
<use xlink:href="#font_1_14" transform="matrix(9.993768,0,0,-9.993768,80.39141,85.660869)"/>
<use xlink:href="#font_1_17" transform="matrix(9.993768,0,0,-9.993768,93.70691,97.08231)"/>
<use xlink:href="#font_1_18" transform="matrix(9.993768,0,0,-9.993768,108.27162,37.241704)"/>
<use xlink:href="#font_1_1b" transform="matrix(9.993768,0,0,-9.993768,93.985057,140.03475)"/>
<use xlink:href="#font_1_1a" transform="matrix(9.993768,0,0,-9.993768,65.49975,75.6671)"/>
<g id="Layer-1" data-name="Span">
</g>
<use xlink:href="#font_1_3" transform="matrix(9.993768,0,0,-9.993768,21461450000,-21461450000)"/>
<use xlink:href="#font_1_1a" transform="matrix(9.993768,0,0,-9.993768,36.94613,97.08231)"/>
<g id="Layer-1" data-name="Span">
</g>
<use xlink:href="#font_1_3" transform="matrix(9.993768,0,0,-9.993768,21461450000,-21461450000)"/>
<use xlink:href="#font_1_18" transform="matrix(9.993768,0,0,-9.993768,51.16438,92.921268)"/>
<use xlink:href="#font_1_16" transform="matrix(9.993768,0,0,-9.993768,93.999698,40.101945)"/>
<use xlink:href="#font_1_14" transform="matrix(9.993768,0,0,-9.993768,108.94503,49.968839)"/>
<use xlink:href="#font_1_14" transform="matrix(9.993768,0,0,-9.993768,94.66822,54.25188)"/>
<use xlink:href="#font_1_17" transform="matrix(9.993768,0,0,-9.993768,122.26054,47.113477)"/>
<use xlink:href="#font_1_14" transform="matrix(9.993768,0,0,-9.993768,108.94503,64.24565)"/>
<use xlink:href="#font_1_15" transform="matrix(9.993768,0,0,-9.993768,93.87607,68.528697)"/>
<use xlink:href="#font_1_13" transform="matrix(9.993768,0,0,-9.993768,6.906268,88.63822)"/>
<use xlink:href="#font_1_17" transform="matrix(9.993768,0,0,-9.993768,22.322855,99.937679)"/>
<use xlink:href="#font_1_18" transform="matrix(9.993768,0,0,-9.993768,36.88757,111.48112)"/>
<symbol id="font_1_1c">
<path d="M .013183594 .17773438 L .09765625 .18554688 C .10481771 .14583333 .118489589 .11702474 .13867188 .099121097 C .15885417 .081217449 .18473308 .072265628 .2163086 .072265628 C .24332683 .072265628 .2669271 .07845052 .28710938 .09082031 C .3076172 .1031901 .3243815 .119628909 .33740235 .14013672 C .3504232 .16097005 .36132813 .18896485 .3701172 .2241211 C .37890626 .25927735 .38330079 .29508464 .38330079 .33154298 C .38330079 .33544923 .38313804 .3413086 .3828125 .3491211 C .36523438 .3211263 .34114585 .29833985 .31054688 .28076173 C .28027345 .26350913 .24739583 .2548828 .21191406 .2548828 C .15266927 .2548828 .10253906 .2763672 .061523439 .31933595 C .020507813 .3623047 0 .4189453 0 .4892578 C 0 .56184896 .021321616 .62027999 .063964847 .6645508 C .106933597 .7088216 .16064453 .73095706 .22509766 .73095706 C .27164714 .73095706 .3141276 .7184245 .35253907 .6933594 C .39127604 .66829428 .4205729 .632487 .4404297 .5859375 C .46061198 .53971359 .47070313 .47265626 .47070313 .38476563 C .47070313 .29329429 .46077476 .22037761 .44091798 .16601563 C .4210612 .111979167 .3914388 .07080078 .35205079 .04248047 C .31298829 .014160156 .26708985 0 .21435547 0 C .15836589 0 .11263021 .015462239 .07714844 .04638672 C .041666669 .07763672 .020345053 .12141927 .013183594 .17773438 M .37304688 .49365235 C .37304688 .5441081 .35953776 .58414718 .33251954 .61376956 C .3058268 .6433919 .27360026 .6582031 .23583985 .6582031 C .19677735 .6582031 .16276042 .6422526 .13378906 .61035159 C .10481771 .5784505 .09033203 .5371094 .09033203 .48632813 C .09033203 .44075523 .104003909 .40364585 .13134766 .375 C .15901692 .3466797 .19303386 .33251954 .23339844 .33251954 C .27408854 .33251954 .30745445 .3466797 .3334961 .375 C .35986329 .40364585 .37304688 .44319663 .37304688 .49365235 Z "/>
</symbol>
<use xlink:href="#font_1_1c" transform="matrix(9.993768,0,0,-9.993768,22.61076,114.33648)"/>
<g id="Layer-1" data-name="Span">
</g>
<use xlink:href="#font_1_3" transform="matrix(9.993768,0,0,-9.993768,21461450000,-21461450000)"/>
<use xlink:href="#font_1_17" transform="matrix(9.993768,0,0,-9.993768,50.876474,107.07608)"/>
<use xlink:href="#font_1_1a" transform="matrix(9.993768,0,0,-9.993768,94.05337,82.805507)"/>
<g id="Layer-1" data-name="Span">
</g>
<use xlink:href="#font_1_3" transform="matrix(9.993768,0,0,-9.993768,21461450000,-21461450000)"/>
<use xlink:href="#font_1_1c" transform="matrix(9.993768,0,0,-9.993768,122.54844,32.95866)"/>
<g id="Layer-1" data-name="Span">
</g>
<use xlink:href="#font_1_3" transform="matrix(9.993768,0,0,-9.993768,21461450000,-21461450000)"/>
<use xlink:href="#font_1_14" transform="matrix(9.993768,0,0,-9.993768,123.22185,61.390287)"/>
<use xlink:href="#font_1_13" transform="matrix(9.993768,0,0,-9.993768,36.88757,125.75793)"/>
<use xlink:href="#font_1_13" transform="matrix(9.993768,0,0,-9.993768,93.99481,125.75793)"/>
<use xlink:href="#font_1_14" transform="matrix(9.993768,0,0,-9.993768,108.94503,122.78057)"/>
<use xlink:href="#font_1_18" transform="matrix(9.993768,0,0,-9.993768,122.54844,118.61952)"/>
<use xlink:href="#font_1_1b" transform="matrix(9.993768,0,0,-9.993768,122.53868,132.89633)"/>
<use xlink:href="#font_1_16" transform="matrix(9.993768,0,0,-9.993768,79.722888,128.61818)"/>
<use xlink:href="#font_1_18" transform="matrix(9.993768,0,0,-9.993768,65.44119,132.89633)"/>
<use xlink:href="#font_1_1b" transform="matrix(9.993768,0,0,-9.993768,79.708248,57.229238)"/>
<use xlink:href="#font_1_13" transform="matrix(9.993768,0,0,-9.993768,6.906268,131.46866)"/>
<g id="Layer-1" data-name="Span">
</g>
<use xlink:href="#font_1_3" transform="matrix(9.993768,0,0,-9.993768,21461450000,-21461450000)"/>
<use xlink:href="#font_1_17" transform="matrix(9.993768,0,0,-9.993768,22.322855,128.4913)"/>
<use xlink:href="#font_1_15" transform="matrix(9.993768,0,0,-9.993768,79.59926,114.214488)"/>
<use xlink:href="#font_1_15" transform="matrix(9.993768,0,0,-9.993768,65.32245,145.62348)"/>
<use xlink:href="#font_1_16" transform="matrix(9.993768,0,0,-9.993768,79.722888,142.89499)"/>
<use xlink:href="#font_1_14" transform="matrix(9.993768,0,0,-9.993768,66.1146,45.685796)"/>
<use xlink:href="#font_1_15" transform="matrix(9.993768,0,0,-9.993768,93.87607,111.35912)"/>
<use xlink:href="#font_1_14" transform="matrix(9.993768,0,0,-9.993768,51.837789,121.35289)"/>
<use xlink:href="#font_1_17" transform="matrix(9.993768,0,0,-9.993768,50.876474,135.6297)"/>
<use xlink:href="#font_1_14" transform="matrix(9.993768,0,0,-9.993768,108.94503,137.05739)"/>
<use xlink:href="#font_1_16" transform="matrix(9.993768,0,0,-9.993768,108.276508,108.63064)"/>
<use xlink:href="#font_1_14" transform="matrix(9.993768,0,0,-9.993768,108.94503,78.52246)"/>
<use xlink:href="#font_1_16" transform="matrix(9.993768,0,0,-9.993768,65.446079,61.51716)"/>
<use xlink:href="#font_1_18" transform="matrix(9.993768,0,0,-9.993768,79.718,42.952428)"/>
<use xlink:href="#font_1_13" transform="matrix(9.993768,0,0,-9.993768,51.16438,35.814023)"/>
<g id="Layer-1" data-name="Span">
</g>
<use xlink:href="#font_1_3" transform="matrix(9.993768,0,0,-9.993768,21461450000,-21461450000)"/>
<use xlink:href="#font_1_15" transform="matrix(9.993768,0,0,-9.993768,65.32245,88.51623)"/>
<use xlink:href="#font_1_13" transform="matrix(9.993768,0,0,-9.993768,6.906268,104.34271)"/>
<use xlink:href="#font_1_13" transform="matrix(9.993768,0,0,-9.993768,6.906268,117.19184)"/>
<use xlink:href="#font_1_13" transform="matrix(9.993768,0,0,-9.993768,6.906268,172.8714)"/>
<use xlink:href="#font_1_13" transform="matrix(9.993768,0,0,-9.993768,65.44119,31.530978)"/>
<g id="Layer-1" data-name="Span">
</g>
<use xlink:href="#font_1_3" transform="matrix(9.993768,0,0,-9.993768,21461450000,-21461450000)"/>
<use xlink:href="#font_1_13" transform="matrix(9.993768,0,0,-9.993768,79.718,28.675616)"/>
<g id="Layer-1" data-name="Span">
</g>
<use xlink:href="#font_1_3" transform="matrix(9.993768,0,0,-9.993768,21461450000,-21461450000)"/>
<use xlink:href="#font_1_13" transform="matrix(9.993768,0,0,-9.993768,93.99481,24.392573)"/>
<g id="Layer-1" data-name="Span">
</g>
<use xlink:href="#font_1_3" transform="matrix(9.993768,0,0,-9.993768,21461450000,-21461450000)"/>
<use xlink:href="#font_1_13" transform="matrix(9.993768,0,0,-9.993768,108.27162,21.53721)"/>
<g id="Layer-1" data-name="Span">
</g>
<use xlink:href="#font_1_3" transform="matrix(9.993768,0,0,-9.993768,21461450000,-21461450000)"/>
<use xlink:href="#font_1_13" transform="matrix(9.993768,0,0,-9.993768,122.54844,17.254168)"/>
<g id="Layer-1" data-name="Span">
</g>
<use xlink:href="#font_1_3" transform="matrix(9.993768,0,0,-9.993768,21461450000,-21461450000)"/>
<use xlink:href="#font_1_13" transform="matrix(9.993768,0,0,-9.993768,135.39757,14.398805)"/>
<g id="Layer-1" data-name="Span">
</g>
<use xlink:href="#font_1_3" transform="matrix(9.993768,0,0,-9.993768,21461450000,-21461450000)"/>
<use xlink:href="#font_1_13" transform="matrix(9.993768,0,0,-9.993768,135.39757,30.103297)"/>
<g id="Layer-1" data-name="Span">
</g>
<use xlink:href="#font_1_3" transform="matrix(9.993768,0,0,-9.993768,21461450000,-21461450000)"/>
<use xlink:href="#font_1_13" transform="matrix(9.993768,0,0,-9.993768,135.39757,44.380109)"/>
<g id="Layer-1" data-name="Span">
</g>
<use xlink:href="#font_1_3" transform="matrix(9.993768,0,0,-9.993768,21461450000,-21461450000)"/>
<use xlink:href="#font_1_13" transform="matrix(9.993768,0,0,-9.993768,135.39757,58.656919)"/>
<g id="Layer-1" data-name="Span">
</g>
<use xlink:href="#font_1_3" transform="matrix(9.993768,0,0,-9.993768,21461450000,-21461450000)"/>
<use xlink:href="#font_1_13" transform="matrix(9.993768,0,0,-9.993768,135.39757,72.93373)"/>
<g id="Layer-1" data-name="Span">
</g>
<use xlink:href="#font_1_3" transform="matrix(9.993768,0,0,-9.993768,21461450000,-21461450000)"/>
<use xlink:href="#font_1_13" transform="matrix(9.993768,0,0,-9.993768,135.39757,87.21054)"/>
<g id="Layer-1" data-name="Span">
</g>
<use xlink:href="#font_1_3" transform="matrix(9.993768,0,0,-9.993768,21461450000,-21461450000)"/>
<use xlink:href="#font_1_13" transform="matrix(9.993768,0,0,-9.993768,135.39757,101.48735)"/>
<g id="Layer-1" data-name="Span">
</g>
<use xlink:href="#font_1_3" transform="matrix(9.993768,0,0,-9.993768,21461450000,-21461450000)"/>
<use xlink:href="#font_1_13" transform="matrix(9.993768,0,0,-9.993768,135.39757,115.76416)"/>
<g id="Layer-1" data-name="Span">
</g>
<use xlink:href="#font_1_3" transform="matrix(9.993768,0,0,-9.993768,21461450000,-21461450000)"/>
<use xlink:href="#font_1_13" transform="matrix(9.993768,0,0,-9.993768,135.39757,130.04097)"/>
<g id="Layer-1" data-name="Span">
</g>
<use xlink:href="#font_1_3" transform="matrix(9.993768,0,0,-9.993768,21461450000,-21461450000)"/>
<use xlink:href="#font_1_13" transform="matrix(9.993768,0,0,-9.993768,135.39757,142.8901)"/>
<g id="Layer-1" data-name="Span">
</g>
<use xlink:href="#font_1_3" transform="matrix(9.993768,0,0,-9.993768,21461450000,-21461450000)"/>
<use xlink:href="#font_1_13" transform="matrix(9.993768,0,0,-9.993768,122.54844,145.74547)"/>
<g id="Layer-1" data-name="Span">
</g>
<use xlink:href="#font_1_3" transform="matrix(9.993768,0,0,-9.993768,21461450000,-21461450000)"/>
<use xlink:href="#font_1_13" transform="matrix(9.993768,0,0,-9.993768,108.27162,148.60083)"/>
<g id="Layer-1" data-name="Span">
</g>
<use xlink:href="#font_1_3" transform="matrix(9.993768,0,0,-9.993768,21461450000,-21461450000)"/>
<use xlink:href="#font_1_13" transform="matrix(9.993768,0,0,-9.993768,93.99481,152.88387)"/>
<g id="Layer-1" data-name="Span">
</g>
<use xlink:href="#font_1_3" transform="matrix(9.993768,0,0,-9.993768,21461450000,-21461450000)"/>
<use xlink:href="#font_1_13" transform="matrix(9.993768,0,0,-9.993768,79.718,155.73923)"/>
<g id="Layer-1" data-name="Span">
</g>
<use xlink:href="#font_1_3" transform="matrix(9.993768,0,0,-9.993768,21461450000,-21461450000)"/>
<use xlink:href="#font_1_13" transform="matrix(9.993768,0,0,-9.993768,65.44119,158.59459)"/>
<g id="Layer-1" data-name="Span">
</g>
<use xlink:href="#font_1_3" transform="matrix(9.993768,0,0,-9.993768,21461450000,-21461450000)"/>
<use xlink:href="#font_1_13" transform="matrix(9.993768,0,0,-9.993768,51.16438,162.87764)"/>
<g id="Layer-1" data-name="Span">
</g>
<use xlink:href="#font_1_3" transform="matrix(9.993768,0,0,-9.993768,21461450000,-21461450000)"/>
<use xlink:href="#font_1_13" transform="matrix(9.993768,0,0,-9.993768,36.88757,165.733)"/>
<g id="Layer-1" data-name="Span">
</g>
<use xlink:href="#font_1_3" transform="matrix(9.993768,0,0,-9.993768,21461450000,-21461450000)"/>
<use xlink:href="#font_1_13" transform="matrix(9.993768,0,0,-9.993768,22.61076,168.58837)"/>
<g id="Layer-1" data-name="Span">
</g>
<use xlink:href="#font_1_3" transform="matrix(9.993768,0,0,-9.993768,21461450000,-21461450000)"/>
<path transform="matrix(-.00000000000000004394476,-.71767237,-.71767237,.00000000000000004394476,74.82452,74.82452)" d="M -4.75 101.26 L 10.04 41.58 L 70.44 41.58 L 55.65 101.26 L -4.75 101.26 Z " fill="#00cc00" fill-opacity=".6"/>
<path transform="matrix(-.00000000000000004394476,-.71767237,-.71767237,.00000000000000004394476,74.82452,74.82452)" stroke-width="1.99" stroke-linecap="butt" stroke-miterlimit="10" stroke-linejoin="miter" fill="none" stroke="#00cc00" stroke-opacity=".6" d="M -4.75 101.26 L 10.04 41.58 L 70.44 41.58 L 55.65 101.26 L -4.75 101.26 Z "/>
<use xlink:href="#font_1_15" transform="matrix(9.993768,0,0,-9.993768,22.49202,57.107244)"/>
<use xlink:href="#font_1_15" transform="matrix(9.993768,0,0,-9.993768,36.76883,52.8242)"/>
<use xlink:href="#font_1_15" transform="matrix(9.993768,0,0,-9.993768,22.49202,85.660869)"/>
<use xlink:href="#font_1_14" transform="matrix(9.993768,0,0,-9.993768,23.284169,71.384059)"/>
<use xlink:href="#font_1_16" transform="matrix(9.993768,0,0,-9.993768,36.89245,67.22789)"/>
<use xlink:href="#font_1_14" transform="matrix(9.993768,0,0,-9.993768,51.837789,49.968839)"/>
<use xlink:href="#font_1_15" transform="matrix(9.993768,0,0,-9.993768,51.04564,64.24565)"/>
<use xlink:href="#font_1_14" transform="matrix(9.993768,0,0,-9.993768,51.837789,78.52246)"/>
<use xlink:href="#font_1_18" transform="matrix(9.993768,0,0,-9.993768,36.88757,81.49982)"/>
<path transform="matrix(.71767237,0,0,.71767237,0,0)" stroke-width="1.99" stroke-linecap="butt" stroke-miterlimit="10" stroke-linejoin="miter" fill="none" stroke="#ff0000" d="M 7.98 35.87 L 43.22 27.47 "/>
<path transform="matrix(.71767237,0,0,.71767237,0,0)" d="M 47.57 26.44 L 42.22 29.75 L 43.22 27.47 L 41.3 25.88 L 47.57 26.44 Z " fill="#ff0000"/>
<path transform="matrix(.71767237,0,0,.71767237,0,0)" stroke-width="1.99" stroke-linecap="butt" stroke-miterlimit="10" stroke-linejoin="miter" fill="none" stroke="#ff0000" d="M 47.57 26.44 L 42.22 29.75 L 43.22 27.47 L 41.3 25.88 L 47.57 26.44 Z "/>
<use xlink:href="#font_1_13" transform="matrix(9.993768,0,0,-9.993768,6.906268,45.80779)"/>
<use xlink:href="#font_1_13" transform="matrix(9.993768,0,0,-9.993768,22.61076,42.952428)"/>
<use xlink:href="#font_1_13" transform="matrix(9.993768,0,0,-9.993768,6.906268,74.36141)"/>
<use xlink:href="#font_1_13" transform="matrix(9.993768,0,0,-9.993768,6.906268,60.0846)"/>
<use xlink:href="#font_1_13" transform="matrix(9.993768,0,0,-9.993768,36.88757,38.669385)"/>
<path transform="matrix(.71767237,0,0,.71767237,.35883618,.35883618)" stroke-width=".99" stroke-linecap="butt" stroke-miterlimit="10" stroke-linejoin="miter" fill="none" stroke="#009900" stroke-opacity=".4" d="M 24.29 43.81 L 224.24 157.16 "/>
<path transform="matrix(.71767237,0,0,.71767237,.35883618,.35883618)" stroke-width=".99" stroke-linecap="butt" stroke-miterlimit="10" stroke-linejoin="miter" fill="none" stroke="#009900" stroke-opacity=".4" d="M 3 109.01 L 223.82 217.41 "/>
<path transform="matrix(.71767237,0,0,.71767237,.35883618,.35883618)" stroke-width=".99" stroke-linecap="butt" stroke-miterlimit="10" stroke-linejoin="miter" fill="none" stroke="#009900" stroke-opacity=".4" d="M 62.68 33.82 L 283.5 141.82 "/>
<path transform="matrix(.71767237,0,0,.71767237,.35883618,.35883618)" stroke-width=".99" stroke-linecap="butt" stroke-miterlimit="10" stroke-linejoin="miter" fill="none" stroke="#009900" stroke-opacity=".4" d="M 62.74 95.03 L 283.68 202.9 "/>
<path transform="matrix(-.00000000000000004394476,-.71767237,-.71767237,.00000000000000004394476,310.95307,310.95307)" d="M 215.86 209.46 L 230.65 149.78 L 291.46 149.78 L 276.66 209.46 L 215.86 209.46 Z " fill="#47c453"/>
<path transform="matrix(-.00000000000000004394476,-.71767237,-.71767237,.00000000000000004394476,310.95307,310.95307)" stroke-width="1.99" stroke-linecap="butt" stroke-miterlimit="10" stroke-linejoin="miter" fill="none" stroke="#2d7600" d="M 215.86 209.46 L 230.65 149.78 L 291.46 149.78 L 276.66 209.46 L 215.86 209.46 Z "/>
<path transform="matrix(.71767237,0,0,.71767237,.35883618,.35883618)" stroke-width=".99" stroke-linecap="butt" stroke-miterlimit="10" stroke-linejoin="miter" fill="none" stroke="#000000" d="M 223.82 199.65 L 283.5 185.58 "/>
<path transform="matrix(.71767237,0,0,.71767237,.35883618,.35883618)" stroke-width=".99" stroke-linecap="butt" stroke-miterlimit="10" stroke-linejoin="miter" fill="none" stroke="#000000" d="M 223.82 177.63 L 283.5 163.7 "/>
<path transform="matrix(.71767237,0,0,.71767237,.35883618,.35883618)" stroke-width=".99" stroke-linecap="butt" stroke-miterlimit="10" stroke-linejoin="miter" fill="none" stroke="#000000" d="M 243.71 152.76 L 243.71 212.44 "/>
<path transform="matrix(.71767237,0,0,.71767237,.35883618,.35883618)" stroke-width=".99" stroke-linecap="butt" stroke-miterlimit="10" stroke-linejoin="miter" fill="none" stroke="#000000" d="M 263.6 147.79 L 263.6 207.47 "/>
<use xlink:href="#font_1_14" transform="matrix(9.993768,0,0,-9.993768,166.05228,124.20825)"/>
<use xlink:href="#font_1_14" transform="matrix(9.993768,0,0,-9.993768,166.05228,152.76187)"/>
<use xlink:href="#font_1_14" transform="matrix(9.993768,0,0,-9.993768,196.03359,117.06985)"/>
<use xlink:href="#font_1_14" transform="matrix(9.993768,0,0,-9.993768,196.03359,145.62348)"/>
<use xlink:href="#font_1_17" transform="matrix(9.993768,0,0,-9.993768,180.79546,119.92521)"/>
<use xlink:href="#font_1_17" transform="matrix(9.993768,0,0,-9.993768,180.79546,148.47884)"/>
<use xlink:href="#font_1_13" transform="matrix(9.993768,0,0,-9.993768,166.80655,138.60706)"/>
<g id="Layer-1" data-name="Span">
</g>
<use xlink:href="#font_1_3" transform="matrix(9.993768,0,0,-9.993768,21461450000,-21461450000)"/>
<use xlink:href="#font_1_13" transform="matrix(9.993768,0,0,-9.993768,193.9325,131.46866)"/>
<use xlink:href="#font_1_15" transform="matrix(9.993768,0,0,-9.993768,180.96462,134.20203)"/>
<path transform="matrix(.71767237,0,0,.71767237,.35883618,.35883618)" stroke-width=".99" stroke-linecap="butt" stroke-miterlimit="10" stroke-linejoin="miter" fill="none" stroke="#009900" stroke-opacity=".4" d="M 223.82 217.41 L 300.71 219.65 "/>
<path transform="matrix(.71767237,0,0,.71767237,.35883618,.35883618)" stroke-width=".99" stroke-linecap="butt" stroke-miterlimit="10" stroke-linejoin="miter" fill="none" stroke="#009900" stroke-opacity=".4" d="M 223.52 156.79 L 300.39 200.92 "/>
<path transform="matrix(.71767237,0,0,.71767237,.35883618,.35883618)" stroke-width=".99" stroke-linecap="butt" stroke-miterlimit="10" stroke-linejoin="miter" fill="none" stroke="#009900" stroke-opacity=".4" d="M 283.5 141.82 L 321.08 195.82 "/>
<path transform="matrix(-.00000000000000004394476,-.71767237,-.71767237,.00000000000000004394476,460.7887,460.7887)" d="M 281.49 341.17 L 319.17 182.02 L 478.43 182.02 L 440.75 341.17 L 281.49 341.17 Z " fill="#dae8fc"/>
<path transform="matrix(-.00000000000000004394476,-.71767237,-.71767237,.00000000000000004394476,460.7887,460.7887)" stroke-width=".99" stroke-linecap="butt" stroke-miterlimit="10" stroke-linejoin="miter" fill="none" stroke="#000000" d="M 281.49 341.17 L 319.17 182.02 L 478.43 182.02 L 440.75 341.17 L 281.49 341.17 Z "/>
<path transform="matrix(.71767237,0,0,.71767237,.35883618,.35883618)" stroke-width=".99" stroke-linecap="butt" stroke-miterlimit="10" stroke-linejoin="miter" fill="none" stroke="#000000" d="M 321.28 195.94 L 321.28 355.08 "/>
<path transform="matrix(.71767237,0,0,.71767237,.35883618,.35883618)" stroke-width=".99" stroke-linecap="butt" stroke-miterlimit="10" stroke-linejoin="miter" fill="none" stroke="#000000" d="M 341.17 190.96 L 341.17 350.11 "/>
<path transform="matrix(.71767237,0,0,.71767237,.35883618,.35883618)" stroke-width=".99" stroke-linecap="butt" stroke-miterlimit="10" stroke-linejoin="miter" fill="none" stroke="#000000" d="M 361.06 185.99 L 361.06 346.13 "/>
<path transform="matrix(.71767237,0,0,.71767237,.35883618,.35883618)" stroke-width=".99" stroke-linecap="butt" stroke-miterlimit="10" stroke-linejoin="miter" fill="none" stroke="#000000" d="M 379.62 182.01 L 379.62 341.16 "/>
<path transform="matrix(.71767237,0,0,.71767237,.35883618,.35883618)" stroke-width=".99" stroke-linecap="butt" stroke-miterlimit="10" stroke-linejoin="miter" fill="none" stroke="#000000" d="M 400.85 177.04 L 400.85 336.19 "/>
<path transform="matrix(.71767237,0,0,.71767237,.35883618,.35883618)" stroke-width=".99" stroke-linecap="butt" stroke-miterlimit="10" stroke-linejoin="miter" fill="none" stroke="#000000" d="M 420.74 172.07 L 420.74 331.21 "/>
<path transform="matrix(.71767237,0,0,.71767237,.35883618,.35883618)" stroke-width=".99" stroke-linecap="butt" stroke-miterlimit="10" stroke-linejoin="miter" fill="none" stroke="#000000" d="M 440.63 168.09 L 440.63 327.23 "/>
<path transform="matrix(.71767237,0,0,.71767237,.35883618,.35883618)" stroke-width=".99" stroke-linecap="butt" stroke-miterlimit="10" stroke-linejoin="miter" fill="none" stroke="#000000" d="M 300.39 219.81 L 459.53 182.01 "/>
<path transform="matrix(.71767237,0,0,.71767237,.35883618,.35883618)" stroke-width=".99" stroke-linecap="butt" stroke-miterlimit="10" stroke-linejoin="miter" fill="none" stroke="#000000" d="M 300.39 239.7 L 459.53 201.91 "/>
<path transform="matrix(.71767237,0,0,.71767237,.35883618,.35883618)" stroke-width=".99" stroke-linecap="butt" stroke-miterlimit="10" stroke-linejoin="miter" fill="none" stroke="#000000" d="M 300.39 259.6 L 459.53 221.8 "/>
<path transform="matrix(.71767237,0,0,.71767237,.35883618,.35883618)" stroke-width=".99" stroke-linecap="butt" stroke-miterlimit="10" stroke-linejoin="miter" fill="none" stroke="#000000" d="M 300.39 280.48 L 459.53 242.69 "/>
<path transform="matrix(.71767237,0,0,.71767237,.35883618,.35883618)" stroke-width=".99" stroke-linecap="butt" stroke-miterlimit="10" stroke-linejoin="miter" fill="none" stroke="#000000" d="M 300.39 299.38 L 459.53 261.59 "/>
<path transform="matrix(.71767237,0,0,.71767237,.35883618,.35883618)" stroke-width=".99" stroke-linecap="butt" stroke-miterlimit="10" stroke-linejoin="miter" fill="none" stroke="#000000" d="M 300.39 339.17 L 459.53 301.37 "/>
<path transform="matrix(.71767237,0,0,.71767237,.35883618,.35883618)" stroke-width=".99" stroke-linecap="butt" stroke-miterlimit="10" stroke-linejoin="miter" fill="none" stroke="#000000" d="M 300.39 319.28 L 459.53 281.48 "/>
<path transform="matrix(-.00000000000000004394476,-.71767237,-.71767237,.00000000000000004394476,372.62266,372.62266)" d="M 298.9 218.33 L 304.07 197.44 L 322.77 197.44 L 317.6 218.33 L 298.9 218.33 Z " fill="#00cc00" fill-opacity=".502"/>
<path transform="matrix(-.00000000000000004394476,-.71767237,-.71767237,.00000000000000004394476,372.62266,372.62266)" stroke-width=".99" stroke-linecap="butt" stroke-miterlimit="10" stroke-linejoin="miter" fill="none" stroke="#00cc00" stroke-opacity=".502" d="M 298.9 218.33 L 304.07 197.44 L 322.77 197.44 L 317.6 218.33 L 298.9 218.33 Z "/>
<use xlink:href="#font_1_14" transform="matrix(9.993768,0,0,-9.993768,218.87648,154.18956)"/>
<use xlink:href="#font_1_14" transform="matrix(9.993768,0,0,-9.993768,223.15953,152.76187)"/>
<path transform="matrix(-.00000000000000004394476,-.71767237,-.71767237,.00000000000000004394476,86.371868,86.371868)" d="M 15.91 96.48 L 30.71 36.8 L 91.51 36.8 L 76.72 96.48 L 15.91 96.48 Z " fill="#ff0000" fill-opacity=".2"/>
<path transform="matrix(-.00000000000000004394476,-.71767237,-.71767237,.00000000000000004394476,86.371868,86.371868)" stroke-width="1.99" stroke-linecap="butt" stroke-miterlimit="10" stroke-linejoin="miter" fill="none" stroke="#ff0000" stroke-opacity=".2" d="M 15.91 96.48 L 30.71 36.8 L 91.51 36.8 L 76.72 96.48 L 15.91 96.48 Z "/>
<path transform="matrix(.71767237,0,0,.71767237,.35883618,.35883618)" stroke-width=".99" stroke-linecap="butt" stroke-miterlimit="10" stroke-linejoin="miter" fill="none" stroke="#009900" stroke-opacity=".4" d="M 3.41 49.49 L 24.29 44.19 "/>
<path transform="matrix(-.00000000000000004394476,-.71767237,-.71767237,.00000000000000004394476,383.71788,383.71788)" d="M 319.29 212.9 L 324.46 193 L 343.16 193 L 337.99 212.9 L 319.29 212.9 Z " fill="#f75757" fill-opacity=".502"/>
<path transform="matrix(-.00000000000000004394476,-.71767237,-.71767237,.00000000000000004394476,383.71788,383.71788)" stroke-width=".99" stroke-linecap="butt" stroke-miterlimit="10" stroke-linejoin="miter" fill="none" stroke="#ae4132" stroke-opacity=".502" d="M 319.29 212.9 L 324.46 193 L 343.16 193 L 337.99 212.9 L 319.29 212.9 Z "/>
</g>
</g>
</svg>
