<?xml version="1.0" encoding="UTF-8" standalone="no"?>
<!DOCTYPE svg PUBLIC "-//W3C//DTD SVG 1.1//EN" "http://www.w3.org/Graphics/SVG/1.1/DTD/svg11.dtd">
<svg xmlns="http://www.w3.org/2000/svg" xmlns:xlink="http://www.w3.org/1999/xlink" version="1.1" width="615.12pt" height="300pt" viewBox="0 0 615.12 300">
<g enable-background="new">
<clipPath id="cp0">
<path transform="matrix(.24,0,0,.24,0,0)" d="M 0 0 L 2562.4998 0 L 2562.4998 1242.3335 L 0 1242.3335 Z " fill-rule="evenodd"/>
</clipPath>
<g clip-path="url(#cp0)">
<path transform="matrix(.7184579,0,0,.7184579,.35922895,.35922895)" d="M 851 174 C 850.99996 176.78217 850.92367 179.56267 850.77108 182.34149 C 850.6185 185.12032 850.38986 187.89412 850.0851 190.6629 C 849.7803 193.43167 849.3997 196.1921 848.9435 198.94417 C 848.4872 201.69623 847.95578 204.43662 847.3491 207.16533 C 846.7425 209.89405 846.06149 212.6078 845.3059 215.30661 C 844.55038 218.0054 843.7213 220.68599 842.81869 223.34838 C 841.916 226.01074 840.94088 228.6517 839.89328 231.27124 C 838.8457 233.89078 837.7269 236.48575 836.537 239.05615 C 835.34707 241.62654 834.08737 244.16927 832.7579 246.68433 C 831.42837 249.19939 830.0307 251.68376 828.56497 254.13745 C 827.0991 256.5911 825.5669 259.0111 823.96829 261.39747 C 822.3697 263.7838 820.7066 266.13365 818.97909 268.44697 C 817.2515 270.76023 815.4616 273.0342 813.60928 275.26887 C 811.757 277.5035 809.84457 279.6962 807.8719 281.84687 C 805.89926 283.99754 803.8688 286.10359 801.7806 288.16505 C 799.6924 290.22648 797.54898 292.24085 795.3502 294.20817 C 793.1514 296.17549 790.9001 298.09333 788.5961 299.96174 C 786.2921 301.8301 783.9383 303.64683 781.53469 305.4118 C 779.131 307.1768 776.68038 308.88795 774.1828 310.54527 C 771.6852 312.20259 769.1437 313.8041 766.5582 315.3498 C 763.9728 316.8955 761.3465 318.3835 758.67947 319.81385 C 756.0123 321.24418 753.3076 322.6151 750.5653 323.9266 C 747.82296 325.2381 745.0463 326.48863 742.2354 327.67817 C 739.42446 328.8677 736.5825 329.9948 733.7098 331.0595 C 730.837 332.1242 727.9367 333.12519 725.00906 334.06248 C 722.0813 334.99977 719.12966 335.8722 716.15408 336.67985 C 713.1784 337.48747 710.18246 338.22929 707.1662 338.90528 C 704.14987 339.5813 701.1168 340.1907 698.0671 340.73347 C 695.01736 341.27626 691.9546 341.75175 688.8787 342.15998 C 685.8029 342.5682 682.7178 342.9087 679.6233 343.1814 C 676.52877 343.45408 673.4286 343.6587 670.3229 343.79524 C 667.2171 343.93174 664.10946 344 661 344 C 657.8905 344 654.7829 343.93174 651.6771 343.79524 C 648.5714 343.65867 645.4713 343.45405 642.3768 343.18138 C 639.2823 342.9087 636.1971 342.5682 633.1212 342.15998 C 630.04537 341.75175 626.98257 341.27626 623.9328 340.73347 C 620.88308 340.1907 617.85006 339.5813 614.83377 338.90528 C 611.81747 338.22929 608.8215 337.48747 605.8459 336.67985 C 602.87026 335.8722 599.9186 334.99974 596.9909 334.06245 C 594.0631 333.12519 591.16287 332.1242 588.29006 331.0595 C 585.41726 329.9948 582.5754 328.8677 579.76449 327.67817 C 576.9535 326.48863 574.1769 325.2381 571.4346 323.9266 C 568.6922 322.6151 565.9875 321.2442 563.3203 319.81388 C 560.65328 318.38356 558.027 316.8955 555.4415 315.34983 C 552.8561 313.80415 550.3146 312.2026 547.817 310.5453 C 545.31948 308.88795 542.86886 307.1768 540.4652 305.4118 C 538.0615 303.64683 535.7077 301.8301 533.40377 299.96174 C 531.0998 298.09333 528.84848 296.17549 526.64968 294.20817 C 524.4509 292.24085 522.30746 290.22648 520.21926 288.165 C 518.13107 286.10359 516.1006 283.99754 514.128 281.84687 C 512.15536 279.6962 510.24287 277.5035 508.39054 275.26887 C 506.53819 273.0342 504.74824 270.76023 503.0207 268.44697 C 501.29316 266.13368 499.6301 263.78385 498.0315 261.39747 C 496.4329 259.01115 494.9007 256.59114 493.4349 254.13747 C 491.9691 251.68379 490.57145 249.19942 489.24195 246.68436 C 487.91246 244.1693 486.65275 241.62656 485.4628 239.05617 C 484.27287 236.48578 483.1541 233.89081 482.10655 231.27126 C 481.059 228.65172 480.0839 226.01076 479.18128 223.34839 C 478.27864 220.686 477.44953 218.00542 476.69398 215.30661 C 475.93843 212.6078 475.25733 209.89406 474.65074 207.16535 C 474.0441 204.43662 473.51268 201.69623 473.0564 198.94417 C 472.60017 196.19211 472.21968 193.43169 471.9149 190.66292 C 471.6101 187.89412 471.3814 185.12032 471.22883 182.34149 C 471.07627 179.56267 470.99998 176.78217 471 174 C 470.99998 171.21782 471.07627 168.43732 471.22883 165.65848 C 471.3814 162.87966 471.6101 160.10587 471.9149 157.33708 C 472.21968 154.5683 472.60017 151.80788 473.0564 149.05582 C 473.51268 146.30376 474.0441 143.56336 474.65074 140.83464 C 475.25733 138.10593 475.93843 135.39217 476.69398 132.69336 C 477.44953 129.99456 478.27864 127.31397 479.18128 124.651599 C 480.0839 121.98921 481.059 119.34825 482.10655 116.728717 C 483.1541 114.10917 484.27287 111.5142 485.4628 108.9438 C 486.65275 106.373409 487.91249 103.83068 489.24198 101.31563 C 490.57148 98.80056 491.96913 96.3162 493.43495 93.86254 C 494.90074 91.40888 496.43293 88.98888 498.0315 86.602519 C 499.6301 84.21617 501.29316 81.86634 503.0207 79.55304 C 504.74824 77.239749 506.53816 74.96577 508.39048 72.7311 C 510.24284 70.496448 512.15536 68.30379 514.128 66.15314 C 516.1006 64.00249 518.13107 61.896429 520.21926 59.83497 C 522.30746 57.773519 524.4509 55.759145 526.64968 53.791849 C 528.84848 51.824548 531.0998 49.9067 533.40377 48.038309 C 535.7077 46.16991 538.0615 44.353219 540.4652 42.588224 C 542.86886 40.823228 545.31948 39.11206 547.817 37.454717 C 550.3146 35.79738 552.8561 34.19586 555.4415 32.650167 C 558.027 31.10447 560.65328 29.616459 563.3203 28.186137 C 565.9875 26.75581 568.6922 25.384894 571.4346 24.073386 C 574.1769 22.761876 576.9535 21.511355 579.76449 20.32182 C 582.5754 19.132285 585.41726 18.005169 588.29006 16.940478 C 591.16287 15.875785 594.0631 14.874794 596.9909 13.937507 C 599.9186 13.00022 602.87026 12.127766 605.8459 11.320142 C 608.8215 10.512519 611.81747 9.7707 614.83377 9.0946869 C 617.85006 8.418673 620.88308 7.8092777 623.9328 7.266502 C 626.98257 6.7237265 630.04537 6.2482235 633.1212 5.8399937 C 636.1971 5.431763 639.2823 5.0912978 642.3768 4.818597 C 645.4713 4.5458958 648.5714 4.3412878 651.6771 4.2047727 C 654.7829 4.0682575 657.8905 4 661 4 C 664.10946 4 667.2171 4.0682575 670.3229 4.2047727 C 673.4286 4.3412878 676.52877 4.5458958 679.6233 4.818597 C 682.7178 5.0912978 685.8029 5.431763 688.8787 5.8399937 C 691.9546 6.2482235 695.01736 6.7237265 698.0671 7.266502 C 701.1168 7.8092777 704.14987 8.418673 707.16616 9.0946869 C 710.18246 9.7707 713.1784 10.512519 716.15408 11.320142 C 719.12966 12.127766 722.0813 13.00022 725.009 13.937507 C 727.9367 14.874794 730.837 15.875785 733.7098 16.940478 C 736.5825 18.005169 739.4244 19.132285 742.23538 20.32182 C 745.0463 21.511355 747.82296 22.761876 750.5653 24.073386 C 753.30758 25.384894 756.01229 26.75581 758.6794 28.186135 C 761.34646 29.616459 763.9727 31.10447 766.55819 32.650167 C 769.1437 34.19586 771.6852 35.79738 774.18276 37.45472 C 776.68038 39.112066 779.131 40.82323 781.53469 42.588228 C 783.9383 44.35322 786.2921 46.169916 788.5961 48.038309 C 790.9001 49.9067 793.1514 51.824548 795.3502 53.791849 C 797.54898 55.759145 799.6924 57.773519 801.7806 59.834974 C 803.86886 61.89643 805.8993 64.00249 807.87197 66.15314 C 809.8446 68.30379 811.7571 70.496448 813.60946 72.7311 C 815.46176 74.96577 817.25167 77.239749 818.9792 79.55305 C 820.7067 81.86635 822.36978 84.21617 823.9683 86.60252 C 825.56698 88.98888 827.0992 91.40888 828.565 93.86254 C 830.03079 96.3162 831.42837 98.80056 832.7579 101.31563 C 834.08737 103.83068 835.34707 106.373409 836.537 108.9438 C 837.7269 111.5142 838.84567 114.10917 839.8932 116.728717 C 840.9408 119.34826 841.91598 121.98923 842.8186 124.65161 C 843.72128 127.31397 844.55038 129.99456 845.30587 132.69336 C 846.0614 135.39217 846.7425 138.10593 847.3491 140.83464 C 847.95578 143.56336 848.4872 146.30376 848.9434 149.05582 C 849.3997 151.80788 849.7803 154.5683 850.0851 157.33708 C 850.38986 160.10587 850.6185 162.87966 850.7711 165.65848 C 850.92367 168.43732 850.99996 171.21782 851 174 Z " fill="#ffffff"/>
<path transform="matrix(.7184579,0,0,.7184579,.35922895,.35922895)" d="M 848.63998 216.38016 C 846.7058 223.26645 844.3091 230.02117 841.4497 236.6443 L 835.0231 233.86974 C 837.7584 227.53376 840.05099 221.07294 841.9007 214.4873 L 848.63998 216.38016 Z M 831.6858 255.7377 C 828.04757 261.84675 824.0156 267.73936 819.5901 273.41554 L 814.0697 269.11146 C 818.31576 263.66563 822.18307 258.01377 825.67166 252.15592 L 831.6858 255.7377 Z M 805.41879 289.48097 C 800.40817 294.5188 795.08767 299.2783 789.45736 303.75947 L 785.0982 298.2824 C 790.517 293.9697 795.63619 289.39048 800.4556 284.54469 L 805.41879 289.48097 Z M 771.98867 316.12718 C 765.9745 319.90266 759.7403 323.36033 753.28616 326.50013 L 750.224 320.20545 C 756.4516 317.1759 762.4659 313.84028 768.26687 310.19859 L 771.98867 316.12718 Z M 733.6092 334.82444 C 726.9315 337.24784 720.1239 339.33049 713.18637 341.0724 L 711.4816 334.28315 C 718.188 332.59928 724.7678 330.58634 731.22128 328.24436 L 733.6092 334.82444 Z M 692.2121 345.2285 C 685.1629 346.26139 678.0711 346.94227 670.93667 347.27113 L 670.6144 340.27857 C 677.5168 339.96043 684.3778 339.3017 691.1973 338.30247 L 692.2121 345.2285 Z M 649.7323 347.2057 C 642.5978 346.83265 635.508 346.10746 628.463 345.03016 L 629.5211 338.1106 C 636.3361 339.15275 643.195 339.85429 650.0978 340.2152 L 649.7323 347.2057 Z M 607.51986 340.7432 C 600.5969 338.95835 593.8066 336.83369 587.1488 334.36918 L 589.57888 327.80448 C 596.01278 330.18614 602.5756 332.23957 609.2674 333.9648 L 607.51986 340.7432 Z M 567.52188 325.91539 C 561.0875 322.7327 554.87588 319.23289 548.88687 315.4159 L 552.64907 309.51283 C 558.4254 313.19425 564.41757 316.5703 570.62539 319.64097 L 567.52188 325.91539 Z M 531.50399 302.92677 C 525.90597 298.40629 520.6202 293.60887 515.6467 288.53446 L 520.646 283.63475 C 525.42947 288.51539 530.51467 293.13069 535.9017 297.48066 L 531.50399 302.92677 Z M 501.59819 272.3662 C 497.2173 266.65809 493.23219 260.73619 489.64286 254.60053 L 495.68498 251.06598 C 499.12644 256.94905 502.94853 262.62849 507.1512 268.1043 L 501.59819 272.3662 Z M 480.02046 235.40283 C 477.21769 228.75994 474.8785 221.98825 473.003 215.08782 L 479.75794 213.25188 C 481.55143 219.85048 483.78874 226.32707 486.46986 232.68164 L 480.02046 235.40283 Z M 468.7953 194.04396 C 467.9318 187.38495 467.50004 180.70363 467.5 174 L 467.50544 172.70092 L 474.50538 172.73036 L 474.5 174 C 474.5 180.4022 474.91239 186.78345 475.73719 193.14373 L 468.7953 194.04396 Z M 469.15965 151.32238 C 470.20094 144.23947 471.72404 137.24114 473.72898 130.32736 L 480.452 132.27704 C 478.53565 138.88509 477.08003 145.5729 476.08518 152.34047 L 469.15965 151.32238 Z M 481.0916 110.11607 C 483.96589 103.60741 487.26719 97.278179 490.99549 91.12838 L 496.98139 94.75733 C 493.4095 100.64909 490.24739 106.71125 487.49507 112.94382 L 481.0916 110.11607 Z M 503.23066 73.54003 C 507.64427 67.96702 512.40859 62.646516 517.5235 57.57852 L 522.4504 62.55107 C 517.53469 67.42156 512.9573 72.53318 508.7182 77.88592 L 503.23066 73.54003 Z M 533.5879 43.41475 C 539.1762 39.031248 545.0271 34.94942 551.14059 31.169281 L 554.82199 37.123064 C 548.92977 40.766378 543.2918 44.69952 537.9082 48.922494 L 533.5879 43.41475 Z M 569.90908 20.92331 C 576.3127 17.860116 582.8878 15.128603 589.6344 12.728773 L 591.98037 19.32395 C 585.46359 21.642037 579.11337 24.280062 572.9297 27.23803 L 569.90908 20.92331 Z M 610.1143 6.6054766 C 617.03018 4.915616 624.02908 3.5744107 631.1111 2.5818594 L 632.08267 9.514109 C 625.2327 10.474127 618.46377 11.771231 611.7758 13.40542 L 610.1143 6.6054766 Z M 652.3913 .67175558 C 655.25949 .5572519 658.129 .5 661 .5 C 665.205 .5 669.4056 .6227449 673.60159 .8682349 L 673.19277 7.856286 C 669.1329 7.6187617 665.0686 7.4999997 661 7.5 C 658.2221 7.4999997 655.44558 7.555394 652.6705 7.6661837 L 652.3913 .67175558 Z M 694.863 3.1768797 C 701.918 4.3010118 708.88198 5.7719538 715.7547 7.5897057 L 713.9649 14.357013 C 707.31906 12.599304 700.5846 11.176858 693.76156 10.089674 L 694.863 3.1768797 Z M 736.0913 14.09444 C 742.7964 16.625477 749.32156 19.48646 755.6667 22.677388 L 752.52169 28.931122 C 746.3953 25.850274 740.09457 23.087695 733.61929 20.643387 L 736.0913 14.09444 Z M 774.2325 33.302888 C 780.2687 37.208105 786.0339 41.411405 791.5282 45.91279 L 787.09207 51.327615 C 781.8001 46.992177 776.24618 42.943006 770.4301 39.180109 L 774.2325 33.302888 Z M 807.27987 60.41788 C 812.2794 65.594638 816.9209 71.01788 821.2043 76.68763 L 815.61898 80.90717 C 811.50588 75.462848 807.0478 70.25402 802.2447 65.280719 L 807.27987 60.41788 Z M 833.0237 94.54938 C 836.6179 100.80677 839.776 107.23701 842.49789 113.84007 L 836.0262 116.50777 C 833.4206 110.18678 830.3964 104.0295 826.95376 98.035938 L 833.0237 94.54938 Z M 849.3422 134.20406 C 851.1678 141.15119 852.5102 148.173 853.36947 155.2695 L 846.4202 156.11093 C 845.59939 149.33109 844.31668 142.6218 842.5721 135.98308 L 849.3422 134.20406 Z M 854.5 174 C 854.5 181.14722 854.00949 188.2671 853.02847 195.35968 L 846.0945 194.4006 C 847.0315 187.62638 847.5 180.82617 847.5 174 L 854.5 174 Z "/>
<path transform="matrix(.7184579,0,0,.7184579,.35922895,.35922895)" d="M 471 174 C 470.99998 176.78217 470.92369 179.56267 470.7711 182.34149 C 470.61854 185.12032 470.38987 187.89412 470.08509 190.6629 C 469.7803 193.43167 469.39979 196.1921 468.94349 198.94417 C 468.48725 201.69623 467.9558 204.43662 467.34919 207.16533 C 466.74256 209.89405 466.06147 212.6078 465.30589 215.30661 C 464.55033 218.0054 463.72123 220.68599 462.8186 223.34838 C 461.916 226.01074 460.9409 228.6517 459.8933 231.27124 C 458.84577 233.89078 457.72703 236.48575 456.53706 239.05615 C 455.34709 241.62654 454.08738 244.16927 452.75794 246.68433 C 451.42845 249.19939 450.03083 251.68376 448.56504 254.13745 C 447.0992 256.5911 445.56703 259.0111 443.9684 261.39747 C 442.3698 263.7838 440.70674 266.13365 438.97923 268.44697 C 437.25169 270.76023 435.46174 273.0342 433.6094 275.26887 C 431.75709 277.5035 429.8446 279.6962 427.87199 281.84687 C 425.89933 283.99754 423.8689 286.10359 421.7807 288.16505 C 419.69248 290.22648 417.549 292.24085 415.35029 294.20817 C 413.15156 296.17549 410.90019 298.09333 408.59617 299.96174 C 406.2922 301.8301 403.9384 303.64683 401.53474 305.4118 C 399.13108 307.1768 396.68046 308.88795 394.18287 310.54527 C 391.68528 312.20259 389.14378 313.8041 386.55833 315.3498 C 383.97285 316.8955 381.34657 318.3835 378.67948 319.81385 C 376.0124 321.24418 373.30769 322.6151 370.56538 323.9266 C 367.82304 325.2381 365.04637 326.48863 362.23539 327.67817 C 359.42445 328.8677 356.58259 329.9948 353.7098 331.0595 C 350.837 332.1242 347.93675 333.12519 345.009 334.06248 C 342.0813 334.99977 339.12968 335.8722 336.15409 336.67985 C 333.17848 337.48747 330.18254 338.22929 327.1662 338.90528 C 324.1499 339.5813 321.11689 340.1907 318.06715 340.73347 C 315.0174 341.27626 311.9546 341.75175 308.87876 342.15998 C 305.80293 342.5682 302.71778 342.9087 299.62327 343.1814 C 296.52876 343.45408 293.4286 343.6587 290.32286 343.79524 C 287.2171 343.93174 284.10948 344 281 344 C 277.89048 344 274.78288 343.93174 271.67713 343.79524 C 268.57139 343.65867 265.47126 343.45405 262.37675 343.18138 C 259.2822 342.9087 256.19703 342.5682 253.12117 342.15998 C 250.04534 341.75175 246.98255 341.27626 243.93282 340.73347 C 240.88307 340.1907 237.85005 339.5813 234.83374 338.90528 C 231.81743 338.22929 228.82149 337.48747 225.84589 336.67985 C 222.87029 335.8722 219.91863 334.99974 216.99089 334.06245 C 214.06317 333.12519 211.16292 332.1242 208.29012 331.0595 C 205.41733 329.9948 202.57546 328.8677 199.76451 327.67817 C 196.95357 326.48863 194.17694 325.2381 191.43462 323.9266 C 188.69229 322.6151 185.98757 321.2442 183.32047 319.81388 C 180.65337 318.38356 178.02709 316.8955 175.44165 315.34983 C 172.8562 313.80415 170.3147 312.2026 167.81713 310.5453 C 165.31957 308.88795 162.86894 307.1768 160.46527 305.4118 C 158.0616 303.64683 155.70777 301.8301 153.4038 299.96174 C 151.09981 298.09333 148.84845 296.17549 146.6497 294.20817 C 144.45096 292.24085 142.30748 290.22648 140.21927 288.165 C 138.13108 286.10359 136.10065 283.99754 134.128 281.84687 C 132.15537 279.6962 130.24288 277.5035 128.39055 275.26887 C 126.53823 273.0342 124.7483 270.76023 123.02077 268.44697 C 121.29322 266.13368 119.63015 263.78385 118.03155 261.39747 C 116.43295 259.01115 114.90076 256.59114 113.43495 254.13747 C 111.96915 251.68379 110.5715 249.19942 109.24201 246.68436 C 107.91254 244.1693 106.652828 241.62656 105.462879 239.05617 C 104.27293 236.48578 103.15417 233.89081 102.10661 231.27126 C 101.05906 228.65172 100.08396 226.01076 99.18133 223.34839 C 98.27869 220.686 97.44959 218.00542 96.69405 215.30661 C 95.9385 212.6078 95.25741 209.89406 94.65078 207.16535 C 94.04415 204.43662 93.51271 201.69623 93.05646 198.94417 C 92.6002 196.19211 92.21968 193.43169 91.9149 190.66292 C 91.610118 187.89412 91.38144 185.12032 91.22886 182.34149 C 91.07628 179.56267 90.99999 176.78217 91 174 C 90.99999 171.21782 91.07628 168.43732 91.22886 165.65848 C 91.38144 162.87966 91.610118 160.10587 91.9149 157.33708 C 92.21968 154.5683 92.6002 151.80788 93.05646 149.05582 C 93.51271 146.30376 94.04415 143.56336 94.65078 140.83464 C 95.25741 138.10593 95.9385 135.39217 96.69405 132.69336 C 97.4496 129.99456 98.278697 127.31397 99.181339 124.651599 C 100.08397 121.98921 101.05906 119.34825 102.10661 116.728717 C 103.15417 114.10917 104.27293 111.5142 105.462879 108.9438 C 106.652828 106.373409 107.91254 103.83068 109.24201 101.31563 C 110.5715 98.80056 111.96915 96.3162 113.43495 93.86254 C 114.90076 91.40888 116.43295 88.98888 118.03155 86.602519 C 119.63015 84.21617 121.29322 81.86634 123.02077 79.55304 C 124.7483 77.239749 126.53823 74.96577 128.39055 72.7311 C 130.24288 70.496448 132.15537 68.30379 134.128 66.15314 C 136.10065 64.00249 138.13108 61.896429 140.21929 59.83497 C 142.3075 57.773519 144.45096 55.759145 146.6497 53.791849 C 148.84845 51.824548 151.09981 49.9067 153.4038 48.038309 C 155.70777 46.16991 158.0616 44.353219 160.46527 42.588224 C 162.86894 40.823228 165.31955 39.11206 167.81711 37.454717 C 170.31468 35.79738 172.85619 34.19586 175.44164 32.650167 C 178.02709 31.10447 180.65335 29.616459 183.32045 28.186137 C 185.98755 26.75581 188.69228 25.384894 191.4346 24.073386 C 194.17693 22.761876 196.95357 21.511355 199.7645 20.32182 C 202.57546 19.132285 205.41733 18.005169 208.29012 16.940478 C 211.16292 15.875785 214.06317 14.874794 216.99089 13.937507 C 219.91863 13.00022 222.87029 12.127766 225.84589 11.320142 C 228.82149 10.512519 231.81743 9.7707 234.83374 9.0946869 C 237.85005 8.418673 240.88307 7.8092777 243.93282 7.266502 C 246.98255 6.7237265 250.04534 6.2482235 253.12117 5.8399937 C 256.19703 5.431763 259.2822 5.0912978 262.3767 4.818597 C 265.47123 4.5458958 268.57136 4.3412878 271.6771 4.2047727 C 274.78285 4.0682575 277.89048 4 281 4 C 284.10948 4 287.2171 4.0682575 290.32286 4.2047727 C 293.4286 4.3412878 296.52876 4.5458958 299.62327 4.818597 C 302.71778 5.0912978 305.80293 5.431763 308.87876 5.8399937 C 311.9546 6.2482235 315.0174 6.7237265 318.06715 7.266502 C 321.11689 7.8092777 324.1499 8.418673 327.1662 9.0946869 C 330.18254 9.7707 333.17848 10.512519 336.15409 11.320142 C 339.12968 12.127766 342.08134 13.00022 345.00904 13.937507 C 347.93675 14.874794 350.837 15.875785 353.7098 16.940478 C 356.58259 18.005169 359.42445 19.132285 362.2354 20.32182 C 365.04637 21.511355 367.82304 22.761876 370.56538 24.073386 C 373.30769 25.384894 376.0124 26.75581 378.67948 28.186135 C 381.34657 29.616459 383.97285 31.10447 386.5583 32.650167 C 389.14375 34.19586 391.68525 35.79738 394.18284 37.45472 C 396.6804 39.112066 399.131 40.82323 401.5347 42.588228 C 403.93836 44.35322 406.29219 46.169916 408.59617 48.038309 C 410.90019 49.9067 413.15156 51.824548 415.35029 53.791849 C 417.549 55.759145 419.69248 57.773519 421.7807 59.834974 C 423.8689 61.89643 425.89933 64.00249 427.872 66.15314 C 429.84465 68.30379 431.7571 70.496448 433.60945 72.7311 C 435.46177 74.96577 437.25169 77.239749 438.97923 79.55305 C 440.70674 81.86635 442.3698 84.21617 443.9684 86.60252 C 445.56703 88.98888 447.0992 91.40888 448.565 93.86254 C 450.0308 96.3162 451.4284 98.80056 452.7579 101.31563 C 454.08738 103.83068 455.34709 106.373409 456.53706 108.9438 C 457.72703 111.5142 458.84577 114.10917 459.8933 116.728717 C 460.9409 119.34826 461.916 121.98923 462.8186 124.65161 C 463.72123 127.31397 464.55033 129.99456 465.30586 132.69336 C 466.06144 135.39217 466.74256 138.10593 467.34919 140.83464 C 467.9558 143.56336 468.48725 146.30376 468.9435 149.05582 C 469.39979 151.80788 469.78034 154.5683 470.0851 157.33708 C 470.3899 160.10587 470.61857 162.87966 470.77113 165.65848 C 470.92369 168.43732 470.99998 171.21782 471 174 Z " fill="#ffffff"/>
<path transform="matrix(.7184579,0,0,.7184579,.35922895,.35922895)" d="M 468.6399 216.38016 C 466.70555 223.267 464.3088 230.02172 461.4497 236.64429 L 455.02308 233.86975 C 457.7583 227.53408 460.05085 221.07326 461.9007 214.4873 L 468.6399 216.38016 Z M 451.68586 255.73775 C 448.04756 261.8467 444.01564 267.7393 439.59013 273.41554 L 434.06968 269.11146 C 438.31556 263.66563 442.1829 258.01374 445.6717 252.15587 L 451.68586 255.73775 Z M 425.41877 289.481 C 420.4081 294.519 415.08763 299.2785 409.45729 303.7595 L 405.0982 298.28239 C 410.51667 293.96998 415.63578 289.39076 420.45558 284.5447 L 425.41877 289.481 Z M 391.9887 316.12718 C 385.9743 319.90284 379.7401 323.36048 373.28614 326.50013 L 370.224 320.20545 C 376.4514 317.17604 382.46568 313.8404 388.2669 310.19859 L 391.9887 316.12718 Z M 353.60917 334.82444 C 346.93153 337.24775 340.1239 339.3304 333.1863 341.0724 L 331.4816 334.28315 C 338.188 332.5992 344.76789 330.5863 351.22123 328.24436 L 353.60917 334.82444 Z M 312.21214 345.2285 C 305.16288 346.26136 298.07106 346.94224 290.93666 347.27113 L 290.61433 340.27857 C 297.51676 339.96043 304.37776 339.3017 311.1973 338.30247 L 312.21214 345.2285 Z M 269.73228 347.2057 C 262.5978 346.83265 255.50807 346.10746 248.46308 345.03016 L 249.52118 338.1106 C 256.33625 339.1527 263.19514 339.85426 270.0978 340.2152 L 269.73228 347.2057 Z M 227.51985 340.74317 C 220.5976 338.95863 213.80724 336.83393 207.14878 334.3691 L 209.57883 327.80448 C 216.01309 330.18626 222.57595 332.2397 229.26738 333.96479 L 227.51985 340.74317 Z M 187.52182 325.9154 C 181.08739 322.73268 174.87572 319.23283 168.88681 315.4159 L 172.64899 309.51283 C 178.42504 313.1941 184.41716 316.57017 190.6254 319.641 L 187.52182 325.9154 Z M 151.50395 302.92674 C 145.90567 298.40617 140.61992 293.60874 135.6467 288.53446 L 140.64597 283.63475 C 145.42928 288.51527 150.5145 293.13056 155.90166 297.48063 L 151.50395 302.92674 Z M 121.59819 272.3662 C 117.217388 266.65837 113.23228 260.73646 109.64287 254.60051 L 115.685 251.066 C 119.12662 256.94935 122.94868 262.62876 127.15117 268.10426 L 121.59819 272.3662 Z M 100.02043 235.4028 C 97.21761 228.75992 94.878459 221.98824 93.00295 215.08776 L 99.7579 213.25182 C 101.55133 219.85037 103.78864 226.32697 106.46985 232.68158 L 100.02043 235.4028 Z M 88.795269 194.04389 C 87.931758 187.38513 87.5 180.70384 87.5 174 L 87.5006 173.56612 L 87.50547 172.69586 L 94.50536 172.73526 L 94.5006 173.57595 L 94.5 174 C 94.5 180.40248 94.912387 186.7837 95.737148 193.14368 L 88.795269 194.04389 Z M 89.15963 151.32233 C 90.20079 144.23957 91.72393 137.24121 93.72904 130.32727 L 100.452037 132.27701 C 98.53564 138.88506 97.080028 145.57286 96.0852 152.3404 L 89.15963 151.32233 Z M 101.09166 110.11602 C 103.9658 103.60752 107.26709 97.27829 110.995548 91.128337 L 116.981418 94.7573 C 113.40942 100.64919 110.24731 106.71135 107.49509 112.94376 L 101.09166 110.11602 Z M 123.23068 73.53998 C 127.64423 67.96701 132.40853 62.64651 137.52355 57.57848 L 142.4504 62.55102 C 137.53487 67.42139 132.95748 72.533008 128.71822 77.88588 L 123.23068 73.53998 Z M 153.58794 43.414709 C 159.17664 39.03094 165.02753 34.94912 171.14061 31.169243 L 174.82198 37.123025 C 168.9301 40.766126 163.29218 44.699274 157.90819 48.92246 L 153.58794 43.414709 Z M 189.90917 20.923279 C 196.31272 17.860102 202.88785 15.128587 209.63455 12.728732 L 211.9805 19.32392 C 205.4636 21.642029 199.11338 24.28005 192.92983 27.237988 L 189.90917 20.923279 Z M 230.11441 6.60544 C 237.03023 4.915597 244.02913 3.5743929 251.11115 2.5818265 L 252.08274 9.514073 C 245.23287 10.474098 238.46393 11.771203 231.77594 13.405388 L 230.11441 6.60544 Z M 272.39137 .6717541 C 275.2595 .5572514 278.12907 .5 281 .5 C 285.20509 .5 289.40568 .6227484 293.60179 .8682451 L 293.19297 7.8562958 C 289.133 7.618765 285.0687 7.4999997 281 7.5 C 278.22218 7.5000007 275.4457 7.5553948 272.6706 7.6661827 L 272.39137 .6717541 Z M 314.86314 3.1769002 C 321.91825 4.3010675 328.88218 5.7720186 335.75495 7.589753 L 333.9651 14.35706 C 327.31935 12.599369 320.58485 11.176914 313.76164 10.089694 L 314.86314 3.1769002 Z M 356.09153 14.094524 C 362.79676 16.625613 369.32188 19.486603 375.6669 22.677496 L 372.52195 28.93123 C 366.39604 25.850529 360.09519 23.087943 353.61943 20.64347 L 356.09153 14.094524 Z M 394.23274 33.303033 C 400.26866 37.20815 406.03388 41.411447 411.52836 45.912927 L 407.0922 51.32775 C 401.8003 46.9923 396.24635 42.943128 390.4303 39.180238 L 394.23274 33.303033 Z M 427.27998 60.418024 C 432.27973 65.59506 436.9212 71.01832 441.2044 76.6878 L 435.61915 80.90737 C 431.50633 75.463359 427.0482 70.25451 422.2448 65.28084 L 427.27998 60.418024 Z M 453.02375 94.54949 C 456.61808 100.80699 459.77613 107.23722 462.49797 113.84017 L 456.0262 116.50788 C 453.42054 110.18673 450.3964 104.02945 446.9538 98.03605 L 453.02375 94.54949 Z M 469.34236 134.20421 C 471.16789 141.15181 472.51023 148.17363 473.3694 155.26966 L 466.4201 156.11103 C 465.59928 149.33159 464.31663 142.6223 462.57215 135.98317 L 469.34236 134.20421 Z M 474.5 174 C 474.50004 181.14693 474.0095 188.26683 473.02839 195.3597 L 466.09443 194.40059 C 467.03147 187.62604 467.5 180.82585 467.5 174 L 474.5 174 Z "/>
<path transform="matrix(.7184579,0,0,.7184579,.35922895,.35922895)" d="M 271 4 L 661 4 L 661 344 L 271 344 Z " fill="#ffffff"/>
<path transform="matrix(.7184579,0,0,.7184579,.35922895,.35922895)" d="M 313 .5 L 334 .5 L 334 7.5 L 313 7.5 L 313 .5 Z M 355 .5 L 376 .5 L 376 7.5 L 355 7.5 L 355 .5 Z M 397 .5 L 418 .5 L 418 7.5 L 397 7.5 L 397 .5 Z M 439 .5 L 460 .5 L 460 7.5 L 439 7.5 L 439 .5 Z M 481 .5 L 502 .5 L 502 7.5 L 481 7.5 L 481 .5 Z M 523 .5 L 544 .5 L 544 7.5 L 523 7.5 L 523 .5 Z M 565 .5 L 586 .5 L 586 7.5 L 565 7.5 L 565 .5 Z M 607 .5 L 628 .5 L 628 7.5 L 607 7.5 L 607 .5 Z M 649 .5 L 664.5 .5 L 664.5 13 L 657.5 13 L 657.5 4 L 661 4 L 661 7.5 L 649 7.5 L 649 .5 Z M 664.5 34 L 664.5 55.000005 L 657.5 55.000005 L 657.5 34 L 664.5 34 Z M 664.5 76 L 664.5 97 L 657.5 97 L 657.5 76 L 664.5 76 Z M 664.5 118 L 664.5 139 L 657.5 139 L 657.5 118 L 664.5 118 Z M 664.5 160 L 664.5 181 L 657.5 181 L 657.5 160 L 664.5 160 Z M 664.5 202 L 664.5 223 L 657.5 223 L 657.5 202 L 664.5 202 Z M 664.5 244 L 664.5 265 L 657.5 265 L 657.5 244 L 664.5 244 Z M 664.5 286 L 664.5 307 L 657.5 307 L 657.5 286 L 664.5 286 Z M 664.5 328 L 664.5 347.5 L 656 347.5 L 656 340.5 L 661 340.5 L 661 344 L 657.5 344 L 657.5 328 L 664.5 328 Z M 635 347.5 L 614 347.5 L 614 340.5 L 635 340.5 L 635 347.5 Z M 593 347.5 L 572 347.5 L 572 340.5 L 593 340.5 L 593 347.5 Z M 551 347.5 L 530 347.5 L 530 340.5 L 551 340.5 L 551 347.5 Z M 509 347.5 L 488 347.5 L 488 340.5 L 509 340.5 L 509 347.5 Z M 467 347.5 L 446 347.5 L 446 340.5 L 467 340.5 L 467 347.5 Z M 425 347.5 L 404 347.5 L 404 340.5 L 425 340.5 L 425 347.5 Z M 383 347.5 L 362 347.5 L 362 340.5 L 383 340.5 L 383 347.5 Z M 341 347.5 L 320 347.5 L 320 340.5 L 341 340.5 L 341 347.5 Z M 299 347.5 L 278 347.5 L 278 340.5 L 299 340.5 L 299 347.5 Z M 267.5 330 L 267.5 309 L 274.5 309 L 274.5 330 L 267.5 330 Z M 267.5 288 L 267.5 267 L 274.5 267 L 274.5 288 L 267.5 288 Z M 267.5 246 L 267.5 225 L 274.5 225 L 274.5 246 L 267.5 246 Z M 267.5 204 L 267.5 183 L 274.5 183 L 274.5 204 L 267.5 204 Z M 267.5 162 L 267.5 141 L 274.5 141 L 274.5 162 L 267.5 162 Z M 267.5 120 L 267.5 99.000019 L 274.5 99.000019 L 274.5 120 L 267.5 120 Z M 267.5 78 L 267.5 57 L 274.5 57 L 274.5 78 L 267.5 78 Z M 267.5 36 L 267.5 15 L 274.5 15 L 274.5 36 L 267.5 36 Z M 271 .5 L 292 .5 L 292 7.5 L 271 7.5 L 271 .5 Z "/>
<path transform="matrix(.7184579,0,0,.7184579,.35922895,.35922895)" d="M 471 174 C 470.99998 174.66304 470.87309 175.30084 470.61933 175.9134 C 470.3656 176.52597 470.00434 177.06667 469.53553 177.53553 C 469.06666 178.00437 468.52595 178.36565 467.9134 178.61939 C 467.3008 178.87313 466.66304 178.99999 466 179 C 465.3369 178.99999 464.69908 178.87313 464.0865 178.61939 C 463.47395 178.36565 462.93327 178.00437 462.46443 177.53553 C 461.99559 177.06667 461.63429 176.52597 461.38053 175.9134 C 461.1268 175.30084 460.99998 174.66304 461 174 C 460.99998 173.33695 461.1268 172.69913 461.38053 172.08655 C 461.63429 171.47397 461.99559 170.93328 462.46443 170.46445 C 462.93327 169.9956 463.47395 169.63433 464.08653 169.38059 C 464.6991 169.12686 465.3369 169 466 169 C 466.66304 169 467.3008 169.12686 467.9134 169.38059 C 468.52595 169.63433 469.06666 169.9956 469.53553 170.46445 C 470.00434 170.93328 470.3656 171.47397 470.61936 172.08655 C 470.87309 172.69913 470.99998 173.33695 471 174 Z "/>
<path transform="matrix(.7184579,0,0,.7184579,.35922895,.35922895)" stroke-width="1" stroke-linecap="butt" stroke-miterlimit="4" stroke-linejoin="miter" fill="none" stroke="#000000" d="M 471 174 C 470.99998 174.66304 470.87309 175.30084 470.61933 175.9134 C 470.3656 176.52597 470.00434 177.06667 469.53553 177.53553 C 469.06666 178.00437 468.52595 178.36565 467.9134 178.61939 C 467.3008 178.87313 466.66304 178.99999 466 179 C 465.3369 178.99999 464.69908 178.87313 464.0865 178.61939 C 463.47395 178.36565 462.93327 178.00437 462.46443 177.53553 C 461.99559 177.06667 461.63429 176.52597 461.38053 175.9134 C 461.1268 175.30084 460.99998 174.66304 461 174 C 460.99998 173.33695 461.1268 172.69913 461.38053 172.08655 C 461.63429 171.47397 461.99559 170.93328 462.46443 170.46445 C 462.93327 169.9956 463.47395 169.63433 464.08653 169.38059 C 464.6991 169.12686 465.3369 169 466 169 C 466.66304 169 467.3008 169.12686 467.9134 169.38059 C 468.52595 169.63433 469.06666 169.9956 469.53553 170.46445 C 470.00434 170.93328 470.3656 171.47397 470.61936 172.08655 C 470.87309 172.69913 470.99998 173.33695 471 174 Z "/>
<symbol id="font_1_14">
<path d="M 0 .48828126 L 0 .5830078 C .043945314 .58496096 .07470703 .5878906 .092285159 .5917969 C .120279949 .59798178 .1430664 .61035159 .16064453 .62890627 C .1726888 .64160159 .18180339 .6585286 .18798828 .6796875 C .19156902 .6923828 .19335938 .70182296 .19335938 .7080078 L .30908204 .7080078 L .30908204 0 L .1665039 0 L .1665039 .48828126 L 0 .48828126 Z "/>
</symbol>
<symbol id="font_1_17">
<path d="M .49658204 .15234375 L .4165039 .15234375 L .4165039 0 L .28027345 0 L .28027345 .15234375 L 0 .15234375 L 0 .27392579 L .2602539 .7036133 L .4165039 .7036133 L .4165039 .26123048 L .49658204 .26123048 L .49658204 .15234375 M .28027345 .26123048 L .28027345 .56689456 L .103027347 .26123048 L .28027345 .26123048 Z "/>
</symbol>
<use xlink:href="#font_1_14" transform="matrix(14.369158,0,0,-14.369158,123.044338,151.59462)"/>
<use xlink:href="#font_1_17" transform="matrix(14.369158,0,0,-14.369158,130.41616,151.59462)"/>
<symbol id="font_1_b">
<path d="M .057128908 .7397461 C .082845058 .7996419 .12044271 .86409506 .16992188 .93310549 L .27490235 .93310549 L .24511719 .87841799 C .20410156 .80322268 .17561849 .7244466 .15966797 .64208987 C .1492513 .5880534 .14404297 .5291341 .14404297 .46533204 C .14404297 .36572267 .15852864 .27408854 .1875 .19042969 C .20442708 .14095052 .234375 .07747396 .27734376 0 L .1743164 0 L .13964844 .04736328 C .1171875 .07600912 .09326172 .118652347 .067871097 .17529297 C .022623698 .27652995 0 .3761393 0 .4741211 C 0 .5633138 .019042969 .65185549 .057128908 .7397461 Z "/>
</symbol>
<symbol id="font_1_46">
<path d="M .34814454 .35986329 C .34554038 .37972007 .3388672 .3976237 .328125 .41357423 C .3125 .4350586 .2882487 .44580079 .2553711 .44580079 C .2084961 .44580079 .1764323 .42252604 .15917969 .37597657 C .15006511 .35123698 .14550781 .31835938 .14550781 .27734376 C .14550781 .23828125 .15006511 .20686849 .15917969 .18310547 C .17578125 .13883464 .20703125 .11669922 .2529297 .11669922 C .28548179 .11669922 .30859376 .12548828 .32226563 .1430664 C .3359375 .16064453 .34423829 .18343099 .34716798 .21142578 L .4892578 .21142578 C .4860026 .16910808 .47070313 .12906902 .44335938 .091308597 C .3997396 .030436198 .3351237 0 .24951172 0 C .16389974 0 .10091146 .025390625 .060546876 .076171878 C .020182291 .12695313 0 .1928711 0 .27392579 C 0 .36539714 .022298178 .43652345 .06689453 .4873047 C .11149088 .53808596 .17301433 .56347659 .25146485 .56347659 C .31819663 .56347659 .37272135 .5485026 .41503907 .5185547 C .45768229 .48860679 .48291017 .43570964 .49072267 .35986329 L .34814454 .35986329 M .25390626 .5649414 L .25390626 .5649414 Z "/>
</symbol>
<use xlink:href="#font_1_b" transform="matrix(14.369158,0,0,-14.369158,340.7469,145.8708)"/>
<use xlink:href="#font_1_46" transform="matrix(14.369158,0,0,-14.369158,345.40553,143.23973)"/>
<symbol id="font_2_5b">
<path d="M 0 0 L .18164063 .26953126 L .0078125 .53125 L .17822266 .53125 L .26708985 .37695313 L .3540039 .53125 L .51953127 .53125 L .34472657 .27197267 L .5263672 0 L .35302735 0 L .26123048 .15966797 L .16894531 0 L 0 0 Z "/>
</symbol>
<use xlink:href="#font_2_5b" transform="matrix(11.969508,0,0,-11.969508,353.04948,146.56542)"/>
<symbol id="font_1_f">
<path d="M 0 .053710939 C .027994791 .061523439 .048502607 .07454427 .061523439 .09277344 C .07486979 .1110026 .08251953 .13655599 .084472659 .1694336 L 0 .1694336 L 0 .3149414 L .15039063 .3149414 L .15039063 .18896485 C .15039063 .16682942 .14746094 .14371746 .14160156 .119628909 C .13574219 .09554037 .12483724 .07470703 .10888672 .057128908 C .09163412 .0382487 .07128906 .024088541 .047851564 .0146484379 C .024739584 .0048828127 .0087890629 0 0 0 L 0 .053710939 Z "/>
</symbol>
<symbol id="font_1_3">
<path d="M 0 0 Z "/>
</symbol>
<use xlink:href="#font_1_f" transform="matrix(14.369158,0,0,-14.369158,360.3712,145.40773)"/>
<use xlink:href="#font_1_3" transform="matrix(14.369158,0,0,-14.369158,363.5379,142.97312)"/>
<use xlink:href="#font_1_46" transform="matrix(14.369158,0,0,-14.369158,368.03065,143.23973)"/>
<symbol id="font_2_5c">
<path d="M .076171878 .11328125 L .09375 .11230469 C .107421878 .11165365 .12044271 .11214193 .1328125 .11376953 C .1451823 .11539713 .15559896 .119140628 .1640625 .125 C .17220052 .13053386 .1796875 .14208985 .18652344 .15966797 C .19368489 .1772461 .19661458 .18798828 .1953125 .19189453 L 0 .7475586 L .15478516 .7475586 L .2709961 .35498048 L .38085938 .7475586 L .5288086 .7475586 L .3461914 .2241211 C .31103517 .12320963 .28320313 .060709638 .2626953 .036621095 C .2421875 .012207031 .20117188 0 .13964844 0 C .12727864 0 .11735026 .00016276042 .10986328 .00048828127 C .102376308 .00048828127 .091145839 .0009765625 .076171878 .001953125 L .076171878 .11328125 M .26464845 .76171877 L .26464845 .76171877 Z "/>
</symbol>
<use xlink:href="#font_2_5c" transform="matrix(11.969508,0,0,-11.969508,375.64048,149.14284)"/>
<symbol id="font_1_c">
<path d="M .107421878 .93310549 C .15690105 .86409506 .1944987 .7996419 .22021485 .7397461 C .25830079 .65185549 .27734376 .5633138 .27734376 .4741211 C .27734376 .3761393 .25472007 .27652995 .20947266 .17529297 C .18408203 .118652347 .16015625 .07600912 .13769531 .04736328 L .103027347 0 L 0 0 C .04296875 .07747396 .072916667 .14095052 .08984375 .19042969 C .1188151 .27408854 .13330078 .36572267 .13330078 .46533204 C .13330078 .5291341 .12809246 .5880534 .11767578 .64208987 C .10172526 .7244466 .07324219 .80322268 .032226564 .87841799 L .0024414063 .93310549 L .107421878 .93310549 Z "/>
</symbol>
<use xlink:href="#font_1_c" transform="matrix(14.369158,0,0,-14.369158,382.3108,145.8708)"/>
<path transform="matrix(.7184579,0,0,.7184579,.35922895,.35922895)" d="M 261 14 L 311 14 L 311 334 L 261 334 Z " fill="#ffffff"/>
<path transform="matrix(.7184579,0,0,.7184579,.35922895,.35922895)" stroke-width="1" stroke-linecap="butt" stroke-miterlimit="4" stroke-linejoin="miter" fill="none" stroke="#ffffff" d="M 261 14 L 311 14 L 311 334 L 261 334 Z "/>
<path transform="matrix(.7184579,0,0,.7184579,.35922895,.35922895)" d="M 101 169 L 101 189 M 271 169 L 271 189 M 101 179 L 271 179 "/>
<path transform="matrix(.7184579,0,0,.7184579,.35922895,.35922895)" stroke-width="1" stroke-linecap="butt" stroke-miterlimit="10" stroke-linejoin="miter" fill="none" stroke="#000000" d="M 101 169 L 101 189 M 271 169 L 271 189 M 101 179 L 271 179 "/>
<path transform="matrix(.7184579,0,0,.7184579,.35922895,.35922895)" d="M 651 8 L 671 8 L 671 344 L 651 344 Z " fill="#ffffff"/>
<path transform="matrix(.7184579,0,0,.7184579,.35922895,.35922895)" stroke-width="1" stroke-linecap="butt" stroke-miterlimit="4" stroke-linejoin="miter" fill="none" stroke="#ffffff" d="M 651 8 L 671 8 L 671 344 L 651 344 Z "/>
<path transform="matrix(.00000000000000004399286,-.7184579,.7184579,.00000000000000004399286,66.45735,603.86386)" stroke-width="1" stroke-linecap="butt" stroke-miterlimit="10" stroke-linejoin="miter" fill="none" stroke="#000000" d="M 476 179 L 471 179 C 467.66667 179 466 182.33333 466 189 L 466 364 C 466 370.66667 464.33335 374 461 374 L 458.5 374 C 456.83335 374 457.66667 374 461 374 L 463.5 374 C 465.16667 374 466 377.33335 466 384 L 466 559 C 466 565.6667 467.66667 569 471 569 L 476 569 "/>
<path transform="matrix(.7184579,0,0,.7184579,.35922895,.35922895)" stroke-width="1" stroke-linecap="butt" stroke-miterlimit="10" stroke-linejoin="miter" fill="none" stroke="#000000" d="M 61 4 L 56 4 C 52.666669 4 51 7.333333 51 14 L 51 164 C 51 170.66667 49.333333 174 46 174 L 43.5 174 C 41.833333 174 42.666669 174 46 174 L 48.5 174 C 50.166669 174 51 177.33333 51 184 L 51 334 C 51 340.66667 52.666669 344 56 344 L 61 344 "/>
<symbol id="font_1_16">
<path d="M .13671875 .23486328 C .13671875 .20654297 .14127605 .18310547 .15039063 .16455078 C .1673177 .1303711 .19807942 .11328125 .24267578 .11328125 C .27001954 .11328125 .29378257 .122558597 .31396485 .14111328 C .33447267 .15999349 .34472657 .18701172 .34472657 .22216797 C .34472657 .26871745 .32584635 .2998047 .28808595 .3154297 C .26660157 .32421876 .23274739 .32861329 .18652344 .32861329 L .18652344 .42822267 C .23177083 .4288737 .26334635 .43326823 .28125 .44140626 C .31217448 .45507813 .32763673 .4827474 .32763673 .52441409 C .32763673 .5514323 .31966148 .57340499 .30371095 .59033206 C .28808595 .6072591 .26595054 .61572268 .23730469 .61572268 C .20442708 .61572268 .18017578 .60530599 .16455078 .58447268 C .1492513 .56363937 .14192708 .5358073 .14257813 .50097659 L .0126953129 .50097659 C .0139973959 .5361328 .020019532 .5694987 .030761719 .6010742 C .04215495 .62874349 .060058595 .6542969 .084472659 .6777344 C .10270182 .69433596 .12434896 .70703127 .14941406 .7158203 C .17447917 .7246094 .20524089 .7290039 .24169922 .7290039 C .30940757 .7290039 .36393229 .7114258 .40527345 .67626956 C .4469401 .6414388 .46777345 .5945638 .46777345 .53564456 C .46777345 .49397788 .45540367 .45882163 .43066407 .43017579 C .41503907 .41227214 .39876304 .4000651 .38183595 .3935547 C .39453126 .3935547 .4127604 .38264976 .43652345 .36083985 C .47200523 .32796226 .4897461 .28304038 .4897461 .22607422 C .4897461 .16617839 .46891276 .11344401 .4272461 .067871097 C .38590495 .022623698 .32454429 0 .24316406 0 C .14290364 0 .07324219 .032714845 .034179689 .09814453 C .013671875 .13297527 .0022786458 .17854817 0 .23486328 L .13671875 .23486328 Z "/>
</symbol>
<symbol id="font_1_15">
<path d="M 0 0 C .0013020834 .05078125 .012207031 .09716797 .032714845 .13916016 C .052571615 .18636067 .09944662 .23632813 .17333985 .2890625 C .23746746 .33496095 .27897135 .36783854 .29785157 .3876953 C .3268229 .41861979 .3413086 .45247398 .3413086 .4892578 C .3413086 .51920577 .3330078 .5441081 .31640626 .56396487 C .2998047 .5838216 .27604167 .59375 .24511719 .59375 C .20279949 .59375 .17399089 .5779622 .1586914 .5463867 C .14990235 .52815756 .14469402 .4991862 .1430664 .45947267 L .0078125 .45947267 C .0100911459 .51969406 .020996094 .5683594 .040527345 .60546877 C .07763672 .67610678 .14355469 .7114258 .23828125 .7114258 C .31315104 .7114258 .37272135 .69059249 .4169922 .6489258 C .46126304 .60758468 .48339845 .5527344 .48339845 .484375 C .48339845 .43196617 .46777345 .38541667 .43652345 .34472657 C .41601563 .31770835 .38232423 .28759767 .33544923 .25439454 L .27978517 .21484375 C .24495442 .19010417 .22102864 .17220052 .20800781 .16113281 C .1953125 .15006511 .18457031 .13720703 .17578125 .122558597 L .48486329 .122558597 L .48486329 0 L 0 0 Z "/>
</symbol>
<use xlink:href="#font_1_16" transform="matrix(14.369158,0,0,-14.369158,327.1874,291.9465)"/>
<use xlink:href="#font_1_15" transform="matrix(14.369158,0,0,-14.369158,335.2468,291.6939)"/>
<symbol id="font_1_13">
<path d="M .14208985 .3647461 C .14208985 .28336589 .14876302 .22102864 .16210938 .17773438 C .17545574 .13476563 .20279949 .11328125 .24414063 .11328125 C .28548179 .11328125 .3125 .13476563 .3251953 .17773438 C .33821617 .22102864 .34472657 .28336589 .34472657 .3647461 C .34472657 .45003257 .33821617 .5131836 .3251953 .5541992 C .3125 .59521487 .28548179 .61572268 .24414063 .61572268 C .20279949 .61572268 .17545574 .59521487 .16210938 .5541992 C .14876302 .5131836 .14208985 .45003257 .14208985 .3647461 M .24414063 .73046877 C .3343099 .73046877 .39746095 .69873049 .43359376 .6352539 C .4700521 .57177737 .48828126 .48160807 .48828126 .3647461 C .48828126 .24788411 .4700521 .15787761 .43359376 .09472656 C .39746095 .03157552 .3343099 0 .24414063 0 C .15397136 0 .090657558 .03157552 .05419922 .09472656 C .018066407 .15787761 0 .24788411 0 .3647461 C 0 .48160807 .018066407 .57177737 .05419922 .6352539 C .090657558 .69873049 .15397136 .73046877 .24414063 .73046877 Z "/>
</symbol>
<use xlink:href="#font_1_16" transform="matrix(14.369158,0,0,-14.369158,11.065935,130.29346)"/>
<use xlink:href="#font_1_13" transform="matrix(14.369158,0,0,-14.369158,19.125349,130.29346)"/>
</g>
</g>
</svg>
