<?xml version="1.0" encoding="UTF-8" standalone="no"?>
<!DOCTYPE svg PUBLIC "-//W3C//DTD SVG 1.1//EN" "http://www.w3.org/Graphics/SVG/1.1/DTD/svg11.dtd">
<svg xmlns="http://www.w3.org/2000/svg" xmlns:xlink="http://www.w3.org/1999/xlink" version="1.1" width="648.95999pt" height="289.91999pt" viewBox="0 0 648.95999 289.91999">
<g enable-background="new">
<clipPath id="cp0">
<path transform="matrix(.24,0,0,.24,0,0)" d="M 0 0 L 2704.1666 0 L 2704.1666 1203.8482 L 0 1203.8482 Z " fill-rule="evenodd"/>
</clipPath>
<g clip-path="url(#cp0)">
<path transform="matrix(.7187153,0,0,.7187153,.35935766,.35935766)" d="M 1 271 L 251 271 L 251 321 L 1 321 Z " fill="#e1d5e7"/>
<path transform="matrix(.7187153,0,0,.7187153,.35935766,.35935766)" stroke-width="1" stroke-linecap="butt" stroke-miterlimit="4" stroke-linejoin="miter" fill="none" stroke="#9673a6" d="M 1 271 L 251 271 L 251 321 L 1 321 Z "/>
<path transform="matrix(.7187153,0,0,.7187153,.35935766,.35935766)" d="M 11 281 L 31 281 L 31 311 L 11 311 Z " fill="#f5f5f5"/>
<path transform="matrix(.7187153,0,0,.7187153,.35935766,.35935766)" stroke-width="1" stroke-linecap="butt" stroke-miterlimit="4" stroke-linejoin="miter" fill="none" stroke="#666666" d="M 11 281 L 31 281 L 31 311 L 11 311 Z "/>
<path transform="matrix(.7187153,0,0,.7187153,.35935766,.35935766)" d="M 41 281 L 61 281 L 61 311 L 41 311 Z " fill="#f5f5f5"/>
<path transform="matrix(.7187153,0,0,.7187153,.35935766,.35935766)" stroke-width="1" stroke-linecap="butt" stroke-miterlimit="4" stroke-linejoin="miter" fill="none" stroke="#666666" d="M 41 281 L 61 281 L 61 311 L 41 311 Z "/>
<path transform="matrix(.7187153,0,0,.7187153,.35935766,.35935766)" d="M 71 281 L 91 281 L 91 311 L 71 311 Z " fill="#f5f5f5"/>
<path transform="matrix(.7187153,0,0,.7187153,.35935766,.35935766)" stroke-width="1" stroke-linecap="butt" stroke-miterlimit="4" stroke-linejoin="miter" fill="none" stroke="#666666" d="M 71 281 L 91 281 L 91 311 L 71 311 Z "/>
<path transform="matrix(.7187153,0,0,.7187153,.35935766,.35935766)" d="M 221 281 L 241 281 L 241 311 L 221 311 Z " fill="#f5f5f5"/>
<path transform="matrix(.7187153,0,0,.7187153,.35935766,.35935766)" stroke-width="1" stroke-linecap="butt" stroke-miterlimit="4" stroke-linejoin="miter" fill="none" stroke="#666666" d="M 221 281 L 241 281 L 241 311 L 221 311 Z "/>
<path transform="matrix(.7187153,0,0,.7187153,.35935766,.35935766)" d="M 101 281 L 121 281 L 121 311 L 101 311 Z " fill="#f5f5f5"/>
<path transform="matrix(.7187153,0,0,.7187153,.35935766,.35935766)" stroke-width="1" stroke-linecap="butt" stroke-miterlimit="4" stroke-linejoin="miter" fill="none" stroke="#666666" d="M 101 281 L 121 281 L 121 311 L 101 311 Z "/>
<path transform="matrix(.7187153,0,0,.7187153,.35935766,.35935766)" d="M 141.01476 293.91007 L 144.0146 293.93959 L 143.98509 296.93946 L 140.98525 296.90995 M 147.01447 293.96907 L 150.01433 293.99858 L 149.98482 296.99845 L 146.98496 296.96894 M 153.01418 294.02806 L 156.01403 294.05757 L 155.98451 297.05744 L 152.98467 297.02793 M 159.01389 294.08708 L 162.01375 294.11656 L 161.98424 297.11643 L 158.98438 297.08695 M 165.0136 294.14607 L 168.01345 294.17555 L 167.98394 297.1754 L 164.98409 297.14595 M 171.0133 294.20506 L 174.01317 294.23457 L 173.98366 297.23445 L 170.9838 297.20494 M 177.01302 294.26405 L 180.01287 294.29356 L 179.98336 297.29344 L 176.9835 297.26393 M 183.01273 294.32304 L 186.01259 294.35255 L 185.98308 297.35243 L 182.98322 297.3229 M 189.01244 294.38206 L 192.01229 294.41154 L 191.98278 297.4114 L 188.98293 297.38194 M 195.01215 294.44105 L 198.01201 294.47053 L 197.9825 297.4704 L 194.98264 297.44093 M 201.01186 294.50004 L 201.01476 294.50007 L 200.98525 297.49995 L 200.98235 297.4999 "/>
<path transform="matrix(.7187153,0,0,.7187153,.35935766,.35935766)" d="M 1 181 L 361 181 L 361 231 L 1 231 Z " fill="#f8cecc"/>
<path transform="matrix(.7187153,0,0,.7187153,.35935766,.35935766)" stroke-width="1" stroke-linecap="butt" stroke-miterlimit="4" stroke-linejoin="miter" fill="none" stroke="#b85450" d="M 1 181 L 361 181 L 361 231 L 1 231 Z "/>
<path transform="matrix(.7187153,0,0,.7187153,.35935766,.35935766)" d="M 11 191 L 31 191 L 31 221 L 11 221 Z " fill="#e1d5e7"/>
<path transform="matrix(.7187153,0,0,.7187153,.35935766,.35935766)" stroke-width="1" stroke-linecap="butt" stroke-miterlimit="4" stroke-linejoin="miter" fill="none" stroke="#9673a6" d="M 11 191 L 31 191 L 31 221 L 11 221 Z "/>
<path transform="matrix(.7187153,0,0,.7187153,.35935766,.35935766)" d="M 41 191 L 61 191 L 61 221 L 41 221 Z " fill="#e1d5e7"/>
<path transform="matrix(.7187153,0,0,.7187153,.35935766,.35935766)" stroke-width="1" stroke-linecap="butt" stroke-miterlimit="4" stroke-linejoin="miter" fill="none" stroke="#9673a6" d="M 41 191 L 61 191 L 61 221 L 41 221 Z "/>
<path transform="matrix(.7187153,0,0,.7187153,.35935766,.35935766)" d="M 71 191 L 91 191 L 91 221 L 71 221 Z " fill="#e1d5e7"/>
<path transform="matrix(.7187153,0,0,.7187153,.35935766,.35935766)" stroke-width="1" stroke-linecap="butt" stroke-miterlimit="4" stroke-linejoin="miter" fill="none" stroke="#9673a6" d="M 71 191 L 91 191 L 91 221 L 71 221 Z "/>
<path transform="matrix(.7187153,0,0,.7187153,.35935766,.35935766)" d="M 101 191 L 121 191 L 121 221 L 101 221 Z " fill="#e1d5e7"/>
<path transform="matrix(.7187153,0,0,.7187153,.35935766,.35935766)" stroke-width="1" stroke-linecap="butt" stroke-miterlimit="4" stroke-linejoin="miter" fill="none" stroke="#9673a6" d="M 101 191 L 121 191 L 121 221 L 101 221 Z "/>
<path transform="matrix(.7187153,0,0,.7187153,.35935766,.35935766)" d="M 131 191 L 151 191 L 151 221 L 131 221 Z " fill="#e1d5e7"/>
<path transform="matrix(.7187153,0,0,.7187153,.35935766,.35935766)" stroke-width="1" stroke-linecap="butt" stroke-miterlimit="4" stroke-linejoin="miter" fill="none" stroke="#9673a6" d="M 131 191 L 151 191 L 151 221 L 131 221 Z "/>
<path transform="matrix(.7187153,0,0,.7187153,.35935766,.35935766)" d="M 161 191 L 181 191 L 181 221 L 161 221 Z " fill="#e1d5e7"/>
<path transform="matrix(.7187153,0,0,.7187153,.35935766,.35935766)" stroke-width="1" stroke-linecap="butt" stroke-miterlimit="4" stroke-linejoin="miter" fill="none" stroke="#9673a6" d="M 161 191 L 181 191 L 181 221 L 161 221 Z "/>
<path transform="matrix(.7187153,0,0,.7187153,.35935766,.35935766)" d="M 331 191 L 351 191 L 351 221 L 331 221 Z " fill="#e1d5e7"/>
<path transform="matrix(.7187153,0,0,.7187153,.35935766,.35935766)" stroke-width="1" stroke-linecap="butt" stroke-miterlimit="4" stroke-linejoin="miter" fill="none" stroke="#9673a6" d="M 331 191 L 351 191 L 351 221 L 331 221 Z "/>
<path transform="matrix(.7187153,0,0,.7187153,.35935766,.35935766)" d="M 301 191 L 321 191 L 321 221 L 301 221 Z " fill="#e1d5e7"/>
<path transform="matrix(.7187153,0,0,.7187153,.35935766,.35935766)" stroke-width="1" stroke-linecap="butt" stroke-miterlimit="4" stroke-linejoin="miter" fill="none" stroke="#9673a6" d="M 301 191 L 321 191 L 321 221 L 301 221 Z "/>
<path transform="matrix(.7187153,0,0,.7187153,.35935766,.35935766)" d="M 201.00983 203.91004 L 204.00977 203.9297 L 203.99011 206.92964 L 200.99018 206.90998 M 207.0097 203.94937 L 210.00963 203.96904 L 209.98998 206.96898 L 206.99005 206.94931 M 213.00957 203.9887 L 216.0095 204.00836 L 215.98986 207.0083 L 212.98992 206.98863 M 219.00945 204.02803 L 222.00937 204.0477 L 221.98972 207.04764 L 218.98979 207.02797 M 225.00931 204.06737 L 228.00925 204.08704 L 227.9896 207.08698 L 224.98966 207.0673 M 231.00919 204.10669 L 234.00913 204.12636 L 233.98947 207.1263 L 230.98954 207.10663 M 237.00905 204.14603 L 240.00899 204.1657 L 239.98934 207.16564 L 236.9894 207.14597 M 243.00893 204.18537 L 246.00885 204.20503 L 245.9892 207.20497 L 242.98928 207.1853 M 249.00879 204.22469 L 252.00873 204.24436 L 251.98908 207.2443 L 248.98914 207.22463 M 255.00867 204.26403 L 258.0086 204.28369 L 257.98896 207.28363 L 254.98902 207.26396 M 261.00856 204.30336 L 264.00849 204.32303 L 263.98884 207.32297 L 260.9889 207.3033 M 267.00843 204.34268 L 270.00834 204.36235 L 269.98869 207.36229 L 266.98878 207.34262 M 273.00828 204.38202 L 276.0082 204.40169 L 275.98857 207.40163 L 272.98863 207.38196 M 279.00816 204.42136 L 282.0081 204.44103 L 281.98844 207.44097 L 278.9885 207.4213 M 285.00804 204.46068 L 288.00798 204.48035 L 287.9883 207.48029 L 284.98838 207.46062 M 291.00788 204.50002 L 291.00984 204.50003 L 290.99018 207.49997 L 290.98823 207.49996 "/>
<path transform="matrix(.7187153,0,0,.7187153,.35935766,.35935766)" d="M 1 91 L 521 91 L 521 141 L 1 141 Z " fill="#dae8fc"/>
<path transform="matrix(.7187153,0,0,.7187153,.35935766,.35935766)" stroke-width="1" stroke-linecap="butt" stroke-miterlimit="4" stroke-linejoin="miter" fill="none" stroke="#6c8ebf" d="M 1 91 L 521 91 L 521 141 L 1 141 Z "/>
<path transform="matrix(.7187153,0,0,.7187153,.35935766,.35935766)" d="M 11 101 L 31 101 L 31 131 L 11 131 Z " fill="#f8cecc"/>
<path transform="matrix(.7187153,0,0,.7187153,.35935766,.35935766)" stroke-width="1" stroke-linecap="butt" stroke-miterlimit="4" stroke-linejoin="miter" fill="none" stroke="#b85450" d="M 11 101 L 31 101 L 31 131 L 11 131 Z "/>
<path transform="matrix(.7187153,0,0,.7187153,.35935766,.35935766)" d="M 41 101 L 61 101 L 61 131 L 41 131 Z " fill="#f8cecc"/>
<path transform="matrix(.7187153,0,0,.7187153,.35935766,.35935766)" stroke-width="1" stroke-linecap="butt" stroke-miterlimit="4" stroke-linejoin="miter" fill="none" stroke="#b85450" d="M 41 101 L 61 101 L 61 131 L 41 131 Z "/>
<path transform="matrix(.7187153,0,0,.7187153,.35935766,.35935766)" d="M 71 101 L 91 101 L 91 131 L 71 131 Z " fill="#f8cecc"/>
<path transform="matrix(.7187153,0,0,.7187153,.35935766,.35935766)" stroke-width="1" stroke-linecap="butt" stroke-miterlimit="4" stroke-linejoin="miter" fill="none" stroke="#b85450" d="M 71 101 L 91 101 L 91 131 L 71 131 Z "/>
<path transform="matrix(.7187153,0,0,.7187153,.35935766,.35935766)" d="M 101 101 L 121 101 L 121 131 L 101 131 Z " fill="#f8cecc"/>
<path transform="matrix(.7187153,0,0,.7187153,.35935766,.35935766)" stroke-width="1" stroke-linecap="butt" stroke-miterlimit="4" stroke-linejoin="miter" fill="none" stroke="#b85450" d="M 101 101 L 121 101 L 121 131 L 101 131 Z "/>
<path transform="matrix(.7187153,0,0,.7187153,.35935766,.35935766)" d="M 131 101 L 151 101 L 151 131 L 131 131 Z " fill="#f8cecc"/>
<path transform="matrix(.7187153,0,0,.7187153,.35935766,.35935766)" stroke-width="1" stroke-linecap="butt" stroke-miterlimit="4" stroke-linejoin="miter" fill="none" stroke="#b85450" d="M 131 101 L 151 101 L 151 131 L 131 131 Z "/>
<path transform="matrix(.7187153,0,0,.7187153,.35935766,.35935766)" d="M 161 101 L 181 101 L 181 131 L 161 131 Z " fill="#f8cecc"/>
<path transform="matrix(.7187153,0,0,.7187153,.35935766,.35935766)" stroke-width="1" stroke-linecap="butt" stroke-miterlimit="4" stroke-linejoin="miter" fill="none" stroke="#b85450" d="M 161 101 L 181 101 L 181 131 L 161 131 Z "/>
<path transform="matrix(.7187153,0,0,.7187153,.35935766,.35935766)" d="M 431 101 L 451 101 L 451 131 L 431 131 Z " fill="#f8cecc"/>
<path transform="matrix(.7187153,0,0,.7187153,.35935766,.35935766)" stroke-width="1" stroke-linecap="butt" stroke-miterlimit="4" stroke-linejoin="miter" fill="none" stroke="#b85450" d="M 431 101 L 451 101 L 451 131 L 431 131 Z "/>
<path transform="matrix(.7187153,0,0,.7187153,.35935766,.35935766)" d="M 461 101 L 481 101 L 481 131 L 461 131 Z " fill="#f8cecc"/>
<path transform="matrix(.7187153,0,0,.7187153,.35935766,.35935766)" stroke-width="1" stroke-linecap="butt" stroke-miterlimit="4" stroke-linejoin="miter" fill="none" stroke="#b85450" d="M 461 101 L 481 101 L 481 131 L 461 131 Z "/>
<path transform="matrix(.7187153,0,0,.7187153,.35935766,.35935766)" d="M 491 101 L 511 101 L 511 131 L 491 131 Z " fill="#f8cecc"/>
<path transform="matrix(.7187153,0,0,.7187153,.35935766,.35935766)" stroke-width="1" stroke-linecap="butt" stroke-miterlimit="4" stroke-linejoin="miter" fill="none" stroke="#b85450" d="M 491 101 L 511 101 L 511 131 L 491 131 Z "/>
<path transform="matrix(.7187153,0,0,.7187153,.35935766,.35935766)" d="M 191 101 L 211 101 L 211 131 L 191 131 Z " fill="#f8cecc"/>
<path transform="matrix(.7187153,0,0,.7187153,.35935766,.35935766)" stroke-width="1" stroke-linecap="butt" stroke-miterlimit="4" stroke-linejoin="miter" fill="none" stroke="#b85450" d="M 191 101 L 211 101 L 211 131 L 191 131 Z "/>
<path transform="matrix(.7187153,0,0,.7187153,.35935766,.35935766)" d="M 221 101 L 241 101 L 241 131 L 221 131 Z " fill="#f8cecc"/>
<path transform="matrix(.7187153,0,0,.7187153,.35935766,.35935766)" stroke-width="1" stroke-linecap="butt" stroke-miterlimit="4" stroke-linejoin="miter" fill="none" stroke="#b85450" d="M 221 101 L 241 101 L 241 131 L 221 131 Z "/>
<path transform="matrix(.7187153,0,0,.7187153,.35935766,.35935766)" d="M 401 101 L 421 101 L 421 131 L 401 131 Z " fill="#f8cecc"/>
<path transform="matrix(.7187153,0,0,.7187153,.35935766,.35935766)" stroke-width="1" stroke-linecap="butt" stroke-miterlimit="4" stroke-linejoin="miter" fill="none" stroke="#b85450" d="M 401 101 L 421 101 L 421 131 L 401 131 Z "/>
<path transform="matrix(.7187153,0,0,.7187153,.35935766,.35935766)" d="M 266 114 L 269 114 L 269 117 L 266 117 M 272 114 L 275 114 L 275 117 L 272 117 M 278 114 L 281 114 L 281 117 L 278 117 M 284 114 L 287 114 L 287 117 L 284 117 M 290 114 L 293 114 L 293 117 L 290 117 M 296 114 L 299 114 L 299 117 L 296 117 M 302 114 L 305 114 L 305 117 L 302 117 M 308 114 L 311 114 L 311 117 L 308 117 M 314 114 L 317 114 L 317 117 L 314 117 M 320 114 L 323 114 L 323 117 L 320 117 M 326 114 L 329 114 L 329 117 L 326 117 M 332 114 L 335 114 L 335 117 L 332 117 M 338 114 L 341 114 L 341 117 L 338 117 M 344 114 L 347 114 L 347 117 L 344 117 M 350 114 L 353 114 L 353 117 L 350 117 M 356 114 L 359 114 L 359 117 L 356 117 M 362 114 L 365 114 L 365 117 L 362 117 M 368 114 L 371 114 L 371 117 L 368 117 M 374 114 L 377 114 L 377 117 L 374 117 M 380 114 L 381 114 L 381 117 L 380 117 "/>
<path transform="matrix(.7187153,0,0,.7187153,.35935766,.35935766)" d="M 1 1 L 771 1 L 771 51 L 1 51 Z " fill="#d5e8d4"/>
<path transform="matrix(.7187153,0,0,.7187153,.35935766,.35935766)" stroke-width="1" stroke-linecap="butt" stroke-miterlimit="4" stroke-linejoin="miter" fill="none" stroke="#82b366" d="M 1 1 L 771 1 L 771 51 L 1 51 Z "/>
<path transform="matrix(.7187153,0,0,.7187153,.35935766,.35935766)" d="M 11 11 L 31 11 L 31 41 L 11 41 Z " fill="#dae8fc"/>
<path transform="matrix(.7187153,0,0,.7187153,.35935766,.35935766)" stroke-width="1" stroke-linecap="butt" stroke-miterlimit="4" stroke-linejoin="miter" fill="none" stroke="#6c8ebf" d="M 11 11 L 31 11 L 31 41 L 11 41 Z "/>
<path transform="matrix(.7187153,0,0,.7187153,.35935766,.35935766)" d="M 41 11 L 61 11 L 61 41 L 41 41 Z " fill="#dae8fc"/>
<path transform="matrix(.7187153,0,0,.7187153,.35935766,.35935766)" stroke-width="1" stroke-linecap="butt" stroke-miterlimit="4" stroke-linejoin="miter" fill="none" stroke="#6c8ebf" d="M 41 11 L 61 11 L 61 41 L 41 41 Z "/>
<path transform="matrix(.7187153,0,0,.7187153,.35935766,.35935766)" d="M 71 11 L 91 11 L 91 41 L 71 41 Z " fill="#dae8fc"/>
<path transform="matrix(.7187153,0,0,.7187153,.35935766,.35935766)" stroke-width="1" stroke-linecap="butt" stroke-miterlimit="4" stroke-linejoin="miter" fill="none" stroke="#6c8ebf" d="M 71 11 L 91 11 L 91 41 L 71 41 Z "/>
<path transform="matrix(.7187153,0,0,.7187153,.35935766,.35935766)" d="M 101 11 L 121 11 L 121 41 L 101 41 Z " fill="#dae8fc"/>
<path transform="matrix(.7187153,0,0,.7187153,.35935766,.35935766)" stroke-width="1" stroke-linecap="butt" stroke-miterlimit="4" stroke-linejoin="miter" fill="none" stroke="#6c8ebf" d="M 101 11 L 121 11 L 121 41 L 101 41 Z "/>
<path transform="matrix(.7187153,0,0,.7187153,.35935766,.35935766)" d="M 131 11 L 151 11 L 151 41 L 131 41 Z " fill="#dae8fc"/>
<path transform="matrix(.7187153,0,0,.7187153,.35935766,.35935766)" stroke-width="1" stroke-linecap="butt" stroke-miterlimit="4" stroke-linejoin="miter" fill="none" stroke="#6c8ebf" d="M 131 11 L 151 11 L 151 41 L 131 41 Z "/>
<path transform="matrix(.7187153,0,0,.7187153,.35935766,.35935766)" d="M 161 11 L 181 11 L 181 41 L 161 41 Z " fill="#dae8fc"/>
<path transform="matrix(.7187153,0,0,.7187153,.35935766,.35935766)" stroke-width="1" stroke-linecap="butt" stroke-miterlimit="4" stroke-linejoin="miter" fill="none" stroke="#6c8ebf" d="M 161 11 L 181 11 L 181 41 L 161 41 Z "/>
<path transform="matrix(.7187153,0,0,.7187153,.35935766,.35935766)" d="M 191 11 L 211 11 L 211 41 L 191 41 Z " fill="#dae8fc"/>
<path transform="matrix(.7187153,0,0,.7187153,.35935766,.35935766)" stroke-width="1" stroke-linecap="butt" stroke-miterlimit="4" stroke-linejoin="miter" fill="none" stroke="#6c8ebf" d="M 191 11 L 211 11 L 211 41 L 191 41 Z "/>
<path transform="matrix(.7187153,0,0,.7187153,.35935766,.35935766)" d="M 221 11 L 241 11 L 241 41 L 221 41 Z " fill="#dae8fc"/>
<path transform="matrix(.7187153,0,0,.7187153,.35935766,.35935766)" stroke-width="1" stroke-linecap="butt" stroke-miterlimit="4" stroke-linejoin="miter" fill="none" stroke="#6c8ebf" d="M 221 11 L 241 11 L 241 41 L 221 41 Z "/>
<path transform="matrix(.7187153,0,0,.7187153,.35935766,.35935766)" d="M 251 11 L 271 11 L 271 41 L 251 41 Z " fill="#dae8fc"/>
<path transform="matrix(.7187153,0,0,.7187153,.35935766,.35935766)" stroke-width="1" stroke-linecap="butt" stroke-miterlimit="4" stroke-linejoin="miter" fill="none" stroke="#6c8ebf" d="M 251 11 L 271 11 L 271 41 L 251 41 Z "/>
<path transform="matrix(.7187153,0,0,.7187153,.35935766,.35935766)" d="M 281 11 L 301 11 L 301 41 L 281 41 Z " fill="#dae8fc"/>
<path transform="matrix(.7187153,0,0,.7187153,.35935766,.35935766)" stroke-width="1" stroke-linecap="butt" stroke-miterlimit="4" stroke-linejoin="miter" fill="none" stroke="#6c8ebf" d="M 281 11 L 301 11 L 301 41 L 281 41 Z "/>
<path transform="matrix(.7187153,0,0,.7187153,.35935766,.35935766)" d="M 311 11 L 331 11 L 331 41 L 311 41 Z " fill="#dae8fc"/>
<path transform="matrix(.7187153,0,0,.7187153,.35935766,.35935766)" stroke-width="1" stroke-linecap="butt" stroke-miterlimit="4" stroke-linejoin="miter" fill="none" stroke="#6c8ebf" d="M 311 11 L 331 11 L 331 41 L 311 41 Z "/>
<path transform="matrix(.7187153,0,0,.7187153,.35935766,.35935766)" d="M 341 11 L 361 11 L 361 41 L 341 41 Z " fill="#dae8fc"/>
<path transform="matrix(.7187153,0,0,.7187153,.35935766,.35935766)" stroke-width="1" stroke-linecap="butt" stroke-miterlimit="4" stroke-linejoin="miter" fill="none" stroke="#6c8ebf" d="M 341 11 L 361 11 L 361 41 L 341 41 Z "/>
<path transform="matrix(.7187153,0,0,.7187153,.35935766,.35935766)" d="M 591 11 L 611 11 L 611 41 L 591 41 Z " fill="#dae8fc"/>
<path transform="matrix(.7187153,0,0,.7187153,.35935766,.35935766)" stroke-width="1" stroke-linecap="butt" stroke-miterlimit="4" stroke-linejoin="miter" fill="none" stroke="#6c8ebf" d="M 591 11 L 611 11 L 611 41 L 591 41 Z "/>
<path transform="matrix(.7187153,0,0,.7187153,.35935766,.35935766)" d="M 621 11 L 641 11 L 641 41 L 621 41 Z " fill="#dae8fc"/>
<path transform="matrix(.7187153,0,0,.7187153,.35935766,.35935766)" stroke-width="1" stroke-linecap="butt" stroke-miterlimit="4" stroke-linejoin="miter" fill="none" stroke="#6c8ebf" d="M 621 11 L 641 11 L 641 41 L 621 41 Z "/>
<path transform="matrix(.7187153,0,0,.7187153,.35935766,.35935766)" d="M 651 11 L 671 11 L 671 41 L 651 41 Z " fill="#dae8fc"/>
<path transform="matrix(.7187153,0,0,.7187153,.35935766,.35935766)" stroke-width="1" stroke-linecap="butt" stroke-miterlimit="4" stroke-linejoin="miter" fill="none" stroke="#6c8ebf" d="M 651 11 L 671 11 L 671 41 L 651 41 Z "/>
<path transform="matrix(.7187153,0,0,.7187153,.35935766,.35935766)" d="M 681 11 L 701 11 L 701 41 L 681 41 Z " fill="#dae8fc"/>
<path transform="matrix(.7187153,0,0,.7187153,.35935766,.35935766)" stroke-width="1" stroke-linecap="butt" stroke-miterlimit="4" stroke-linejoin="miter" fill="none" stroke="#6c8ebf" d="M 681 11 L 701 11 L 701 41 L 681 41 Z "/>
<path transform="matrix(.7187153,0,0,.7187153,.35935766,.35935766)" d="M 711 11 L 731 11 L 731 41 L 711 41 Z " fill="#dae8fc"/>
<path transform="matrix(.7187153,0,0,.7187153,.35935766,.35935766)" stroke-width="1" stroke-linecap="butt" stroke-miterlimit="4" stroke-linejoin="miter" fill="none" stroke="#6c8ebf" d="M 711 11 L 731 11 L 731 41 L 711 41 Z "/>
<path transform="matrix(.7187153,0,0,.7187153,.35935766,.35935766)" d="M 741 11 L 761 11 L 761 41 L 741 41 Z " fill="#dae8fc"/>
<path transform="matrix(.7187153,0,0,.7187153,.35935766,.35935766)" stroke-width="1" stroke-linecap="butt" stroke-miterlimit="4" stroke-linejoin="miter" fill="none" stroke="#6c8ebf" d="M 741 11 L 761 11 L 761 41 L 741 41 Z "/>
<path transform="matrix(.7187153,0,0,.7187153,.35935766,.35935766)" d="M 381 24.5 L 384 24.5 L 384 27.5 L 381 27.5 M 387 24.5 L 390 24.5 L 390 27.5 L 387 27.5 M 393 24.5 L 396 24.5 L 396 27.5 L 393 27.5 M 399 24.5 L 402 24.5 L 402 27.5 L 399 27.5 M 405 24.5 L 408 24.5 L 408 27.5 L 405 27.5 M 411 24.5 L 414 24.5 L 414 27.5 L 411 27.5 M 417 24.5 L 420 24.5 L 420 27.5 L 417 27.5 M 423 24.5 L 426 24.5 L 426 27.5 L 423 27.5 M 429 24.5 L 432 24.5 L 432 27.5 L 429 27.5 M 435 24.5 L 438 24.5 L 438 27.5 L 435 27.5 M 441 24.5 L 444 24.5 L 444 27.5 L 441 27.5 M 447 24.5 L 450 24.5 L 450 27.5 L 447 27.5 M 453 24.5 L 456 24.5 L 456 27.5 L 453 27.5 M 459 24.5 L 462 24.5 L 462 27.5 L 459 27.5 M 465 24.5 L 468 24.5 L 468 27.5 L 465 27.5 M 471 24.5 L 474 24.5 L 474 27.5 L 471 27.5 M 477 24.5 L 480 24.5 L 480 27.5 L 477 27.5 M 483 24.5 L 486 24.5 L 486 27.5 L 483 27.5 M 489 24.5 L 492 24.5 L 492 27.5 L 489 27.5 M 495 24.5 L 498 24.5 L 498 27.5 L 495 27.5 M 501 24.5 L 504 24.5 L 504 27.5 L 501 27.5 M 507 24.5 L 510 24.5 L 510 27.5 L 507 27.5 M 513 24.5 L 516 24.5 L 516 27.5 L 513 27.5 M 519 24.5 L 522 24.5 L 522 27.5 L 519 27.5 M 525 24.5 L 528 24.5 L 528 27.5 L 525 27.5 M 531 24.5 L 534 24.5 L 534 27.5 L 531 27.5 M 537 24.5 L 540 24.5 L 540 27.5 L 537 27.5 M 543 24.5 L 546 24.5 L 546 27.5 L 543 27.5 M 549 24.5 L 552 24.5 L 552 27.5 L 549 27.5 M 555 24.5 L 558 24.5 L 558 27.5 L 555 27.5 M 561 24.5 L 564 24.5 L 564 27.5 L 561 27.5 "/>
<path transform="matrix(.7187153,0,0,.7187153,0,0)" stroke-width="2" stroke-linecap="butt" stroke-miterlimit="10" stroke-linejoin="miter" fill="none" stroke="#000000" d="M 21 41 L 21 56 C 21 62.666669 24.333333 66 31 66 L 251 66 C 257.66667 66 261 68.793338 261 74.38 L 261 82.76 "/>
<path transform="matrix(.7187153,0,0,.7187153,0,0)" d="M 261 88.76 L 257 80.76 L 261 82.76 L 265 80.76 L 261 88.76 Z "/>
<path transform="matrix(.7187153,0,0,.7187153,0,0)" stroke-width="2" stroke-linecap="butt" stroke-miterlimit="10" stroke-linejoin="miter" fill="none" stroke="#000000" d="M 261 88.76 L 257 80.76 L 261 82.76 L 265 80.76 L 261 88.76 Z "/>
<path transform="matrix(.7187153,0,0,.7187153,0,0)" stroke-width="2" stroke-linecap="butt" stroke-miterlimit="10" stroke-linejoin="miter" fill="none" stroke="#000000" d="M 21 131 L 21 151 C 21 157.66667 24.333333 161 31 161 L 171 161 C 177.66667 161 181 162.96 181 166.88 L 181 172.76 "/>
<path transform="matrix(.7187153,0,0,.7187153,0,0)" d="M 181 178.76 L 177 170.76 L 181 172.76 L 185 170.76 L 181 178.76 Z "/>
<path transform="matrix(.7187153,0,0,.7187153,0,0)" stroke-width="2" stroke-linecap="butt" stroke-miterlimit="10" stroke-linejoin="miter" fill="none" stroke="#000000" d="M 181 178.76 L 177 170.76 L 181 172.76 L 185 170.76 L 181 178.76 Z "/>
<path transform="matrix(.7187153,0,0,.7187153,0,0)" stroke-width="2" stroke-linecap="butt" stroke-miterlimit="10" stroke-linejoin="miter" fill="none" stroke="#000000" d="M 21 221 L 21 241 C 21 247.66667 24.333333 251 31 251 L 116 251 C 122.666667 251 126 252.96 126 256.88 L 126 262.76 "/>
<path transform="matrix(.7187153,0,0,.7187153,0,0)" d="M 126 268.76 L 122 260.76 L 126 262.76 L 130 260.76 L 126 268.76 Z "/>
<path transform="matrix(.7187153,0,0,.7187153,0,0)" stroke-width="2" stroke-linecap="butt" stroke-miterlimit="10" stroke-linejoin="miter" fill="none" stroke="#000000" d="M 126 268.76 L 122 260.76 L 126 262.76 L 130 260.76 L 126 268.76 Z "/>
<path transform="matrix(.7187153,0,0,.7187153,0,0)" stroke-width="2" stroke-linecap="butt" stroke-miterlimit="10" stroke-linejoin="miter" fill="none" stroke="#000000" d="M 21 311 L 21 331 C 21 337.66667 24.333333 341 31 341 L 46 341 C 52.666669 341 56 342.96 56 346.88 L 56 352.76 "/>
<path transform="matrix(.7187153,0,0,.7187153,0,0)" d="M 56 358.76 L 52 350.76 L 56 352.76 L 60 350.76 L 56 358.76 Z "/>
<path transform="matrix(.7187153,0,0,.7187153,0,0)" stroke-width="2" stroke-linecap="butt" stroke-miterlimit="10" stroke-linejoin="miter" fill="none" stroke="#000000" d="M 56 358.76 L 52 350.76 L 56 352.76 L 60 350.76 L 56 358.76 Z "/>
<symbol id="font_1_37">
<path d="M .5830078 .71972659 L .5830078 .59228518 L .36767579 .59228518 L .36767579 0 L .2163086 0 L .2163086 .59228518 L 0 .59228518 L 0 .71972659 L .5830078 .71972659 Z "/>
</symbol>
<symbol id="font_1_55">
<path d="M .29052735 .5449219 C .2931315 .5449219 .2952474 .5447591 .296875 .5444336 C .29882813 .5444336 .30289714 .5442708 .30908204 .5439453 L .30908204 .4013672 C .30029298 .40234376 .29248048 .40299479 .28564454 .4033203 C .2788086 .40364585 .27327476 .4038086 .26904298 .4038086 C .21305339 .4038086 .17545574 .38557945 .15625 .3491211 C .14550781 .32861329 .14013672 .29703776 .14013672 .25439454 L .14013672 0 L 0 0 L 0 .53222659 L .1328125 .53222659 L .1328125 .43945313 C .15429688 .4749349 .17301433 .4991862 .18896485 .51220706 C .21500652 .5340169 .24886067 .5449219 .29052735 .5449219 Z "/>
</symbol>
<symbol id="font_1_44">
<path d="M .32958985 .27539063 C .32080079 .26985679 .31184898 .26529948 .30273438 .26171876 C .2939453 .25846354 .28173829 .2553711 .26611329 .2524414 L .23486328 .24658203 C .2055664 .2413737 .18457031 .23502605 .171875 .22753906 C .15039063 .21484375 .13964844 .19514974 .13964844 .16845703 C .13964844 .14469402 .14615886 .1274414 .15917969 .11669922 C .17252605 .106282558 .18863933 .10107422 .20751953 .10107422 C .23746746 .10107422 .26497398 .10986328 .29003907 .1274414 C .3154297 .14501953 .32861329 .17708333 .32958985 .22363281 L .32958985 .27539063 M .24511719 .34033204 C .27083335 .34358726 .28922526 .34765626 .30029298 .35253907 C .32014976 .3610026 .33007813 .3741862 .33007813 .39208985 C .33007813 .41389976 .32242839 .4288737 .3071289 .43701173 C .29215495 .44547526 .27001954 .44970704 .24072266 .44970704 C .20784505 .44970704 .18457031 .441569 .17089844 .42529298 C .16113281 .4132487 .15462239 .39697267 .15136719 .37646485 L .017089844 .37646485 C .020019532 .4230143 .033040365 .46126304 .056152345 .49121095 C .092936199 .53808596 .15608724 .56152346 .24560547 .56152346 C .3038737 .56152346 .3556315 .54996749 .4008789 .52685549 C .4461263 .50374349 .46875 .4601237 .46875 .3959961 L .46875 .15185547 C .46875 .13492839 .46907554 .11442057 .46972657 .09033203 C .47070313 .07210287 .47347007 .059733076 .47802735 .053222658 C .48258464 .04671224 .48942057 .041341146 .49853517 .037109376 L .49853517 .016601563 L .34716798 .016601563 C .3429362 .02734375 .3400065 .037434896 .3383789 .046875 C .3367513 .056315107 .33544923 .06705729 .33447267 .07910156 C .31526695 .05826823 .2931315 .040527345 .2680664 .025878907 C .23811849 .008626302 .20426433 0 .1665039 0 C .11832682 0 .07845052 .013671875 .046875 .041015626 C .015625 .0686849 0 .1077474 0 .15820313 C 0 .22363281 .025227866 .2709961 .075683597 .30029298 C .10335287 .3162435 .14404297 .32763673 .1977539 .33447267 L .24511719 .34033204 M .2524414 .5629883 L .2524414 .5629883 Z "/>
</symbol>
<symbol id="font_1_4c">
<path d="M .14111328 .5957031 L 0 .5957031 L 0 .7241211 L .14111328 .7241211 L .14111328 .5957031 M 0 .53222659 L .14111328 .53222659 L .14111328 0 L 0 0 L 0 .53222659 Z "/>
</symbol>
<symbol id="font_1_51">
<path d="M .2939453 .5449219 C .34895835 .5449219 .39388023 .5304362 .42871095 .50146487 C .4638672 .472819 .4814453 .42513023 .4814453 .35839845 L .4814453 0 L .3388672 0 L .3388672 .32373048 C .3388672 .35172526 .3351237 .37320964 .32763673 .3881836 C .31396485 .41552735 .2879232 .42919923 .24951172 .42919923 C .2023112 .42919923 .16992188 .4091797 .15234375 .36914063 C .14322917 .34798179 .13867188 .32096354 .13867188 .28808595 L .13867188 0 L 0 0 L 0 .53125 L .13427735 .53125 L .13427735 .45361329 C .15218099 .48095704 .16910808 .50065109 .1850586 .5126953 C .21370442 .5341797 .25 .5449219 .2939453 .5449219 M .24267578 .5463867 L .24267578 .5463867 Z "/>
</symbol>
<symbol id="font_1_4a">
<path d="M .26123048 .33203126 C .29378257 .33203126 .32128907 .34423829 .34375 .36865235 C .36621095 .39339195 .3774414 .4326172 .3774414 .48632813 C .3774414 .5367839 .36669923 .5751953 .34521485 .6015625 C .324056 .6279297 .2955729 .6411133 .25976563 .6411133 C .2109375 .6411133 .1772461 .61816409 .1586914 .5722656 C .14892578 .54785159 .14404297 .5177409 .14404297 .4819336 C .14404297 .45100913 .1492513 .4235026 .15966797 .39941407 C .17854817 .3544922 .21240235 .33203126 .26123048 .33203126 M .2265625 .7626953 C .25325523 .7626953 .27652995 .7586263 .29638673 .7504883 C .33024089 .7364909 .35758464 .7107747 .37841798 .67333987 L .37841798 .75 L .5136719 .75 L .5136719 .24511719 C .5136719 .1764323 .5021159 .12467448 .4790039 .08984375 C .43929038 .029947916 .3631185 0 .25048829 0 C .18245442 0 .12695313 .0133463549 .083984378 .040039064 C .041015626 .06673177 .017252604 .10660807 .0126953129 .15966797 L .1640625 .15966797 C .16796875 .14339192 .1743164 .13167317 .18310547 .12451172 C .19807942 .111816409 .2233073 .10546875 .25878907 .10546875 C .30891929 .10546875 .3424479 .12223307 .359375 .15576172 C .37044273 .1772461 .37597657 .2133789 .37597657 .26416017 L .37597657 .29833985 C .36263023 .27555339 .34830729 .25846354 .3330078 .24707031 C .30533854 .22591146 .2693685 .21533203 .22509766 .21533203 C .15673828 .21533203 .10205078 .23925781 .061035158 .28710938 C .020345053 .33528648 0 .40039063 0 .48242188 C 0 .56152346 .01969401 .6279297 .05908203 .6816406 C .098470058 .73567709 .15429688 .7626953 .2265625 .7626953 M .2709961 .76416018 L .2709961 .76416018 Z "/>
</symbol>
<use xlink:href="#font_1_37" transform="matrix(21.561459,0,0,-21.561459,562.8432,26.592467)"/>
<use xlink:href="#font_1_55" transform="matrix(21.561459,0,0,-21.561459,575.8559,26.592467)"/>
<use xlink:href="#font_1_44" transform="matrix(21.561459,0,0,-21.561459,583.4958,26.95042)"/>
<use xlink:href="#font_1_4c" transform="matrix(21.561459,0,0,-21.561459,596.3051,26.592467)"/>
<use xlink:href="#font_1_51" transform="matrix(21.561459,0,0,-21.561459,602.2782,26.592467)"/>
<use xlink:href="#font_1_4c" transform="matrix(21.561459,0,0,-21.561459,615.4733,26.592467)"/>
<use xlink:href="#font_1_51" transform="matrix(21.561459,0,0,-21.561459,621.44638,26.592467)"/>
<use xlink:href="#font_1_4a" transform="matrix(21.561459,0,0,-21.561459,633.894,31.28798)"/>
<symbol id="font_1_28">
<path d="M .52783206 .59228518 L .14697266 .59228518 L .14697266 .43945313 L .49658204 .43945313 L .49658204 .31445313 L .14697266 .31445313 L .14697266 .12939453 L .54541018 .12939453 L .54541018 0 L 0 0 L 0 .71972659 L .52783206 .71972659 L .52783206 .59228518 Z "/>
</symbol>
<symbol id="font_1_53">
<path d="M .37060548 .47558595 C .37060548 .51660159 .36116538 .55289718 .34228517 .58447268 C .32373048 .61604818 .29345704 .63183596 .25146485 .63183596 C .20100911 .63183596 .16634114 .60791018 .14746094 .5600586 C .13769531 .53466799 .1328125 .5024414 .1328125 .4633789 C .1328125 .40152995 .1492513 .3580729 .1821289 .3330078 C .20166016 .31835938 .22477214 .31103517 .25146485 .31103517 C .2902018 .31103517 .31966148 .32600913 .33984376 .35595704 C .36035157 .38590495 .37060548 .42578126 .37060548 .47558595 M .2915039 .75341799 C .35367839 .75341799 .40625 .73046877 .44921876 .6845703 C .49251304 .6386719 .51416018 .57128909 .51416018 .48242188 C .51416018 .38867188 .4930013 .31722007 .4506836 .2680664 C .4086914 .21891277 .3544922 .19433594 .28808595 .19433594 C .24576824 .19433594 .21061199 .20491536 .18261719 .22607422 C .1673177 .23779297 .15234375 .2548828 .13769531 .27734376 L .13769531 0 L 0 0 L 0 .7416992 L .13330078 .7416992 L .13330078 .66308596 C .14827474 .68619796 .16422527 .70442709 .18115235 .71777346 C .21207683 .74153646 .24886067 .75341799 .2915039 .75341799 Z "/>
</symbol>
<symbol id="font_1_56">
<path d="M .14111328 .18798828 C .14404297 .1632487 .15039063 .14567058 .16015625 .1352539 C .17740886 .11669922 .20930989 .107421878 .25585938 .107421878 C .28320313 .107421878 .30485026 .11149088 .32080079 .119628909 C .3370768 .12776692 .34521485 .13997396 .34521485 .15625 C .34521485 .171875 .33870445 .18375652 .3256836 .19189453 C .31266276 .20003255 .2643229 .21402996 .18066406 .23388672 C .12044271 .24886067 .07796224 .26757813 .053222658 .29003907 C .028483073 .31217448 .016113282 .34407554 .016113282 .3857422 C .016113282 .43489585 .03531901 .47705079 .07373047 .51220706 C .112467449 .5476888 .16682942 .5654297 .2368164 .5654297 C .30322267 .5654297 .35725913 .5520833 .39892579 .5253906 C .44091798 .49902345 .4650065 .45328776 .4711914 .3881836 L .33203126 .3881836 C .33007813 .40608726 .32503257 .4202474 .31689454 .43066407 C .30159507 .44954429 .27555339 .45898438 .23876953 .45898438 C .2084961 .45898438 .18684896 .4542643 .17382813 .44482423 C .16113281 .43538413 .15478516 .4243164 .15478516 .4116211 C .15478516 .39567057 .1616211 .3841146 .17529297 .37695313 C .18896485 .36946617 .23730469 .35660807 .3203125 .3383789 C .37565104 .32535807 .41715495 .30566407 .44482423 .27929688 C .47216798 .25260417 .48583985 .21923828 .48583985 .17919922 C .48583985 .12646485 .46614585 .083333339 .4267578 .049804689 C .3876953 .016601563 .32714845 0 .24511719 0 C .16145833 0 .099609378 .017578125 .059570314 .052734376 C .019856772 .08821615 0 .13330078 0 .18798828 L .14111328 .18798828 M .2475586 .5644531 L .2475586 .5644531 Z "/>
</symbol>
<symbol id="font_1_52">
<path d="M .27148438 .11669922 C .31217448 .11669922 .34342448 .13118489 .36523438 .16015625 C .38704429 .18912761 .39794923 .23030599 .39794923 .2836914 C .39794923 .3370768 .38704429 .37809245 .36523438 .40673829 C .34342448 .43570964 .31217448 .4501953 .27148438 .4501953 C .23079427 .4501953 .19938152 .43570964 .1772461 .40673829 C .1554362 .37809245 .14453125 .3370768 .14453125 .2836914 C .14453125 .23030599 .1554362 .18912761 .1772461 .16015625 C .19938152 .13118489 .23079427 .11669922 .27148438 .11669922 M .5439453 .2836914 C .5439453 .2055664 .5214844 .13867188 .4765625 .08300781 C .43164063 .027669272 .363444 0 .27197267 0 C .1805013 0 .11230469 .027669272 .06738281 .08300781 C .022460938 .13867188 0 .2055664 0 .2836914 C 0 .3605143 .022460938 .42708335 .06738281 .48339845 C .11230469 .53971359 .1805013 .5678711 .27197267 .5678711 C .363444 .5678711 .43164063 .53971359 .4765625 .48339845 C .5214844 .42708335 .5439453 .3605143 .5439453 .2836914 M .27197267 .5649414 L .27197267 .5649414 Z "/>
</symbol>
<symbol id="font_1_47">
<path d="M .23046875 .56152346 C .2626953 .56152346 .29134117 .554362 .31640626 .54003909 C .34147135 .5260417 .3618164 .50651046 .3774414 .4814453 L .3774414 .73535159 L .5185547 .73535159 L .5185547 .016601563 L .38330079 .016601563 L .38330079 .09033203 C .363444 .05875651 .3408203 .035807294 .3154297 .021484375 C .29003907 .0071614587 .25846354 0 .22070313 0 C .15852864 0 .10611979 .025065104 .06347656 .07519531 C .021158854 .12565105 0 .19026692 0 .26904298 C 0 .35986329 .020833334 .4313151 .0625 .48339845 C .10449219 .53548178 .16048177 .56152346 .23046875 .56152346 M .2607422 .1171875 C .30013023 .1171875 .33007813 .13183594 .35058595 .16113281 C .37109376 .19042969 .38134767 .22835286 .38134767 .27490235 C .38134767 .3400065 .36490885 .386556 .33203126 .41455079 C .31184898 .43147788 .28841148 .4399414 .26171876 .4399414 C .22102864 .4399414 .19108074 .42447917 .171875 .3935547 C .1529948 .36295573 .14355469 .32486979 .14355469 .27929688 C .14355469 .23014324 .15315755 .1907552 .17236328 .16113281 C .19189453 .13183594 .22135417 .1171875 .2607422 .1171875 Z "/>
</symbol>
<symbol id="font_1_48">
<path d="M .25195313 .44921876 C .21972656 .44921876 .19466146 .4391276 .17675781 .4189453 C .15917969 .39876304 .14811199 .37141929 .14355469 .33691407 L .35986329 .33691407 C .35758464 .3736979 .34635417 .40152995 .32617188 .42041017 C .3063151 .43961589 .28157554 .44921876 .25195313 .44921876 M .25195313 .56396487 C .29622398 .56396487 .33610026 .55566409 .37158204 .5390625 C .4070638 .52246096 .4363607 .4962565 .45947267 .46044923 C .480306 .4288737 .4938151 .3922526 .5 .35058595 C .50358077 .32617188 .5050456 .29101563 .50439456 .24511719 L .14013672 .24511719 C .14208985 .19173177 .15885417 .15429688 .19042969 .1328125 C .20963542 .11946615 .23274739 .11279297 .25976563 .11279297 C .28841148 .11279297 .3116862 .12093099 .32958985 .13720703 C .33935548 .1459961 .34798179 .15820313 .35546876 .17382813 L .4975586 .17382813 C .49397788 .14225261 .47753907 .110188808 .4482422 .07763672 C .40266929 .025878907 .3388672 0 .25683595 0 C .18912761 0 .12939453 .021809897 .07763672 .06542969 C .025878907 .10904948 0 .18001302 0 .2783203 C 0 .37044273 .02327474 .44108073 .06982422 .49023438 C .11669922 .539388 .17740886 .56396487 .25195313 .56396487 M .26171876 .56396487 L .26171876 .56396487 Z "/>
</symbol>
<use xlink:href="#font_1_28" transform="matrix(21.561459,0,0,-21.561459,380.97175,91.27685)"/>
<use xlink:href="#font_1_53" transform="matrix(21.561459,0,0,-21.561459,394.93214,95.79338)"/>
<use xlink:href="#font_1_4c" transform="matrix(21.561459,0,0,-21.561459,408.23255,91.27685)"/>
<use xlink:href="#font_1_56" transform="matrix(21.561459,0,0,-21.561459,413.47917,91.66639)"/>
<use xlink:href="#font_1_52" transform="matrix(21.561459,0,0,-21.561459,425.46733,91.67691)"/>
<use xlink:href="#font_1_47" transform="matrix(21.561459,0,0,-21.561459,438.6098,91.6348)"/>
<use xlink:href="#font_1_48" transform="matrix(21.561459,0,0,-21.561459,451.6154,91.65586)"/>
<symbol id="font_1_35">
<path d="M .14697266 .59472659 L .14697266 .4013672 L .3173828 .4013672 C .35123698 .4013672 .3766276 .40527345 .3935547 .41308595 C .4235026 .4267578 .43847657 .45377604 .43847657 .49414063 C .43847657 .53776046 .42399089 .5670573 .39501954 .58203127 C .3787435 .5904948 .35432945 .59472659 .32177735 .59472659 L .14697266 .59472659 M .35302735 .71972659 C .40348307 .71875 .44222007 .7125651 .46923829 .7011719 C .49658204 .6897786 .51969406 .67301437 .5385742 .6508789 C .5541992 .6326497 .56656906 .61246749 .5756836 .59033206 C .58479818 .5681966 .58935549 .54296877 .58935549 .51464846 C .58935549 .48046876 .5807292 .44677735 .56347659 .41357423 C .54622396 .38069663 .5177409 .35742188 .47802735 .34375 C .51123049 .33040367 .53466799 .3113607 .54833987 .2866211 C .5623372 .26220704 .56933596 .22477214 .56933596 .1743164 L .56933596 .12597656 C .56933596 .09309896 .570638 .07080078 .5732422 .05908203 C .57714846 .040527345 .586263 .026855469 .60058596 .018066407 L .60058596 0 L .4350586 0 C .4305013 .015950522 .4272461 .028808594 .42529298 .03857422 C .42138673 .05875651 .41927085 .079427089 .4189453 .10058594 L .41796876 .16748047 C .41731773 .2133789 .40885417 .24397786 .39257813 .25927735 C .3766276 .2745768 .34651695 .28222657 .3022461 .28222657 L .14697266 .28222657 L .14697266 0 L 0 0 L 0 .71972659 L .35302735 .71972659 Z "/>
</symbol>
<symbol id="font_1_4f">
<path d="M .13916016 0 L 0 0 L 0 .71972659 L .13916016 .71972659 L .13916016 0 Z "/>
</symbol>
<symbol id="font_1_3">
<path d="M 0 0 Z "/>
</symbol>
<symbol id="font_1_58">
<path d="M .14257813 .5439453 L .14257813 .22314453 C .14257813 .1928711 .14615886 .17008464 .15332031 .15478516 C .16601563 .12776692 .19091797 .11425781 .22802735 .11425781 C .27555339 .11425781 .30810548 .13346355 .3256836 .171875 C .3347982 .19270833 .33935548 .22021485 .33935548 .25439454 L .33935548 .5439453 L .48046876 .5439453 L .48046876 .01171875 L .34521485 .01171875 L .34521485 .08691406 C .34391276 .08528646 .34065757 .08040365 .33544923 .072265628 C .33024089 .0641276 .324056 .056966146 .31689454 .05078125 C .29508464 .03125 .27392579 .017903647 .25341798 .0107421879 C .23323567 .0035807293 .20947266 0 .1821289 0 C .10335287 0 .05029297 .028320313 .022949219 .08496094 C .0076497399 .11621094 0 .16227214 0 .22314453 L 0 .5439453 L .14257813 .5439453 M .24023438 .55810549 L .24023438 .55810549 Z "/>
</symbol>
<symbol id="font_1_57">
<path d="M 0 .43782554 L 0 .5369466 L .07421875 .5369466 L .07421875 .6853841 L .21191406 .6853841 L .21191406 .5369466 L .29833985 .5369466 L .29833985 .43782554 L .21191406 .43782554 L .21191406 .15657552 C .21191406 .13476563 .21468099 .12109375 .22021485 .1155599 C .2257487 .11035156 .24267578 .1077474 .2709961 .1077474 C .27522788 .1077474 .2796224 .1077474 .2841797 .1077474 C .2890625 .108072917 .29378257 .10839844 .29833985 .10872396 L .29833985 .004720052 L .23242188 .0022786456 C .16666667 -.00000000031044088 .12174479 .0113932299 .09765625 .036458333 C .08203125 .052408857 .07421875 .07698568 .07421875 .110188808 L .07421875 .43782554 L 0 .43782554 Z "/>
</symbol>
<use xlink:href="#font_1_35" transform="matrix(21.561459,0,0,-21.561459,274.95143,155.96123)"/>
<use xlink:href="#font_1_52" transform="matrix(21.561459,0,0,-21.561459,289.4976,156.3613)"/>
<use xlink:href="#font_1_4f" transform="matrix(21.561459,0,0,-21.561459,303.4402,155.96123)"/>
<use xlink:href="#font_1_4f" transform="matrix(21.561459,0,0,-21.561459,309.43428,155.96123)"/>
<use xlink:href="#font_1_3" transform="matrix(21.561459,0,0,-21.561459,313.96495,155.96123)"/>
<use xlink:href="#font_1_52" transform="matrix(21.561459,0,0,-21.561459,320.65388,156.3613)"/>
<use xlink:href="#font_1_58" transform="matrix(21.561459,0,0,-21.561459,334.44908,156.2139)"/>
<use xlink:href="#font_1_57" transform="matrix(21.561459,0,0,-21.561459,346.5282,156.16828)"/>
<symbol id="font_1_24">
<path d="M .2475586 .27197267 L .43017579 .27197267 L .34033204 .5551758 L .2475586 .27197267 M .25683595 .71972659 L .4267578 .71972659 L .6816406 0 L .5185547 0 L .47216798 .14794922 L .20703125 .14794922 L .15722656 0 L 0 0 L .25683595 .71972659 M .3408203 .71972659 L .3408203 .71972659 Z "/>
</symbol>
<symbol id="font_1_46">
<path d="M .34814454 .35986329 C .34554038 .37972007 .3388672 .3976237 .328125 .41357423 C .3125 .4350586 .2882487 .44580079 .2553711 .44580079 C .2084961 .44580079 .1764323 .42252604 .15917969 .37597657 C .15006511 .35123698 .14550781 .31835938 .14550781 .27734376 C .14550781 .23828125 .15006511 .20686849 .15917969 .18310547 C .17578125 .13883464 .20703125 .11669922 .2529297 .11669922 C .28548179 .11669922 .30859376 .12548828 .32226563 .1430664 C .3359375 .16064453 .34423829 .18343099 .34716798 .21142578 L .4892578 .21142578 C .4860026 .16910808 .47070313 .12906902 .44335938 .091308597 C .3997396 .030436198 .3351237 0 .24951172 0 C .16389974 0 .10091146 .025390625 .060546876 .076171878 C .020182291 .12695313 0 .1928711 0 .27392579 C 0 .36539714 .022298178 .43652345 .06689453 .4873047 C .11149088 .53808596 .17301433 .56347659 .25146485 .56347659 C .31819663 .56347659 .37272135 .5485026 .41503907 .5185547 C .45768229 .48860679 .48291017 .43570964 .49072267 .35986329 L .34814454 .35986329 M .25390626 .5649414 L .25390626 .5649414 Z "/>
</symbol>
<symbol id="font_1_10">
<path d="M 0 .13183594 L .28027345 .13183594 L .28027345 0 L 0 0 L 0 .13183594 Z "/>
</symbol>
<use xlink:href="#font_1_24" transform="matrix(21.561459,0,0,-21.561459,188.13216,220.6456)"/>
<use xlink:href="#font_1_46" transform="matrix(21.561459,0,0,-21.561459,203.89957,221.04567)"/>
<use xlink:href="#font_1_57" transform="matrix(21.561459,0,0,-21.561459,215.36133,220.85265)"/>
<use xlink:href="#font_1_4c" transform="matrix(21.561459,0,0,-21.561459,223.76253,220.6456)"/>
<use xlink:href="#font_1_52" transform="matrix(21.561459,0,0,-21.561459,229.00914,221.04567)"/>
<use xlink:href="#font_1_51" transform="matrix(21.561459,0,0,-21.561459,242.9096,220.6456)"/>
<use xlink:href="#font_1_10" transform="matrix(21.561459,0,0,-21.561459,255.15718,216.05538)"/>
<use xlink:href="#font_1_55" transform="matrix(21.561459,0,0,-21.561459,263.21098,220.6456)"/>
<use xlink:href="#font_1_48" transform="matrix(21.561459,0,0,-21.561459,270.72456,221.02462)"/>
<use xlink:href="#font_1_53" transform="matrix(21.561459,0,0,-21.561459,283.5339,225.16214)"/>
<use xlink:href="#font_1_48" transform="matrix(21.561459,0,0,-21.561459,295.88676,221.02462)"/>
<use xlink:href="#font_1_57" transform="matrix(21.561459,0,0,-21.561459,307.60124,220.85265)"/>
<use xlink:href="#font_1_4c" transform="matrix(21.561459,0,0,-21.561459,316.0024,220.6456)"/>
<use xlink:href="#font_1_57" transform="matrix(21.561459,0,0,-21.561459,320.77528,220.85265)"/>
<use xlink:href="#font_1_4c" transform="matrix(21.561459,0,0,-21.561459,329.17649,220.6456)"/>
<use xlink:href="#font_1_52" transform="matrix(21.561459,0,0,-21.561459,334.42308,221.04567)"/>
<use xlink:href="#font_1_51" transform="matrix(21.561459,0,0,-21.561459,348.32356,220.6456)"/>
<use xlink:href="#font_1_24" transform="matrix(21.561459,0,0,-21.561459,7.2629549,281.7364)"/>
<use xlink:href="#font_1_46" transform="matrix(21.561459,0,0,-21.561459,23.030364,282.13645)"/>
<use xlink:href="#font_1_57" transform="matrix(21.561459,0,0,-21.561459,34.492136,281.94346)"/>
<use xlink:href="#font_1_4c" transform="matrix(21.561459,0,0,-21.561459,42.893354,281.7364)"/>
<use xlink:href="#font_1_52" transform="matrix(21.561459,0,0,-21.561459,48.139947,282.13645)"/>
<use xlink:href="#font_1_51" transform="matrix(21.561459,0,0,-21.561459,62.040437,281.7364)"/>
</g>
</g>
</svg>
